<svg xmlns="http://www.w3.org/2000/svg" width="301" height="650" fill="none"><g clip-path="url(#a)"><rect width="300.215" height="649.742" fill="#FEFFFF" rx="21.755"/><path fill="#DBDBDB" fill-rule="evenodd" d="M101.522 629.075c0-1.002.812-1.813 1.813-1.813h93.545a1.812 1.812 0 1 1 0 3.626h-93.545a1.813 1.813 0 0 1-1.813-1.813Z" clip-rule="evenodd"/><path fill="#DFDFDF" d="M1.246 1.453H301.46v350.251H1.246z"/><circle cx="121.464" cy="376.721" r="6.889" fill="#D9D9D9"/><circle cx="149.745" cy="376.721" r="6.889" fill="#D9D9D9"/><circle cx="178.026" cy="376.721" r="6.889" fill="#737373"/><path fill="#737373" d="m88.448 425.715-1.93-10.402h2.408l.718 4.866c.064.542.133 1.09.207 1.643.075.543.144 1.09.208 1.643h.064c.106-.553.207-1.1.303-1.643.106-.553.212-1.101.319-1.643l1.117-4.866h1.994l1.117 4.866c.106.521.207 1.058.303 1.611l.319 1.675h.064c.074-.563.143-1.116.207-1.659.074-.553.149-1.095.223-1.627l.718-4.866h2.25l-1.851 10.402h-2.951l-1.021-4.722a49.452 49.452 0 0 1-.24-1.213 83.343 83.343 0 0 1-.175-1.196h-.064a98.65 98.65 0 0 1-.207 1.196c-.064.404-.139.808-.224 1.213l-.973 4.722h-2.903Zm15.402.191c-.755 0-1.436-.165-2.042-.494a3.618 3.618 0 0 1-1.436-1.42c-.351-.617-.526-1.361-.526-2.234 0-.861.175-1.6.526-2.217.362-.617.83-1.09 1.404-1.42a3.493 3.493 0 0 1 1.803-.511c.755 0 1.377.171 1.867.511.499.33.872.782 1.116 1.356.256.564.383 1.207.383 1.93a5.61 5.61 0 0 1-.096 1.037h-4.738c.107.575.346 1 .718 1.277.372.266.819.398 1.34.398.564 0 1.133-.175 1.707-.526l.782 1.42a5.194 5.194 0 0 1-1.356.654c-.5.16-.984.239-1.452.239Zm-1.755-5.009h2.856c0-.436-.106-.792-.319-1.069-.202-.287-.537-.431-1.005-.431-.362 0-.686.128-.973.383-.287.245-.474.617-.559 1.117Zm8.624 5.009c-.808 0-1.372-.239-1.691-.718-.308-.489-.462-1.132-.462-1.93v-8.727h2.345v8.823c0 .244.042.415.128.51.095.096.191.144.287.144h.127c.043-.011.096-.021.16-.032l.287 1.739a2.166 2.166 0 0 1-.495.127 3.17 3.17 0 0 1-.686.064Zm5.857 0a4.159 4.159 0 0 1-1.994-.478 3.678 3.678 0 0 1-1.404-1.42c-.34-.628-.51-1.377-.51-2.25 0-.882.191-1.632.574-2.249a3.767 3.767 0 0 1 1.516-1.404 4.287 4.287 0 0 1 2.026-.495c.489 0 .92.08 1.292.24.383.159.723.361 1.021.606l-1.101 1.516c-.372-.309-.728-.463-1.069-.463-.563 0-1.015.202-1.356.606-.329.404-.494.952-.494 1.643 0 .681.165 1.229.494 1.644.341.404.766.606 1.277.606.255 0 .505-.053.75-.16.244-.117.467-.255.67-.415l.925 1.532c-.394.34-.819.585-1.276.734a4.63 4.63 0 0 1-1.341.207Zm6.948 0c-.67 0-1.303-.159-1.899-.478a3.785 3.785 0 0 1-1.419-1.42c-.362-.628-.543-1.377-.543-2.25 0-.882.181-1.632.543-2.249a3.664 3.664 0 0 1 1.419-1.404 3.861 3.861 0 0 1 1.899-.495c.67 0 1.297.165 1.882.495a3.666 3.666 0 0 1 1.42 1.404c.362.617.543 1.367.543 2.249 0 .873-.181 1.622-.543 2.25a3.787 3.787 0 0 1-1.42 1.42 3.87 3.87 0 0 1-1.882.478Zm0-1.898c.478 0 .84-.202 1.085-.606.244-.415.367-.963.367-1.644 0-.691-.123-1.239-.367-1.643-.245-.404-.607-.606-1.085-.606-.489 0-.856.202-1.101.606-.234.404-.351.952-.351 1.643 0 .681.117 1.229.351 1.644.245.404.612.606 1.101.606Zm5.451 1.707v-7.913h1.914l.16 1.021h.064c.329-.33.68-.612 1.053-.846.372-.244.819-.367 1.34-.367.563 0 1.015.117 1.356.351.351.224.627.548.829.974.351-.362.724-.67 1.117-.926a2.393 2.393 0 0 1 1.372-.399c.851 0 1.473.288 1.867.862.404.564.606 1.34.606 2.329v4.914h-2.345v-4.611c0-.574-.08-.968-.24-1.18-.148-.213-.393-.319-.733-.319-.394 0-.846.255-1.356.765v5.345h-2.346v-4.611c0-.574-.079-.968-.239-1.18-.149-.213-.393-.319-.734-.319-.393 0-.84.255-1.34.765v5.345h-2.345Zm17.22.191c-.755 0-1.435-.165-2.042-.494a3.615 3.615 0 0 1-1.435-1.42c-.351-.617-.527-1.361-.527-2.234 0-.861.176-1.6.527-2.217a3.82 3.82 0 0 1 1.404-1.42 3.487 3.487 0 0 1 1.802-.511c.755 0 1.378.171 1.867.511.5.33.872.782 1.117 1.356.255.564.382 1.207.382 1.93 0 .202-.01.405-.031.607a4.667 4.667 0 0 1-.064.43h-4.738c.106.575.345 1 .717 1.277.373.266.819.398 1.341.398.563 0 1.132-.175 1.707-.526l.781 1.42a5.194 5.194 0 0 1-1.356.654c-.5.16-.984.239-1.452.239Zm-1.754-5.009h2.855c0-.436-.106-.792-.319-1.069-.202-.287-.537-.431-1.005-.431-.361 0-.686.128-.973.383-.287.245-.473.617-.558 1.117Zm12.711 5.009c-.979 0-1.681-.282-2.106-.845-.415-.564-.622-1.303-.622-2.218v-3.206h-1.085v-1.739l1.212-.096.272-2.106h1.946v2.106h1.898v1.835h-1.898v3.174c0 .447.09.771.271.973.192.192.442.288.75.288.128 0 .255-.016.383-.048.138-.032.261-.069.367-.112l.367 1.707a8.328 8.328 0 0 1-.75.192 4.727 4.727 0 0 1-1.005.095Zm6.178 0c-.67 0-1.303-.159-1.899-.478a3.794 3.794 0 0 1-1.42-1.42c-.361-.628-.542-1.377-.542-2.25 0-.882.181-1.632.542-2.249a3.673 3.673 0 0 1 1.42-1.404 3.861 3.861 0 0 1 1.899-.495c.67 0 1.297.165 1.882.495a3.673 3.673 0 0 1 1.42 1.404c.362.617.542 1.367.542 2.249 0 .873-.18 1.622-.542 2.25a3.794 3.794 0 0 1-1.42 1.42 3.87 3.87 0 0 1-1.882.478Zm0-1.898c.478 0 .84-.202 1.084-.606.245-.415.367-.963.367-1.644 0-.691-.122-1.239-.367-1.643-.244-.404-.606-.606-1.084-.606-.49 0-.857.202-1.101.606-.234.404-.351.952-.351 1.643 0 .681.117 1.229.351 1.644.244.404.611.606 1.101.606Zm8.836 1.707v-10.402h2.569l1.675 4.627c.106.297.207.611.303.941.095.33.197.654.303.973h.064c.106-.319.202-.643.287-.973.096-.33.197-.644.303-.941l1.643-4.627h2.553v10.402h-2.138v-3.813c0-.34.016-.718.048-1.133l.127-1.276c.054-.425.096-.803.128-1.133h-.064l-.845 2.473-1.484 3.972h-1.292l-1.484-3.972-.829-2.473h-.064a49.912 49.912 0 0 1 .239 2.409c.043.415.064.793.064 1.133v3.813h-2.106Zm13.955.191c-.723 0-1.298-.228-1.723-.686-.426-.468-.638-1.037-.638-1.707 0-.829.351-1.478 1.053-1.946.702-.468 1.834-.782 3.398-.941-.022-.351-.128-.628-.319-.83-.181-.213-.49-.319-.926-.319-.329 0-.664.064-1.005.191a7.27 7.27 0 0 0-1.085.527l-.845-1.548a7.825 7.825 0 0 1 1.595-.749 5.602 5.602 0 0 1 1.787-.288c1.01 0 1.787.293 2.329.878.543.585.814 1.484.814 2.696v4.531h-1.915l-.159-.814h-.064c-.33.298-.686.543-1.069.734a2.768 2.768 0 0 1-1.228.271Zm.797-1.818c.266 0 .495-.059.686-.176.203-.128.405-.292.607-.494v-1.388c-.83.106-1.404.276-1.723.51-.319.223-.479.489-.479.798 0 .255.08.446.239.574.171.117.394.176.67.176Zm5.622 1.627v-7.913h1.914l.16 1.388h.063c.288-.532.633-.925 1.037-1.181.404-.266.809-.399 1.213-.399.223 0 .409.016.558.048.149.022.277.059.383.112l-.383 2.026a2.765 2.765 0 0 0-.861-.128c-.298 0-.612.112-.942.335-.319.213-.585.585-.797 1.117v4.595h-2.345Zm9.646.191a4.156 4.156 0 0 1-1.994-.478 3.678 3.678 0 0 1-1.404-1.42c-.34-.628-.51-1.377-.51-2.25 0-.882.191-1.632.574-2.249a3.767 3.767 0 0 1 1.516-1.404 4.284 4.284 0 0 1 2.026-.495c.489 0 .92.08 1.292.24.383.159.723.361 1.021.606l-1.101 1.516c-.372-.309-.728-.463-1.069-.463-.564 0-1.016.202-1.356.606-.33.404-.494.952-.494 1.643 0 .681.164 1.229.494 1.644.34.404.766.606 1.276.606.256 0 .506-.053.75-.16.245-.117.468-.255.67-.415l.926 1.532c-.394.34-.819.585-1.277.734a4.624 4.624 0 0 1-1.34.207Zm6.948 0c-.67 0-1.303-.159-1.899-.478a3.794 3.794 0 0 1-1.42-1.42c-.361-.628-.542-1.377-.542-2.25 0-.882.181-1.632.542-2.249a3.673 3.673 0 0 1 1.42-1.404 3.861 3.861 0 0 1 1.899-.495c.67 0 1.297.165 1.882.495a3.673 3.673 0 0 1 1.42 1.404c.362.617.542 1.367.542 2.249 0 .873-.18 1.622-.542 2.25a3.794 3.794 0 0 1-1.42 1.42 3.87 3.87 0 0 1-1.882.478Zm0-1.898c.478 0 .84-.202 1.084-.606.245-.415.367-.963.367-1.644 0-.691-.122-1.239-.367-1.643-.244-.404-.606-.606-1.084-.606-.49 0-.857.202-1.101.606-.234.404-.351.952-.351 1.643 0 .681.117 1.229.351 1.644.244.404.611.606 1.101.606ZM36.677 454.07v-7.588h4.571v1.137h-3.225v1.938h2.726v1.137h-2.726v2.239h3.341v1.137h-4.687Zm6.127 0v-5.697h1.102l.093.766h.047c.255-.247.533-.46.835-.638a1.994 1.994 0 0 1 1.033-.267c.61 0 1.055.197 1.334.592.278.394.418.951.418 1.671v3.573H46.33v-3.399c0-.472-.07-.805-.209-.998-.139-.193-.367-.29-.684-.29-.248 0-.468.062-.661.186a4.05 4.05 0 0 0-.639.522v3.979h-1.334Zm6.04 2.39c-.209 0-.387-.015-.534-.046a2.968 2.968 0 0 1-.394-.104l.255-.998c.078.023.159.042.244.058a.851.851 0 0 0 .243.035c.256 0 .426-.089.511-.267.093-.17.14-.422.14-.754v-6.011h1.345v5.987c0 .403-.058.762-.174 1.079a1.484 1.484 0 0 1-.569.743c-.262.186-.618.278-1.067.278Zm1.137-9.084c-.24 0-.433-.07-.58-.209a.731.731 0 0 1-.22-.557c0-.224.073-.406.22-.545.147-.14.34-.209.58-.209.24 0 .433.069.58.209.147.139.22.321.22.545a.73.73 0 0 1-.22.557c-.147.139-.34.209-.58.209Zm4.696 6.834c-.472 0-.913-.116-1.323-.349a2.744 2.744 0 0 1-.998-1.021c-.255-.448-.383-.986-.383-1.612 0-.635.128-1.172.383-1.613.255-.449.588-.789.998-1.021.41-.24.85-.36 1.323-.36.48 0 .924.12 1.334.36.41.232.742.572.998 1.021.255.441.383.978.383 1.613 0 .626-.128 1.164-.383 1.612a2.744 2.744 0 0 1-.998 1.021c-.41.233-.855.349-1.334.349Zm0-1.091c.417 0 .746-.174.986-.522.24-.348.36-.805.36-1.369 0-.573-.12-1.033-.36-1.381a1.135 1.135 0 0 0-.986-.522c-.418 0-.747.174-.987.522-.232.348-.348.808-.348 1.381 0 .564.116 1.021.348 1.369.24.348.569.522.987.522Zm4.35 3.295c-.154 0-.29-.012-.406-.035a4.16 4.16 0 0 1-.336-.081l.243-1.044c.055.015.116.031.186.046.077.023.15.035.22.035.302 0 .542-.093.72-.278.185-.178.325-.41.417-.697l.105-.359-2.24-5.628h1.358l.986 2.797c.085.247.167.51.244.789l.255.812h.047c.07-.263.139-.53.209-.801l.22-.8.858-2.797h1.288l-2.065 5.953c-.24.642-.53 1.148-.87 1.519-.34.38-.82.569-1.439.569Zm8.984-2.204c-.472 0-.808-.144-1.01-.43-.193-.286-.29-.677-.29-1.172v-6.729h1.335v6.799c0 .162.031.278.093.348a.277.277 0 0 0 .197.093h.081c.031-.008.074-.016.128-.023l.174.998a2.106 2.106 0 0 1-.708.116Zm4.183 0c-.472 0-.913-.116-1.323-.349a2.744 2.744 0 0 1-.998-1.021c-.255-.448-.383-.986-.383-1.612 0-.635.128-1.172.383-1.613.255-.449.588-.789.998-1.021.41-.24.85-.36 1.323-.36.48 0 .924.12 1.334.36.41.232.743.572.998 1.021.255.441.383.978.383 1.613 0 .626-.128 1.164-.383 1.612a2.744 2.744 0 0 1-.998 1.021c-.41.233-.855.349-1.334.349Zm0-1.091c.417 0 .746-.174.986-.522.24-.348.36-.805.36-1.369 0-.573-.12-1.033-.36-1.381a1.135 1.135 0 0 0-.986-.522c-.418 0-.747.174-.987.522-.231.348-.347.808-.347 1.381 0 .564.115 1.021.347 1.369.24.348.57.522.987.522Zm6.367 1.091c-.471 0-.912-.116-1.322-.349a2.744 2.744 0 0 1-.998-1.021c-.255-.448-.383-.986-.383-1.612 0-.635.128-1.172.383-1.613.255-.449.588-.789.998-1.021.41-.24.85-.36 1.322-.36.48 0 .925.12 1.335.36.41.232.742.572.998 1.021.255.441.382.978.382 1.613 0 .626-.127 1.164-.382 1.612a2.744 2.744 0 0 1-.998 1.021c-.41.233-.855.349-1.335.349Zm0-1.091c.418 0 .747-.174.987-.522.24-.348.36-.805.36-1.369 0-.573-.12-1.033-.36-1.381a1.135 1.135 0 0 0-.987-.522c-.417 0-.746.174-.986.522-.232.348-.348.808-.348 1.381 0 .564.116 1.021.348 1.369.24.348.569.522.986.522Zm4.036.951v-8.191h1.311v5.117h.035l2.112-2.623h1.462l-1.95 2.321 2.147 3.376h-1.45l-1.462-2.471-.894 1.021v1.45h-1.31Zm6.062 0v-5.697h1.334v5.697H88.66Zm.673-6.694c-.24 0-.433-.07-.58-.209a.731.731 0 0 1-.22-.557c0-.224.073-.406.22-.545.147-.14.34-.209.58-.209.24 0 .433.069.58.209.147.139.22.321.22.545a.731.731 0 0 1-.22.557c-.147.139-.34.209-.58.209Zm2.364 6.694v-5.697h1.102l.093.766h.046a4.45 4.45 0 0 1 .836-.638 1.993 1.993 0 0 1 1.032-.267c.611 0 1.056.197 1.334.592.279.394.418.951.418 1.671v3.573h-1.334v-3.399c0-.472-.07-.805-.209-.998-.14-.193-.367-.29-.684-.29-.248 0-.468.062-.662.186a4.05 4.05 0 0 0-.638.522v3.979h-1.334Zm8.476 2.518a4.27 4.27 0 0 1-1.218-.162c-.356-.109-.638-.275-.847-.499-.201-.217-.302-.491-.302-.824 0-.472.271-.878.812-1.218v-.047a1.213 1.213 0 0 1-.37-.371 1.112 1.112 0 0 1-.14-.58c0-.224.062-.426.186-.603.131-.186.278-.337.44-.453v-.046a2.088 2.088 0 0 1-.522-.615 1.802 1.802 0 0 1-.22-.894c0-.441.104-.812.313-1.114.209-.301.484-.529.824-.684.348-.163.72-.244 1.114-.244.154 0 .301.016.441.047.147.023.278.054.394.092h2.042v.987h-1.044c.093.108.17.247.232.417.062.163.093.345.093.546 0 .417-.097.773-.29 1.067a1.833 1.833 0 0 1-.778.65 2.611 2.611 0 0 1-1.473.186 1.904 1.904 0 0 1-.395-.117 1.414 1.414 0 0 0-.208.233.602.602 0 0 0-.07.313c0 .162.066.29.197.383.14.093.383.139.731.139h1.01c.688 0 1.206.112 1.554.336.356.217.534.573.534 1.068 0 .371-.124.708-.371 1.009-.248.31-.6.553-1.056.731-.456.178-.994.267-1.613.267Zm.07-5.163c.27 0 .503-.101.696-.302.193-.201.29-.483.29-.847 0-.356-.097-.63-.29-.823a.906.906 0 0 0-.696-.302.965.965 0 0 0-.708.29c-.193.193-.29.472-.29.835 0 .364.097.646.29.847.193.201.43.302.708.302Zm.139 4.293c.456 0 .828-.093 1.114-.279.286-.185.429-.398.429-.638 0-.224-.089-.375-.267-.452-.17-.078-.417-.116-.742-.116h-.778a3.16 3.16 0 0 1-.777-.081c-.294.224-.44.475-.44.754 0 .255.13.452.394.591.263.147.618.221 1.067.221Zm7.538-1.508c-.495 0-.901-.155-1.218-.465-.309-.309-.464-.711-.464-1.206 0-.611.267-1.083.801-1.416.533-.34 1.384-.572 2.552-.696a1.36 1.36 0 0 0-.243-.777c-.147-.225-.414-.337-.801-.337-.278 0-.553.054-.824.163a5.563 5.563 0 0 0-.777.394l-.487-.893a5.722 5.722 0 0 1 1.067-.522 3.69 3.69 0 0 1 1.276-.221c.712 0 1.242.213 1.59.638.356.418.534 1.025.534 1.822v3.376h-1.103l-.093-.626h-.046a4.13 4.13 0 0 1-.824.545 2.025 2.025 0 0 1-.94.221Zm.43-1.045c.232 0 .441-.054.626-.162.194-.116.399-.271.615-.464v-1.276c-.773.1-1.311.251-1.613.452-.301.193-.452.433-.452.719 0 .256.077.441.232.557a.96.96 0 0 0 .592.174Zm5.998 1.045c-.657 0-1.125-.19-1.404-.569-.27-.387-.406-.886-.406-1.497v-2.715h-.812v-.998l.882-.058.162-1.554h1.114v1.554h1.45v1.056h-1.45v2.715c0 .666.267.998.801.998.1 0 .205-.011.313-.035.108-.031.201-.062.278-.093l.233.987c-.155.054-.333.1-.534.139-.194.046-.402.07-.627.07Zm6.515 0c-.657 0-1.125-.19-1.404-.569-.27-.387-.406-.886-.406-1.497v-2.715h-.812v-.998l.882-.058.162-1.554h1.114v1.554h1.451v1.056h-1.451v2.715c0 .666.267.998.801.998.1 0 .205-.011.313-.035.108-.031.201-.062.279-.093l.232.987c-.155.054-.333.1-.534.139a2.7 2.7 0 0 1-.627.07Zm2.185-.14v-8.191h1.335v2.112l-.047 1.102c.24-.224.507-.422.801-.592a1.931 1.931 0 0 1 1.021-.267c.611 0 1.056.197 1.334.592.279.394.418.951.418 1.671v3.573h-1.334v-3.399c0-.472-.07-.805-.209-.998-.139-.193-.368-.29-.685-.29-.247 0-.468.062-.661.186a4.04 4.04 0 0 0-.638.522v3.979h-1.335Zm8.907.14a2.92 2.92 0 0 1-1.427-.349 2.61 2.61 0 0 1-1.01-1.021c-.247-.448-.371-.986-.371-1.612 0-.619.124-1.153.371-1.601.255-.449.584-.793.986-1.033.403-.24.824-.36 1.265-.36.518 0 .952.116 1.3.348.348.225.611.542.789.952.177.402.266.87.266 1.404 0 .278-.019.495-.058.649h-3.62c.062.503.244.894.546 1.172.301.279.68.418 1.137.418.247 0 .475-.035.684-.105.217-.077.43-.181.638-.313l.453.836a4.134 4.134 0 0 1-.905.441 3.15 3.15 0 0 1-1.044.174Zm-1.52-3.528h2.529c0-.441-.097-.785-.29-1.032-.193-.256-.483-.383-.87-.383-.333 0-.63.124-.893.371-.256.24-.414.588-.476 1.044Zm8.586 3.528c-.472 0-.808-.144-1.009-.43-.194-.286-.29-.677-.29-1.172v-6.729h1.334v6.799c0 .162.031.278.093.348a.276.276 0 0 0 .197.093h.081c.031-.008.074-.016.128-.023l.174.998a2.103 2.103 0 0 1-.708.116Zm3.231 0c-.495 0-.901-.155-1.218-.465-.309-.309-.464-.711-.464-1.206 0-.611.267-1.083.8-1.416.534-.34 1.385-.572 2.553-.696a1.361 1.361 0 0 0-.244-.777c-.147-.225-.414-.337-.8-.337-.279 0-.553.054-.824.163a5.563 5.563 0 0 0-.777.394l-.488-.893a5.702 5.702 0 0 1 1.068-.522 3.685 3.685 0 0 1 1.276-.221c.712 0 1.241.213 1.59.638.355.418.533 1.025.533 1.822v3.376h-1.102l-.093-.626h-.046a4.13 4.13 0 0 1-.824.545 2.025 2.025 0 0 1-.94.221Zm.429-1.045c.233 0 .441-.054.627-.162a4.2 4.2 0 0 0 .615-.464v-1.276c-.774.1-1.311.251-1.613.452-.301.193-.452.433-.452.719 0 .256.077.441.232.557.154.116.352.174.591.174Zm4.173.905v-5.697h1.102l.093 1.01h.047c.201-.371.444-.654.73-.847.287-.201.581-.302.882-.302.271 0 .488.039.65.116l-.232 1.161a1.734 1.734 0 0 0-.592-.093c-.224 0-.46.089-.708.267-.247.17-.46.471-.638.905v3.48h-1.334Zm6.199 2.518c-.449 0-.855-.054-1.218-.162-.356-.109-.638-.275-.847-.499-.201-.217-.302-.491-.302-.824 0-.472.271-.878.812-1.218v-.047a1.216 1.216 0 0 1-.371-.371 1.11 1.11 0 0 1-.139-.58c0-.224.062-.426.185-.603.132-.186.279-.337.441-.453v-.046a2.097 2.097 0 0 1-.522-.615 1.8 1.8 0 0 1-.22-.894c0-.441.104-.812.313-1.114a1.98 1.98 0 0 1 .824-.684 2.592 2.592 0 0 1 1.114-.244c.154 0 .301.016.441.047.147.023.278.054.394.092h2.042v.987h-1.044c.093.108.17.247.232.417.062.163.093.345.093.546 0 .417-.097.773-.29 1.067a1.833 1.833 0 0 1-.778.65 2.614 2.614 0 0 1-1.473.186 1.908 1.908 0 0 1-.395-.117 1.463 1.463 0 0 0-.209.233.608.608 0 0 0-.069.313c0 .162.066.29.197.383.139.093.383.139.731.139h1.009c.689 0 1.207.112 1.555.336.356.217.534.573.534 1.068 0 .371-.124.708-.371 1.009-.248.31-.6.553-1.056.731-.457.178-.994.267-1.613.267Zm.07-5.163c.27 0 .502-.101.696-.302.193-.201.29-.483.29-.847 0-.356-.097-.63-.29-.823a.906.906 0 0 0-.696-.302.963.963 0 0 0-.708.29c-.193.193-.29.472-.29.835 0 .364.097.646.29.847a.944.944 0 0 0 .708.302Zm.139 4.293c.456 0 .828-.093 1.114-.279.286-.185.429-.398.429-.638 0-.224-.089-.375-.267-.452-.17-.078-.418-.116-.742-.116h-.778c-.309 0-.568-.027-.777-.081-.294.224-.441.475-.441.754 0 .255.131.452.394.591.263.147.619.221 1.068.221Zm6.09-1.508a2.92 2.92 0 0 1-1.427-.349 2.607 2.607 0 0 1-1.009-1.021c-.248-.448-.372-.986-.372-1.612 0-.619.124-1.153.372-1.601.255-.449.584-.793.986-1.033.402-.24.824-.36 1.264-.36.519 0 .952.116 1.3.348.348.225.611.542.789.952.178.402.267.87.267 1.404 0 .278-.02.495-.058.649h-3.62c.062.503.243.894.545 1.172.302.279.681.418 1.137.418.248 0 .476-.035.685-.105.216-.077.429-.181.638-.313l.452.836c-.27.178-.572.324-.905.441-.332.116-.68.174-1.044.174Zm-1.52-3.528h2.53c0-.441-.097-.785-.291-1.032-.193-.256-.483-.383-.87-.383-.332 0-.63.124-.893.371-.255.24-.414.588-.476 1.044Zm6.554 3.528a3.25 3.25 0 0 1-1.161-.221 3.885 3.885 0 0 1-.997-.568l.626-.859c.255.193.511.348.766.464.255.116.526.174.812.174.31 0 .538-.066.685-.197a.628.628 0 0 0 .22-.487.484.484 0 0 0-.186-.395 1.494 1.494 0 0 0-.452-.278 10.006 10.006 0 0 0-.58-.244 6.407 6.407 0 0 1-.743-.336 1.942 1.942 0 0 1-.591-.523c-.155-.216-.232-.483-.232-.8 0-.503.185-.913.556-1.23.372-.317.875-.476 1.509-.476.402 0 .762.07 1.079.209.317.139.592.298.824.476l-.615.812a2.884 2.884 0 0 0-.615-.348 1.502 1.502 0 0 0-.638-.139c-.287 0-.499.062-.639.185a.55.55 0 0 0-.208.441c0 .225.116.395.348.511a6.9 6.9 0 0 0 .812.336c.263.093.518.209.766.348.247.132.452.306.615.522.17.217.255.503.255.859 0 .487-.19.905-.569 1.253-.379.34-.928.511-1.647.511Zm5.188 0c-.658 0-1.126-.19-1.404-.569-.271-.387-.406-.886-.406-1.497v-2.715h-.813v-.998l.882-.058.163-1.554h1.114v1.554h1.45v1.056h-1.45v2.715c0 .666.266.998.8.998.101 0 .205-.011.313-.035.109-.031.201-.062.279-.093l.232.987c-.155.054-.333.1-.534.139-.193.046-.402.07-.626.07Zm6.886 0c-.518 0-.986-.116-1.404-.349a2.655 2.655 0 0 1-.986-1.021c-.24-.448-.36-.986-.36-1.612 0-.635.132-1.172.395-1.613a2.645 2.645 0 0 1 1.044-1.021c.441-.24.913-.36 1.415-.36.364 0 .681.062.952.186.271.124.51.274.719.452l-.65.871a1.767 1.767 0 0 0-.452-.302 1.106 1.106 0 0 0-.499-.116c-.456 0-.832.174-1.125.522-.287.348-.43.808-.43 1.381 0 .564.139 1.021.418 1.369.286.348.654.522 1.102.522.225 0 .433-.047.627-.139a3.02 3.02 0 0 0 .545-.348l.545.881a2.715 2.715 0 0 1-.881.523c-.325.116-.65.174-.975.174Zm4.248 0c-.495 0-.901-.155-1.218-.465-.309-.309-.464-.711-.464-1.206 0-.611.267-1.083.8-1.416.534-.34 1.385-.572 2.553-.696a1.361 1.361 0 0 0-.244-.777c-.147-.225-.414-.337-.8-.337-.279 0-.553.054-.824.163a5.563 5.563 0 0 0-.777.394l-.488-.893a5.702 5.702 0 0 1 1.068-.522 3.685 3.685 0 0 1 1.276-.221c.712 0 1.241.213 1.59.638.355.418.533 1.025.533 1.822v3.376h-1.102l-.093-.626h-.046a4.13 4.13 0 0 1-.824.545 2.025 2.025 0 0 1-.94.221Zm.43-1.045c.232 0 .44-.054.626-.162a4.2 4.2 0 0 0 .615-.464v-1.276c-.774.1-1.311.251-1.613.452-.301.193-.452.433-.452.719 0 .256.077.441.232.557.154.116.352.174.592.174Zm5.472 1.045c-.472 0-.809-.144-1.01-.43-.193-.286-.29-.677-.29-1.172v-6.729h1.334v6.799c0 .162.031.278.093.348a.278.278 0 0 0 .197.093h.082c.031-.008.073-.016.127-.023l.174.998a2.11 2.11 0 0 1-.707.116Zm4.287 0a2.926 2.926 0 0 1-1.428-.349 2.614 2.614 0 0 1-1.009-1.021c-.248-.448-.371-.986-.371-1.612 0-.619.123-1.153.371-1.601.255-.449.584-.793.986-1.033.402-.24.824-.36 1.265-.36.518 0 .951.116 1.299.348.348.225.611.542.789.952.178.402.267.87.267 1.404 0 .278-.019.495-.058.649h-3.62c.062.503.244.894.546 1.172.301.279.68.418 1.137.418.247 0 .475-.035.684-.105.217-.077.429-.181.638-.313l.453.836a4.156 4.156 0 0 1-.905.441 3.15 3.15 0 0 1-1.044.174Zm-1.52-3.528h2.529c0-.441-.097-.785-.29-1.032-.194-.256-.484-.383-.87-.383-.333 0-.631.124-.894.371-.255.24-.414.588-.475 1.044Zm4.964 3.388v-5.697h1.102l.093.766h.046c.255-.247.534-.46.835-.638a1.995 1.995 0 0 1 1.033-.267c.611 0 1.056.197 1.334.592.279.394.418.951.418 1.671v3.573h-1.334v-3.399c0-.472-.07-.805-.209-.998-.139-.193-.368-.29-.685-.29-.247 0-.468.062-.661.186a4.04 4.04 0 0 0-.638.522v3.979h-1.334Zm8.488.14c-.712 0-1.281-.263-1.706-.789-.425-.526-.638-1.257-.638-2.193 0-.619.112-1.153.336-1.601.232-.449.534-.793.905-1.033.372-.24.762-.36 1.172-.36.325 0 .6.058.824.174.232.109.456.259.673.453l-.046-.917v-2.065h1.334v8.191h-1.102l-.093-.615h-.047a2.987 2.987 0 0 1-.731.534 1.86 1.86 0 0 1-.881.221Zm.324-1.103c.426 0 .824-.212 1.196-.638v-2.657a1.75 1.75 0 0 0-.581-.371 1.69 1.69 0 0 0-.58-.105c-.363 0-.677.167-.94.499-.255.325-.382.785-.382 1.381 0 .611.112 1.079.336 1.404.224.325.542.487.951.487Zm5.61 1.103c-.495 0-.901-.155-1.218-.465-.31-.309-.465-.711-.465-1.206 0-.611.267-1.083.801-1.416.534-.34 1.385-.572 2.553-.696a1.361 1.361 0 0 0-.244-.777c-.147-.225-.414-.337-.801-.337-.278 0-.553.054-.823.163a5.574 5.574 0 0 0-.778.394l-.487-.893a5.722 5.722 0 0 1 1.067-.522 3.695 3.695 0 0 1 1.277-.221c.711 0 1.241.213 1.589.638.356.418.534 1.025.534 1.822v3.376h-1.102l-.093-.626h-.047a4.123 4.123 0 0 1-.823.545c-.287.147-.6.221-.94.221Zm.429-1.045c.232 0 .441-.054.627-.162a4.2 4.2 0 0 0 .615-.464v-1.276c-.774.1-1.312.251-1.613.452-.302.193-.453.433-.453.719 0 .256.078.441.232.557a.96.96 0 0 0 .592.174Zm4.173.905v-5.697h1.102l.093 1.01h.046c.201-.371.445-.654.731-.847.286-.201.58-.302.882-.302.271 0 .487.039.65.116l-.232 1.161a1.734 1.734 0 0 0-.592-.093c-.225 0-.46.089-.708.267-.247.17-.46.471-.638.905v3.48h-1.334Zm8.983.14c-.472 0-.913-.116-1.323-.349a2.75 2.75 0 0 1-.998-1.021c-.255-.448-.383-.986-.383-1.612 0-.635.128-1.172.383-1.613.256-.449.588-.789.998-1.021.41-.24.851-.36 1.323-.36.479 0 .924.12 1.334.36.41.232.743.572.998 1.021.255.441.383.978.383 1.613 0 .626-.128 1.164-.383 1.612a2.742 2.742 0 0 1-.998 1.021c-.41.233-.855.349-1.334.349Zm0-1.091c.417 0 .746-.174.986-.522.24-.348.36-.805.36-1.369 0-.573-.12-1.033-.36-1.381a1.136 1.136 0 0 0-.986-.522c-.418 0-.747.174-.986.522-.232.348-.349.808-.349 1.381 0 .564.117 1.021.349 1.369.239.348.568.522.986.522Zm4.222.951v-4.641h-.766v-.998l.766-.058v-.591c0-.596.147-1.083.441-1.462.294-.387.777-.58 1.45-.58a2.82 2.82 0 0 1 1.045.197l-.256.998a1.522 1.522 0 0 0-.626-.139c-.48 0-.72.321-.72.963v.614h1.114v1.056h-1.114v4.641h-1.334Zm8.21.14a2.92 2.92 0 0 1-1.427-.349 2.61 2.61 0 0 1-1.01-1.021c-.247-.448-.371-.986-.371-1.612 0-.619.124-1.153.371-1.601a2.76 2.76 0 0 1 .987-1.033c.402-.24.823-.36 1.264-.36.519 0 .952.116 1.3.348.348.225.611.542.789.952.178.402.267.87.267 1.404 0 .278-.02.495-.058.649h-3.62c.061.503.243.894.545 1.172.302.279.681.418 1.137.418.247 0 .476-.035.684-.105.217-.077.43-.181.639-.313l.452.836a4.134 4.134 0 0 1-.905.441 3.146 3.146 0 0 1-1.044.174Zm-1.52-3.528h2.529c0-.441-.096-.785-.29-1.032-.193-.256-.483-.383-.87-.383-.333 0-.63.124-.893.371-.256.24-.414.588-.476 1.044Zm6.24 3.388-1.984-5.697h1.358l.905 2.959.232.847c.085.286.166.576.243.87h.047c.085-.294.166-.584.243-.87.086-.286.167-.568.244-.847l.905-2.959h1.288l-1.938 5.697h-1.543Zm6.837.14a2.92 2.92 0 0 1-1.427-.349 2.607 2.607 0 0 1-1.009-1.021c-.248-.448-.372-.986-.372-1.612 0-.619.124-1.153.372-1.601.255-.449.584-.793.986-1.033.402-.24.824-.36 1.264-.36.519 0 .952.116 1.3.348.348.225.611.542.789.952.178.402.267.87.267 1.404 0 .278-.02.495-.058.649h-3.62c.062.503.243.894.545 1.172.302.279.681.418 1.137.418.248 0 .476-.035.685-.105.216-.077.429-.181.638-.313l.452.836c-.27.178-.572.324-.905.441-.332.116-.68.174-1.044.174Zm-1.52-3.528h2.53c0-.441-.097-.785-.291-1.032-.193-.256-.483-.383-.87-.383-.332 0-.63.124-.893.371-.255.24-.414.588-.476 1.044Zm4.964 3.388v-5.697h1.102l.093.766h.047c.255-.247.533-.46.835-.638a1.995 1.995 0 0 1 1.033-.267c.611 0 1.055.197 1.334.592.278.394.418.951.418 1.671v3.573h-1.335v-3.399c0-.472-.069-.805-.209-.998-.139-.193-.367-.29-.684-.29-.248 0-.468.062-.661.186-.186.116-.399.29-.639.522v3.979h-1.334Zm8.5.14c-.658 0-1.126-.19-1.404-.569-.271-.387-.406-.886-.406-1.497v-2.715h-.812v-.998l.881-.058.163-1.554h1.114v1.554h1.45v1.056h-1.45v2.715c0 .666.267.998.8.998.101 0 .205-.011.314-.035.108-.031.201-.062.278-.093l.232.987c-.155.054-.333.1-.534.139-.193.046-.402.07-.626.07Zm3.661 0c-.387 0-.773-.074-1.16-.221a3.892 3.892 0 0 1-.998-.568l.627-.859c.255.193.51.348.765.464.256.116.526.174.813.174.309 0 .537-.066.684-.197a.63.63 0 0 0 .221-.487.484.484 0 0 0-.186-.395 1.5 1.5 0 0 0-.453-.278 9.72 9.72 0 0 0-.58-.244 6.394 6.394 0 0 1-.742-.336 1.946 1.946 0 0 1-.592-.523c-.155-.216-.232-.483-.232-.8 0-.503.186-.913.557-1.23.371-.317.874-.476 1.508-.476.402 0 .762.07 1.079.209.317.139.592.298.824.476l-.615.812a2.884 2.884 0 0 0-.615-.348 1.502 1.502 0 0 0-.638-.139c-.286 0-.499.062-.638.185a.55.55 0 0 0-.209.441c0 .225.116.395.348.511.232.116.503.228.812.336.263.093.519.209.766.348.248.132.453.306.615.522.17.217.255.503.255.859 0 .487-.189.905-.568 1.253-.379.34-.929.511-1.648.511Zm-139.97 14.86v-5.697h1.334v5.697h-1.334Zm.673-6.694c-.24 0-.433-.07-.58-.209a.731.731 0 0 1-.221-.557c0-.224.074-.406.221-.545.147-.14.34-.209.58-.209.24 0 .433.069.58.209a.717.717 0 0 1 .221.545.731.731 0 0 1-.221.557c-.147.139-.34.209-.58.209Zm2.364 6.694v-5.697h1.102l.093.766h.046c.255-.247.534-.46.836-.638a1.989 1.989 0 0 1 1.032-.267c.611 0 1.056.197 1.334.592.279.394.418.951.418 1.671v3.573h-1.334v-3.399c0-.472-.07-.805-.209-.998-.139-.193-.367-.29-.685-.29-.247 0-.468.062-.661.186a4.04 4.04 0 0 0-.638.522v3.979h-1.334Zm9.198 2.344c-.155 0-.29-.012-.406-.035a4.152 4.152 0 0 1-.337-.081l.244-1.044c.054.015.116.031.185.046a.78.78 0 0 0 .221.035c.302 0 .541-.093.719-.278.186-.178.325-.41.418-.697l.104-.359-2.239-5.628h1.358l.986 2.797c.085.247.166.51.243.789l.256.812h.046c.07-.263.139-.53.209-.801.077-.278.151-.545.22-.8l.859-2.797h1.288l-2.065 5.953c-.24.642-.53 1.148-.871 1.519-.34.38-.819.569-1.438.569Zm7.626-2.204c-.472 0-.913-.116-1.323-.349a2.742 2.742 0 0 1-.998-1.021c-.255-.448-.383-.986-.383-1.612 0-.635.128-1.172.383-1.613.255-.449.588-.789.998-1.021.41-.24.851-.36 1.323-.36.479 0 .924.12 1.334.36.41.232.742.572.998 1.021.255.441.383.978.383 1.613 0 .626-.128 1.164-.383 1.612a2.75 2.75 0 0 1-.998 1.021c-.41.233-.855.349-1.334.349Zm0-1.091c.417 0 .746-.174.986-.522.24-.348.359-.805.359-1.369 0-.573-.119-1.033-.359-1.381a1.136 1.136 0 0 0-.986-.522c-.418 0-.747.174-.987.522-.232.348-.348.808-.348 1.381 0 .564.116 1.021.348 1.369.24.348.569.522.987.522Zm5.729 1.091c-.611 0-1.056-.198-1.334-.592-.279-.395-.418-.952-.418-1.671v-3.574h1.335v3.4c0 .472.069.804.208.998.14.193.364.29.673.29.248 0 .464-.062.65-.186.193-.124.398-.325.615-.603v-3.899h1.334v5.697h-1.09l-.105-.835h-.035a3.29 3.29 0 0 1-.812.708 1.931 1.931 0 0 1-1.021.267Zm4.753-.14v-5.697h1.103l.092 1.01h.047c.201-.371.445-.654.731-.847.286-.201.58-.302.882-.302.27 0 .487.039.649.116l-.232 1.161a1.742 1.742 0 0 0-.591-.093c-.225 0-.461.089-.708.267-.248.17-.46.471-.638.905v3.48h-1.335Zm9.03.14c-.518 0-.986-.116-1.404-.349a2.655 2.655 0 0 1-.986-1.021c-.24-.448-.36-.986-.36-1.612 0-.635.132-1.172.395-1.613a2.645 2.645 0 0 1 1.044-1.021c.441-.24.913-.36 1.415-.36.364 0 .681.062.952.186.271.124.51.274.719.452l-.65.871a1.767 1.767 0 0 0-.452-.302 1.106 1.106 0 0 0-.499-.116c-.456 0-.832.174-1.125.522-.287.348-.43.808-.43 1.381 0 .564.139 1.021.418 1.369.286.348.654.522 1.102.522.225 0 .433-.047.627-.139a3.02 3.02 0 0 0 .545-.348l.545.881a2.715 2.715 0 0 1-.881.523c-.325.116-.65.174-.975.174Zm2.981-.14v-5.697h1.334v5.697h-1.334Zm.673-6.694c-.24 0-.433-.07-.58-.209a.731.731 0 0 1-.221-.557c0-.224.074-.406.221-.545.147-.14.34-.209.58-.209.24 0 .433.069.58.209.147.139.22.321.22.545a.73.73 0 0 1-.22.557c-.147.139-.34.209-.58.209Zm4.371 6.834c-.658 0-1.126-.19-1.404-.569-.271-.387-.406-.886-.406-1.497v-2.715h-.813v-.998l.882-.058.163-1.554h1.114v1.554h1.45v1.056h-1.45v2.715c0 .666.266.998.8.998.101 0 .205-.011.313-.035.109-.031.202-.062.279-.093l.232.987c-.155.054-.333.1-.534.139-.193.046-.402.07-.626.07Zm2.568 2.204c-.155 0-.29-.012-.406-.035a4.152 4.152 0 0 1-.337-.081l.244-1.044c.054.015.116.031.185.046a.78.78 0 0 0 .221.035c.301 0 .541-.093.719-.278.186-.178.325-.41.418-.697l.104-.359-2.239-5.628h1.357l.987 2.797c.085.247.166.51.243.789l.256.812h.046c.07-.263.139-.53.209-.801.077-.278.151-.545.22-.8l.859-2.797h1.288l-2.065 5.953c-.24.642-.53 1.148-.871 1.519-.34.38-.82.569-1.438.569Zm5.56-2.204a.842.842 0 0 1-.615-.256.879.879 0 0 1-.255-.649.88.88 0 0 1 .255-.65.841.841 0 0 1 .615-.255c.248 0 .453.085.615.255.163.17.244.387.244.65a.899.899 0 0 1-.244.649.814.814 0 0 1-.615.256Z"/><rect width="231.325" height="36.983" x="34.082" y="512.535" fill="#D9D9D9" rx="10.877"/><path fill="#737373" d="M115.322 537.43c-.947 0-1.808-.202-2.585-.607a4.556 4.556 0 0 1-1.834-1.786c-.447-.798-.67-1.776-.67-2.936 0-1.148.228-2.127.686-2.935.468-.819 1.085-1.441 1.85-1.867a5.04 5.04 0 0 1 2.537-.654c.755 0 1.404.138 1.946.415.543.276.984.59 1.324.941l-1.228 1.5a4.457 4.457 0 0 0-.846-.59c-.297-.16-.67-.24-1.116-.24-.809 0-1.468.298-1.979.894-.51.595-.765 1.414-.765 2.456 0 1.064.244 1.894.734 2.489.489.596 1.217.894 2.185.894.213 0 .42-.027.622-.08.202-.053.367-.133.495-.239v-1.787h-1.723v-1.915h3.797v4.786c-.362.351-.846.649-1.452.894a5.17 5.17 0 0 1-1.978.367Zm8.929 0c-.755 0-1.436-.165-2.042-.495a3.618 3.618 0 0 1-1.436-1.42c-.351-.617-.526-1.361-.526-2.233 0-.862.175-1.601.526-2.218.362-.617.83-1.09 1.404-1.42a3.487 3.487 0 0 1 1.803-.51c.755 0 1.377.17 1.866.51.5.33.872.782 1.117 1.356.255.564.383 1.208.383 1.931a5.857 5.857 0 0 1-.096 1.037h-4.738c.106.574.346 1 .718 1.276.372.266.819.399 1.34.399.564 0 1.133-.176 1.707-.527l.782 1.42a5.131 5.131 0 0 1-1.356.654c-.5.16-.984.24-1.452.24Zm-1.755-5.01h2.856c0-.436-.107-.792-.319-1.069-.202-.287-.537-.43-1.005-.43-.362 0-.686.127-.974.383-.287.244-.473.616-.558 1.116Zm9.362 5.01c-.979 0-1.681-.282-2.106-.846-.415-.564-.622-1.303-.622-2.217v-3.207h-1.085v-1.739l1.212-.096.272-2.106h1.946v2.106h1.898v1.835h-1.898v3.175c0 .446.09.771.271.973.192.191.441.287.75.287.128 0 .255-.016.383-.048.138-.032.26-.069.367-.111l.367 1.707a8.72 8.72 0 0 1-.75.191 4.658 4.658 0 0 1-1.005.096Zm9.62 0a5.782 5.782 0 0 1-2.042-.383 5.572 5.572 0 0 1-1.803-1.117l1.34-1.611c.372.319.787.579 1.245.782.457.202.898.303 1.324.303.489 0 .851-.091 1.084-.272a.862.862 0 0 0 .367-.733c0-.33-.138-.569-.414-.718a8.764 8.764 0 0 0-1.085-.527l-1.356-.574a4.631 4.631 0 0 1-1.005-.59 3.063 3.063 0 0 1-.782-.942c-.202-.372-.303-.808-.303-1.308 0-.574.154-1.095.463-1.563a3.364 3.364 0 0 1 1.308-1.117c.563-.277 1.207-.415 1.93-.415.596 0 1.191.117 1.787.351a4.52 4.52 0 0 1 1.563 1.021l-1.196 1.484a4.302 4.302 0 0 0-1.021-.606 2.798 2.798 0 0 0-1.133-.224c-.404 0-.728.085-.973.256a.78.78 0 0 0-.351.686c0 .319.149.558.447.717.308.16.686.33 1.132.511l1.34.542c.628.256 1.128.607 1.5 1.053.372.447.558 1.037.558 1.771 0 .574-.154 1.106-.462 1.595-.309.49-.755.883-1.34 1.181-.585.298-1.293.447-2.122.447Zm8.094 0c-.979 0-1.681-.282-2.106-.846-.415-.564-.622-1.303-.622-2.217v-3.207h-1.085v-1.739l1.212-.096.272-2.106h1.946v2.106h1.898v1.835h-1.898v3.175c0 .446.09.771.271.973.192.191.441.287.75.287.128 0 .255-.016.383-.048.138-.032.26-.069.367-.111l.367 1.707a8.72 8.72 0 0 1-.75.191 4.658 4.658 0 0 1-1.005.096Zm4.742 0c-.723 0-1.297-.229-1.723-.686-.425-.468-.638-1.037-.638-1.707 0-.83.351-1.479 1.053-1.947.702-.468 1.835-.781 3.398-.941-.021-.351-.127-.627-.319-.829-.181-.213-.489-.32-.925-.32-.33 0-.665.064-1.005.192-.34.128-.702.303-1.085.526l-.845-1.547a7.78 7.78 0 0 1 1.595-.75 5.625 5.625 0 0 1 1.787-.287c1.01 0 1.786.292 2.329.877.542.585.813 1.484.813 2.696v4.531h-1.914l-.159-.813h-.064a4.83 4.83 0 0 1-1.069.734c-.372.18-.782.271-1.229.271Zm.798-1.819c.266 0 .495-.058.686-.175.202-.128.404-.293.606-.495v-1.388c-.829.106-1.404.277-1.723.511-.319.223-.478.489-.478.797 0 .255.08.447.239.575.17.117.394.175.67.175Zm5.621 1.627v-7.913h1.915l.159 1.388h.064c.287-.531.633-.925 1.037-1.18.404-.266.808-.399 1.212-.399.224 0 .41.016.559.048.149.021.276.058.383.111l-.383 2.027a2.826 2.826 0 0 0-.862-.128c-.298 0-.611.112-.941.335-.319.213-.585.585-.798 1.117v4.594h-2.345Zm9.404.192c-.979 0-1.681-.282-2.106-.846-.415-.564-.622-1.303-.622-2.217v-3.207h-1.085v-1.739l1.212-.096.272-2.106h1.946v2.106h1.898v1.835h-1.898v3.175c0 .446.09.771.271.973.192.191.441.287.75.287.128 0 .255-.016.383-.048.138-.032.26-.069.367-.111l.367 1.707a8.72 8.72 0 0 1-.75.191 4.658 4.658 0 0 1-1.005.096Zm6.321 0c-.755 0-1.436-.165-2.042-.495a3.618 3.618 0 0 1-1.436-1.42c-.351-.617-.526-1.361-.526-2.233 0-.862.175-1.601.526-2.218.362-.617.83-1.09 1.404-1.42a3.487 3.487 0 0 1 1.803-.51c.755 0 1.377.17 1.866.51.5.33.873.782 1.117 1.356.255.564.383 1.208.383 1.931a5.857 5.857 0 0 1-.096 1.037h-4.738c.107.574.346 1 .718 1.276.372.266.819.399 1.34.399.564 0 1.133-.176 1.707-.527l.782 1.42a5.131 5.131 0 0 1-1.356.654c-.5.16-.984.24-1.452.24Zm-1.755-5.01h2.856c0-.436-.106-.792-.319-1.069-.202-.287-.537-.43-1.005-.43-.362 0-.686.127-.973.383-.288.244-.474.616-.559 1.116Zm9.294 5.01c-.978 0-1.765-.367-2.361-1.101-.585-.745-.877-1.76-.877-3.047 0-.862.154-1.601.462-2.218.32-.627.729-1.106 1.229-1.436.51-.329 1.042-.494 1.595-.494.436 0 .803.074 1.101.223.298.149.58.351.846.606l-.096-1.212v-2.696h2.345v11.183h-1.914l-.16-.781h-.064c-.276.276-.601.51-.973.702a2.58 2.58 0 0 1-1.133.271Zm.607-1.915c.255 0 .484-.053.686-.159.212-.107.414-.293.606-.559v-3.238a1.687 1.687 0 0 0-.654-.399 2.081 2.081 0 0 0-.654-.112c-.373 0-.702.181-.989.543-.288.351-.431.904-.431 1.659 0 .776.122 1.351.367 1.723.255.361.611.542 1.069.542Z"/><path fill="#969494" d="M115.98 227.247c-1.801 0-3.377-.675-4.727-2.026-1.351-1.35-2.026-2.926-2.026-4.727v-67.53c0-1.801.675-3.377 2.026-4.727 1.35-1.351 2.926-2.026 4.727-2.026h67.53c1.801 0 3.377.675 4.727 2.026 1.351 1.35 2.026 2.926 2.026 4.727v67.53c0 1.801-.675 3.377-2.026 4.727-1.35 1.351-2.926 2.026-4.727 2.026h-67.53Zm6.303-17.67h55.037l-16.545-22.06-14.857 19.246-10.467-14.294-13.168 17.108Z"/></g><rect width="295.864" height="645.391" x="2.175" y="2.175" stroke="#DFDFDF" stroke-width="4.351" rx="19.579"/><defs><clipPath id="a"><rect width="300.215" height="649.742" fill="#fff" rx="21.755"/></clipPath></defs></svg>