<svg xmlns="http://www.w3.org/2000/svg" width="301" height="650" fill="none"><rect width="295.865" height="645.391" x="2.175" y="2.175" fill="#FEFFFF" rx="19.579"/><rect width="295.865" height="645.391" x="2.175" y="2.175" stroke="#DBDBDB" stroke-width="4.351" rx="19.579"/><path fill="#DBDBDB" fill-rule="evenodd" d="M101.522 629.075c0-1.002.812-1.813 1.813-1.813h93.546a1.812 1.812 0 1 1 0 3.626h-93.546a1.813 1.813 0 0 1-1.813-1.813Z" clip-rule="evenodd"/><rect width="231.326" height="33.357" x="34.808" y="211.746" fill="#EFEFEF" rx="5.801"/><path fill="#B1B1B1" d="M46.486 232.58c-.749 0-1.354-.23-1.815-.691-.452-.462-.678-1.114-.678-1.958 0-.601.095-1.145.287-1.632.2-.487.46-.909.783-1.266.33-.357.696-.631 1.096-.822.4-.192.81-.287 1.227-.287.479 0 .857.1 1.136.3.287.2.496.474.626.822s.196.74.196 1.175c0 .243-.026.478-.078.705-.052.217-.1.387-.144.509h-4.124c-.079.548-.048.996.09 1.344.14.348.353.605.64.77.296.157.627.235.992.235.253 0 .5-.052.745-.156.252-.114.478-.244.678-.392l.392.666a4.15 4.15 0 0 1-.914.483 3.22 3.22 0 0 1-1.135.195Zm-1.384-3.824h3.328c.018-.096.03-.196.04-.3.017-.105.026-.213.026-.327 0-.243-.04-.469-.118-.678a1.066 1.066 0 0 0-.391-.522c-.174-.14-.414-.209-.718-.209-.462 0-.897.187-1.305.561-.41.365-.697.857-.862 1.475Zm4.117 3.668 2.846-3.368-1.188-2.976h1.018l.548 1.41c.07.191.135.374.196.548.061.165.122.339.183.522h.052c.13-.174.266-.348.405-.522a22.1 22.1 0 0 0 .404-.548l1.11-1.41h1.083l-2.61 3.198 1.292 3.146h-1.031l-.575-1.488c-.07-.192-.143-.387-.221-.588-.07-.2-.148-.396-.235-.587h-.053a24.394 24.394 0 0 1-.9 1.162l-1.227 1.501h-1.097Zm8.29.156c-.556 0-1-.195-1.331-.587-.33-.4-.496-.97-.496-1.71 0-.609.096-1.175.287-1.697a4.8 4.8 0 0 1 .77-1.396c.322-.401.688-.71 1.097-.927a2.61 2.61 0 0 1 1.279-.339c.34 0 .64.087.9.261.27.174.48.404.627.691h.052l.248-.796h.81l-1.267 6.344h-.822l.105-.94h-.053a4.143 4.143 0 0 1-1.03.796c-.384.2-.775.3-1.176.3Zm.366-.835c.33 0 .666-.1 1.005-.3.348-.2.679-.505.992-.914l.574-2.832c-.182-.331-.383-.57-.6-.718a1.21 1.21 0 0 0-.692-.222c-.313 0-.618.091-.914.274a2.924 2.924 0 0 0-.783.757 4.08 4.08 0 0 0-.548 1.083c-.13.401-.196.818-.196 1.254 0 .548.105.957.313 1.226.218.262.5.392.849.392Zm4.713.679 1.267-6.344h.822l-.092.953h.053c.33-.313.674-.574 1.03-.783.366-.218.714-.326 1.045-.326.505 0 .862.121 1.07.365.218.235.349.526.392.875a6.362 6.362 0 0 1 1.188-.901c.383-.226.735-.339 1.057-.339.53 0 .914.143 1.149.43.235.279.352.662.352 1.149 0 .148-.009.287-.026.418-.017.13-.043.282-.078.456l-.81 4.047h-1.005l.797-3.916c.034-.174.06-.313.078-.418.017-.104.026-.213.026-.326 0-.653-.309-.979-.927-.979-.182 0-.43.091-.744.274-.313.183-.661.474-1.044.875l-.9 4.49h-.993l.784-3.916c.034-.174.06-.313.078-.418.017-.104.026-.213.026-.326 0-.653-.305-.979-.914-.979-.191 0-.444.091-.757.274-.313.183-.657.474-1.03.875l-.902 4.49h-.992Zm9.892 2.676 1.801-9.02h.823l-.079.836h.04c.322-.27.665-.501 1.03-.692.375-.2.762-.3 1.163-.3.556 0 1 .2 1.331.6.33.392.496.957.496 1.697 0 .609-.096 1.179-.287 1.71a4.846 4.846 0 0 1-.77 1.383 3.703 3.703 0 0 1-1.097.94 2.658 2.658 0 0 1-1.266.326c-.33 0-.626-.082-.888-.248a2.12 2.12 0 0 1-.64-.665h-.025l-.235 1.357-.405 2.076h-.992Zm3.146-3.355c.313 0 .613-.091.9-.274a2.76 2.76 0 0 0 .784-.744 3.85 3.85 0 0 0 .548-1.083c.13-.409.196-.836.196-1.28 0-.539-.105-.939-.314-1.2a1.016 1.016 0 0 0-.848-.405c-.296 0-.622.091-.979.274a3.631 3.631 0 0 0-.979.77l-.6 3.028c.174.322.37.557.587.705.226.139.461.209.705.209Zm5.393.835c-.566 0-.849-.274-.849-.822 0-.148.026-.331.079-.548l1.605-8.08h1.005l-1.631 8.132a3.01 3.01 0 0 1-.026.157v.091c0 .157.073.235.222.235h.078c.026-.009.07-.022.13-.039l.013.77a1.38 1.38 0 0 1-.274.078 1.957 1.957 0 0 1-.352.026Zm4.79 0c-.748 0-1.352-.23-1.813-.691-.453-.462-.68-1.114-.68-1.958 0-.601.096-1.145.288-1.632.2-.487.461-.909.783-1.266.33-.357.696-.631 1.097-.822.4-.192.809-.287 1.227-.287.478 0 .857.1 1.135.3.287.2.496.474.627.822.13.348.195.74.195 1.175 0 .243-.026.478-.078.705a5.26 5.26 0 0 1-.144.509h-4.124c-.079.548-.048.996.091 1.344.14.348.353.605.64.77.296.157.626.235.992.235.252 0 .5-.052.744-.156a3.69 3.69 0 0 0 .678-.392l.392.666a4.146 4.146 0 0 1-.914.483 3.22 3.22 0 0 1-1.135.195Zm-1.383-3.824h3.329c.017-.096.03-.196.039-.3.017-.105.026-.213.026-.327 0-.243-.04-.469-.117-.678a1.066 1.066 0 0 0-.392-.522c-.174-.14-.413-.209-.718-.209-.461 0-.896.187-1.305.561-.41.365-.696.857-.862 1.475Zm5.031 3.668.17-.836h1.814l1.254-6.239H91.22l.13-.652c.74-.105 1.349-.305 1.828-.601h.77l-1.515 7.492h1.697l-.156.836h-4.517Zm5.802 0 .104-.601c.836-.704 1.562-1.322 2.18-1.853a24.649 24.649 0 0 0 1.54-1.449c.41-.426.714-.831.914-1.214.209-.391.313-.787.313-1.188 0-.383-.113-.705-.339-.966-.218-.261-.557-.391-1.018-.391-.279 0-.561.074-.849.222a3.858 3.858 0 0 0-.861.613l-.51-.626a4.948 4.948 0 0 1 1.136-.757 2.753 2.753 0 0 1 1.201-.275c.714 0 1.262.196 1.645.588.383.383.574.87.574 1.462 0 .461-.091.896-.274 1.305a5.171 5.171 0 0 1-.809 1.24c-.357.418-.805.87-1.344 1.358-.54.487-1.17 1.044-1.893 1.67h3.602l-.156.862h-5.156Zm8.843.156c-.566 0-1.07-.139-1.514-.417a3.651 3.651 0 0 1-1.044-1.018l.665-.522c.2.295.461.556.783.783.322.226.697.339 1.123.339.592 0 1.075-.161 1.449-.483.383-.331.574-.744.574-1.24 0-.444-.183-.809-.548-1.096-.366-.287-.988-.431-1.867-.431l.157-.757c.687 0 1.227-.087 1.619-.261.4-.183.683-.405.848-.666.174-.27.261-.535.261-.796 0-.366-.109-.666-.326-.901-.218-.235-.549-.352-.992-.352-.253 0-.527.061-.823.183a3.462 3.462 0 0 0-.809.482l-.509-.665c.722-.548 1.488-.823 2.297-.823.696 0 1.232.175 1.606.523.383.348.574.809.574 1.383 0 .531-.165.997-.496 1.397-.322.4-.805.692-1.449.874v.053c.461.148.818.378 1.071.691a1.7 1.7 0 0 1 .391 1.123c0 .531-.135.992-.404 1.384a2.65 2.65 0 0 1-1.084.9c-.452.209-.97.313-1.553.313Zm8.425 1.867a4.194 4.194 0 0 1-2.036-.496 3.604 3.604 0 0 1-1.436-1.41c-.357-.618-.535-1.366-.535-2.245 0-.896.156-1.723.47-2.48a6.452 6.452 0 0 1 1.266-1.997 5.957 5.957 0 0 1 1.827-1.318 4.88 4.88 0 0 1 2.115-.483c.827 0 1.527.169 2.101.509a3.334 3.334 0 0 1 1.319 1.37c.304.575.457 1.236.457 1.984 0 .845-.131 1.562-.392 2.154-.261.583-.6 1.027-1.018 1.332a2.27 2.27 0 0 1-1.332.443c-.304 0-.561-.087-.77-.261a1.264 1.264 0 0 1-.404-.731h-.039a3.171 3.171 0 0 1-.692.627 1.455 1.455 0 0 1-.81.248c-.4 0-.752-.152-1.057-.457-.296-.313-.444-.748-.444-1.305 0-.383.066-.757.196-1.123a3.86 3.86 0 0 1 .548-1.005c.235-.296.509-.531.823-.705.313-.182.644-.274.992-.274.409 0 .726.222.953.666h.026l.169-.561h.666l-.653 2.832c-.087.4-.082.727.013.979.096.252.318.379.666.379.287 0 .57-.118.849-.353.287-.244.522-.596.704-1.057.192-.47.288-1.036.288-1.697 0-.635-.118-1.201-.353-1.697a2.587 2.587 0 0 0-1.057-1.188c-.479-.296-1.092-.444-1.841-.444-.591 0-1.174.14-1.749.418a5.203 5.203 0 0 0-1.566 1.149 5.816 5.816 0 0 0-1.109 1.749 5.482 5.482 0 0 0-.418 2.154c0 .774.152 1.431.457 1.971.304.539.709.948 1.214 1.227a3.4 3.4 0 0 0 1.67.417c.653 0 1.24-.161 1.763-.483l.3.601c-.696.374-1.41.561-2.141.561Zm.274-3.446c.392 0 .783-.265 1.175-.796l.47-2.102c-.113-.226-.235-.378-.366-.457a.676.676 0 0 0-.404-.13c-.34 0-.644.122-.914.365-.261.244-.47.549-.627.914a2.733 2.733 0 0 0-.221 1.044c0 .392.082.683.248.875a.832.832 0 0 0 .639.287Zm7.994 4.294c-.426 0-.826-.082-1.2-.248a4.324 4.324 0 0 1-1.019-.626l.47-.692c.244.2.514.374.81.522.304.148.631.222.979.222.539 0 .97-.165 1.292-.496.322-.331.544-.774.666-1.331l.326-1.358a4.308 4.308 0 0 1-1.044.783 2.466 2.466 0 0 1-1.162.288c-.531 0-.97-.188-1.318-.562-.348-.374-.523-.931-.523-1.67 0-.584.092-1.127.275-1.632.191-.505.443-.949.757-1.331a3.669 3.669 0 0 1 1.083-.914 2.56 2.56 0 0 1 1.24-.326c.331 0 .631.087.901.261.269.174.478.404.626.691h.039l.248-.796h.823l-1.332 6.644c-.165.827-.5 1.462-1.005 1.906-.496.444-1.14.665-1.932.665Zm.444-3.772c.305 0 .631-.091.979-.274.357-.191.683-.47.979-.835l.561-2.715c-.191-.331-.395-.57-.613-.718a1.15 1.15 0 0 0-.679-.222c-.304 0-.6.091-.887.274a2.78 2.78 0 0 0-.757.718 3.95 3.95 0 0 0-.523 1.031 3.71 3.71 0 0 0-.195 1.201c0 .513.1.901.3 1.162.209.252.487.378.835.378Zm4.663.901 1.267-6.344h.822l-.092.953h.053a5.65 5.65 0 0 1 1.031-.783c.365-.218.713-.326 1.044-.326.505 0 .862.121 1.07.365.218.235.348.526.392.875a6.357 6.357 0 0 1 1.188-.901c.383-.226.735-.339 1.057-.339.531 0 .914.143 1.149.43.235.279.352.662.352 1.149 0 .148-.009.287-.026.418-.017.13-.043.282-.078.456l-.81 4.047h-1.005l.797-3.916c.034-.174.061-.313.078-.418.017-.104.026-.213.026-.326 0-.653-.309-.979-.927-.979-.182 0-.43.091-.744.274-.313.183-.661.474-1.044.875l-.901 4.49h-.992l.784-3.916c.034-.174.06-.313.078-.418.017-.104.026-.213.026-.326 0-.653-.305-.979-.914-.979-.191 0-.444.091-.757.274-.313.183-.657.474-1.031.875l-.901 4.49h-.992Zm12.359.156c-.557 0-1.001-.195-1.331-.587-.331-.4-.496-.97-.496-1.71 0-.609.096-1.175.287-1.697.191-.531.448-.996.77-1.396a3.53 3.53 0 0 1 1.097-.927 2.605 2.605 0 0 1 1.279-.339c.339 0 .639.087.9.261.27.174.479.404.627.691h.052l.248-.796h.809l-1.266 6.344h-.822l.104-.94h-.052a4.132 4.132 0 0 1-1.031.796c-.383.2-.775.3-1.175.3Zm.366-.835c.33 0 .665-.1 1.005-.3.348-.2.678-.505.992-.914l.574-2.832c-.183-.331-.383-.57-.6-.718a1.212 1.212 0 0 0-.692-.222c-.313 0-.618.091-.914.274a2.926 2.926 0 0 0-.783.757 4.079 4.079 0 0 0-.548 1.083 4.008 4.008 0 0 0-.196 1.254c0 .548.104.957.313 1.226.218.262.501.392.849.392Zm4.713.679 1.266-6.344h1.005l-1.279 6.344h-.992Zm2.102-7.662a.728.728 0 0 1-.444-.144.534.534 0 0 1-.196-.444c0-.217.074-.396.222-.535a.758.758 0 0 1 .535-.222c.174 0 .322.053.444.157.13.104.196.252.196.444a.686.686 0 0 1-.235.535.738.738 0 0 1-.522.209Zm2.014 7.818c-.566 0-.849-.274-.849-.822 0-.148.026-.331.079-.548l1.605-8.08h1.005l-1.631 8.132a4.684 4.684 0 0 1-.026.157v.091c0 .157.074.235.221.235h.079c.026-.009.069-.022.13-.039l.013.77a1.372 1.372 0 0 1-.274.078 1.948 1.948 0 0 1-.352.026Zm2.728 0a.59.59 0 0 1-.456-.182.695.695 0 0 1-.157-.47c0-.226.083-.435.248-.627a.82.82 0 0 1 .627-.287c.191 0 .339.065.443.196a.693.693 0 0 1 .157.47.925.925 0 0 1-.248.613.754.754 0 0 1-.614.287Zm4.94 0c-.688 0-1.249-.221-1.684-.665-.435-.444-.653-1.071-.653-1.88 0-.592.096-1.135.288-1.631.191-.505.452-.94.783-1.306a3.675 3.675 0 0 1 1.135-.861 2.994 2.994 0 0 1 1.332-.313c.383 0 .705.073.966.221.261.148.487.331.678.549l-.587.626a1.692 1.692 0 0 0-.496-.431 1.242 1.242 0 0 0-.626-.143c-.418 0-.814.148-1.188.444a3.28 3.28 0 0 0-.914 1.174 3.651 3.651 0 0 0-.352 1.606c0 .574.121 1.014.365 1.318.252.305.631.457 1.136.457.278 0 .535-.056.77-.17a3.55 3.55 0 0 0 .639-.391l.444.652a5.002 5.002 0 0 1-.848.51c-.331.156-.727.234-1.188.234Zm5.429 0c-.688 0-1.236-.226-1.645-.678-.409-.453-.613-1.075-.613-1.867 0-.6.095-1.148.287-1.645.191-.504.448-.939.77-1.305a3.432 3.432 0 0 1 1.096-.861c.409-.2.832-.3 1.267-.3.687 0 1.235.226 1.644.678.418.453.627 1.075.627 1.867 0 .6-.096 1.153-.287 1.658a4.278 4.278 0 0 1-.784 1.305 3.517 3.517 0 0 1-1.096.848c-.409.2-.831.3-1.266.3Zm.104-.835c.392 0 .762-.144 1.11-.431.357-.287.644-.674.861-1.161a3.79 3.79 0 0 0 .34-1.619c0-.574-.118-1.014-.353-1.318-.235-.314-.57-.47-1.005-.47-.391 0-.766.148-1.122.444-.348.287-.636.674-.862 1.161a3.939 3.939 0 0 0-.326 1.619c0 .574.117 1.014.352 1.318.235.305.57.457 1.005.457Zm4.251.679 1.266-6.344h.822l-.091.953h.052a5.719 5.719 0 0 1 1.031-.783c.366-.218.714-.326 1.045-.326.504 0 .861.121 1.07.365.218.235.348.526.392.875a6.385 6.385 0 0 1 1.187-.901c.383-.226.736-.339 1.058-.339.53 0 .913.143 1.148.43.235.279.353.662.353 1.149 0 .148-.009.287-.026.418-.018.13-.044.282-.079.456l-.809 4.047h-1.005l.796-3.916c.035-.174.061-.313.079-.418.017-.104.026-.213.026-.326 0-.653-.309-.979-.927-.979-.183 0-.431.091-.744.274-.313.183-.661.474-1.044.875l-.901 4.49h-.992l.783-3.916c.035-.174.061-.313.078-.418.018-.104.027-.213.027-.326 0-.653-.305-.979-.914-.979-.192 0-.444.091-.757.274-.313.183-.657.474-1.031.875l-.901 4.49h-.992Z"/><rect width="231.326" height="33.357" x="34.083" y="287.637" fill="#EFEFEF" rx="5.801"/><path fill="#B1B1B1" d="m45.082 305.749-.418-.378.9-1.149-1.148-.64.235-.522 1.292.431.326-1.384.575.053-.105 1.396 1.345-.182.091.561-1.344.404.496 1.267-.522.3-.68-1.149-1.043.992Zm5.264 0-.418-.378.901-1.149-1.149-.64.235-.522 1.293.431.326-1.384.574.053-.104 1.396 1.344-.182.092.561-1.345.404.496 1.267-.522.3-.679-1.149-1.044.992Zm5.265 0-.418-.378.9-1.149-1.148-.64.235-.522 1.292.431.326-1.384.575.053-.105 1.396 1.345-.182.091.561-1.344.404.496 1.267-.522.3-.68-1.149-1.043.992Zm5.264 0-.418-.378.901-1.149-1.149-.64.235-.522 1.293.431.326-1.384.574.053-.104 1.396 1.344-.182.092.561-1.345.404.496 1.267-.522.3-.679-1.149-1.044.992Zm5.265 0-.418-.378.9-1.149-1.148-.64.235-.522 1.292.431.326-1.384.575.053-.105 1.396 1.345-.182.091.561-1.344.404.496 1.267-.523.3-.678-1.149-1.044.992Zm5.264 0-.418-.378.901-1.149-1.149-.64.235-.522 1.293.431.326-1.384.574.053-.104 1.396 1.344-.182.092.561-1.345.404.496 1.267-.522.3-.679-1.149-1.044.992Zm5.264 0-.417-.378.9-1.149-1.148-.64.235-.522 1.292.431.326-1.384.575.053-.105 1.396 1.345-.182.091.561-1.344.404.496 1.267-.523.3-.678-1.149-1.044.992Zm5.265 0-.418-.378.9-1.149-1.148-.64.235-.522 1.293.431.326-1.384.574.053-.104 1.396 1.344-.182.091.561-1.344.404.496 1.267-.522.3-.679-1.149-1.044.992Zm5.264 0-.417-.378.9-1.149-1.148-.64.235-.522 1.292.431.326-1.384.575.053-.105 1.396 1.345-.182.091.561-1.344.404.496 1.267-.523.3-.678-1.149-1.044.992Zm5.265 0-.418-.378.9-1.149-1.148-.64.235-.522 1.292.431.327-1.384.574.053-.104 1.396 1.344-.182.091.561-1.344.404.496 1.267-.522.3-.679-1.149-1.044.992Z"/><rect width="231.326" height="36.983" x="34.083" y="361.627" fill="#D9D9D9" rx="10.877"/><path fill="#737373" d="M129.856 386.52a5.782 5.782 0 0 1-2.042-.383 5.578 5.578 0 0 1-1.803-1.117l1.34-1.611c.372.319.787.579 1.244.781.458.202.899.303 1.324.303.49 0 .851-.09 1.085-.271a.864.864 0 0 0 .367-.734c0-.329-.138-.569-.415-.718a8.756 8.756 0 0 0-1.084-.526l-1.357-.574a4.62 4.62 0 0 1-1.005-.591 3.056 3.056 0 0 1-.781-.941c-.202-.372-.303-.808-.303-1.308 0-.574.154-1.095.462-1.563a3.364 3.364 0 0 1 1.308-1.117c.564-.277 1.208-.415 1.931-.415a4.86 4.86 0 0 1 1.787.351 4.53 4.53 0 0 1 1.563 1.021l-1.196 1.484a4.327 4.327 0 0 0-1.022-.607 2.806 2.806 0 0 0-1.132-.223c-.404 0-.729.085-.973.255a.782.782 0 0 0-.351.686c0 .319.149.559.446.718.309.16.686.33 1.133.511l1.34.542c.628.255 1.128.606 1.5 1.053.372.447.558 1.037.558 1.771a2.93 2.93 0 0 1-.463 1.595c-.308.49-.755.883-1.34 1.181-.585.298-1.292.447-2.121.447Zm5.498-.192v-7.913h2.345v7.913h-2.345Zm1.165-9.077c-.394 0-.713-.112-.957-.335-.245-.224-.367-.522-.367-.894s.122-.67.367-.893c.244-.224.563-.335.957-.335.393 0 .712.111.957.335.245.223.367.521.367.893s-.122.67-.367.894c-.245.223-.564.335-.957.335Zm6.068 12.443a6.292 6.292 0 0 1-1.675-.207c-.5-.138-.899-.356-1.197-.654-.297-.298-.446-.681-.446-1.149 0-.638.377-1.17 1.132-1.595v-.064a2.07 2.07 0 0 1-.526-.526c-.138-.213-.208-.484-.208-.814 0-.287.086-.564.256-.83a2.2 2.2 0 0 1 .638-.654v-.064c-.277-.191-.527-.468-.75-.829a2.376 2.376 0 0 1-.319-1.229c0-.638.154-1.164.463-1.579a2.839 2.839 0 0 1 1.212-.957 4.028 4.028 0 0 1 1.595-.319c.468 0 .878.064 1.229.191h2.887v1.707h-1.26c.075.117.133.266.176.447.053.181.079.377.079.59 0 .606-.138 1.106-.414 1.5a2.48 2.48 0 0 1-1.117.877 4.13 4.13 0 0 1-1.58.287c-.308 0-.627-.053-.957-.159a.74.74 0 0 0-.287.59c0 .202.09.351.271.447.181.096.49.143.926.143h1.276c.978 0 1.723.16 2.233.479.522.308.782.819.782 1.532a2.18 2.18 0 0 1-.542 1.451c-.362.436-.872.777-1.532 1.021-.659.245-1.441.367-2.345.367Zm.175-7.29a.989.989 0 0 0 .766-.335c.213-.224.319-.554.319-.99 0-.414-.106-.728-.319-.941a.989.989 0 0 0-.766-.335c-.308 0-.569.107-.781.319-.202.213-.303.532-.303.957 0 .436.101.766.303.99.212.223.473.335.781.335Zm.192 5.823c.532 0 .968-.096 1.308-.288.34-.191.511-.42.511-.686 0-.244-.107-.409-.319-.494-.203-.085-.5-.128-.894-.128h-.814c-.265 0-.489-.01-.67-.032a2.517 2.517 0 0 1-.446-.063c-.287.255-.431.515-.431.781 0 .298.16.521.479.67.329.16.755.24 1.276.24Zm5.331-1.899v-7.913h1.915l.159 1.005h.064c.34-.319.713-.595 1.117-.829a2.739 2.739 0 0 1 1.42-.367c.861 0 1.483.287 1.866.861.394.564.59 1.34.59 2.329v4.914h-2.345v-4.61c0-.575-.079-.968-.239-1.181-.149-.213-.394-.319-.734-.319-.298 0-.553.069-.766.207a4.165 4.165 0 0 0-.702.559v5.344h-2.345Zm12.324 0v-7.913h2.345v7.913h-2.345Zm1.164-9.077c-.393 0-.712-.112-.957-.335-.245-.224-.367-.522-.367-.894s.122-.67.367-.893c.245-.224.564-.335.957-.335.394 0 .713.111.957.335.245.223.367.521.367.893s-.122.67-.367.894c-.244.223-.563.335-.957.335Zm3.245 9.077v-7.913h1.914l.16 1.005h.063a6.116 6.116 0 0 1 1.117-.829 2.739 2.739 0 0 1 1.42-.367c.862 0 1.484.287 1.867.861.393.564.59 1.34.59 2.329v4.914h-2.345v-4.61c0-.575-.08-.968-.24-1.181-.148-.213-.393-.319-.733-.319-.298 0-.553.069-.766.207a4.087 4.087 0 0 0-.702.559v5.344h-2.345ZM40.412 171.076a7.355 7.355 0 0 1-2.6-.488 7.064 7.064 0 0 1-2.294-1.421l1.706-2.051a6.38 6.38 0 0 0 1.584.995c.582.257 1.143.386 1.685.386.622 0 1.083-.115 1.38-.345.312-.23.468-.542.468-.934 0-.42-.176-.724-.528-.914a11.157 11.157 0 0 0-1.381-.67l-1.726-.731a5.854 5.854 0 0 1-1.28-.751 3.893 3.893 0 0 1-.994-1.198c-.257-.474-.386-1.029-.386-1.665 0-.731.197-1.394.589-1.99.406-.595.961-1.069 1.665-1.421.717-.352 1.536-.528 2.457-.528.758 0 1.516.149 2.274.447a5.757 5.757 0 0 1 1.99 1.299l-1.523 1.888a5.477 5.477 0 0 0-1.3-.771 3.55 3.55 0 0 0-1.441-.284c-.515 0-.927.108-1.239.324-.298.203-.447.494-.447.874 0 .406.19.71.57.913.392.203.872.42 1.44.65l1.706.69c.799.325 1.435.772 1.909 1.34.474.569.71 1.32.71 2.254 0 .731-.196 1.408-.588 2.031-.393.622-.961 1.123-1.706 1.502-.744.379-1.645.569-2.7.569Zm6.998-.244v-10.071h2.985v10.071H47.41Zm1.482-11.553c-.5 0-.907-.142-1.218-.427-.312-.284-.467-.663-.467-1.137 0-.473.155-.852.467-1.137.311-.284.717-.426 1.218-.426.5 0 .907.142 1.218.426.312.285.467.664.467 1.137 0 .474-.155.853-.467 1.137-.311.285-.717.427-1.218.427Zm7.723 15.837a7.994 7.994 0 0 1-2.132-.264c-.636-.176-1.144-.453-1.523-.832-.379-.379-.568-.866-.568-1.462 0-.812.48-1.489 1.441-2.031v-.081a2.622 2.622 0 0 1-.67-.67c-.175-.271-.263-.616-.263-1.035 0-.366.108-.718.324-1.056.217-.339.488-.616.813-.833v-.081c-.352-.244-.67-.595-.955-1.056a3.023 3.023 0 0 1-.406-1.563c0-.812.196-1.482.589-2.01a3.612 3.612 0 0 1 1.543-1.219 5.144 5.144 0 0 1 2.03-.406c.596 0 1.117.082 1.564.244h3.675v2.173h-1.604c.095.149.17.338.223.568.068.23.102.481.102.751 0 .772-.176 1.408-.528 1.909a3.154 3.154 0 0 1-1.421 1.117c-.596.243-1.266.365-2.01.365-.393 0-.8-.067-1.219-.203a.942.942 0 0 0-.365.751c0 .258.115.447.345.569.23.122.623.183 1.178.183h1.624c1.245 0 2.193.203 2.843.609.663.392.995 1.042.995 1.949 0 .69-.23 1.306-.69 1.848-.461.555-1.11.988-1.95 1.299-.84.312-1.834.467-2.985.467Zm.224-9.279c.392 0 .717-.142.974-.426.27-.285.406-.704.406-1.259 0-.528-.135-.927-.406-1.198a1.258 1.258 0 0 0-.974-.426c-.393 0-.725.135-.995.406-.258.27-.386.676-.386 1.218 0 .555.129.974.386 1.259.27.284.602.426.995.426Zm.243 7.411c.677 0 1.232-.122 1.665-.365.433-.244.65-.535.65-.873 0-.312-.135-.521-.406-.63-.257-.108-.636-.162-1.137-.162h-1.036c-.338 0-.622-.014-.852-.041a3.104 3.104 0 0 1-.57-.081c-.364.325-.547.656-.547.995 0 .379.203.663.609.853.42.203.96.304 1.624.304Zm6.785-2.416v-10.071h2.437l.203 1.279h.081a7.763 7.763 0 0 1 1.422-1.056c.528-.311 1.13-.467 1.807-.467 1.096 0 1.888.366 2.375 1.097.501.717.752 1.705.752 2.964v6.254h-2.985v-5.868c0-.731-.102-1.232-.305-1.502-.19-.271-.5-.407-.934-.407-.379 0-.704.088-.974.264-.271.163-.569.4-.894.711v6.802h-2.985Zm18.71.244c-1.096 0-1.895-.359-2.396-1.076-.487-.731-.73-1.726-.73-2.985v-6.254h2.984v5.868c0 .717.102 1.218.305 1.503.203.27.52.406.954.406.379 0 .697-.088.954-.264.258-.176.535-.461.833-.853v-6.66h2.985v10.071h-2.437l-.223-1.401h-.061c-.42.501-.88.9-1.38 1.198-.502.298-1.097.447-1.788.447Zm8.515 3.492v-13.807h2.437l.203.995h.08a5.449 5.449 0 0 1 1.32-.873 3.486 3.486 0 0 1 1.544-.366c1.218 0 2.18.467 2.883 1.401.704.921 1.056 2.159 1.056 3.716 0 1.151-.203 2.132-.609 2.944-.406.812-.934 1.435-1.584 1.868-.636.42-1.32.63-2.05.63-.434 0-.853-.088-1.26-.264a4.226 4.226 0 0 1-1.137-.792l.102 1.604v2.944h-2.985Zm4.589-5.929c.514 0 .954-.237 1.32-.711.365-.473.548-1.225.548-2.253 0-1.814-.582-2.721-1.746-2.721-.582 0-1.158.304-1.726.914v4.121c.27.244.541.413.812.508.27.095.535.142.792.142ZM35.77 204.617v-7.588h4.572v1.137h-3.225v1.938h2.726v1.137h-2.727v2.239h3.342v1.137h-4.687Zm6.128 0v-5.697H43l.093.778h.046c.24-.256.5-.472.778-.65.286-.178.607-.267.963-.267.417 0 .75.093.997.279.256.177.45.425.58.742.271-.294.554-.537.847-.731.302-.193.63-.29.987-.29.603 0 1.048.197 1.334.592.286.394.43.951.43 1.671v3.573h-1.346v-3.399c0-.472-.074-.805-.221-.998-.14-.194-.356-.29-.65-.29-.356 0-.754.236-1.195.708v3.979H45.31v-3.399c0-.472-.074-.805-.22-.998-.14-.194-.36-.29-.662-.29-.356 0-.754.236-1.195.708v3.979h-1.334Zm11.159.139c-.495 0-.901-.154-1.218-.464-.31-.309-.465-.711-.465-1.206 0-.611.267-1.083.801-1.416.534-.34 1.385-.572 2.553-.696a1.361 1.361 0 0 0-.244-.777c-.147-.225-.414-.337-.8-.337-.28 0-.554.054-.825.163a5.578 5.578 0 0 0-.777.394l-.487-.893a5.714 5.714 0 0 1 1.067-.522 3.689 3.689 0 0 1 1.277-.221c.711 0 1.241.213 1.59.638.355.418.533 1.025.533 1.822v3.376H54.96l-.093-.626h-.047a4.14 4.14 0 0 1-.823.545c-.287.147-.6.22-.94.22Zm.43-1.044c.231 0 .44-.054.626-.162.193-.116.398-.271.614-.464v-1.277c-.773.101-1.31.252-1.612.453-.302.193-.453.433-.453.719 0 .255.078.441.232.557a.96.96 0 0 0 .592.174Zm4.172.905v-5.697h1.334v5.697h-1.334Zm.673-6.694c-.24 0-.434-.07-.58-.209a.733.733 0 0 1-.221-.557c0-.225.074-.406.22-.546.147-.139.34-.208.58-.208.24 0 .434.069.58.208.148.14.221.321.221.546a.732.732 0 0 1-.22.557c-.147.139-.34.209-.58.209Zm3.663 6.833c-.472 0-.809-.143-1.01-.429-.193-.286-.29-.677-.29-1.172v-6.729h1.334v6.799c0 .162.031.278.093.348a.277.277 0 0 0 .198.093h.08a1.08 1.08 0 0 1 .128-.023l.175.997a1.707 1.707 0 0 1-.302.082 2.112 2.112 0 0 1-.406.034ZM35.77 280.508v-7.588h2.39a4.76 4.76 0 0 1 1.509.22c.44.147.789.391 1.044.731.255.341.383.805.383 1.392 0 .557-.127 1.018-.383 1.381-.255.364-.6.634-1.032.812a3.848 3.848 0 0 1-1.474.267h-1.09v2.785H35.77Zm1.346-3.864h.987c1.114 0 1.67-.46 1.67-1.381 0-.479-.147-.808-.44-.986-.287-.185-.712-.278-1.277-.278h-.94v2.645Zm6.23 4.003c-.495 0-.9-.155-1.218-.464-.31-.309-.464-.712-.464-1.207 0-.611.267-1.083.8-1.415.534-.341 1.385-.573 2.553-.696a1.368 1.368 0 0 0-.244-.778c-.146-.224-.413-.336-.8-.336-.279 0-.553.054-.824.162-.263.108-.522.24-.777.395l-.487-.894a5.714 5.714 0 0 1 1.067-.522c.402-.147.828-.22 1.276-.22.712 0 1.242.212 1.59.638.356.418.534 1.025.534 1.821v3.377h-1.103l-.093-.627h-.046c-.255.217-.53.399-.824.546-.286.147-.6.22-.94.22Zm.43-1.044c.232 0 .44-.054.626-.163a4.09 4.09 0 0 0 .615-.464V277.7c-.773.101-1.31.251-1.613.452-.301.194-.452.434-.452.72 0 .255.077.441.232.557a.96.96 0 0 0 .592.174Zm5.762 1.044c-.387 0-.774-.073-1.16-.22a3.888 3.888 0 0 1-.998-.569l.626-.859c.255.194.51.349.766.465.255.116.526.174.812.174.31 0 .538-.066.685-.198a.627.627 0 0 0 .22-.487.483.483 0 0 0-.185-.394 1.484 1.484 0 0 0-.453-.279 10.627 10.627 0 0 0-.58-.244 6.23 6.23 0 0 1-.743-.336 1.927 1.927 0 0 1-.591-.522c-.155-.217-.232-.484-.232-.801 0-.502.185-.912.556-1.23.372-.317.875-.475 1.509-.475.402 0 .762.069 1.079.209.317.139.592.297.824.475l-.615.812a2.891 2.891 0 0 0-.615-.348 1.517 1.517 0 0 0-.638-.139c-.286 0-.5.062-.639.186a.55.55 0 0 0-.208.441c0 .224.116.394.348.51.232.116.503.228.812.337.263.093.518.209.766.348.247.131.452.305.615.522.17.216.255.503.255.858 0 .488-.19.905-.569 1.254-.379.34-.928.51-1.647.51Zm4.997 0c-.387 0-.774-.073-1.16-.22a3.888 3.888 0 0 1-.998-.569l.626-.859c.255.194.51.349.766.465.255.116.526.174.812.174.31 0 .538-.066.685-.198a.627.627 0 0 0 .22-.487.483.483 0 0 0-.186-.394 1.484 1.484 0 0 0-.452-.279 10.627 10.627 0 0 0-.58-.244 6.23 6.23 0 0 1-.743-.336 1.927 1.927 0 0 1-.591-.522c-.155-.217-.233-.484-.233-.801 0-.502.186-.912.557-1.23.372-.317.874-.475 1.509-.475.402 0 .762.069 1.079.209.317.139.591.297.824.475l-.616.812a2.888 2.888 0 0 0-.614-.348 1.517 1.517 0 0 0-.639-.139c-.286 0-.498.062-.638.186a.55.55 0 0 0-.208.441c0 .224.116.394.348.51.232.116.502.228.812.337.263.093.518.209.765.348.248.131.453.305.615.522.17.216.256.503.256.858 0 .488-.19.905-.569 1.254-.379.34-.928.51-1.647.51Zm4.347-.139-1.509-5.697h1.346l.685 2.959c.062.27.112.541.15.812.047.271.097.545.151.824h.047l.162-.824c.062-.279.128-.549.197-.812l.743-2.959h1.218l.755 2.959c.07.27.135.541.197.812s.123.545.185.824h.047c.054-.279.104-.553.15-.824.047-.271.097-.542.151-.812l.685-2.959h1.253l-1.45 5.697h-1.59l-.661-2.657c-.062-.271-.12-.538-.174-.801l-.174-.858h-.047a44.06 44.06 0 0 1-.162.858c-.054.271-.112.542-.174.812l-.65 2.646h-1.531Zm10.003.139c-.472 0-.913-.116-1.323-.348-.41-.24-.742-.58-.997-1.021-.255-.449-.383-.986-.383-1.613 0-.634.127-1.172.383-1.613.255-.448.588-.789.998-1.021.41-.239.85-.359 1.322-.359.48 0 .925.12 1.334.359.41.232.743.573.998 1.021.256.441.383.979.383 1.613 0 .627-.127 1.164-.383 1.613a2.75 2.75 0 0 1-.998 1.021c-.41.232-.854.348-1.334.348Zm0-1.091c.418 0 .747-.174.986-.522.24-.348.36-.804.36-1.369 0-.572-.12-1.032-.36-1.381a1.135 1.135 0 0 0-.986-.522c-.418 0-.746.174-.986.522-.232.349-.348.809-.348 1.381 0 .565.116 1.021.348 1.369.24.348.569.522.986.522Zm4.036.952v-5.697h1.102l.093 1.009h.046c.201-.371.445-.653.731-.847.287-.201.58-.301.882-.301.27 0 .487.038.65.116l-.232 1.16a2.541 2.541 0 0 0-.279-.07 1.837 1.837 0 0 0-.313-.023c-.224 0-.46.089-.708.267-.247.17-.46.472-.638.905v3.481h-1.334Zm6.21.139c-.711 0-1.28-.263-1.705-.789-.425-.526-.638-1.257-.638-2.193 0-.619.112-1.152.336-1.601.232-.449.534-.793.905-1.033a2.132 2.132 0 0 1 1.172-.359c.325 0 .6.058.824.174.232.108.456.259.673.452l-.046-.916v-2.066h1.334v8.192h-1.103l-.092-.615h-.047a3.014 3.014 0 0 1-.73.534c-.28.147-.573.22-.882.22Zm.325-1.102c.426 0 .824-.213 1.195-.638v-2.657a1.752 1.752 0 0 0-.58-.372 1.717 1.717 0 0 0-.58-.104c-.363 0-.677.166-.94.499-.255.325-.383.785-.383 1.381 0 .611.113 1.079.337 1.403.224.325.541.488.951.488Z"/><rect width="43.51" height="43.51" x="35.353" y="36.258" fill="#D9D9D9" rx="8.702"/><path fill="#737373" d="M41.88 62.208v-8.393h1.88v6.796h3.299v1.597h-5.18ZM51.425 62.362a3.949 3.949 0 0 1-1.547-.296 3.438 3.438 0 0 1-1.19-.875 4.079 4.079 0 0 1-.78-1.378c-.179-.54-.268-1.154-.268-1.84 0-.687.09-1.296.268-1.828.188-.541.448-.992.78-1.352a3.232 3.232 0 0 1 1.19-.837 3.949 3.949 0 0 1 1.547-.296c.563 0 1.074.099 1.535.296.469.189.87.468 1.202.837.332.369.588.824.767 1.364.188.533.282 1.138.282 1.816 0 .686-.094 1.3-.282 1.84-.179.54-.435 1-.767 1.378-.333.377-.733.669-1.202.875-.46.197-.972.296-1.535.296Zm0-1.635c.571 0 1.023-.244 1.356-.733.332-.498.498-1.172.498-2.022 0-.84-.166-1.497-.498-1.969-.333-.472-.785-.708-1.356-.708-.571 0-1.023.236-1.355.708-.333.472-.5 1.129-.5 1.97 0 .85.167 1.523.5 2.02.332.49.784.734 1.355.734ZM60.461 62.362c-.571 0-1.108-.09-1.611-.27a3.705 3.705 0 0 1-1.292-.824 3.862 3.862 0 0 1-.87-1.339c-.204-.54-.306-1.163-.306-1.866 0-.696.106-1.313.32-1.854.213-.55.503-1.013.87-1.39.374-.378.809-.665 1.303-.863a4.202 4.202 0 0 1 1.573-.296c.606 0 1.126.112 1.56.335.435.223.79.476 1.062.76l-.985 1.21a3.595 3.595 0 0 0-.678-.477c-.238-.129-.537-.193-.895-.193a2.07 2.07 0 0 0-.895.193 1.96 1.96 0 0 0-.69.528c-.197.232-.35.515-.46.85a3.871 3.871 0 0 0-.154 1.132c0 .867.192 1.54.575 2.021.392.472.98.708 1.765.708.17 0 .337-.021.499-.064a1.01 1.01 0 0 0 .396-.193v-1.442h-1.38v-1.545h3.043v3.862c-.29.283-.674.524-1.151.721a4.147 4.147 0 0 1-1.599.296ZM68.322 62.362a3.949 3.949 0 0 1-1.547-.296 3.437 3.437 0 0 1-1.19-.875 4.08 4.08 0 0 1-.78-1.378c-.179-.54-.268-1.154-.268-1.84 0-.687.09-1.296.268-1.828.188-.541.448-.992.78-1.352a3.231 3.231 0 0 1 1.19-.837 3.949 3.949 0 0 1 1.547-.296c.563 0 1.074.099 1.534.296.47.189.87.468 1.203.837.332.369.588.824.767 1.364.188.533.281 1.138.281 1.816 0 .686-.094 1.3-.281 1.84-.18.54-.435 1-.767 1.378-.333.377-.734.669-1.203.875-.46.197-.971.296-1.534.296Zm0-1.635c.571 0 1.023-.244 1.355-.733.333-.498.5-1.172.5-2.022 0-.84-.167-1.497-.5-1.969-.332-.472-.784-.708-1.355-.708s-1.023.236-1.356.708c-.332.472-.498 1.129-.498 1.97 0 .85.166 1.523.498 2.02.333.49.785.734 1.356.734Z"/></svg>