<svg xmlns="http://www.w3.org/2000/svg" width="301" height="651" fill="none"><rect width="295.865" height="645.391" x="2.96" y="2.863" fill="#FEFFFF" rx="19.579"/><rect width="295.865" height="645.391" x="2.96" y="2.863" stroke="#DBDBDB" stroke-width="4.351" rx="19.579"/><path fill="#DBDBDB" fill-rule="evenodd" d="M102.307 629.762c0-1.001.811-1.813 1.812-1.813h93.546a1.813 1.813 0 0 1 0 3.626h-93.546a1.813 1.813 0 0 1-1.812-1.813Z" clip-rule="evenodd"/><rect width="231.326" height="33.357" x="35.592" y="212.434" fill="#EFEFEF" rx="5.801"/><path fill="#B1B1B1" d="M47.27 233.268c-.748 0-1.353-.231-1.815-.692-.452-.461-.678-1.114-.678-1.958 0-.6.096-1.144.287-1.631a4.3 4.3 0 0 1 .783-1.266c.33-.357.696-.631 1.097-.823.4-.191.809-.287 1.226-.287.48 0 .858.1 1.136.3.287.2.496.474.627.823.13.348.195.739.195 1.174 0 .244-.026.479-.078.705a5.15 5.15 0 0 1-.143.509h-4.125c-.078.548-.048.997.091 1.345.14.348.353.604.64.77.296.156.626.235.992.235.252 0 .5-.052.744-.157.252-.113.478-.244.679-.391l.391.665a4.068 4.068 0 0 1-.913.483 3.199 3.199 0 0 1-1.136.196Zm-1.384-3.825h3.329c.017-.095.03-.195.039-.3.017-.104.026-.213.026-.326 0-.244-.04-.47-.117-.679a1.076 1.076 0 0 0-.392-.522c-.174-.139-.413-.209-.718-.209-.461 0-.896.187-1.305.562-.41.365-.696.857-.862 1.474Zm4.118 3.668 2.845-3.367-1.188-2.976h1.019l.548 1.409c.07.192.135.375.196.549.06.165.121.339.182.522h.052c.131-.174.266-.348.405-.522.14-.183.274-.366.405-.549l1.11-1.409h1.083l-2.61 3.198 1.291 3.145h-1.03l-.575-1.488c-.07-.191-.144-.387-.222-.587-.07-.2-.148-.396-.235-.587h-.052a23.442 23.442 0 0 1-.9 1.161l-1.228 1.501h-1.096Zm8.29.157c-.557 0-1.001-.196-1.332-.587-.33-.401-.496-.971-.496-1.71 0-.609.096-1.175.288-1.697.19-.531.448-.997.77-1.397s.687-.709 1.096-.927a2.61 2.61 0 0 1 1.28-.339c.339 0 .639.087.9.261.27.174.479.405.626.692h.053l.248-.796h.809l-1.266 6.343h-.823l.105-.939H60.5a4.17 4.17 0 0 1-1.032.796c-.382.2-.774.3-1.174.3Zm.365-.835c.33 0 .666-.1 1.005-.301.348-.2.679-.504.992-.913l.575-2.833c-.183-.33-.383-.57-.6-.718a1.21 1.21 0 0 0-.693-.222c-.313 0-.617.092-.913.275a2.909 2.909 0 0 0-.783.757 4.08 4.08 0 0 0-.549 1.083c-.13.4-.195.818-.195 1.253 0 .548.104.957.313 1.227.217.261.5.392.848.392Zm4.714.678 1.266-6.343h.822l-.091.953h.052c.33-.314.674-.575 1.031-.784.366-.217.714-.326 1.044-.326.505 0 .862.122 1.07.365.218.235.349.527.392.875a6.406 6.406 0 0 1 1.188-.901c.383-.226.735-.339 1.057-.339.531 0 .914.144 1.15.431.234.278.352.661.352 1.148 0 .148-.01.288-.027.418a7.21 7.21 0 0 1-.078.457l-.81 4.046h-1.004l.796-3.916c.035-.174.06-.313.078-.417.018-.105.026-.213.026-.327 0-.652-.308-.979-.926-.979-.183 0-.431.092-.744.275-.314.182-.662.474-1.045.874l-.9 4.49h-.992l.783-3.916c.035-.174.06-.313.078-.417.018-.105.026-.213.026-.327 0-.652-.304-.979-.913-.979-.192 0-.444.092-.758.275-.313.182-.656.474-1.03.874l-.901 4.49h-.992Zm9.892 2.676 1.8-9.019h.823l-.078.835h.039c.322-.27.666-.5 1.031-.692.374-.2.762-.3 1.162-.3.557 0 1 .2 1.331.6.33.392.496.958.496 1.697 0 .609-.096 1.179-.287 1.71a4.852 4.852 0 0 1-.77 1.384c-.322.4-.688.713-1.096.94a2.67 2.67 0 0 1-1.267.326c-.33 0-.626-.083-.887-.248a2.124 2.124 0 0 1-.64-.666h-.026l-.235 1.358-.404 2.075h-.993Zm3.145-3.354c.314 0 .614-.092.9-.275.297-.182.558-.43.784-.744a3.85 3.85 0 0 0 .548-1.083 4.18 4.18 0 0 0 .196-1.279c0-.54-.104-.94-.313-1.201a1.016 1.016 0 0 0-.849-.405c-.296 0-.622.092-.979.275a3.612 3.612 0 0 0-.978.77l-.601 3.028c.174.322.37.557.587.705.227.139.462.209.705.209Zm5.393.835c-.566 0-.848-.274-.848-.822 0-.148.026-.331.078-.549l1.605-8.079h1.006l-1.632 8.132a2.788 2.788 0 0 1-.026.156v.092c0 .156.074.235.222.235h.078l.13-.04.014.771a1.529 1.529 0 0 1-.627.104Zm4.791 0c-.748 0-1.353-.231-1.814-.692-.453-.461-.679-1.114-.679-1.958 0-.6.096-1.144.287-1.631.2-.488.461-.91.783-1.266.331-.357.697-.631 1.097-.823.4-.191.81-.287 1.227-.287.478 0 .857.1 1.135.3.288.2.496.474.627.823.13.348.196.739.196 1.174 0 .244-.026.479-.079.705-.052.218-.1.387-.143.509h-4.125c-.078.548-.048.997.092 1.345.139.348.352.604.64.77.295.156.626.235.991.235.252 0 .5-.052.744-.157.253-.113.479-.244.679-.391l.391.665a4.064 4.064 0 0 1-.913.483 3.198 3.198 0 0 1-1.136.196Zm-1.383-3.825h3.328c.017-.095.03-.195.04-.3.017-.104.025-.213.025-.326 0-.244-.039-.47-.117-.679a1.075 1.075 0 0 0-.392-.522c-.174-.139-.413-.209-.718-.209-.46 0-.896.187-1.305.562-.409.365-.696.857-.862 1.474Zm5.03 3.668.17-.835h1.815l1.253-6.239h-1.475l.13-.653c.74-.104 1.35-.305 1.828-.6h.77l-1.514 7.492h1.697l-.157.835h-4.516Zm5.802 0 .105-.6c.835-.705 1.562-1.323 2.18-1.854a24.37 24.37 0 0 0 1.54-1.448c.409-.427.713-.832.913-1.214.209-.392.314-.788.314-1.188 0-.383-.113-.705-.34-.966-.217-.261-.557-.392-1.018-.392-.278 0-.561.074-.848.222a3.865 3.865 0 0 0-.862.614l-.509-.627a4.948 4.948 0 0 1 1.136-.757 2.752 2.752 0 0 1 1.2-.274c.714 0 1.262.196 1.645.587.383.383.575.871.575 1.462 0 .461-.092.897-.274 1.306a5.208 5.208 0 0 1-.81 1.24c-.356.417-.805.87-1.344 1.357-.54.487-1.17 1.044-1.893 1.671h3.603l-.157.861h-5.156Zm8.843.157c-.565 0-1.07-.139-1.514-.418a3.639 3.639 0 0 1-1.044-1.018l.666-.522c.2.296.461.557.783.783.322.226.696.34 1.122.34.592 0 1.075-.161 1.449-.483.383-.331.574-.744.574-1.24 0-.444-.182-.81-.548-1.097-.365-.287-.987-.431-1.866-.431l.156-.757c.688 0 1.227-.087 1.619-.261.4-.182.683-.404.848-.665.174-.27.261-.536.261-.797 0-.365-.108-.665-.326-.9-.218-.235-.548-.353-.992-.353a2.17 2.17 0 0 0-.822.183 3.507 3.507 0 0 0-.81.483l-.509-.666c.723-.548 1.488-.822 2.298-.822.696 0 1.231.174 1.605.522.383.348.574.809.574 1.384 0 .531-.165.996-.496 1.396-.322.401-.804.692-1.448.875v.052c.461.148.818.379 1.07.692.261.313.391.687.391 1.122 0 .531-.134.992-.404 1.384a2.64 2.64 0 0 1-1.084.901c-.452.209-.97.313-1.553.313Zm8.425 1.867a4.205 4.205 0 0 1-2.036-.496 3.61 3.61 0 0 1-1.436-1.41c-.356-.618-.535-1.366-.535-2.245 0-.897.157-1.723.47-2.48a6.44 6.44 0 0 1 1.266-1.997 5.982 5.982 0 0 1 1.828-1.319 4.873 4.873 0 0 1 2.114-.483c.827 0 1.527.17 2.102.509a3.34 3.34 0 0 1 1.318 1.371c.305.574.457 1.236.457 1.984 0 .844-.131 1.562-.392 2.154-.261.583-.6 1.026-1.018 1.331-.418.296-.861.444-1.331.444a1.16 1.16 0 0 1-.77-.261 1.272 1.272 0 0 1-.405-.731h-.039c-.2.243-.431.452-.692.626a1.444 1.444 0 0 1-.809.248c-.401 0-.753-.152-1.058-.456-.295-.314-.443-.749-.443-1.306 0-.383.065-.757.195-1.122.14-.374.322-.71.549-1.005.235-.296.509-.531.822-.705.313-.183.644-.274.992-.274.409 0 .727.222.953.665h.026l.17-.561h.665l-.652 2.833c-.087.4-.083.726.013.979.096.252.317.378.665.378.288 0 .57-.117.849-.352.287-.244.522-.596.705-1.058.191-.47.287-1.035.287-1.697 0-.635-.118-1.2-.352-1.696a2.594 2.594 0 0 0-1.058-1.188c-.478-.296-1.092-.444-1.84-.444-.592 0-1.175.139-1.749.418a5.174 5.174 0 0 0-1.567 1.148 5.816 5.816 0 0 0-1.109 1.749 5.49 5.49 0 0 0-.418 2.154c0 .775.152 1.432.457 1.971.305.54.709.949 1.214 1.227a3.397 3.397 0 0 0 1.671.418 3.29 3.29 0 0 0 1.762-.483l.3.6c-.696.374-1.41.562-2.141.562Zm.274-3.446c.392 0 .784-.266 1.175-.797l.47-2.101c-.113-.226-.235-.379-.365-.457a.682.682 0 0 0-.405-.131c-.339 0-.644.122-.914.366-.261.244-.47.548-.626.914a2.709 2.709 0 0 0-.222 1.044c0 .391.083.683.248.874a.83.83 0 0 0 .639.288Zm7.995 4.294c-.427 0-.827-.083-1.201-.248a4.289 4.289 0 0 1-1.018-.627l.47-.691c.243.2.513.374.809.522.305.148.631.222.979.222.539 0 .97-.166 1.292-.496.322-.331.544-.775.666-1.332l.326-1.357a4.36 4.36 0 0 1-1.044.783 2.476 2.476 0 0 1-1.162.287c-.531 0-.97-.187-1.318-.561-.348-.374-.522-.931-.522-1.671 0-.583.091-1.127.274-1.632a4.74 4.74 0 0 1 .757-1.331 3.684 3.684 0 0 1 1.083-.914 2.574 2.574 0 0 1 1.24-.326c.331 0 .631.087.901.261.27.174.479.405.627.692h.039l.248-.796h.822l-1.331 6.644c-.166.826-.501 1.461-1.005 1.905-.496.444-1.14.666-1.932.666Zm.444-3.772c.304 0 .63-.092.979-.274.356-.192.683-.47.978-.836l.562-2.715c-.192-.33-.396-.57-.614-.718a1.15 1.15 0 0 0-.678-.222c-.305 0-.601.092-.888.275a2.79 2.79 0 0 0-.757.717 3.94 3.94 0 0 0-.522 1.032 3.677 3.677 0 0 0-.196 1.2c0 .514.1.901.3 1.162.209.253.487.379.836.379Zm4.663.9 1.266-6.343h.822l-.091.953h.052a5.646 5.646 0 0 1 1.031-.784c.366-.217.714-.326 1.044-.326.505 0 .862.122 1.071.365.217.235.348.527.391.875a6.4 6.4 0 0 1 1.188-.901c.383-.226.735-.339 1.057-.339.531 0 .914.144 1.149.431.235.278.352.661.352 1.148 0 .148-.008.288-.026.418a6.783 6.783 0 0 1-.078.457l-.809 4.046h-1.005l.796-3.916c.035-.174.061-.313.078-.417.018-.105.026-.213.026-.327 0-.652-.309-.979-.926-.979-.183 0-.431.092-.744.275-.314.182-.662.474-1.045.874l-.9 4.49h-.992l.783-3.916c.035-.174.061-.313.078-.417.018-.105.026-.213.026-.327 0-.652-.304-.979-.913-.979-.192 0-.444.092-.757.275-.314.182-.657.474-1.032.874l-.9 4.49h-.992Zm12.358.157c-.556 0-1-.196-1.331-.587-.331-.401-.496-.971-.496-1.71 0-.609.096-1.175.287-1.697a4.82 4.82 0 0 1 .77-1.397c.322-.4.688-.709 1.097-.927a2.608 2.608 0 0 1 1.279-.339c.339 0 .64.087.901.261.269.174.478.405.626.692h.052l.248-.796h.81l-1.266 6.343h-.823l.105-.939h-.053a4.156 4.156 0 0 1-1.031.796c-.383.2-.774.3-1.175.3Zm.366-.835c.331 0 .666-.1 1.005-.301.348-.2.679-.504.992-.913l.574-2.833c-.182-.33-.383-.57-.6-.718a1.21 1.21 0 0 0-.692-.222c-.313 0-.618.092-.914.275a2.911 2.911 0 0 0-.783.757 4.079 4.079 0 0 0-.548 1.083c-.13.4-.196.818-.196 1.253 0 .548.105.957.314 1.227.217.261.5.392.848.392Zm4.713.678 1.267-6.343h1.005l-1.28 6.343h-.992Zm2.102-7.662a.738.738 0 0 1-.444-.143.54.54 0 0 1-.196-.444.7.7 0 0 1 .222-.535.758.758 0 0 1 .535-.222c.174 0 .322.052.444.156a.536.536 0 0 1 .196.444.681.681 0 0 1-.235.535.734.734 0 0 1-.522.209Zm2.014 7.819c-.566 0-.848-.274-.848-.822 0-.148.026-.331.078-.549l1.605-8.079h1.006l-1.632 8.132a2.798 2.798 0 0 1-.026.156v.092c0 .156.074.235.222.235h.078c.026-.009.07-.022.131-.04l.013.771a1.542 1.542 0 0 1-.627.104Zm2.729 0a.592.592 0 0 1-.457-.183.693.693 0 0 1-.157-.47.94.94 0 0 1 .248-.626.816.816 0 0 1 .627-.287c.191 0 .339.065.444.195a.7.7 0 0 1 .156.47.922.922 0 0 1-.248.614.755.755 0 0 1-.613.287Zm4.939 0c-.687 0-1.248-.222-1.684-.666-.435-.444-.652-1.07-.652-1.879 0-.592.095-1.136.287-1.632.191-.505.452-.94.783-1.305a3.67 3.67 0 0 1 1.136-.862c.426-.209.87-.313 1.331-.313.383 0 .705.074.966.222.261.148.487.331.679.548l-.588.627a1.68 1.68 0 0 0-.496-.431c-.165-.096-.374-.144-.626-.144-.418 0-.814.148-1.188.444a3.293 3.293 0 0 0-.914 1.175 3.644 3.644 0 0 0-.352 1.605c0 .575.122 1.014.365 1.319.253.304.631.457 1.136.457.278 0 .535-.057.77-.17.235-.113.448-.244.64-.392l.443.653a4.938 4.938 0 0 1-.848.509c-.331.157-.727.235-1.188.235Zm5.429 0c-.687 0-1.235-.226-1.644-.679-.409-.452-.614-1.074-.614-1.866 0-.601.096-1.149.287-1.645a4.21 4.21 0 0 1 .77-1.305 3.439 3.439 0 0 1 1.097-.862c.409-.2.831-.3 1.266-.3.687 0 1.236.226 1.645.679.417.452.626 1.074.626 1.866 0 .601-.096 1.153-.287 1.658a4.296 4.296 0 0 1-.783 1.305 3.51 3.51 0 0 1-1.097.849c-.409.2-.831.3-1.266.3Zm.105-.835c.391 0 .761-.144 1.109-.431.357-.287.644-.675.862-1.162a3.8 3.8 0 0 0 .339-1.618c0-.575-.117-1.014-.352-1.319-.235-.313-.57-.47-1.006-.47-.391 0-.765.148-1.122.444-.348.287-.635.675-.862 1.162a3.934 3.934 0 0 0-.326 1.618c0 .575.118 1.014.353 1.319.235.304.57.457 1.005.457Zm4.25.678 1.266-6.343h.823l-.092.953h.053c.33-.314.674-.575 1.031-.784.365-.217.713-.326 1.044-.326.505 0 .861.122 1.07.365.218.235.348.527.392.875a6.4 6.4 0 0 1 1.188-.901c.383-.226.735-.339 1.057-.339.531 0 .914.144 1.149.431.235.278.352.661.352 1.148 0 .148-.009.288-.026.418a7.485 7.485 0 0 1-.078.457l-.81 4.046h-1.005l.797-3.916c.034-.174.06-.313.078-.417.017-.105.026-.213.026-.327 0-.652-.309-.979-.927-.979-.183 0-.431.092-.744.275-.313.182-.661.474-1.044.874l-.901 4.49h-.992l.783-3.916c.035-.174.061-.313.079-.417.017-.105.026-.213.026-.327 0-.652-.305-.979-.914-.979-.191 0-.444.092-.757.275-.313.182-.657.474-1.031.874l-.901 4.49h-.992Z"/><rect width="231.326" height="33.357" x="34.867" y="288.324" fill="#EFEFEF" rx="5.801"/><path fill="#B1B1B1" d="m45.866 306.437-.418-.379.9-1.149-1.148-.639.235-.522 1.292.43.327-1.383.574.052-.105 1.397 1.345-.183.091.561-1.344.405.496 1.266-.522.3-.679-1.148-1.044.992Zm5.264 0-.417-.379.9-1.149-1.148-.639.234-.522 1.293.43.326-1.383.574.052-.104 1.397 1.344-.183.092.561-1.345.405.496 1.266-.522.3-.678-1.148-1.045.992Zm5.265 0-.418-.379.9-1.149-1.148-.639.235-.522 1.292.43.327-1.383.574.052-.104 1.397 1.344-.183.091.561-1.344.405.496 1.266-.522.3-.679-1.148-1.044.992Zm5.264 0-.417-.379.9-1.149-1.149-.639.235-.522 1.293.43.326-1.383.574.052-.104 1.397 1.344-.183.092.561-1.345.405.496 1.266-.522.3-.678-1.148-1.045.992Zm5.265 0-.418-.379.9-1.149-1.148-.639.235-.522 1.292.43.327-1.383.574.052-.105 1.397 1.345-.183.091.561-1.344.405.496 1.266-.522.3-.68-1.148-1.043.992Zm5.264 0-.418-.379.901-1.149-1.149-.639.235-.522 1.293.43.326-1.383.574.052-.104 1.397 1.344-.183.092.561-1.345.405.496 1.266-.522.3-.679-1.148-1.044.992Zm5.265 0-.418-.379.9-1.149-1.148-.639.235-.522 1.292.43.327-1.383.574.052-.105 1.397 1.345-.183.091.561-1.344.405.496 1.266-.522.3-.68-1.148-1.043.992Zm5.264 0-.418-.379.901-1.149-1.149-.639.235-.522 1.293.43.326-1.383.574.052-.104 1.397 1.344-.183.092.561-1.345.405.496 1.266-.522.3-.679-1.148-1.044.992Zm5.265 0-.418-.379.9-1.149-1.148-.639.235-.522 1.292.43.326-1.383.575.052-.105 1.397 1.345-.183.091.561-1.344.405.496 1.266-.522.3-.68-1.148-1.043.992Zm5.264 0-.418-.379.901-1.149-1.149-.639.235-.522 1.293.43.326-1.383.574.052-.104 1.397 1.344-.183.092.561-1.345.405.496 1.266-.522.3-.679-1.148-1.044.992Z"/><rect width="231.326" height="36.983" x="34.867" y="362.314" fill="#D9D9D9" rx="10.877"/><path fill="#737373" d="M129.19 387.207a5.782 5.782 0 0 1-2.042-.383 5.555 5.555 0 0 1-1.803-1.117l1.34-1.611c.372.319.787.58 1.244.782.458.202.899.303 1.324.303.49 0 .851-.09 1.085-.271a.865.865 0 0 0 .367-.734c0-.33-.138-.569-.415-.718a8.615 8.615 0 0 0-1.084-.526l-1.356-.575a4.62 4.62 0 0 1-1.006-.59 3.056 3.056 0 0 1-.781-.941c-.202-.373-.303-.809-.303-1.309 0-.574.154-1.095.462-1.563.319-.468.755-.84 1.308-1.117.564-.276 1.208-.414 1.931-.414a4.88 4.88 0 0 1 1.787.35 4.532 4.532 0 0 1 1.563 1.022l-1.196 1.483a4.302 4.302 0 0 0-1.021-.606 2.797 2.797 0 0 0-1.133-.223c-.404 0-.729.085-.973.255a.78.78 0 0 0-.351.686c0 .319.149.558.446.718.309.159.686.329 1.133.51l1.34.543c.628.255 1.128.606 1.5 1.053.372.446.558 1.037.558 1.77 0 .575-.154 1.107-.462 1.596-.309.489-.756.883-1.341 1.18-.585.298-1.292.447-2.121.447Zm5.498-.191v-7.913h2.345v7.913h-2.345Zm1.165-9.078c-.394 0-.713-.112-.957-.335-.245-.223-.367-.521-.367-.893 0-.373.122-.67.367-.894.244-.223.563-.335.957-.335.393 0 .712.112.957.335.245.224.367.521.367.894 0 .372-.122.67-.367.893-.245.223-.564.335-.957.335Zm6.068 12.444a6.25 6.25 0 0 1-1.675-.208c-.5-.138-.899-.356-1.197-.654-.297-.297-.446-.68-.446-1.148 0-.638.377-1.17 1.132-1.596v-.063a2.075 2.075 0 0 1-.526-.527c-.138-.213-.208-.484-.208-.814 0-.287.086-.563.256-.829a2.2 2.2 0 0 1 .638-.654v-.064c-.277-.192-.527-.468-.75-.83a2.372 2.372 0 0 1-.319-1.228c0-.638.154-1.165.463-1.579a2.834 2.834 0 0 1 1.212-.958 4.045 4.045 0 0 1 1.595-.319c.468 0 .878.064 1.229.192h2.887v1.707h-1.26c.075.117.133.266.176.446.053.181.079.378.079.591 0 .606-.138 1.106-.414 1.499a2.482 2.482 0 0 1-1.117.878 4.15 4.15 0 0 1-1.58.287c-.308 0-.627-.053-.957-.16a.743.743 0 0 0-.287.591c0 .202.09.351.271.446.181.096.49.144.926.144h1.276c.978 0 1.723.159 2.233.479.522.308.782.819.782 1.531 0 .543-.181 1.026-.542 1.452-.362.436-.872.776-1.532 1.021-.659.245-1.441.367-2.345.367Zm.175-7.291a.989.989 0 0 0 .766-.335c.213-.223.319-.553.319-.989 0-.415-.106-.729-.319-.941a.986.986 0 0 0-.766-.335 1.06 1.06 0 0 0-.781.319c-.202.212-.303.532-.303.957 0 .436.101.766.303.989.212.223.473.335.781.335Zm.192 5.823c.532 0 .968-.096 1.308-.287.34-.192.511-.42.511-.686 0-.245-.107-.41-.319-.495-.203-.085-.5-.127-.894-.127h-.813c-.266 0-.49-.011-.671-.032a2.51 2.51 0 0 1-.446-.064c-.287.255-.431.516-.431.782 0 .298.16.521.479.67.329.159.755.239 1.276.239Zm5.331-1.898v-7.913h1.915l.159 1.005h.064c.34-.319.713-.596 1.117-.83a2.748 2.748 0 0 1 1.42-.367c.861 0 1.483.287 1.866.862.394.563.59 1.34.59 2.329v4.914h-2.345v-4.611c0-.574-.079-.968-.239-1.18-.149-.213-.394-.32-.734-.32-.298 0-.553.07-.766.208a4.153 4.153 0 0 0-.702.558v5.345h-2.345Zm14.701.191c-.862 0-1.489-.282-1.883-.845-.383-.575-.574-1.357-.574-2.346v-4.913h2.345v4.61c0 .564.08.957.239 1.181.16.213.41.319.75.319.298 0 .548-.069.75-.208.202-.138.42-.361.654-.67v-5.232h2.345v7.913h-1.914l-.176-1.101h-.048a4.266 4.266 0 0 1-1.084.941c-.394.234-.862.351-1.404.351Zm6.69 2.744v-10.848h1.914l.16.781h.064a4.295 4.295 0 0 1 1.037-.686 2.744 2.744 0 0 1 1.212-.287c.957 0 1.713.367 2.266 1.101.553.723.829 1.696.829 2.92 0 .904-.159 1.675-.478 2.313-.319.638-.734 1.127-1.245 1.468-.5.329-1.037.494-1.611.494-.34 0-.67-.069-.989-.207a3.319 3.319 0 0 1-.894-.623l.08 1.261v2.313h-2.345Zm3.605-4.658c.405 0 .75-.186 1.037-.559.288-.372.431-.962.431-1.771 0-1.425-.457-2.137-1.372-2.137-.457 0-.909.239-1.356.718v3.238c.213.192.426.325.638.399.213.074.42.112.622.112ZM37.155 171.52v-13.239h2.985v10.721h5.239v2.518h-8.224Zm14.313.243a5.043 5.043 0 0 1-2.416-.609c-.745-.42-1.347-1.022-1.807-1.807-.46-.799-.69-1.753-.69-2.863 0-1.123.23-2.078.69-2.863.46-.785 1.062-1.381 1.807-1.787a4.92 4.92 0 0 1 2.416-.629c.853 0 1.651.21 2.396.629.745.406 1.347 1.002 1.807 1.787.46.785.69 1.74.69 2.863 0 1.11-.23 2.064-.69 2.863-.46.785-1.063 1.387-1.807 1.807a4.927 4.927 0 0 1-2.396.609Zm0-2.416c.61 0 1.07-.257 1.38-.772.312-.528.468-1.225.468-2.091 0-.88-.156-1.577-.467-2.091-.312-.515-.772-.772-1.38-.772-.624 0-1.09.257-1.402.772-.298.514-.447 1.211-.447 2.091 0 .866.15 1.563.447 2.091.311.515.778.772 1.401.772ZM62 175.804a7.992 7.992 0 0 1-2.132-.264c-.636-.176-1.144-.454-1.523-.833-.38-.379-.569-.866-.569-1.462 0-.812.481-1.489 1.442-2.03v-.081c-.257-.176-.48-.4-.67-.67-.176-.271-.264-.616-.264-1.036 0-.365.108-.717.325-1.056a2.8 2.8 0 0 1 .812-.832v-.081c-.352-.244-.67-.596-.954-1.056a3.026 3.026 0 0 1-.406-1.564c0-.812.196-1.482.589-2.01a3.618 3.618 0 0 1 1.543-1.218 5.127 5.127 0 0 1 2.03-.406c.596 0 1.117.081 1.563.244h3.676v2.172h-1.604c.094.149.169.339.223.569.068.23.102.48.102.751 0 .771-.177 1.408-.529 1.909-.351.5-.825.873-1.42 1.116-.596.244-1.266.366-2.01.366a3.97 3.97 0 0 1-1.22-.203.94.94 0 0 0-.365.751c0 .257.115.447.345.568.23.122.623.183 1.178.183h1.624c1.246 0 2.193.203 2.843.609.663.393.995 1.043.995 1.95 0 .69-.23 1.306-.69 1.847-.46.555-1.11.988-1.95 1.3-.839.311-1.834.467-2.984.467Zm.223-9.279c.393 0 .718-.142.975-.427.27-.284.406-.704.406-1.259 0-.528-.136-.927-.406-1.198a1.258 1.258 0 0 0-.975-.426c-.392 0-.724.135-.995.406-.257.271-.386.677-.386 1.218 0 .555.129.975.386 1.259.27.285.602.427.995.427Zm.244 7.411c.677 0 1.232-.122 1.665-.366.433-.243.65-.534.65-.873 0-.311-.136-.521-.407-.629-.257-.109-.636-.163-1.137-.163h-1.035c-.339 0-.623-.013-.853-.04a3.184 3.184 0 0 1-.569-.082c-.365.325-.548.657-.548.995 0 .379.203.664.61.853.419.203.96.305 1.624.305Zm10.85-2.416v-10.071h2.985v10.071h-2.985Zm1.482-11.554c-.5 0-.907-.142-1.218-.426-.312-.284-.467-.663-.467-1.137s.155-.853.467-1.137c.311-.284.717-.427 1.218-.427s.907.143 1.218.427c.312.284.467.663.467 1.137s-.155.853-.467 1.137c-.31.284-.717.426-1.218.426Zm4.13 11.554v-10.071h2.436l.203 1.279h.081a7.76 7.76 0 0 1 1.421-1.056c.528-.311 1.13-.467 1.808-.467 1.096 0 1.888.365 2.375 1.096.501.718.751 1.706.751 2.965v6.254H85.02v-5.868c0-.731-.102-1.232-.305-1.503-.19-.271-.5-.406-.934-.406-.379 0-.704.088-.975.264-.27.162-.568.399-.893.711v6.802h-2.985ZM36.555 205.305v-7.588h4.571v1.137h-3.225v1.937h2.726v1.137h-2.726v2.24h3.341v1.137h-4.687Zm6.127 0v-5.697h1.102l.093.777h.046c.24-.255.5-.472.778-.65.286-.177.607-.266.963-.266.418 0 .75.092.998.278.255.178.448.425.58.743.27-.294.553-.538.847-.731.302-.194.63-.29.986-.29.603 0 1.048.197 1.334.591.287.395.43.952.43 1.671v3.574h-1.346v-3.4c0-.472-.074-.804-.22-.998-.14-.193-.357-.29-.65-.29-.356 0-.755.236-1.195.708v3.98h-1.335v-3.4c0-.472-.073-.804-.22-.998-.14-.193-.36-.29-.662-.29-.355 0-.754.236-1.195.708v3.98h-1.334Zm11.16.139c-.496 0-.902-.155-1.22-.464-.309-.31-.463-.712-.463-1.207 0-.611.267-1.083.8-1.415.534-.341 1.385-.573 2.553-.697a1.366 1.366 0 0 0-.244-.777c-.147-.224-.414-.336-.8-.336-.279 0-.553.054-.824.162-.263.108-.522.24-.777.395l-.488-.894a5.714 5.714 0 0 1 1.068-.522c.402-.147.827-.22 1.276-.22.712 0 1.241.212 1.59.638.355.417.533 1.025.533 1.821v3.377h-1.102l-.093-.627h-.046c-.256.217-.53.399-.824.545-.286.147-.6.221-.94.221Zm.428-1.044c.232 0 .441-.054.627-.163.193-.116.398-.27.615-.464v-1.276c-.774.1-1.311.251-1.613.452-.302.194-.452.434-.452.72 0 .255.077.441.232.557a.96.96 0 0 0 .591.174Zm4.173.905v-5.697h1.334v5.697h-1.334Zm.673-6.695c-.24 0-.433-.07-.58-.209a.731.731 0 0 1-.22-.557c0-.224.073-.406.22-.545.147-.139.34-.209.58-.209.24 0 .433.07.58.209.147.139.22.321.22.545a.73.73 0 0 1-.22.557c-.147.139-.34.209-.58.209Zm3.663 6.834c-.472 0-.808-.143-1.01-.429-.193-.287-.29-.677-.29-1.172v-6.73h1.335v6.799c0 .163.03.279.093.348a.277.277 0 0 0 .197.093h.081c.031-.007.074-.015.128-.023l.174.998a2.106 2.106 0 0 1-.708.116ZM36.555 281.195v-7.588h2.39a4.76 4.76 0 0 1 1.508.221c.441.147.79.39 1.045.731.255.34.383.804.383 1.392 0 .557-.128 1.017-.383 1.381a2.3 2.3 0 0 1-1.033.812 3.848 3.848 0 0 1-1.474.267h-1.09v2.784h-1.346Zm1.346-3.863h.986c1.114 0 1.67-.461 1.67-1.381 0-.48-.146-.808-.44-.986-.286-.186-.712-.279-1.276-.279h-.94v2.646Zm6.23 4.003c-.495 0-.901-.155-1.218-.465-.31-.309-.465-.711-.465-1.206 0-.611.267-1.083.801-1.416.534-.34 1.384-.572 2.552-.696a1.361 1.361 0 0 0-.243-.777c-.147-.225-.414-.337-.8-.337-.28 0-.554.054-.825.163a5.584 5.584 0 0 0-.777.394l-.487-.893a5.718 5.718 0 0 1 1.067-.522 3.689 3.689 0 0 1 1.277-.221c.711 0 1.241.213 1.59.638.355.418.533 1.025.533 1.822v3.376h-1.102l-.093-.626h-.047c-.255.216-.53.398-.823.545-.287.147-.6.221-.94.221Zm.429-1.045c.232 0 .44-.054.627-.162.193-.116.398-.271.614-.464v-1.277c-.773.101-1.31.252-1.612.453-.302.193-.453.433-.453.719 0 .256.078.441.232.557a.96.96 0 0 0 .592.174Zm5.762 1.045c-.387 0-.773-.074-1.16-.221a3.884 3.884 0 0 1-.998-.568l.627-.859c.255.193.51.348.765.464.256.116.526.174.813.174.309 0 .537-.066.684-.197a.629.629 0 0 0 .22-.487.485.485 0 0 0-.185-.395 1.501 1.501 0 0 0-.453-.278 9.865 9.865 0 0 0-.58-.244 6.254 6.254 0 0 1-.742-.337 1.927 1.927 0 0 1-.592-.522c-.155-.216-.232-.483-.232-.8 0-.503.186-.913.557-1.23.371-.317.874-.476 1.508-.476.402 0 .762.07 1.08.209.316.139.591.298.823.476l-.615.812a2.89 2.89 0 0 0-.615-.348 1.503 1.503 0 0 0-.638-.139c-.286 0-.499.062-.638.185a.55.55 0 0 0-.209.441c0 .225.116.395.348.511.232.116.503.228.812.336.263.093.518.209.766.348.248.132.453.306.615.522.17.217.255.503.255.859 0 .487-.19.905-.568 1.253-.38.34-.928.511-1.648.511Zm4.997 0c-.387 0-.774-.074-1.16-.221a3.884 3.884 0 0 1-.998-.568l.626-.859c.256.193.51.348.766.464.255.116.526.174.812.174.31 0 .538-.066.685-.197a.629.629 0 0 0 .22-.487.485.485 0 0 0-.185-.395 1.501 1.501 0 0 0-.453-.278 9.865 9.865 0 0 0-.58-.244 6.247 6.247 0 0 1-.742-.337 1.927 1.927 0 0 1-.592-.522c-.155-.216-.232-.483-.232-.8 0-.503.185-.913.557-1.23.371-.317.874-.476 1.508-.476.402 0 .762.07 1.079.209.317.139.592.298.824.476l-.615.812a2.889 2.889 0 0 0-.615-.348 1.502 1.502 0 0 0-.638-.139c-.286 0-.5.062-.638.185a.55.55 0 0 0-.21.441c0 .225.117.395.349.511.232.116.503.228.812.336.263.093.518.209.766.348.247.132.452.306.615.522.17.217.255.503.255.859 0 .487-.19.905-.568 1.253-.38.34-.929.511-1.648.511Zm4.347-.14-1.508-5.697h1.346l.684 2.959c.062.271.112.542.15.812.047.271.098.546.152.824h.046c.054-.278.108-.553.163-.824.062-.278.127-.549.197-.812l.742-2.959h1.219l.754 2.959c.07.271.135.542.197.812l.186.824h.046c.054-.278.105-.553.151-.824.046-.27.097-.541.15-.812l.685-2.959h1.253l-1.45 5.697h-1.59l-.66-2.657c-.063-.27-.12-.537-.175-.8l-.174-.859h-.046c-.054.302-.108.588-.163.859-.054.27-.112.541-.174.812l-.65 2.645h-1.531Zm10.004.14c-.472 0-.913-.116-1.323-.349a2.743 2.743 0 0 1-.998-1.021c-.255-.448-.383-.986-.383-1.612 0-.635.128-1.172.383-1.613.255-.449.588-.789.998-1.021.41-.24.85-.36 1.323-.36.48 0 .924.12 1.334.36.41.232.742.572.998 1.021.255.441.383.978.383 1.613 0 .626-.128 1.164-.383 1.612a2.745 2.745 0 0 1-.998 1.021c-.41.233-.855.349-1.334.349Zm0-1.091c.417 0 .746-.174.986-.522.24-.348.36-.805.36-1.369 0-.573-.12-1.033-.36-1.381a1.135 1.135 0 0 0-.986-.522c-.418 0-.747.174-.987.522-.232.348-.348.808-.348 1.381 0 .564.116 1.021.348 1.369.24.348.569.522.987.522Zm4.035.951v-5.697h1.103l.092 1.01h.047c.2-.371.444-.654.73-.847.287-.201.58-.302.882-.302.271 0 .488.039.65.116l-.232 1.161a1.74 1.74 0 0 0-.592-.093c-.224 0-.46.089-.707.267-.248.17-.46.471-.638.905v3.48h-1.335Zm6.21.14c-.71 0-1.28-.263-1.705-.789-.425-.526-.638-1.257-.638-2.193 0-.619.112-1.153.337-1.601.232-.449.533-.793.905-1.033.37-.24.762-.36 1.172-.36.324 0 .599.058.823.174.232.109.457.259.673.453l-.046-.917v-2.065h1.334v8.191h-1.102l-.093-.615h-.046a3.014 3.014 0 0 1-.731.534 1.863 1.863 0 0 1-.882.221Zm.326-1.103c.425 0 .823-.212 1.195-.638v-2.657a1.748 1.748 0 0 0-.58-.371 1.695 1.695 0 0 0-.58-.105c-.364 0-.677.167-.94.499-.255.325-.383.785-.383 1.381 0 .611.112 1.079.336 1.404.225.325.542.487.952.487Z"/><rect width="43.51" height="43.51" x="36.137" y="36.945" fill="#D9D9D9" rx="8.702"/><path fill="#737373" d="M42.664 62.895v-8.393h1.88V61.3h3.299v1.596h-5.18ZM52.21 63.05a3.949 3.949 0 0 1-1.548-.296 3.437 3.437 0 0 1-1.19-.876 4.08 4.08 0 0 1-.78-1.377c-.178-.54-.268-1.154-.268-1.841s.09-1.296.269-1.828c.187-.54.447-.991.78-1.352a3.231 3.231 0 0 1 1.189-.836 3.949 3.949 0 0 1 1.547-.296c.563 0 1.075.098 1.535.296.469.189.87.467 1.202.836.333.37.588.824.767 1.365.188.532.282 1.137.282 1.815 0 .687-.094 1.3-.282 1.84-.179.541-.434 1-.767 1.378-.332.378-.733.67-1.202.876-.46.197-.972.296-1.535.296Zm0-1.635c.57 0 1.022-.245 1.355-.734.332-.498.499-1.171.499-2.021 0-.841-.167-1.497-.5-1.97-.332-.471-.783-.707-1.355-.707-.57 0-1.023.236-1.355.708-.333.471-.499 1.128-.499 1.969 0 .85.166 1.523.499 2.021.332.49.784.734 1.355.734ZM61.245 63.05c-.57 0-1.108-.09-1.61-.27a3.705 3.705 0 0 1-1.292-.825 3.862 3.862 0 0 1-.87-1.338c-.205-.541-.307-1.163-.307-1.867 0-.695.107-1.313.32-1.854.213-.549.503-1.012.87-1.39.374-.377.81-.665 1.304-.862a4.203 4.203 0 0 1 1.573-.296c.605 0 1.125.111 1.56.334.434.224.788.477 1.061.76l-.985 1.21a3.591 3.591 0 0 0-.677-.476c-.239-.13-.537-.194-.895-.194a2.07 2.07 0 0 0-.896.194 1.96 1.96 0 0 0-.69.527 2.53 2.53 0 0 0-.46.85 3.871 3.871 0 0 0-.154 1.133c0 .867.192 1.54.575 2.02.393.473.98.709 1.765.709.17 0 .337-.022.499-.065a1.01 1.01 0 0 0 .396-.193v-1.441h-1.38V58.17h3.043v3.862c-.29.283-.674.523-1.151.72a4.147 4.147 0 0 1-1.599.297ZM69.106 63.05a3.949 3.949 0 0 1-1.547-.296 3.437 3.437 0 0 1-1.19-.876 4.08 4.08 0 0 1-.78-1.377c-.179-.54-.268-1.154-.268-1.841s.09-1.296.268-1.828c.188-.54.448-.991.78-1.352a3.231 3.231 0 0 1 1.19-.836 3.949 3.949 0 0 1 1.547-.296c.563 0 1.074.098 1.535.296.469.189.87.467 1.202.836.332.37.588.824.767 1.365.188.532.281 1.137.281 1.815 0 .687-.093 1.3-.28 1.84-.18.541-.436 1-.768 1.378-.333.378-.733.67-1.202.876-.46.197-.972.296-1.535.296Zm0-1.635c.571 0 1.023-.245 1.356-.734.332-.498.498-1.171.498-2.021 0-.841-.166-1.497-.498-1.97-.333-.471-.785-.707-1.356-.707-.571 0-1.023.236-1.355.708-.333.471-.5 1.128-.5 1.969 0 .85.167 1.523.5 2.021.332.49.784.734 1.355.734Z"/></svg>