<svg xmlns="http://www.w3.org/2000/svg" width="837" height="506" fill="none"><path fill="#07041F" d="M0 0h837v506H0z"/><path fill="#fff" d="M49.41 387v-11.636h3.93c.91 0 1.656.155 2.24.466.583.306 1.015.729 1.295 1.267.28.537.42 1.149.42 1.835 0 .685-.14 1.293-.42 1.824-.28.53-.71.947-1.29 1.25-.58.299-1.32.449-2.221.449h-3.182v-1.273h3.136c.621 0 1.121-.091 1.5-.273.383-.182.66-.439.83-.773.174-.337.261-.738.261-1.204 0-.466-.087-.873-.261-1.222a1.787 1.787 0 0 0-.836-.807c-.382-.193-.888-.289-1.517-.289h-2.477V387H49.41Zm5.476-5.227L57.75 387h-1.636l-2.819-5.227h1.591Zm8.141 5.409c-.84 0-1.566-.186-2.176-.557a3.74 3.74 0 0 1-1.404-1.568c-.325-.674-.488-1.459-.488-2.352 0-.894.163-1.682.488-2.364.33-.686.788-1.22 1.375-1.602.591-.387 1.28-.58 2.069-.58.454 0 .903.076 1.346.227.443.152.847.398 1.21.739.364.337.654.784.87 1.341.216.557.324 1.242.324 2.057v.568h-6.728v-1.159h5.364c0-.493-.099-.932-.296-1.318a2.22 2.22 0 0 0-.829-.915c-.356-.224-.776-.335-1.261-.335-.535 0-.997.132-1.387.397a2.624 2.624 0 0 0-.892 1.023 3.006 3.006 0 0 0-.312 1.352v.773c0 .659.113 1.218.34 1.676.232.455.552.801.96 1.04.41.235.885.352 1.427.352.352 0 .67-.049.954-.147.288-.103.536-.254.745-.455.208-.205.37-.458.483-.761l1.295.363c-.136.44-.365.826-.687 1.159-.322.33-.72.587-1.193.773a4.421 4.421 0 0 1-1.597.273Zm9.176 3.273c-.648 0-1.204-.084-1.67-.25a3.546 3.546 0 0 1-1.165-.648 3.543 3.543 0 0 1-.733-.852l1.068-.75c.121.159.275.34.46.545.186.208.44.388.762.54.326.155.752.233 1.278.233.705 0 1.286-.171 1.744-.512.459-.341.688-.875.688-1.602v-1.773h-.114a7.268 7.268 0 0 1-.42.591c-.178.231-.436.438-.773.62-.333.178-.784.267-1.352.267a3.645 3.645 0 0 1-1.898-.5c-.557-.334-.998-.819-1.324-1.455-.322-.636-.483-1.409-.483-2.318 0-.894.157-1.672.472-2.335.314-.667.752-1.182 1.312-1.546.561-.367 1.209-.551 1.944-.551.568 0 1.019.095 1.352.284.337.186.594.398.773.637.181.234.322.428.42.579h.136v-1.386h1.296v8.977c0 .75-.17 1.36-.511 1.83-.338.473-.792.82-1.364 1.039-.568.224-1.2.336-1.898.336Zm-.045-4.796c.537 0 .992-.123 1.363-.369s.654-.601.847-1.063c.193-.462.29-1.015.29-1.659 0-.629-.095-1.184-.284-1.665-.19-.481-.47-.858-.841-1.13-.371-.273-.83-.409-1.375-.409-.569 0-1.042.144-1.42.431a2.632 2.632 0 0 0-.847 1.16 4.474 4.474 0 0 0-.279 1.613c0 .606.095 1.142.284 1.608.194.462.478.826.853 1.091.378.261.848.392 1.409.392Zm11.772-2.227v-5.159h1.341V387h-1.34v-1.477h-.091c-.205.443-.523.82-.955 1.13-.432.307-.977.461-1.636.461-.546 0-1.03-.12-1.455-.358-.424-.243-.757-.606-1-1.091-.242-.489-.364-1.104-.364-1.847v-5.545h1.341v5.454c0 .637.178 1.144.534 1.523.36.379.819.568 1.375.568.334 0 .673-.085 1.017-.256.349-.17.64-.431.875-.784.24-.352.358-.801.358-1.346Zm5.138-8.068V387h-1.34v-11.636h1.34Zm5.024 11.841a3.552 3.552 0 0 1-1.505-.313 2.581 2.581 0 0 1-1.074-.915c-.265-.401-.398-.886-.398-1.454 0-.5.099-.906.296-1.216.197-.315.46-.561.79-.739.329-.178.693-.31 1.09-.398.402-.09.805-.162 1.21-.215.53-.069.96-.12 1.29-.154.334-.038.576-.1.728-.187.155-.087.232-.239.232-.455v-.045c0-.561-.153-.997-.46-1.307-.303-.311-.763-.466-1.38-.466-.64 0-1.142.14-1.506.42-.364.281-.62.58-.767.898l-1.273-.454c.227-.531.53-.944.91-1.239.382-.299.798-.508 1.25-.625a5.2 5.2 0 0 1 1.34-.182c.28 0 .602.034.966.102.367.065.722.199 1.063.404.344.204.63.513.857.926.228.413.341.966.341 1.659V387h-1.34v-1.182h-.069c-.09.19-.242.392-.454.608-.212.216-.495.4-.847.551-.352.152-.782.228-1.29.228Zm.205-1.205c.53 0 .977-.104 1.34-.312.368-.209.645-.478.83-.807.19-.33.284-.676.284-1.04v-1.227c-.056.068-.181.13-.375.187-.189.053-.409.101-.659.142-.246.038-.486.072-.721.102-.231.027-.419.05-.563.069a5.109 5.109 0 0 0-.977.221c-.3.099-.542.248-.727.449-.182.197-.273.466-.273.807 0 .466.172.818.517 1.057.349.235.79.352 1.324.352Zm6.243 1v-8.727h1.295v1.318h.091c.159-.432.447-.782.864-1.051a2.54 2.54 0 0 1 1.409-.404c.098 0 .221.002.369.006s.26.01.335.017v1.364a3.351 3.351 0 0 0-.312-.051 3.026 3.026 0 0 0-.506-.04c-.424 0-.803.089-1.136.267a1.954 1.954 0 0 0-1.068 1.778V387h-1.341Zm12.698-4.944c-.64 0-1.04-.4-1.04-1.12 0-.688.384-1.12 1.04-1.12.608 0 1.024.4 1.024 1.12 0 .704-.4 1.12-1.024 1.12Zm15.202-3.494c-.053-.496-.276-.882-.67-1.159-.39-.276-.898-.414-1.523-.414-.439 0-.816.066-1.131.199a1.673 1.673 0 0 0-.721.539 1.315 1.315 0 0 0-.256.779c0 .242.055.452.165.63.114.178.267.33.46.455.193.121.407.223.642.307.235.083.472.153.71.21l1.091.273c.44.102.862.24 1.267.414.41.175.775.394 1.097.66.326.265.583.585.773.96.189.375.284.814.284 1.318 0 .682-.174 1.282-.523 1.801-.348.515-.852.919-1.511 1.21-.656.288-1.449.432-2.381.432-.905 0-1.691-.14-2.358-.42-.663-.281-1.182-.69-1.557-1.228-.371-.537-.572-1.193-.602-1.966h2.074c.03.406.155.743.375 1.012s.506.47.858.602a3.39 3.39 0 0 0 1.193.199c.458 0 .86-.068 1.205-.205.348-.14.621-.333.818-.579.197-.25.297-.542.301-.875-.004-.303-.093-.553-.267-.75-.174-.201-.419-.368-.733-.5a7.098 7.098 0 0 0-1.091-.364l-1.324-.341c-.958-.246-1.716-.619-2.273-1.119-.553-.504-.829-1.172-.829-2.006 0-.685.185-1.286.557-1.801.375-.515.884-.915 1.528-1.199.644-.288 1.373-.431 2.188-.431.825 0 1.549.143 2.17.431.625.284 1.116.68 1.472 1.188.356.504.539 1.083.551 1.738h-2.029Zm7.84 8.608c-.875 0-1.631-.181-2.267-.545a3.68 3.68 0 0 1-1.46-1.557c-.341-.674-.512-1.468-.512-2.38 0-.898.171-1.686.512-2.364a3.858 3.858 0 0 1 1.443-1.591c.617-.383 1.343-.574 2.176-.574.538 0 1.045.087 1.523.261.481.171.905.436 1.272.796.372.36.663.818.875 1.375.212.553.319 1.212.319 1.977v.631h-7.154v-1.387h5.182a2.214 2.214 0 0 0-.256-1.051 1.854 1.854 0 0 0-.699-.733 1.963 1.963 0 0 0-1.034-.267c-.42 0-.789.103-1.108.307a2.114 2.114 0 0 0-.744.796 2.29 2.29 0 0 0-.267 1.074v1.21c0 .507.093.943.278 1.307.186.359.445.636.779.829.333.189.723.284 1.17.284.299 0 .57-.041.813-.125.242-.087.452-.214.63-.381.178-.166.313-.373.404-.619l1.92.216a2.991 2.991 0 0 1-.693 1.33 3.388 3.388 0 0 1-1.295.875c-.527.204-1.129.306-1.807.306Zm5.621-.17v-8.727h1.965v1.483h.103c.182-.5.483-.89.903-1.171.421-.284.923-.426 1.506-.426.591 0 1.089.144 1.494.432.409.284.697.672.864 1.165h.091c.193-.485.519-.872.977-1.159.462-.292 1.009-.438 1.642-.438.803 0 1.458.254 1.966.761.508.508.761 1.249.761 2.222V387h-2.062v-5.54c0-.541-.144-.937-.432-1.187a1.54 1.54 0 0 0-1.057-.381c-.496 0-.884.155-1.165.466-.276.307-.414.706-.414 1.199V387h-2.017v-5.625c0-.451-.137-.811-.41-1.08-.268-.268-.621-.403-1.056-.403-.296 0-.565.076-.807.227a1.584 1.584 0 0 0-.58.631 1.968 1.968 0 0 0-.216.943V387h-2.056Zm14.359 0v-8.727h2.057V387h-2.057Zm1.034-9.966a1.2 1.2 0 0 1-.841-.324 1.042 1.042 0 0 1-.352-.79c0-.31.117-.573.352-.789.235-.22.515-.33.841-.33.33 0 .61.11.841.33.235.216.352.479.352.789 0 .307-.117.571-.352.79a1.186 1.186 0 0 1-.841.324Zm3.229 9.966v-11.636h4.454c.841 0 1.54.132 2.097.397.56.262.979.62 1.256 1.074.28.455.42.97.42 1.546 0 .473-.091.878-.273 1.216a2.292 2.292 0 0 1-.733.812 3.1 3.1 0 0 1-1.028.449v.114c.413.022.809.149 1.187.38.383.228.695.55.938.966.242.417.364.921.364 1.512 0 .602-.146 1.143-.438 1.625-.292.477-.731.854-1.318 1.13-.587.277-1.326.415-2.216.415h-4.71Zm2.108-1.761h2.267c.765 0 1.316-.146 1.653-.438.341-.295.511-.674.511-1.136a1.742 1.742 0 0 0-.982-1.591c-.315-.163-.69-.244-1.125-.244h-2.324v3.409Zm0-4.927h2.085c.364 0 .691-.066.983-.198.292-.137.521-.328.687-.574.171-.25.256-.546.256-.887 0-.45-.159-.822-.477-1.113-.315-.292-.782-.438-1.404-.438h-2.13v3.21Zm12.123 6.858c-.852 0-1.591-.187-2.216-.562a3.822 3.822 0 0 1-1.454-1.574c-.341-.674-.512-1.462-.512-2.364 0-.901.171-1.691.512-2.369a3.811 3.811 0 0 1 1.454-1.579c.625-.375 1.364-.563 2.216-.563.853 0 1.591.188 2.216.563a3.774 3.774 0 0 1 1.449 1.579c.345.678.517 1.468.517 2.369 0 .902-.172 1.69-.517 2.364a3.785 3.785 0 0 1-1.449 1.574c-.625.375-1.363.562-2.216.562Zm.012-1.647c.462 0 .848-.127 1.159-.381.31-.258.541-.602.693-1.034.155-.432.233-.913.233-1.443 0-.534-.078-1.017-.233-1.449-.152-.436-.383-.782-.693-1.04-.311-.257-.697-.386-1.159-.386-.474 0-.868.129-1.182.386-.311.258-.544.604-.699 1.04a4.345 4.345 0 0 0-.227 1.449c0 .53.075 1.011.227 1.443.155.432.388.776.699 1.034.314.254.708.381 1.182.381Zm7.973-10.159V387h-2.057v-11.636h2.057Zm5.353 11.789a3.307 3.307 0 0 1-1.841-.528c-.541-.352-.969-.864-1.284-1.534-.314-.671-.471-1.485-.471-2.443 0-.97.159-1.788.477-2.455.322-.67.756-1.176 1.301-1.517a3.344 3.344 0 0 1 1.824-.517c.511 0 .932.087 1.261.261.33.171.591.377.784.62.194.238.343.464.449.676h.086v-4.352h2.062V387h-2.023v-1.375h-.125a3.513 3.513 0 0 1-.46.676 2.526 2.526 0 0 1-.795.602c-.33.167-.745.25-1.245.25Zm.574-1.687c.436 0 .807-.118 1.114-.352.307-.239.54-.57.699-.995.159-.424.238-.918.238-1.483 0-.564-.079-1.055-.238-1.471-.156-.417-.387-.741-.693-.972-.304-.231-.677-.346-1.12-.346-.458 0-.841.119-1.148.358-.306.238-.537.568-.693.988a4.16 4.16 0 0 0-.233 1.443c0 .546.078 1.033.233 1.461.159.424.392.759.699 1.005.311.243.691.364 1.142.364Zm13.181-3.41c-.64 0-1.04-.4-1.04-1.12 0-.688.384-1.12 1.04-1.12.608 0 1.024.4 1.024 1.12 0 .704-.4 1.12-1.024 1.12Zm8.742 4.944v-11.636h4.66c.856 0 1.57.127 2.142.38.572.254 1.002.606 1.289 1.057.288.447.432.962.432 1.546 0 .454-.091.854-.273 1.198a2.332 2.332 0 0 1-.75.841c-.314.216-.674.37-1.079.461v.113c.443.019.858.144 1.244.375.39.231.707.555.949.972.243.413.364.905.364 1.477 0 .618-.154 1.169-.46 1.654-.303.481-.752.861-1.347 1.142-.595.28-1.328.42-2.199.42h-4.972Zm2.461-2.011h2.005c.686 0 1.186-.131 1.5-.392.315-.266.472-.618.472-1.057 0-.322-.078-.606-.233-.852a1.575 1.575 0 0 0-.665-.58c-.284-.14-.623-.21-1.017-.21h-2.062v3.091Zm0-4.756h1.824c.337 0 .636-.059.897-.176a1.49 1.49 0 0 0 .625-.512c.156-.219.233-.483.233-.789 0-.421-.149-.76-.449-1.017-.295-.258-.716-.387-1.261-.387h-1.869v2.881Zm12.015 6.937c-.882 0-1.645-.187-2.289-.562a3.839 3.839 0 0 1-1.483-1.58c-.349-.678-.523-1.464-.523-2.358 0-.901.174-1.689.523-2.363a3.797 3.797 0 0 1 1.483-1.58c.644-.379 1.407-.568 2.289-.568.883 0 1.644.189 2.284.568a3.792 3.792 0 0 1 1.489 1.58c.349.674.523 1.462.523 2.363 0 .894-.174 1.68-.523 2.358a3.833 3.833 0 0 1-1.489 1.58c-.64.375-1.401.562-2.284.562Zm.012-1.875c.401 0 .736-.113 1.005-.34.269-.232.472-.546.608-.944.14-.397.211-.85.211-1.358 0-.507-.071-.96-.211-1.358-.136-.397-.339-.712-.608-.943-.269-.231-.604-.346-1.005-.346-.406 0-.747.115-1.023.346-.273.231-.479.546-.619.943a4.163 4.163 0 0 0-.205 1.358c0 .508.068.961.205 1.358.14.398.346.712.619.944.276.227.617.34 1.023.34Zm8.278-9.931V387h-2.42v-11.636h2.42Zm5.155 11.778c-.663 0-1.263-.17-1.801-.511-.534-.345-.959-.851-1.273-1.517-.311-.671-.466-1.493-.466-2.466 0-1 .161-1.832.483-2.495.322-.666.75-1.164 1.284-1.494a3.294 3.294 0 0 1 1.767-.5c.489 0 .896.083 1.222.25.329.163.595.368.795.614.205.242.36.481.466.716h.074v-4.375h2.415V387h-2.387v-1.398h-.102a3.076 3.076 0 0 1-.483.722c-.204.235-.471.43-.801.585-.326.155-.723.233-1.193.233Zm.767-1.926c.39 0 .72-.106.989-.318.272-.216.481-.517.625-.904.147-.386.221-.839.221-1.358 0-.519-.072-.969-.216-1.352-.144-.382-.352-.678-.625-.886-.272-.209-.604-.313-.994-.313-.398 0-.733.108-1.006.324-.272.216-.479.515-.619.898-.14.382-.21.826-.21 1.329 0 .508.07.957.21 1.347.144.386.35.689.619.909.273.216.608.324 1.006.324ZM48 40h741v1H48zM53.216 85.727V109H51.09V85.727h2.125Zm7.79 12.364V109h-2.023V91.546h1.966v2.738h.182a4.883 4.883 0 0 1 1.909-2.148c.871-.545 1.947-.818 3.227-.818 1.174 0 2.205.246 3.091.739.894.485 1.587 1.2 2.08 2.147.5.948.75 2.11.75 3.49V109h-2.023V97.818c0-1.432-.402-2.564-1.205-3.397-.795-.834-1.863-1.25-3.204-1.25-.917 0-1.731.196-2.444.59a4.312 4.312 0 0 0-1.693 1.705c-.409.735-.613 1.61-.613 2.625Zm23.383-6.545v1.76h-8.33v-1.76h8.33Zm-5.727-4.182h2.034v17.079c0 .727.125 1.299.375 1.716.25.409.576.701.977.875.402.167.83.25 1.284.25.266 0 .493-.015.682-.045.19-.038.356-.076.5-.114l.432 1.83c-.197.075-.44.143-.727.204a4.736 4.736 0 0 1-1.068.102 4.981 4.981 0 0 1-2.148-.488 4.205 4.205 0 0 1-1.682-1.455c-.44-.644-.66-1.443-.66-2.398V87.364Zm17.19 22c-1.629 0-3.038-.379-4.227-1.137-1.19-.765-2.11-1.822-2.761-3.17-.644-1.356-.966-2.917-.966-4.682 0-1.758.322-3.318.966-4.682.651-1.371 1.549-2.443 2.693-3.216 1.151-.78 2.48-1.17 3.989-1.17.946 0 1.86.174 2.738.522a6.656 6.656 0 0 1 2.364 1.58c.704.705 1.261 1.595 1.67 2.67.409 1.069.614 2.334.614 3.796v1H89.296v-1.784h11.568c0-1.121-.228-2.129-.682-3.023-.447-.901-1.072-1.614-1.875-2.136-.796-.523-1.716-.784-2.761-.784-1.107 0-2.08.295-2.921.886-.84.591-1.5 1.371-1.977 2.341-.47.97-.709 2.03-.716 3.182v1.068c0 1.386.239 2.598.716 3.636.485 1.031 1.17 1.83 2.056 2.398.887.568 1.936.852 3.148.852.826 0 1.55-.128 2.17-.386a4.605 4.605 0 0 0 2.557-2.477l1.921.625c-.265.735-.701 1.413-1.307 2.034-.598.621-1.348 1.121-2.25 1.5-.894.371-1.924.557-3.09.557ZM107.39 109V91.546h1.966v2.681h.148c.348-.879.954-1.587 1.818-2.125.871-.545 1.856-.818 2.955-.818.166 0 .352.004.556.011.205.008.375.016.512.023v2.057c-.091-.015-.25-.038-.478-.068a5.593 5.593 0 0 0-.738-.046c-.909 0-1.72.194-2.432.58a4.291 4.291 0 0 0-1.67 1.58c-.41.674-.614 1.443-.614 2.306V109h-2.023ZM49.563 179h-1.114l4.233-11.636h1.136L58.051 179h-1.114l-3.647-10.256h-.08L49.562 179Zm.8-4.46h5.773v.954h-5.772v-.954Zm9.682 4.46v-11.636h3.927c.757 0 1.388.132 1.892.397.507.266.888.627 1.142 1.086.254.458.38.979.38 1.562 0 .485-.081.9-.244 1.244a2.208 2.208 0 0 1-.665.836 2.75 2.75 0 0 1-.937.46v.091c.375.026.738.159 1.09.398.353.234.643.564.87.988.227.424.34.932.34 1.523 0 .587-.13 1.112-.391 1.574-.261.458-.663.82-1.205 1.085-.538.261-1.223.392-2.056.392h-4.143Zm1.063-.955h3.08c.897 0 1.56-.198 1.988-.596.432-.398.648-.898.648-1.5 0-.443-.108-.845-.324-1.205a2.284 2.284 0 0 0-.903-.863c-.387-.212-.841-.319-1.364-.319h-3.125v4.483Zm0-5.426h2.96c.459 0 .86-.094 1.205-.284.344-.189.613-.451.806-.784.194-.333.29-.714.29-1.142 0-.617-.2-1.119-.602-1.506-.401-.39-1-.585-1.795-.585h-2.864v4.301ZM79.518 171H78.45a3.313 3.313 0 0 0-.431-1.102 3.397 3.397 0 0 0-.773-.892 3.512 3.512 0 0 0-1.057-.591c-.394-.14-.82-.21-1.278-.21-.735 0-1.406.191-2.012.573-.602.383-1.085.945-1.449 1.688-.36.739-.54 1.644-.54 2.716 0 1.079.18 1.988.54 2.727.364.739.847 1.299 1.45 1.682a3.718 3.718 0 0 0 2.01.568c.459 0 .885-.07 1.279-.21.394-.14.746-.335 1.057-.585.31-.254.568-.552.773-.892.208-.341.352-.711.431-1.108h1.069a4.667 4.667 0 0 1-.535 1.494 4.44 4.44 0 0 1-.988 1.204 4.437 4.437 0 0 1-1.375.807 4.87 4.87 0 0 1-1.71.29c-.978 0-1.845-.244-2.603-.733-.757-.492-1.352-1.185-1.784-2.079-.428-.894-.642-1.949-.642-3.165s.214-2.271.642-3.165c.432-.894 1.027-1.585 1.784-2.074.758-.492 1.625-.738 2.602-.738a4.87 4.87 0 0 1 1.71.289c.52.19.978.459 1.376.807A4.6 4.6 0 0 1 79.519 171Zm5.905 8h-3.409v-11.636h3.614c1.11 0 2.059.231 2.846.693.792.462 1.398 1.125 1.819 1.988.42.864.63 1.9.63 3.108 0 1.22-.216 2.267-.647 3.142a4.554 4.554 0 0 1-1.875 2.006c-.819.466-1.811.699-2.978.699Zm-2.346-.955h2.284c1 0 1.837-.197 2.511-.59a3.696 3.696 0 0 0 1.517-1.688c.337-.731.506-1.602.506-2.614-.004-1.003-.17-1.867-.5-2.591-.326-.723-.81-1.278-1.455-1.664-.64-.387-1.431-.58-2.375-.58h-2.488v9.727Zm10.422.955v-11.636h6.75v.954h-5.688v4.381h5.33v.954h-5.33v4.392h5.801V179h-6.863Zm9.5 0v-11.636h6.733v.954h-5.671v4.381h5.142v.954h-5.142V179h-1.062Zm17.426-8a4.27 4.27 0 0 0-.466-1.085 3.526 3.526 0 0 0-.762-.892 3.315 3.315 0 0 0-1.039-.603 3.776 3.776 0 0 0-1.307-.215c-.758 0-1.436.197-2.034.59-.599.394-1.072.963-1.421 1.705-.344.742-.517 1.636-.517 2.682 0 1.041.175 1.934.523 2.676.348.742.826 1.312 1.432 1.71.61.394 1.307.591 2.091.591.716 0 1.348-.159 1.897-.477.55-.318.978-.773 1.285-1.364.31-.591.462-1.293.454-2.108l.341.108h-3.727v-.954h4.42v.954c0 .993-.201 1.851-.602 2.574a4.24 4.24 0 0 1-1.654 1.676c-.7.394-1.505.591-2.414.591-1.015 0-1.904-.244-2.665-.733-.761-.492-1.354-1.185-1.778-2.079-.421-.898-.631-1.953-.631-3.165 0-.913.121-1.737.363-2.472.243-.735.586-1.363 1.029-1.886a4.525 4.525 0 0 1 1.585-1.199 4.79 4.79 0 0 1 2.023-.42c.636 0 1.218.1 1.744.301.53.2.996.477 1.398.829.405.349.737.752.994 1.21.262.455.438.94.529 1.455h-1.091Zm3.808 8v-11.636h1.062v5.335h6.603v-5.335h1.062V179h-1.062v-5.347h-6.603V179h-1.062Zm12.875-11.636V179h-1.063v-11.636h1.063Zm7.503 0h1.062v8.392c-.003.757-.14 1.39-.409 1.897-.269.504-.64.881-1.113 1.131-.474.25-1.017.375-1.631.375-.602 0-1.14-.112-1.614-.335a2.72 2.72 0 0 1-1.119-.943c-.269-.406-.403-.881-.403-1.426h1.045c0 .344.091.649.273.914.182.262.43.466.744.614.318.148.676.222 1.074.222.413 0 .775-.088 1.085-.262.315-.174.561-.441.739-.801.178-.364.267-.826.267-1.386v-8.392ZM148.764 179v-11.636h1.063v6.267h.102l5.682-6.267h1.398l-4.972 5.38 4.949 6.256h-1.296l-4.312-5.517-1.551 1.739V179h-1.063Zm10.25 0v-11.636h1.063v10.681h5.545V179h-6.608Zm9-11.636h1.227l4.222 10.136h.102l4.222-10.136h1.227V179h-1v-9.392h-.091L173.997 179h-.966l-3.926-9.392h-.091V179h-1v-11.636Zm23.156 0V179h-1.034l-6.875-9.744h-.091V179h-1.062v-11.636h1.028l6.898 9.755h.091v-9.755h1.045Zm12.634 5.818c0 1.212-.216 2.267-.648 3.165-.432.894-1.026 1.587-1.784 2.079-.754.489-1.621.733-2.602.733-.981 0-1.85-.244-2.608-.733-.754-.492-1.347-1.185-1.778-2.079-.429-.898-.643-1.953-.643-3.165s.214-2.265.643-3.159c.431-.898 1.026-1.591 1.784-2.08.757-.492 1.625-.738 2.602-.738.981 0 1.848.246 2.602.738.758.489 1.352 1.182 1.784 2.08.432.894.648 1.947.648 3.159Zm-1.034 0c0-1.042-.174-1.934-.523-2.676-.348-.747-.824-1.317-1.426-1.711-.602-.393-1.286-.59-2.051-.59-.761 0-1.443.197-2.046.59-.602.394-1.079.963-1.431 1.705-.349.742-.523 1.636-.523 2.682 0 1.041.174 1.934.523 2.676.348.742.823 1.312 1.426 1.71.602.394 1.286.591 2.051.591.765 0 1.449-.197 2.051-.591.606-.394 1.083-.962 1.432-1.704.348-.747.521-1.641.517-2.682Zm3.604 5.818v-11.636h3.755c.826 0 1.515.159 2.068.477.557.314.976.742 1.256 1.284.284.542.426 1.152.426 1.83 0 .678-.14 1.289-.42 1.835-.28.541-.697.971-1.25 1.29-.553.314-1.241.471-2.063.471h-2.954v-.954h2.926c.61 0 1.115-.114 1.517-.341.401-.231.701-.546.898-.944.2-.397.301-.85.301-1.357 0-.508-.101-.961-.301-1.358a2.152 2.152 0 0 0-.904-.938c-.401-.227-.911-.341-1.528-.341h-2.665V179h-1.062Zm14.358-3.636h1.181l1.489 1.971.25.33 1.83 2.426H224.3l-1.341-1.79-.239-.318-1.988-2.619Zm5.181-2.182c0 1.212-.216 2.267-.647 3.165-.432.894-1.027 1.587-1.784 2.079-.754.489-1.622.733-2.603.733-.981 0-1.85-.244-2.608-.733-.753-.492-1.346-1.185-1.778-2.079-.428-.898-.642-1.953-.642-3.165s.214-2.265.642-3.159c.432-.898 1.026-1.591 1.784-2.08.758-.492 1.625-.738 2.602-.738.981 0 1.849.246 2.603.738.757.489 1.352 1.182 1.784 2.08.431.894.647 1.947.647 3.159Zm-1.034 0c0-1.042-.174-1.934-.522-2.676-.349-.747-.824-1.317-1.427-1.711-.602-.393-1.286-.59-2.051-.59a3.66 3.66 0 0 0-2.045.59c-.602.394-1.08.963-1.432 1.705-.348.742-.523 1.636-.523 2.682 0 1.041.175 1.934.523 2.676.348.742.824 1.312 1.426 1.71.602.394 1.286.591 2.051.591.765 0 1.449-.197 2.051-.591.606-.394 1.084-.962 1.432-1.704.349-.747.521-1.641.517-2.682Zm3.604 5.818v-11.636h3.756c.825 0 1.515.149 2.068.448.557.296.975.707 1.255 1.233.285.523.427 1.124.427 1.802 0 .678-.142 1.276-.427 1.795-.28.519-.696.924-1.25 1.216-.553.292-1.238.437-2.056.437h-3.199v-.971h3.17c.606 0 1.11-.101 1.512-.301a1.99 1.99 0 0 0 .903-.858c.201-.371.301-.811.301-1.318 0-.508-.1-.951-.301-1.33a2.056 2.056 0 0 0-.909-.886c-.402-.209-.909-.313-1.523-.313h-2.665V179h-1.062Zm5.131-5.25 2.863 5.25h-1.227l-2.835-5.25h1.199Zm11.281-3.477c-.065-.648-.35-1.163-.858-1.546-.508-.382-1.146-.574-1.915-.574-.542 0-1.019.093-1.432.279a2.339 2.339 0 0 0-.966.773 1.875 1.875 0 0 0-.346 1.113c0 .307.066.576.199.807.132.231.31.43.534.597a4 4 0 0 0 .75.42c.276.117.555.216.835.296l1.227.352c.372.102.743.233 1.114.392.371.159.71.36 1.017.602.311.239.559.532.744.881.19.344.284.759.284 1.244 0 .621-.161 1.18-.483 1.676-.322.496-.784.89-1.386 1.182-.602.288-1.324.432-2.165.432-.791 0-1.479-.131-2.062-.392-.584-.265-1.042-.631-1.375-1.097a3.079 3.079 0 0 1-.563-1.619h1.091c.038.458.19.846.455 1.165.265.318.61.56 1.034.727.424.163.898.244 1.42.244.58 0 1.095-.096 1.546-.289.454-.197.81-.47 1.068-.819.261-.352.392-.761.392-1.227 0-.394-.102-.723-.307-.989-.204-.269-.49-.494-.858-.676a7.535 7.535 0 0 0-1.267-.483l-1.392-.409c-.913-.273-1.621-.649-2.125-1.13-.504-.482-.756-1.095-.756-1.841 0-.625.167-1.175.5-1.648a3.369 3.369 0 0 1 1.364-1.114c.576-.269 1.222-.403 1.938-.403.723 0 1.363.132 1.92.398.557.265.998.63 1.324 1.096.329.462.506.989.528 1.58h-1.028Zm3.04-1.955v-.954h8.437v.954h-3.687V179h-1.063v-10.682h-3.687Zm18.585-.954h1.062v7.704c0 .792-.185 1.5-.556 2.125a3.987 3.987 0 0 1-1.552 1.472c-.659.356-1.426.534-2.301.534-.871 0-1.638-.18-2.301-.54a3.975 3.975 0 0 1-1.551-1.471c-.371-.622-.557-1.328-.557-2.12v-7.704h1.063v7.63c0 .618.138 1.169.414 1.654.277.481.665.86 1.165 1.136.504.277 1.093.415 1.767.415.675 0 1.264-.138 1.767-.415a2.923 2.923 0 0 0 1.165-1.136c.277-.485.415-1.036.415-1.654v-7.63Zm4.168 0 3.636 10.255h.102l3.636-10.255h1.114L274.943 179h-1.136l-4.233-11.636h1.114ZM283.193 179l-3.187-11.636h1.079l2.637 10.005h.09l2.637-10.005h1.227l2.636 10.005h.091l2.637-10.005h1.085L290.938 179h-1.137l-2.699-9.869h-.074L284.33 179h-1.137Zm13.034-11.636 3.222 5.051h.074l3.221-5.051H304l-3.744 5.818L304 179h-1.256l-3.221-4.994h-.074L296.227 179h-1.255l3.801-5.818-3.801-5.818h1.255Zm8.696 0h1.228l3.448 5.522h.103l3.449-5.522h1.227l-4.199 6.596V179h-1.057v-5.04l-4.199-6.596ZM315.913 179v-.801l6.461-9.881h-6.495v-.954h7.762v.801l-6.466 9.88h6.522V179h-7.784ZM51.773 227.199a3.347 3.347 0 0 1-1.444-.307 2.523 2.523 0 0 1-1.04-.898c-.257-.394-.386-.871-.386-1.432 0-.431.082-.795.245-1.09.163-.296.394-.538.693-.728.3-.189.653-.339 1.062-.449.41-.109.86-.195 1.353-.255.488-.061.901-.114 1.238-.159.341-.046.6-.118.779-.216.178-.099.267-.258.267-.477v-.205c0-.595-.178-1.063-.534-1.403-.353-.345-.86-.518-1.523-.518-.629 0-1.142.139-1.54.415-.394.277-.67.603-.83.978l-.96-.347c.197-.477.47-.858.819-1.142a3.227 3.227 0 0 1 1.17-.619c.432-.129.87-.194 1.313-.194.333 0 .68.044 1.04.131.363.087.7.239 1.01.455.311.212.563.509.756.892.194.378.29.86.29 1.443V227H54.54v-1.381h-.063a2.734 2.734 0 0 1-.54.75 2.782 2.782 0 0 1-.897.597c-.36.155-.782.233-1.267.233Zm.136-.926c.538 0 1.004-.12 1.398-.358.394-.239.697-.555.909-.949.216-.398.324-.835.324-1.313v-1.261c-.076.072-.203.136-.38.193a5.312 5.312 0 0 1-.609.154c-.227.041-.454.077-.682.108l-.613.079a5.678 5.678 0 0 0-1.262.284c-.348.129-.615.307-.8.534-.186.224-.28.512-.28.864 0 .53.19.941.569 1.233.379.288.854.432 1.426.432Zm6.543.727v-11.636h1.017v4.574h.09c.114-.262.277-.531.49-.807.215-.277.497-.508.846-.693.352-.19.795-.285 1.33-.285.715 0 1.344.19 1.886.569.541.375.964.901 1.267 1.579.303.674.454 1.46.454 2.358 0 .902-.151 1.691-.454 2.369-.3.678-.72 1.207-1.261 1.586-.538.378-1.163.568-1.876.568-.53 0-.973-.095-1.33-.284a2.673 2.673 0 0 1-.851-.699 4.024 4.024 0 0 1-.5-.818h-.125V227h-.983Zm1-4.358c0 .705.104 1.33.312 1.875.212.542.515.968.91 1.278.397.307.878.461 1.443.461.579 0 1.07-.159 1.471-.478.402-.322.706-.755.915-1.301.208-.545.312-1.157.312-1.835 0-.67-.104-1.275-.312-1.812-.205-.538-.508-.964-.91-1.279-.4-.318-.893-.477-1.477-.477-.568 0-1.05.153-1.448.46-.394.303-.696.724-.904 1.261-.208.535-.312 1.15-.312 1.847Zm12.011 4.54c-.78 0-1.46-.195-2.04-.585-.576-.391-1.022-.925-1.34-1.603-.319-.678-.478-1.45-.478-2.318 0-.875.161-1.653.483-2.335.326-.682.777-1.216 1.352-1.602.576-.391 1.245-.586 2.006-.586a3.62 3.62 0 0 1 1.585.341c.474.224.864.54 1.17.949.311.405.506.879.586 1.421h-1.023a2.261 2.261 0 0 0-.767-1.262c-.401-.352-.913-.528-1.534-.528-.557 0-1.05.151-1.477.454-.428.3-.764.718-1.006 1.256-.239.534-.358 1.153-.358 1.858 0 .708.118 1.335.352 1.881.235.541.565.966.99 1.272.427.307.927.461 1.5.461.385 0 .738-.072 1.056-.216a2.191 2.191 0 0 0 1.25-1.585h1.023a3.091 3.091 0 0 1-1.716 2.375c-.47.234-1.008.352-1.614.352Zm8.64 0c-.717 0-1.343-.19-1.881-.568-.538-.379-.959-.908-1.262-1.586-.299-.678-.449-1.467-.449-2.369 0-.898.15-1.684.45-2.358.302-.678.725-1.204 1.266-1.579.542-.379 1.173-.569 1.892-.569.53 0 .972.095 1.324.285.353.185.635.416.847.693.212.276.377.545.494.807h.091v-4.574h1.017V227h-.989v-1.619h-.119a4.024 4.024 0 0 1-.5.818 2.656 2.656 0 0 1-.858.699c-.352.189-.793.284-1.324.284Zm.119-.926c.564 0 1.045-.154 1.443-.461.397-.31.7-.736.909-1.278.212-.545.318-1.17.318-1.875 0-.697-.104-1.312-.313-1.847-.208-.537-.51-.958-.908-1.261-.398-.307-.881-.46-1.45-.46-.583 0-1.075.159-1.477.477-.397.315-.7.741-.909 1.279-.204.537-.307 1.142-.307 1.812 0 .678.105 1.29.313 1.835.208.546.511.979.909 1.301.401.319.892.478 1.472.478Zm10.08.926c-.815 0-1.52-.19-2.115-.568a3.809 3.809 0 0 1-1.38-1.586c-.322-.678-.483-1.458-.483-2.34 0-.879.16-1.66.483-2.341.326-.686.774-1.222 1.346-1.608.576-.391 1.24-.586 1.995-.586.473 0 .93.088 1.369.262.44.17.833.433 1.182.79.352.352.63.797.835 1.335.205.534.307 1.166.307 1.898v.5h-6.818v-.893h5.784c0-.56-.114-1.064-.341-1.511a2.646 2.646 0 0 0-.938-1.068 2.46 2.46 0 0 0-1.38-.392c-.553 0-1.04.148-1.46.443-.421.295-.75.686-.99 1.171a3.652 3.652 0 0 0-.357 1.59v.534c0 .694.12 1.3.358 1.819.242.515.585.914 1.028 1.199.444.284.968.426 1.574.426.413 0 .775-.065 1.085-.194a2.313 2.313 0 0 0 1.279-1.238l.96.312c-.133.368-.35.707-.653 1.017-.3.311-.675.561-1.125.75-.447.186-.962.279-1.546.279Zm9.358-8.909v.88h-4.29v-.88h4.29ZM96.713 227v-10.006c0-.469.108-.865.323-1.187a2.12 2.12 0 0 1 .859-.733 2.58 2.58 0 0 1 1.119-.25c.265 0 .485.023.659.068.178.042.318.083.42.125l-.295.886-.278-.079a1.601 1.601 0 0 0-.415-.046c-.44 0-.779.124-1.017.37-.239.246-.358.598-.358 1.057L97.723 227h-1.011Zm7.937 3.455c-.595 0-1.115-.078-1.562-.233a3.367 3.367 0 0 1-1.131-.625 3.023 3.023 0 0 1-.716-.892l.83-.546c.125.22.291.436.5.648.212.212.486.388.823.528.341.14.76.21 1.256.21.773 0 1.396-.193 1.869-.579.478-.386.716-.987.716-1.801v-1.966h-.091c-.117.265-.286.53-.505.795-.22.262-.508.479-.864.654-.352.174-.79.261-1.312.261-.697 0-1.317-.172-1.858-.517-.538-.345-.962-.837-1.273-1.477-.307-.644-.46-1.411-.46-2.301 0-.883.149-1.659.449-2.33.303-.67.725-1.193 1.267-1.568.541-.375 1.172-.563 1.892-.563.534 0 .977.095 1.329.285.353.185.635.416.847.693.216.276.384.545.506.807h.102v-1.665h.988v8.954c0 .739-.157 1.347-.471 1.824-.315.477-.743.83-1.284 1.057-.542.231-1.157.347-1.847.347Zm-.068-4.472c.561 0 1.04-.135 1.437-.403.398-.273.703-.663.915-1.171.212-.507.318-1.112.318-1.812 0-.682-.104-1.286-.312-1.813-.208-.53-.511-.947-.909-1.25-.394-.307-.877-.46-1.449-.46-.583 0-1.076.157-1.477.471-.402.315-.705.739-.909 1.273-.205.53-.307 1.123-.307 1.779 0 .666.104 1.255.312 1.767.209.507.514.905.915 1.193.402.284.89.426 1.466.426Zm7.359-4.438V227h-1.011v-11.636h1.011v4.278h.091a2.45 2.45 0 0 1 .949-1.08c.432-.268.977-.403 1.636-.403.591 0 1.11.121 1.557.364.447.242.796.6 1.046 1.074.25.473.375 1.056.375 1.75V227h-1.017v-5.591c0-.72-.201-1.286-.603-1.699-.397-.416-.935-.625-1.613-.625-.466 0-.881.099-1.245.296a2.175 2.175 0 0 0-.863.852c-.208.367-.313.805-.313 1.312Zm8.328 5.455v-8.727h1.018V227h-1.018Zm.518-10.227a.747.747 0 0 1-.535-.211.697.697 0 0 1-.221-.517c0-.2.074-.371.221-.511a.739.739 0 0 1 .535-.216c.208 0 .386.072.534.216a.68.68 0 0 1 .221.511.697.697 0 0 1-.221.517.746.746 0 0 1-.534.211Zm3.186 1.5h1.017v9.574c0 .496-.093.924-.279 1.284a1.946 1.946 0 0 1-.795.841c-.349.2-.769.301-1.262.301h-.113c-.038 0-.08-.002-.125-.006l.011-.949h.216c.417 0 .742-.129.977-.386.235-.258.353-.619.353-1.085v-9.574Zm.5-1.5a.756.756 0 0 1-.534-.211.694.694 0 0 1-.222-.517c0-.2.074-.371.222-.511a.748.748 0 0 1 .534-.216c.208 0 .386.072.534.216.151.14.227.311.227.511a.688.688 0 0 1-.227.517.746.746 0 0 1-.534.211Zm4.112 6.932-.012-1.324h.228l4.091-4.108h1.278l-4.04 4.045-.091.017-1.454 1.37Zm-.921 3.295v-11.636h1.012V227h-1.012Zm5.438 0-3.546-4.483.728-.699 4.113 5.182h-1.295Zm3.98-11.636V227h-1.011v-11.636h1.011ZM139.757 227v-8.727h.983v1.341h.091c.174-.451.464-.805.869-1.063.409-.261.9-.392 1.472-.392.602 0 1.096.142 1.483.426.39.281.682.667.875 1.159h.074c.197-.485.517-.869.96-1.153.447-.288.989-.432 1.625-.432.811 0 1.451.256 1.92.767.47.508.705 1.25.705 2.227V227h-1.011v-5.847c0-.689-.177-1.206-.529-1.551-.352-.344-.816-.517-1.392-.517-.667 0-1.18.205-1.54.614-.36.409-.539.928-.539 1.557V227h-1.035v-5.938c0-.59-.164-1.068-.494-1.431-.329-.364-.793-.546-1.392-.546-.401 0-.763.099-1.085.296-.318.197-.57.471-.756.824-.182.348-.273.75-.273 1.204V227h-1.011Zm14.746-5.455V227h-1.012v-8.727h.983v1.369h.091c.205-.447.523-.805.955-1.074.435-.273.973-.409 1.614-.409.587 0 1.102.123 1.545.369.447.243.794.601 1.04 1.074.25.474.375 1.055.375 1.745V227h-1.012v-5.591c0-.716-.2-1.282-.602-1.699-.398-.416-.932-.625-1.602-.625-.458 0-.866.099-1.222.296a2.154 2.154 0 0 0-.846.852c-.205.367-.307.805-.307 1.312Zm11.646 5.637c-.754 0-1.42-.191-2-.574-.576-.383-1.026-.911-1.352-1.585-.326-.678-.489-1.461-.489-2.347 0-.894.163-1.68.489-2.358.326-.682.776-1.212 1.352-1.591.58-.382 1.246-.574 2-.574s1.419.192 1.994.574c.576.383 1.027.913 1.353 1.591.329.678.494 1.464.494 2.358 0 .886-.163 1.669-.489 2.347-.325.674-.778 1.202-1.358 1.585-.575.383-1.24.574-1.994.574Zm0-.926c.606 0 1.119-.163 1.54-.489.42-.326.739-.759.954-1.301.22-.542.33-1.138.33-1.79 0-.651-.11-1.25-.33-1.795a3.052 3.052 0 0 0-.954-1.313c-.421-.329-.934-.494-1.54-.494-.602 0-1.115.165-1.54.494-.42.33-.74.767-.96 1.313a4.833 4.833 0 0 0-.324 1.795c0 .652.108 1.248.324 1.79.22.542.54.975.96 1.301.421.326.934.489 1.54.489Zm6.061 4.017v-12h.983v1.665h.119c.122-.262.288-.529.5-.802.213-.276.493-.509.841-.698.353-.19.796-.285 1.33-.285.72 0 1.348.19 1.886.569.542.375.962.901 1.262 1.579.303.674.454 1.46.454 2.358 0 .902-.151 1.691-.454 2.369-.3.678-.72 1.207-1.262 1.586-.538.378-1.163.568-1.875.568-.526 0-.967-.095-1.324-.284a2.746 2.746 0 0 1-.858-.699 4.092 4.092 0 0 1-.5-.818h-.09v4.892h-1.012Zm1-7.631c0 .705.104 1.33.313 1.875.212.542.515.968.909 1.278.398.307.879.461 1.443.461.58 0 1.068-.159 1.466-.478.401-.322.706-.755.915-1.301.212-.545.318-1.157.318-1.835 0-.67-.104-1.275-.313-1.812-.204-.538-.507-.964-.909-1.279-.401-.318-.894-.477-1.477-.477-.568 0-1.051.153-1.449.46-.398.303-.701.724-.909 1.261-.205.535-.307 1.15-.307 1.847Zm14.509 7.631v-4.892h-.091a4.046 4.046 0 0 1-.5.818 2.658 2.658 0 0 1-.858.699c-.356.189-.797.284-1.324.284-.712 0-1.339-.19-1.881-.568-.538-.379-.958-.908-1.261-1.586-.299-.678-.449-1.467-.449-2.369 0-.898.15-1.684.449-2.358.303-.678.725-1.204 1.267-1.579.542-.379 1.172-.569 1.892-.569.534 0 .975.095 1.324.285.352.189.634.422.847.698.212.273.376.54.494.802h.119v-1.665h.989v12h-1.017Zm-2.654-4.017c.565 0 1.046-.154 1.444-.461.397-.31.7-.736.909-1.278.212-.545.318-1.17.318-1.875 0-.697-.104-1.312-.313-1.847-.208-.537-.511-.958-.909-1.261-.394-.307-.877-.46-1.449-.46-.583 0-1.075.159-1.477.477-.401.315-.704.741-.909 1.279-.205.537-.307 1.142-.307 1.812 0 .678.104 1.29.313 1.835.208.546.513.979.914 1.301.402.319.891.478 1.466.478Zm6.333.744v-8.727h.983v1.341h.074a2.18 2.18 0 0 1 .909-1.063 2.722 2.722 0 0 1 1.477-.409c.083 0 .176.002.278.006.103.004.188.007.256.011v1.029c-.045-.008-.125-.019-.239-.035a2.817 2.817 0 0 0-.369-.022c-.454 0-.86.096-1.216.289-.352.19-.631.453-.835.79a2.176 2.176 0 0 0-.307 1.154V227h-1.011Zm11.566-6.812-.926.261a2.418 2.418 0 0 0-.386-.71 1.757 1.757 0 0 0-.653-.506c-.266-.125-.595-.188-.989-.188-.591 0-1.076.141-1.455.421-.378.28-.568.642-.568 1.085 0 .375.129.68.387.915.261.231.662.415 1.204.551l1.318.324c.731.178 1.279.46 1.642.847.368.386.551.871.551 1.454 0 .492-.136.93-.409 1.313-.272.382-.653.683-1.142.903-.484.216-1.047.324-1.687.324-.852 0-1.555-.191-2.108-.574-.553-.386-.907-.943-1.063-1.67l.972-.239c.125.519.369.911.733 1.176.367.265.85.398 1.449.398.67 0 1.206-.15 1.608-.449.401-.303.602-.682.602-1.136 0-.353-.117-.648-.352-.887-.235-.242-.591-.42-1.068-.534l-1.427-.341c-.757-.182-1.318-.47-1.681-.864-.364-.393-.546-.882-.546-1.465 0-.481.131-.904.392-1.267a2.615 2.615 0 0 1 1.08-.864c.458-.208.981-.313 1.568-.313.799 0 1.437.182 1.915.546.481.36.827.856 1.039 1.489Zm5.777-1.915v.88h-4.164v-.88h4.164Zm-2.863-2.091h1.017v8.54c0 .363.062.649.187.858.125.204.288.35.489.437.201.083.415.125.642.125.133 0 .246-.008.341-.023a4.27 4.27 0 0 0 .25-.057l.216.915a2.499 2.499 0 0 1-.898.154c-.371 0-.729-.082-1.074-.245a2.103 2.103 0 0 1-.841-.727c-.219-.322-.329-.721-.329-1.199v-8.778Zm10.706 7.483v-5.392h1.011V227h-1.011v-1.449h-.08c-.204.447-.528.82-.971 1.119-.444.296-.985.444-1.625.444-.557 0-1.051-.122-1.483-.364a2.568 2.568 0 0 1-1.017-1.08c-.247-.473-.37-1.054-.37-1.744v-5.653h1.012v5.591c0 .681.2 1.231.602 1.647.402.413.917.62 1.545.62.394 0 .773-.095 1.137-.284.363-.19.663-.466.898-.83.234-.367.352-.818.352-1.352Zm10.444-5.392L223.841 227h-1.08l-3.187-8.727h1.096l2.591 7.392h.08l2.591-7.392h1.096Zm3.917 8.727-2.637-8.727h1.068l2.069 7.199h.073l2.063-7.199h1.074l2.045 7.182h.08l2.068-7.182h1.068L237.28 227h-1.046l-2.068-7.153h-.108L231.99 227h-1.045Zm11.562-8.727 2.25 3.721 2.25-3.721h1.176l-2.807 4.363 2.807 4.364h-1.176l-2.25-3.602-2.25 3.602h-1.17l2.772-4.364-2.772-4.363h1.17Zm8.502 12a2.639 2.639 0 0 1-.978-.182l.273-.892c.345.106.651.144.92.113.269-.026.508-.147.716-.363.209-.212.394-.538.557-.977l.318-.887-3.21-8.812h1.097l2.591 7.392h.079l2.591-7.392h1.097l-3.694 10.108c-.155.42-.346.771-.573 1.051a2.156 2.156 0 0 1-.79.63 2.281 2.281 0 0 1-.994.211Zm7.757-3.273v-.801l5.045-6.898v-.074h-4.829v-.954h6.13v.835l-4.954 6.864v.073h5.136V227h-6.528ZM52.91 275.159c-.82 0-1.518-.235-2.097-.704-.576-.474-1.02-1.158-1.33-2.052-.307-.894-.46-1.967-.46-3.221 0-1.25.153-2.32.46-3.21.31-.894.756-1.578 1.335-2.052.584-.477 1.28-.715 2.091-.715.81 0 1.506.238 2.085.715.584.474 1.029 1.158 1.336 2.052.31.89.465 1.96.465 3.21 0 1.254-.155 2.327-.465 3.221-.307.894-.75 1.578-1.33 2.052-.576.469-1.273.704-2.09.704Zm0-.954c.897 0 1.598-.438 2.101-1.313.504-.879.756-2.115.756-3.71 0-1.061-.116-1.966-.347-2.716-.227-.754-.555-1.33-.983-1.727a2.155 2.155 0 0 0-1.528-.597c-.89 0-1.589.443-2.096 1.33-.508.882-.762 2.119-.762 3.71 0 1.06.114 1.966.341 2.716.231.75.559 1.322.983 1.716.428.394.94.591 1.534.591Zm9.789-10.841V275h-1.063v-10.523h-.068l-2.727 1.813v-1.102l2.75-1.824h1.108ZM66.233 275v-.778l3.801-4.273c.496-.561.896-1.04 1.199-1.438.303-.397.523-.765.659-1.102.14-.337.21-.687.21-1.051a2.109 2.109 0 0 0-1.16-1.938 2.62 2.62 0 0 0-1.215-.278c-.477 0-.896.102-1.255.307a2.156 2.156 0 0 0-.83.841 2.493 2.493 0 0 0-.295 1.227H66.33c0-.644.147-1.214.443-1.71.299-.5.706-.892 1.221-1.176.52-.284 1.106-.426 1.762-.426.647 0 1.223.14 1.727.42a3.1 3.1 0 0 1 1.188 1.131 3.04 3.04 0 0 1 .431 1.602c0 .428-.076.843-.227 1.244-.148.402-.403.849-.767 1.341a24.565 24.565 0 0 1-1.511 1.807l-2.887 3.222v.073h5.756V275h-7.233Zm13.544.159c-.716 0-1.356-.129-1.92-.386-.565-.262-1.012-.623-1.341-1.085a2.844 2.844 0 0 1-.523-1.597h1.074c.019.424.15.795.392 1.114.242.314.564.56.966.738.401.174.848.262 1.34.262.538 0 1.012-.101 1.421-.302.413-.2.735-.475.966-.823.235-.353.352-.75.352-1.194a2.2 2.2 0 0 0-.358-1.244c-.238-.36-.581-.64-1.028-.841-.443-.201-.974-.301-1.591-.301h-.682v-.955h.682c.504 0 .949-.09 1.335-.272.39-.186.697-.445.92-.779.224-.333.336-.725.336-1.176a2.17 2.17 0 0 0-.29-1.13 2.029 2.029 0 0 0-.818-.768c-.349-.185-.756-.278-1.222-.278-.45 0-.863.087-1.238.261a2.305 2.305 0 0 0-.91.739 2.02 2.02 0 0 0-.363 1.131h-1.028c.015-.606.181-1.139.5-1.597a3.259 3.259 0 0 1 1.278-1.079 3.97 3.97 0 0 1 1.773-.392c.685 0 1.278.14 1.778.42.5.28.886.653 1.16 1.119.276.462.414.972.414 1.529 0 .663-.18 1.231-.54 1.704-.36.47-.844.796-1.454.978v.073c.742.148 1.325.478 1.75.989.428.508.642 1.131.642 1.869 0 .622-.163 1.18-.489 1.676a3.423 3.423 0 0 1-1.34 1.171c-.565.284-1.213.426-1.944.426Zm6.006-2.659v-.864l5.187-8.272h.636v1.448h-.471l-4.165 6.66v.073h6.801v.955h-7.988Zm5.431 2.5v-11.636h1.012V275h-1.011Zm8.266.159c-.648 0-1.227-.131-1.739-.392a3.193 3.193 0 0 1-1.215-1.091c-.3-.462-.459-.99-.478-1.585h1.029c.034.617.276 1.125.727 1.523.45.394 1.01.591 1.676.591.52 0 .981-.124 1.386-.37.406-.25.722-.591.949-1.023a3.09 3.09 0 0 0 .347-1.471c-.004-.568-.127-1.068-.369-1.5a2.668 2.668 0 0 0-2.381-1.392c-.39-.004-.773.06-1.148.193a3.04 3.04 0 0 0-.937.511l-1.063-.136.7-5.653h5.749v.954h-4.858l-.466 3.892h.057a3.37 3.37 0 0 1 2.114-.733c.685 0 1.301.165 1.846.495.549.329.983.784 1.301 1.363.322.576.483 1.239.483 1.989 0 .735-.161 1.392-.483 1.971a3.554 3.554 0 0 1-1.318 1.364c-.557.333-1.193.5-1.909.5Zm9.793 0a3.727 3.727 0 0 1-1.409-.29 3.363 3.363 0 0 1-1.239-.926c-.367-.428-.659-.992-.875-1.693-.216-.701-.324-1.563-.324-2.585 0-.947.083-1.815.25-2.603.167-.787.417-1.469.75-2.045.333-.576.75-1.021 1.25-1.335.5-.318 1.085-.477 1.756-.477.629 0 1.184.13 1.665.392.481.257.871.617 1.17 1.079.299.462.487.994.563 1.597h-1.046c-.106-.614-.358-1.12-.756-1.517-.397-.398-.93-.597-1.596-.597-.955 0-1.693.443-2.216 1.33-.523.882-.786 2.136-.79 3.761h.074c.186-.345.424-.642.716-.892a3.295 3.295 0 0 1 1.006-.591 3.267 3.267 0 0 1 1.181-.216c.648 0 1.241.165 1.779.494.538.326.968.775 1.29 1.347.322.568.483 1.218.483 1.949 0 .693-.154 1.331-.461 1.915a3.528 3.528 0 0 1-1.284 1.392c-.549.344-1.195.515-1.937.511Zm0-.954c.507 0 .96-.129 1.358-.387a2.75 2.75 0 0 0 .949-1.034c.231-.436.346-.917.346-1.443 0-.527-.115-1.004-.346-1.432a2.725 2.725 0 0 0-.949-1.023 2.478 2.478 0 0 0-1.358-.38c-.387 0-.746.079-1.08.238a2.71 2.71 0 0 0-.869.642 2.838 2.838 0 0 0-.557.926 2.612 2.612 0 0 0-.142 1.097 3.5 3.5 0 0 0 .415 1.438c.238.42.549.751.932.994a2.4 2.4 0 0 0 1.301.364Zm6.42.795 5.301-10.608v-.074h-6.108v-.954h7.222v1L116.812 275h-1.119Zm12.043.159c-.743 0-1.404-.14-1.983-.42-.58-.281-1.034-.663-1.364-1.148a2.894 2.894 0 0 1-.494-1.653c0-.482.1-.93.301-1.347.201-.421.477-.773.83-1.057a2.668 2.668 0 0 1 1.187-.562v-.063a2.519 2.519 0 0 1-1.381-.983 2.807 2.807 0 0 1-.517-1.676 2.752 2.752 0 0 1 .444-1.557c.299-.458.706-.82 1.221-1.085.519-.269 1.104-.403 1.756-.403.648 0 1.229.134 1.744.403.515.265.922.627 1.222 1.085.303.459.456.977.46 1.557a2.883 2.883 0 0 1-.528 1.676 2.48 2.48 0 0 1-1.375.983v.063c.439.083.833.269 1.181.556.349.288.625.642.83 1.063.204.417.307.865.307 1.347a2.87 2.87 0 0 1-.5 1.653c-.33.485-.784.867-1.364 1.148-.576.28-1.235.42-1.977.42Zm0-.954c.553 0 1.038-.099 1.454-.296.421-.201.748-.475.983-.824.239-.348.358-.748.358-1.199 0-.466-.123-.88-.369-1.244a2.574 2.574 0 0 0-1-.869 3.077 3.077 0 0 0-1.426-.324c-.531 0-1.008.108-1.432.324-.42.212-.754.502-1 .869a2.195 2.195 0 0 0-.364 1.244c0 .451.116.851.347 1.199.235.349.562.623.983.824.424.197.913.296 1.466.296Zm0-5.665a2.54 2.54 0 0 0 1.221-.29c.36-.193.644-.456.853-.79.212-.337.32-.719.324-1.148a2.07 2.07 0 0 0-.319-1.124 2.111 2.111 0 0 0-.852-.768 2.623 2.623 0 0 0-1.227-.278c-.462 0-.875.093-1.239.278-.36.182-.644.438-.852.768-.205.325-.305.7-.301 1.124-.004.429.098.811.307 1.148.212.334.498.597.858.79.363.193.772.29 1.227.29Zm9.7-5.335c.485.003.955.102 1.409.295.459.189.871.496 1.239.92.367.421.659.982.875 1.682.216.697.324 1.555.324 2.574 0 .951-.084 1.822-.25 2.614-.167.791-.417 1.477-.75 2.057-.33.575-.747 1.022-1.25 1.341-.5.314-1.086.471-1.756.471-.625 0-1.18-.131-1.665-.392a3.181 3.181 0 0 1-1.17-1.085 3.762 3.762 0 0 1-.557-1.614h1.045c.103.621.353 1.133.75 1.534.402.402.934.603 1.597.603.951 0 1.689-.444 2.216-1.33.526-.886.79-2.148.79-3.784h-.074a3.085 3.085 0 0 1-.716.892 3.326 3.326 0 0 1-1 .597c-.375.14-.771.21-1.188.21-.647 0-1.24-.163-1.778-.489a3.666 3.666 0 0 1-1.29-1.346c-.322-.572-.483-1.224-.483-1.955 0-.689.152-1.322.455-1.898a3.599 3.599 0 0 1 1.284-1.386c.553-.349 1.201-.519 1.943-.511Zm0 .954c-.504 0-.956.129-1.358.386a2.76 2.76 0 0 0-.949 1.029 2.952 2.952 0 0 0-.346 1.426 3 3 0 0 0 .346 1.438c.235.428.551.768.949 1.022.402.25.854.375 1.358.375a2.52 2.52 0 0 0 1.08-.233c.333-.159.621-.375.863-.647.246-.273.432-.582.557-.927.129-.348.18-.714.153-1.096a3.4 3.4 0 0 0-.426-1.421 2.653 2.653 0 0 0-.931-.988 2.368 2.368 0 0 0-1.296-.364ZM50.756 311.364l-.074 8.301h-1l-.074-8.301h1.148Zm-.574 11.721a.801.801 0 0 1-.58-.238.802.802 0 0 1-.238-.58c0-.227.08-.42.238-.579a.798.798 0 0 1 .58-.239.78.78 0 0 1 .574.239.779.779 0 0 1 .244.579.774.774 0 0 1-.114.409.828.828 0 0 1-.295.301.786.786 0 0 1-.41.108Zm9.967 1.262c-1.083 0-2.057-.167-2.92-.5a6.132 6.132 0 0 1-2.21-1.438 6.425 6.425 0 0 1-1.398-2.267c-.322-.883-.483-1.869-.483-2.96 0-1.068.163-2.038.488-2.909.33-.871.798-1.62 1.404-2.245a6.238 6.238 0 0 1 2.182-1.443c.848-.341 1.791-.511 2.83-.511 1.014 0 1.923.178 2.727.534a6.083 6.083 0 0 1 2.05 1.443c.565.61.995 1.305 1.29 2.085.3.777.45 1.589.45 2.438 0 .538-.042 1.068-.126 1.591-.08.522-.218.996-.415 1.42a2.57 2.57 0 0 1-.818 1.017c-.348.25-.79.375-1.324.375-.28 0-.556-.045-.83-.136a1.681 1.681 0 0 1-.692-.46c-.19-.216-.3-.504-.33-.864h-.057a2.58 2.58 0 0 1-.511.75c-.22.224-.49.402-.813.534-.318.133-.687.193-1.108.182a2.877 2.877 0 0 1-1.29-.318 2.99 2.99 0 0 1-.97-.824 3.833 3.833 0 0 1-.609-1.21 5.128 5.128 0 0 1-.21-1.495c0-.515.078-.99.233-1.426.159-.435.377-.816.653-1.142.28-.326.608-.585.983-.778a3.084 3.084 0 0 1 1.21-.335c.387-.027.743.011 1.069.113.325.099.602.243.83.432.227.189.39.403.488.642h.057v-1.028h.926v5.267c0 .397.078.708.233.931.159.22.409.33.75.33.413 0 .748-.134 1.006-.403.26-.273.452-.675.573-1.205.121-.534.182-1.191.182-1.972 0-.59-.083-1.162-.25-1.715a5.643 5.643 0 0 0-.716-1.546 5.272 5.272 0 0 0-2.733-2.091 6.006 6.006 0 0 0-1.954-.301c-.887 0-1.692.15-2.415.449a5.315 5.315 0 0 0-1.87 1.284 5.78 5.78 0 0 0-1.198 1.994c-.28.769-.42 1.627-.42 2.574 0 .959.14 1.824.42 2.597.28.773.684 1.434 1.21 1.983.53.549 1.17.971 1.92 1.267.75.295 1.595.443 2.535.443.416 0 .825-.042 1.227-.125a7.84 7.84 0 0 0 1.102-.295c.333-.118.602-.233.807-.347l.29.795c-.28.152-.614.29-1 .415a8.396 8.396 0 0 1-1.216.296 7.399 7.399 0 0 1-1.239.108Zm-.494-4.256c.515 0 .949-.119 1.301-.358s.617-.581.795-1.028c.182-.447.273-.985.273-1.614 0-.633-.096-1.154-.29-1.563-.189-.409-.46-.712-.812-.909-.349-.2-.761-.301-1.239-.301a2.01 2.01 0 0 0-1.216.381c-.344.25-.615.585-.812 1.006-.193.42-.29.882-.29 1.386 0 .534.085 1.028.256 1.483.174.454.43.822.767 1.102.34.277.763.415 1.267.415ZM73.048 323l1.91-11.636h.88L73.93 323h-.88Zm-5.403-3.358.148-.875h8.681l-.147.875h-8.682ZM68.957 323l1.91-11.636h.88L69.838 323h-.88Zm-.636-7.403.142-.875h8.682l-.142.875H68.32Zm13.797 8.858v-14.546h.744v14.546h-.744Zm3.199-10.182c-.065-.648-.35-1.163-.858-1.546-.508-.382-1.146-.574-1.915-.574-.542 0-1.019.093-1.432.279-.409.185-.73.443-.966.773a1.875 1.875 0 0 0-.346 1.113c0 .307.066.576.199.807.132.231.31.43.534.597.227.162.477.303.75.42.276.117.555.216.835.296l1.227.352a8.65 8.65 0 0 1 1.114.392c.371.159.71.36 1.017.602.31.239.559.532.744.881.19.344.284.759.284 1.244 0 .621-.16 1.18-.483 1.676-.322.496-.784.89-1.386 1.182-.602.288-1.324.432-2.165.432-.791 0-1.479-.131-2.062-.392-.584-.265-1.042-.631-1.375-1.097a3.08 3.08 0 0 1-.563-1.619h1.091c.038.458.19.846.455 1.165.265.318.61.56 1.034.727.424.163.897.244 1.42.244.58 0 1.095-.096 1.546-.289.454-.197.81-.47 1.068-.819.261-.352.392-.761.392-1.227 0-.394-.102-.723-.307-.989-.204-.269-.49-.494-.858-.676a7.556 7.556 0 0 0-1.267-.483l-1.392-.409c-.913-.273-1.621-.649-2.125-1.13-.504-.482-.756-1.095-.756-1.841 0-.625.167-1.175.5-1.648a3.362 3.362 0 0 1 1.364-1.114c.576-.269 1.221-.403 1.937-.403.724 0 1.364.132 1.92.398.558.265.999.63 1.325 1.096.33.462.505.989.528 1.58h-1.028Zm9.38 6.568v-.529c0-.435.088-.827.262-1.176.174-.352.422-.63.744-.835.322-.204.705-.307 1.148-.307.447 0 .83.103 1.148.307.318.205.562.483.733.835.17.349.255.741.255 1.176v.529c0 .436-.087.828-.261 1.176-.17.349-.415.627-.733.835-.318.205-.699.307-1.142.307-.45 0-.837-.102-1.16-.307a2.097 2.097 0 0 1-.738-.835 2.639 2.639 0 0 1-.256-1.176Zm.892-.529v.529c0 .428.105.793.313 1.097.212.299.528.448.949.448.409 0 .718-.149.926-.448.208-.304.313-.669.313-1.097v-.529c0-.428-.103-.791-.307-1.09-.205-.303-.516-.455-.932-.455-.413 0-.727.152-.943.455-.213.299-.319.662-.319 1.09Zm-6.755-6.261v-.528c0-.436.087-.828.261-1.176.174-.349.422-.625.745-.83.322-.208.704-.312 1.147-.312.447 0 .83.104 1.148.312.318.205.562.481.733.83.17.348.256.74.256 1.176v.528c0 .436-.087.83-.262 1.182a2.02 2.02 0 0 1-.733.829c-.318.205-.699.307-1.142.307-.45 0-.837-.102-1.159-.307a2.06 2.06 0 0 1-.739-.829 2.676 2.676 0 0 1-.255-1.182Zm.892-.528v.528c0 .428.104.794.312 1.097.213.299.529.449.95.449.408 0 .717-.15.925-.449.209-.303.313-.669.313-1.097v-.528c0-.428-.102-.792-.307-1.091-.204-.303-.515-.455-.932-.455-.413 0-.727.152-.943.455-.212.299-.318.663-.318 1.091Zm-.37 9.477 7.995-11.636h1.005L90.362 323h-1.005Zm14.349-10.773h.352v.5h-.352v-.5Zm-2.716 4.409 2.329-4.909h1.125l2.33 4.909h-1.029l-1.937-4.136h.148l-1.921 4.136h-1.045Zm10.366 6.523c-.716 0-1.341-.138-1.875-.415a3.126 3.126 0 0 1-1.244-1.142 3.045 3.045 0 0 1-.443-1.63c0-.44.089-.836.267-1.188.181-.356.443-.693.784-1.011.341-.322.754-.656 1.238-1l1.688-1.256c.401-.288.706-.57.915-.847.212-.28.318-.623.318-1.028 0-.39-.148-.739-.443-1.045-.292-.311-.671-.466-1.137-.466-.325 0-.617.081-.875.244a1.86 1.86 0 0 0-.608.636 1.62 1.62 0 0 0-.221.813c0 .265.068.532.204.801.137.265.32.545.551.841.231.292.489.614.773.966l5.318 6.568h-1.227l-4.636-5.688c-.39-.477-.737-.903-1.04-1.278a6.21 6.21 0 0 1-.716-1.091 2.518 2.518 0 0 1-.261-1.131c0-.496.115-.937.346-1.323.231-.391.549-.697.955-.921a2.884 2.884 0 0 1 1.403-.335c.538 0 1.004.11 1.398.329.398.22.704.512.92.876.22.363.33.765.33 1.204 0 .527-.136.992-.409 1.398-.269.405-.661.803-1.176 1.193l-2.114 1.579c-.579.436-.977.84-1.193 1.211-.216.371-.324.687-.324.949 0 .409.106.786.318 1.13.212.345.506.621.881.83.379.208.812.314 1.301.318.485-.004.941-.1 1.369-.29a3.623 3.623 0 0 0 1.148-.824c.341-.356.614-.782.818-1.278.209-.496.33-1.049.364-1.659l.983.011c-.015.625-.101 1.156-.256 1.591a4.355 4.355 0 0 1-.523 1.068 8.382 8.382 0 0 1-.517.676l-.125.171a4.034 4.034 0 0 1-.13.17 3.633 3.633 0 0 1-1.415.949 4.65 4.65 0 0 1-1.682.324Zm9.063-5.25.062-2.653-2.267 1.386-.42-.739 2.341-1.267-2.341-1.267.42-.738 2.267 1.386-.062-2.653h.852l-.063 2.653 2.267-1.386.421.738-2.341 1.267 2.341 1.267-.421.739-2.267-1.386.063 2.653h-.852Zm6.181.182c0-1.364.173-2.652.517-3.864a13.838 13.838 0 0 1 1.483-3.409h.921c-.277.447-.53.953-.761 1.517a14.66 14.66 0 0 0-.591 1.807c-.167.64-.296 1.295-.387 1.966a14.654 14.654 0 0 0 .103 4.631c.159.89.378 1.734.659 2.534.284.799.609 1.496.977 2.091h-.921a13.946 13.946 0 0 1-1.483-3.415 14.068 14.068 0 0 1-.517-3.858Zm7.581 0c0 1.364-.172 2.651-.517 3.864a13.8 13.8 0 0 1-1.483 3.409h-.92c.276-.447.528-.953.756-1.517.231-.565.43-1.167.596-1.807.167-.64.296-1.296.387-1.966.09-.671.136-1.332.136-1.983 0-.875-.08-1.758-.239-2.648-.159-.89-.38-1.735-.664-2.534a10.814 10.814 0 0 0-.972-2.091h.92a13.908 13.908 0 0 1 1.483 3.415 14.03 14.03 0 0 1 .517 3.858ZM53.295 446.364V458h-1.409v-10.159h-.068l-2.84 1.886v-1.432l2.908-1.931h1.41Zm2.958 9.548v-1.014l4.474-7.08h.736v1.571h-.497l-3.38 5.35v.079h6.025v1.094h-7.358ZM61.045 458V447.818h1.174V458h-1.174Zm9.102 3.273v-12h1.296v1.386h.159c.098-.151.235-.345.409-.579.178-.239.432-.451.761-.637.334-.189.784-.284 1.352-.284.735 0 1.383.184 1.944.551.56.368.998.888 1.312 1.563.315.674.472 1.469.472 2.386 0 .924-.157 1.725-.472 2.403-.314.675-.75 1.197-1.307 1.569-.556.367-1.198.551-1.926.551-.56 0-1.01-.093-1.346-.279-.338-.189-.597-.403-.779-.642a8.54 8.54 0 0 1-.42-.602h-.114v4.614h-1.34Zm1.318-7.637c0 .659.097 1.241.29 1.745.193.5.476.892.847 1.176.371.28.825.42 1.363.42.561 0 1.029-.147 1.404-.443.379-.299.663-.701.852-1.204.193-.508.29-1.072.29-1.694 0-.613-.095-1.166-.284-1.659-.186-.496-.468-.888-.847-1.176-.375-.292-.846-.437-1.415-.437-.545 0-1.003.138-1.375.414-.37.273-.651.656-.84 1.148-.19.489-.285 1.059-.285 1.71Zm9.073-4.363 2.09 3.568 2.092-3.568h1.545l-2.818 4.363L86.265 458H84.72l-2.091-3.386L80.538 458h-1.546l2.773-4.364-2.773-4.363h1.546Zm14.385 3.783c-.64 0-1.04-.4-1.04-1.12 0-.688.384-1.12 1.04-1.12.608 0 1.024.4 1.024 1.12 0 .704-.4 1.12-1.024 1.12Zm13.027-6.692V458h-1.409v-10.159h-.069l-2.84 1.886v-1.432l2.909-1.931h1.409Zm7.21 11.795a4.322 4.322 0 0 1-1.432-.273 3.426 3.426 0 0 1-1.307-.88c-.394-.417-.71-.979-.949-1.688-.238-.712-.357-1.606-.357-2.682 0-1.03.096-1.943.289-2.738.193-.8.474-1.472.841-2.017.368-.55.811-.966 1.33-1.25.522-.284 1.111-.426 1.767-.426.651 0 1.231.13 1.738.392.512.257.928.617 1.25 1.079.322.462.531.994.625 1.597h-1.386a2.569 2.569 0 0 0-.75-1.301c-.371-.345-.864-.517-1.477-.517-.902 0-1.612.392-2.131 1.176-.515.784-.775 1.884-.778 3.301h.091a3.423 3.423 0 0 1 1.733-1.358 3.388 3.388 0 0 1 1.13-.188 3.48 3.48 0 0 1 1.83.5c.553.33.996.786 1.329 1.37.334.579.5 1.244.5 1.994 0 .72-.161 1.379-.483 1.977a3.678 3.678 0 0 1-1.358 1.421c-.579.348-1.261.519-2.045.511Zm0-1.25c.477 0 .905-.119 1.284-.358.383-.239.684-.559.903-.96.224-.402.336-.849.336-1.341a2.68 2.68 0 0 0-.324-1.312 2.462 2.462 0 0 0-.881-.949 2.327 2.327 0 0 0-1.273-.353 2.36 2.36 0 0 0-1.005.216c-.311.14-.584.334-.818.58a2.807 2.807 0 0 0-.546.846 2.69 2.69 0 0 0 1.023 3.262c.382.246.816.369 1.301.369Zm10.643 4.364v-12h1.296v1.386h.159c.098-.151.235-.345.409-.579.178-.239.432-.451.761-.637.334-.189.785-.284 1.353-.284.735 0 1.382.184 1.943.551.561.368.998.888 1.312 1.563.315.674.472 1.469.472 2.386 0 .924-.157 1.725-.472 2.403-.314.675-.75 1.197-1.306 1.569-.557.367-1.199.551-1.927.551-.56 0-1.009-.093-1.346-.279-.337-.189-.597-.403-.779-.642a8.61 8.61 0 0 1-.42-.602h-.114v4.614h-1.341Zm1.319-7.637c0 .659.096 1.241.289 1.745.194.5.476.892.847 1.176.371.28.826.42 1.364.42.56 0 1.028-.147 1.403-.443.379-.299.663-.701.852-1.204.193-.508.29-1.072.29-1.694 0-.613-.095-1.166-.284-1.659-.186-.496-.468-.888-.847-1.176-.375-.292-.846-.437-1.414-.437-.546 0-1.004.138-1.375.414-.372.273-.652.656-.841 1.148-.19.489-.284 1.059-.284 1.71Zm9.072-4.363 2.091 3.568 2.091-3.568h1.545l-2.818 4.363 2.818 4.364h-1.545l-2.091-3.386-2.091 3.386h-1.545l2.772-4.364-2.772-4.363h1.545Zm14.385 3.783c-.64 0-1.04-.4-1.04-1.12 0-.688.384-1.12 1.04-1.12.608 0 1.024.4 1.024 1.12 0 .704-.4 1.12-1.024 1.12Zm9.388 4.944v-1.406l5.281-5.782c.62-.677 1.13-1.265 1.531-1.765.401-.505.698-.979.891-1.422.198-.448.297-.917.297-1.406 0-.563-.136-1.05-.406-1.461a2.638 2.638 0 0 0-1.094-.953 3.55 3.55 0 0 0-1.563-.336c-.614 0-1.151.127-1.609.383-.453.25-.805.601-1.055 1.054-.245.453-.367.985-.367 1.594h-1.844c0-.938.216-1.76.649-2.469a4.51 4.51 0 0 1 1.765-1.656c.75-.396 1.592-.594 2.524-.594.937 0 1.768.198 2.492.594.724.396 1.292.93 1.703 1.602a4.2 4.2 0 0 1 .617 2.242c0 .588-.106 1.164-.32 1.726-.208.558-.573 1.18-1.094 1.867-.515.683-1.232 1.516-2.148 2.5l-3.594 3.844v.125h7.438V458h-10.094Zm13.32 0v-1.406l5.281-5.782a36.602 36.602 0 0 0 1.532-1.765c.401-.505.698-.979.89-1.422.198-.448.297-.917.297-1.406 0-.563-.135-1.05-.406-1.461a2.632 2.632 0 0 0-1.094-.953 3.542 3.542 0 0 0-1.562-.336c-.615 0-1.151.127-1.61.383-.453.25-.804.601-1.054 1.054-.245.453-.368.985-.368 1.594h-1.843c0-.938.216-1.76.648-2.469a4.506 4.506 0 0 1 1.766-1.656c.75-.396 1.591-.594 2.523-.594.938 0 1.768.198 2.492.594.724.396 1.292.93 1.703 1.602.412.671.618 1.419.618 2.242 0 .588-.107 1.164-.321 1.726-.208.558-.573 1.18-1.093 1.867-.516.683-1.232 1.516-2.149 2.5l-3.594 3.844v.125h7.438V458h-10.094Zm17.391 3.273v-12h1.296v1.386h.159c.098-.151.235-.345.409-.579.178-.239.432-.451.761-.637.334-.189.785-.284 1.353-.284.735 0 1.382.184 1.943.551.561.368.998.888 1.312 1.563.315.674.472 1.469.472 2.386 0 .924-.157 1.725-.472 2.403-.314.675-.75 1.197-1.306 1.569-.557.367-1.199.551-1.927.551-.56 0-1.009-.093-1.346-.279-.337-.189-.597-.403-.779-.642a8.61 8.61 0 0 1-.42-.602h-.114v4.614h-1.341Zm1.319-7.637c0 .659.096 1.241.289 1.745.194.5.476.892.847 1.176.371.28.826.42 1.364.42.56 0 1.028-.147 1.403-.443.379-.299.663-.701.852-1.204.193-.508.29-1.072.29-1.694 0-.613-.095-1.166-.284-1.659-.186-.496-.468-.888-.847-1.176-.375-.292-.846-.437-1.414-.437-.546 0-1.004.138-1.375.414-.372.273-.652.656-.841 1.148-.19.489-.284 1.059-.284 1.71Zm9.072-4.363 2.091 3.568 2.091-3.568h1.545l-2.818 4.363 2.818 4.364h-1.545l-2.091-3.386-2.091 3.386h-1.545l2.772-4.364-2.772-4.363h1.545Z"/></svg>