<svg xmlns="http://www.w3.org/2000/svg" width="837" height="506" fill="none"><path fill="#07041F" d="M0 0h837v506H0z"/><path fill="#fff" d="m55.104 387-2.656-4.56h-1.76V387h-1.456v-11.152h3.6c.843 0 1.552.144 2.128.432.587.288 1.024.677 1.312 1.168.288.491.432 1.051.432 1.68 0 .768-.224 1.445-.672 2.032-.437.587-1.099.976-1.984 1.168l2.8 4.672h-1.744Zm-4.416-5.728h2.144c.79 0 1.381-.192 1.776-.576.395-.395.592-.917.592-1.568 0-.661-.197-1.173-.592-1.536-.384-.363-.976-.544-1.776-.544h-2.144v4.224Zm16.278 1.008c0 .277-.016.571-.048.88H59.91c.054.864.347 1.541.88 2.032.544.48 1.2.72 1.968.72.63 0 1.152-.144 1.568-.432.427-.299.726-.693.896-1.184h1.568a3.806 3.806 0 0 1-1.408 2.064c-.704.523-1.578.784-2.624.784-.832 0-1.578-.187-2.24-.56A3.988 3.988 0 0 1 58.982 385c-.373-.693-.56-1.493-.56-2.4 0-.907.182-1.701.544-2.384a3.78 3.78 0 0 1 1.52-1.568c.662-.373 1.419-.56 2.272-.56.832 0 1.568.181 2.208.544.64.363 1.131.864 1.472 1.504.352.629.528 1.344.528 2.144Zm-1.504-.304c0-.555-.122-1.029-.368-1.424a2.32 2.32 0 0 0-1.008-.912 3.01 3.01 0 0 0-1.392-.32c-.736 0-1.365.235-1.888.704-.512.469-.805 1.12-.88 1.952h5.536Zm7.042-3.888c.758 0 1.419.165 1.984.496.576.331 1.003.747 1.28 1.248v-1.6h1.472v8.96c0 .8-.17 1.509-.512 2.128a3.625 3.625 0 0 1-1.472 1.472c-.63.352-1.365.528-2.208.528-1.152 0-2.112-.272-2.88-.816-.768-.544-1.221-1.285-1.36-2.224h1.44c.16.533.49.96.992 1.28.502.331 1.104.496 1.808.496.8 0 1.45-.251 1.952-.752.512-.501.768-1.205.768-2.112v-1.84c-.288.512-.714.939-1.28 1.28-.565.341-1.226.512-1.984.512a4.057 4.057 0 0 1-2.128-.576 4.041 4.041 0 0 1-1.488-1.616c-.362-.693-.544-1.483-.544-2.368 0-.896.182-1.68.544-2.352a3.947 3.947 0 0 1 1.488-1.584 4.15 4.15 0 0 1 2.128-.56Zm3.264 4.512c0-.661-.133-1.237-.4-1.728a2.752 2.752 0 0 0-1.088-1.12 2.851 2.851 0 0 0-1.488-.4c-.544 0-1.04.128-1.488.384a2.783 2.783 0 0 0-1.072 1.12c-.266.491-.4 1.067-.4 1.728 0 .672.134 1.259.4 1.76a2.9 2.9 0 0 0 1.072 1.136c.448.256.944.384 1.488.384s1.04-.128 1.488-.384a2.864 2.864 0 0 0 1.088-1.136c.267-.501.4-1.083.4-1.744Zm11.709-4.368V387H86.02v-1.296c-.278.448-.667.8-1.168 1.056a3.602 3.602 0 0 1-1.632.368c-.683 0-1.296-.139-1.84-.416a3.186 3.186 0 0 1-1.296-1.28c-.31-.565-.464-1.253-.464-2.064v-5.136h1.44v4.944c0 .864.218 1.531.656 2 .437.459 1.034.688 1.792.688.778 0 1.392-.24 1.84-.72.448-.48.672-1.179.672-2.096v-4.816h1.456Zm3.914-3.072V387h-1.456v-11.84h1.456Zm1.938 7.424c0-.896.181-1.68.544-2.352a3.948 3.948 0 0 1 1.488-1.584 4.15 4.15 0 0 1 2.128-.56c.768 0 1.434.165 2 .496.565.331.986.747 1.264 1.248v-1.6h1.472V387h-1.472v-1.632c-.288.512-.72.939-1.296 1.28-.566.331-1.227.496-1.984.496a3.975 3.975 0 0 1-2.112-.576 4.043 4.043 0 0 1-1.488-1.616c-.363-.693-.544-1.483-.544-2.368Zm7.424.016c0-.661-.134-1.237-.4-1.728a2.754 2.754 0 0 0-1.088-1.12 2.851 2.851 0 0 0-1.488-.4c-.544 0-1.04.128-1.488.384a2.784 2.784 0 0 0-1.072 1.12c-.267.491-.4 1.067-.4 1.728 0 .672.133 1.259.4 1.76a2.9 2.9 0 0 0 1.072 1.136c.448.256.944.384 1.488.384s1.04-.128 1.488-.384a2.867 2.867 0 0 0 1.088-1.136c.266-.501.4-1.083.4-1.744Zm5.388-2.944a2.81 2.81 0 0 1 1.088-1.168c.48-.277 1.061-.416 1.744-.416v1.504h-.384c-1.632 0-2.448.885-2.448 2.656V387h-1.456v-8.768h1.456v1.424Zm11.144 2.4c-.64 0-1.04-.4-1.04-1.12 0-.688.384-1.12 1.04-1.12.608 0 1.024.4 1.024 1.12 0 .704-.4 1.12-1.024 1.12Zm12.691 5.056c-.779 0-1.483-.133-2.112-.4-.619-.267-1.11-.651-1.472-1.152-.363-.501-.55-1.093-.56-1.776h2.4c.032.459.192.821.48 1.088.298.267.704.4 1.216.4.522 0 .933-.123 1.232-.368.298-.256.448-.587.448-.992 0-.331-.102-.603-.304-.816a2.04 2.04 0 0 0-.768-.496 10.497 10.497 0 0 0-1.248-.416 14.736 14.736 0 0 1-1.776-.624 3.282 3.282 0 0 1-1.168-.944c-.32-.427-.48-.992-.48-1.696 0-.661.165-1.237.496-1.728.33-.491.794-.864 1.392-1.12.597-.267 1.28-.4 2.048-.4 1.152 0 2.085.283 2.8.848.725.555 1.125 1.333 1.2 2.336h-2.464a1.249 1.249 0 0 0-.496-.944c-.299-.256-.699-.384-1.2-.384-.438 0-.79.112-1.056.336-.256.224-.384.549-.384.976 0 .299.096.549.288.752.202.192.448.352.736.48.298.117.714.256 1.248.416.725.213 1.317.427 1.776.64a3.19 3.19 0 0 1 1.184.96c.33.427.496.987.496 1.68 0 .597-.155 1.152-.464 1.664-.31.512-.763.923-1.36 1.232-.598.299-1.307.448-2.128.448Zm14.134-4.736c0 .32-.022.608-.064.864h-6.48c.053.64.277 1.141.672 1.504.394.363.88.544 1.456.544.832 0 1.424-.357 1.776-1.072h2.416a4.083 4.083 0 0 1-1.472 2.112c-.726.544-1.616.816-2.672.816-.854 0-1.622-.187-2.304-.56a4.124 4.124 0 0 1-1.584-1.616c-.374-.693-.56-1.493-.56-2.4 0-.917.186-1.723.56-2.416a3.905 3.905 0 0 1 1.568-1.6c.672-.373 1.445-.56 2.32-.56.842 0 1.594.181 2.256.544.672.363 1.189.88 1.552 1.552.373.661.56 1.424.56 2.288Zm-2.32-.64c-.011-.576-.219-1.035-.624-1.376-.406-.352-.902-.528-1.488-.528-.555 0-1.024.171-1.408.512-.374.331-.603.795-.688 1.392h4.208Zm14.963-3.728c1.088 0 1.962.336 2.624 1.008.672.661 1.008 1.589 1.008 2.784v5.2h-2.24v-4.896c0-.693-.176-1.221-.528-1.584-.352-.373-.832-.56-1.44-.56s-1.094.187-1.456.56c-.352.363-.528.891-.528 1.584V387h-2.24v-4.896c0-.693-.176-1.221-.528-1.584-.352-.373-.832-.56-1.44-.56-.619 0-1.11.187-1.472.56-.352.363-.528.891-.528 1.584V387h-2.24v-8.864h2.24v1.072a2.997 2.997 0 0 1 1.104-.88c.458-.213.96-.32 1.504-.32.693 0 1.312.149 1.856.448.544.288.965.704 1.264 1.248a3.22 3.22 0 0 1 1.248-1.232 3.622 3.622 0 0 1 1.792-.464Zm6.893-.928c-.394 0-.725-.123-.992-.368a1.284 1.284 0 0 1-.384-.944c0-.373.128-.683.384-.928.267-.256.598-.384.992-.384.395 0 .72.128.976.384.267.245.4.555.4.928s-.133.688-.4.944c-.256.245-.581.368-.976.368Zm1.104 1.056V387h-2.24v-8.864h2.24Zm8.549 3.136c.63.117 1.147.432 1.552.944.406.512.608 1.099.608 1.76 0 .597-.149 1.125-.448 1.584-.288.448-.709.8-1.264 1.056-.554.256-1.21.384-1.968.384h-4.816v-11.168h4.608c.758 0 1.408.123 1.952.368.555.245.971.587 1.248 1.024.288.437.432.933.432 1.488 0 .651-.176 1.195-.528 1.632-.341.437-.8.747-1.376.928Zm-4.096-.832h2.048c.534 0 .944-.117 1.232-.352.288-.245.432-.592.432-1.04 0-.448-.144-.795-.432-1.04-.288-.245-.698-.368-1.232-.368h-2.048v2.8Zm2.256 4.736c.544 0 .966-.128 1.264-.384.31-.256.464-.619.464-1.088 0-.48-.16-.853-.48-1.12-.32-.277-.752-.416-1.296-.416h-2.208v3.008h2.256Zm9.722 1.968c-.854 0-1.622-.187-2.304-.56a4.196 4.196 0 0 1-1.616-1.616c-.384-.693-.576-1.493-.576-2.4 0-.907.197-1.707.592-2.4a4.162 4.162 0 0 1 1.648-1.6c.693-.384 1.466-.576 2.32-.576.853 0 1.626.192 2.32.576a4.065 4.065 0 0 1 1.632 1.6c.405.693.608 1.493.608 2.4 0 .907-.208 1.707-.624 2.4a4.258 4.258 0 0 1-1.664 1.616c-.694.373-1.472.56-2.336.56Zm0-1.952c.405 0 .784-.096 1.136-.288.362-.203.65-.501.864-.896.213-.395.32-.875.32-1.44 0-.843-.224-1.488-.672-1.936a2.145 2.145 0 0 0-1.616-.688c-.64 0-1.179.229-1.616.688-.427.448-.64 1.093-.64 1.936s.208 1.493.624 1.952c.426.448.96.672 1.6.672Zm8.507-10.032V387h-2.24v-11.84h2.24Zm1.637 7.376c0-.896.176-1.691.528-2.384.363-.693.853-1.227 1.472-1.6a3.922 3.922 0 0 1 2.064-.56c.576 0 1.125.128 1.648.384a3.22 3.22 0 0 1 1.248.992v-4.208h2.272V387h-2.272v-1.312a3.04 3.04 0 0 1-1.168 1.056c-.501.267-1.083.4-1.744.4a3.807 3.807 0 0 1-2.048-.576c-.619-.384-1.109-.923-1.472-1.616-.352-.704-.528-1.509-.528-2.416Zm6.976.032c0-.544-.107-1.008-.32-1.392a2.185 2.185 0 0 0-.864-.896 2.269 2.269 0 0 0-1.168-.32c-.416 0-.8.101-1.152.304-.352.203-.64.501-.864.896-.213.384-.32.843-.32 1.376 0 .533.107 1.003.32 1.408.224.395.512.699.864.912.363.213.747.32 1.152.32.416 0 .805-.101 1.168-.304a2.32 2.32 0 0 0 .864-.896c.213-.395.32-.864.32-1.408Zm11.202-.512c-.64 0-1.04-.4-1.04-1.12 0-.688.384-1.12 1.04-1.12.608 0 1.024.4 1.024 1.12 0 .704-.4 1.12-1.024 1.12Zm15.523-.816a2.598 2.598 0 0 1 1.568.976c.395.501.592 1.077.592 1.728 0 .939-.33 1.685-.992 2.24-.65.544-1.562.816-2.736.816h-5.232v-11.232h5.056c1.142 0 2.032.261 2.672.784.651.523.976 1.232.976 2.128 0 .661-.176 1.211-.528 1.648-.341.437-.8.741-1.376.912Zm-4.064-.928h1.792c.448 0 .79-.096 1.024-.288.246-.203.368-.496.368-.88s-.122-.677-.368-.88c-.234-.203-.576-.304-1.024-.304h-1.792v2.352Zm2.016 4.48c.459 0 .811-.101 1.056-.304.256-.213.384-.517.384-.912s-.133-.704-.4-.928c-.256-.224-.613-.336-1.072-.336h-1.984v2.48h2.016Zm9.859 2.336c-.874 0-1.664-.187-2.368-.56a4.175 4.175 0 0 1-1.648-1.6c-.394-.693-.592-1.504-.592-2.432 0-.917.203-1.723.608-2.416a4.113 4.113 0 0 1 1.664-1.616c.704-.373 1.494-.56 2.368-.56.875 0 1.664.187 2.368.56a4.107 4.107 0 0 1 1.664 1.616c.406.693.608 1.499.608 2.416 0 .917-.208 1.728-.624 2.432a4.11 4.11 0 0 1-1.68 1.6c-.704.373-1.493.56-2.368.56Zm0-2.368c.523 0 .966-.192 1.328-.576.374-.384.56-.933.56-1.648 0-.715-.181-1.264-.544-1.648a1.707 1.707 0 0 0-1.312-.576c-.533 0-.976.192-1.328.576-.352.373-.528.923-.528 1.648 0 .715.171 1.264.512 1.648.352.384.79.576 1.312.576Zm8.86-9.6V387h-2.736v-11.84h2.736Zm1.439 7.36c0-.917.17-1.723.512-2.416.352-.693.826-1.227 1.424-1.6a3.699 3.699 0 0 1 2-.56c.586 0 1.12.123 1.6.368.49.245.874.576 1.152.992v-4.144h2.736V387h-2.736v-1.28a2.772 2.772 0 0 1-1.104 1.024c-.47.256-1.019.384-1.648.384a3.699 3.699 0 0 1-2-.56c-.598-.384-1.072-.923-1.424-1.616-.342-.704-.512-1.515-.512-2.432Zm6.688.016c0-.683-.192-1.221-.576-1.616a1.82 1.82 0 0 0-1.376-.592 1.87 1.87 0 0 0-1.392.592c-.374.384-.56.917-.56 1.6s.186 1.227.56 1.632a1.87 1.87 0 0 0 1.392.592 1.82 1.82 0 0 0 1.376-.592c.384-.395.576-.933.576-1.616ZM48.456 449.32v-.996h2.256V457h-1.104v-7.68h-1.152Zm4 6.804a56.82 56.82 0 0 0 2.388-2.004 9.777 9.777 0 0 0 1.452-1.644c.4-.576.6-1.14.6-1.692 0-.52-.128-.928-.384-1.224-.248-.304-.652-.456-1.212-.456-.544 0-.968.172-1.272.516-.296.336-.456.788-.48 1.356h-1.056c.032-.896.304-1.588.816-2.076s1.172-.732 1.98-.732c.824 0 1.476.228 1.956.684.488.456.732 1.084.732 1.884 0 .664-.2 1.312-.6 1.944a8.564 8.564 0 0 1-1.344 1.656 35.235 35.235 0 0 1-1.932 1.656h4.128v.912h-5.772v-.78Zm13.244-6.276c.288-.501.714-.917 1.28-1.248.576-.341 1.242-.512 2-.512.778 0 1.482.187 2.112.56.64.373 1.141.901 1.504 1.584.362.672.544 1.456.544 2.352 0 .885-.182 1.675-.544 2.368a4.005 4.005 0 0 1-1.504 1.616 3.974 3.974 0 0 1-2.112.576c-.747 0-1.408-.165-1.984-.496-.566-.341-.998-.763-1.296-1.264v5.776h-1.456v-12.928H65.7v1.616Zm5.952 2.736c0-.661-.134-1.237-.4-1.728a2.751 2.751 0 0 0-1.088-1.12 2.946 2.946 0 0 0-1.488-.384c-.534 0-1.03.133-1.488.4-.448.256-.81.635-1.088 1.136-.267.491-.4 1.061-.4 1.712 0 .661.133 1.243.4 1.744.277.491.64.869 1.088 1.136.458.256.954.384 1.488.384.544 0 1.04-.128 1.488-.384a2.863 2.863 0 0 0 1.088-1.136c.266-.501.4-1.088.4-1.76Zm7.98 4.416-2.08-3.264-2 3.264h-1.52l2.832-4.352-2.832-4.416h1.648l2.08 3.248 1.984-3.248h1.52l-2.816 4.336L81.28 457h-1.648Zm9.586-4.944c-.64 0-1.04-.4-1.04-1.12 0-.688.384-1.12 1.04-1.12.608 0 1.024.4 1.024 1.12 0 .704-.4 1.12-1.024 1.12Zm12.605-5.296v-1.328h3.008V457h-1.472v-10.24h-1.536Zm5.077 7.986v-.966l4.914-6.804h1.526v6.664h1.4v1.106h-1.4V457h-1.26v-2.254h-5.18Zm5.236-6.44-3.766 5.334h3.766v-5.334Zm9.962 1.542c.288-.501.715-.917 1.28-1.248.576-.341 1.243-.512 2-.512.779 0 1.483.187 2.112.56.64.373 1.141.901 1.504 1.584.363.672.544 1.456.544 2.352 0 .885-.181 1.675-.544 2.368a4.008 4.008 0 0 1-1.504 1.616 3.973 3.973 0 0 1-2.112.576c-.747 0-1.408-.165-1.984-.496-.565-.341-.997-.763-1.296-1.264v5.776h-1.456v-12.928h1.456v1.616Zm5.952 2.736c0-.661-.133-1.237-.4-1.728a2.752 2.752 0 0 0-1.088-1.12 2.946 2.946 0 0 0-1.488-.384c-.533 0-1.029.133-1.488.4-.448.256-.811.635-1.088 1.136-.267.491-.4 1.061-.4 1.712 0 .661.133 1.243.4 1.744.277.491.64.869 1.088 1.136.459.256.955.384 1.488.384.544 0 1.04-.128 1.488-.384a2.864 2.864 0 0 0 1.088-1.136c.267-.501.4-1.088.4-1.76Zm7.981 4.416-2.08-3.264-2 3.264h-1.52l2.832-4.352-2.832-4.416h1.648l2.08 3.248 1.984-3.248h1.52l-2.816 4.336 2.832 4.432h-1.648Zm9.586-4.944c-.64 0-1.04-.4-1.04-1.12 0-.688.384-1.12 1.04-1.12.608 0 1.024.4 1.024 1.12 0 .704-.4 1.12-1.024 1.12Zm8.339-5.296v-1.328h3.008V457h-1.472v-10.24h-1.536Zm11.957 1.424c-.235-1.184-.966-1.776-2.192-1.776-.95 0-1.659.368-2.128 1.104-.47.725-.699 1.925-.688 3.6.245-.555.65-.987 1.216-1.296a3.886 3.886 0 0 1 1.92-.48c1.098 0 1.973.341 2.624 1.024.661.683.992 1.627.992 2.832 0 .725-.144 1.376-.432 1.952a3.183 3.183 0 0 1-1.28 1.376c-.566.341-1.254.512-2.064.512-1.099 0-1.958-.245-2.576-.736-.619-.491-1.051-1.168-1.296-2.032-.246-.864-.368-1.931-.368-3.2 0-3.915 1.365-5.872 4.096-5.872 1.045 0 1.866.283 2.464.848.597.565.949 1.28 1.056 2.144h-1.344Zm-2.176 2.384c-.459 0-.891.096-1.296.288a2.302 2.302 0 0 0-.992.848c-.246.373-.368.832-.368 1.376 0 .811.234 1.472.704 1.984.469.501 1.141.752 2.016.752.746 0 1.338-.229 1.776-.688.448-.469.672-1.099.672-1.888 0-.832-.214-1.483-.64-1.952-.427-.48-1.051-.72-1.872-.72Zm11.846-.72c.288-.501.714-.917 1.28-1.248.576-.341 1.242-.512 2-.512.778 0 1.482.187 2.112.56.64.373 1.141.901 1.504 1.584.362.672.544 1.456.544 2.352 0 .885-.182 1.675-.544 2.368a4.008 4.008 0 0 1-3.616 2.192c-.747 0-1.408-.165-1.984-.496-.566-.341-.998-.763-1.296-1.264v5.776h-1.456v-12.928h1.456v1.616Zm5.952 2.736c0-.661-.134-1.237-.4-1.728a2.758 2.758 0 0 0-1.088-1.12 2.946 2.946 0 0 0-1.488-.384c-.534 0-1.03.133-1.488.4-.448.256-.811.635-1.088 1.136-.267.491-.4 1.061-.4 1.712 0 .661.133 1.243.4 1.744.277.491.64.869 1.088 1.136a3 3 0 0 0 1.488.384c.544 0 1.04-.128 1.488-.384a2.87 2.87 0 0 0 1.088-1.136c.266-.501.4-1.088.4-1.76Zm7.98 4.416-2.08-3.264-2 3.264h-1.52l2.832-4.352-2.832-4.416h1.648l2.08 3.248 1.984-3.248h1.52l-2.816 4.336 2.832 4.432h-1.648Zm9.586-4.944c-.64 0-1.04-.4-1.04-1.12 0-.688.384-1.12 1.04-1.12.608 0 1.024.4 1.024 1.12 0 .704-.4 1.12-1.024 1.12Zm8.853 3.338c1.863-1.496 3.322-2.721 4.378-3.674 1.056-.968 1.943-1.973 2.662-3.014.733-1.056 1.1-2.09 1.1-3.102 0-.953-.235-1.701-.704-2.244-.455-.557-1.195-.836-2.222-.836-.997 0-1.775.315-2.332.946-.543.616-.836 1.445-.88 2.486h-1.936c.059-1.643.557-2.911 1.496-3.806s2.149-1.342 3.63-1.342c1.511 0 2.706.418 3.586 1.254.895.836 1.342 1.987 1.342 3.454 0 1.217-.367 2.405-1.1 3.564a15.712 15.712 0 0 1-2.464 3.036c-.924.865-2.105 1.877-3.542 3.036h7.568v1.672h-10.582v-1.43Zm12.654 0c1.863-1.496 3.322-2.721 4.378-3.674 1.056-.968 1.944-1.973 2.662-3.014.734-1.056 1.1-2.09 1.1-3.102 0-.953-.234-1.701-.704-2.244-.454-.557-1.195-.836-2.222-.836-.997 0-1.774.315-2.332.946-.542.616-.836 1.445-.88 2.486h-1.936c.059-1.643.558-2.911 1.496-3.806.939-.895 2.149-1.342 3.63-1.342 1.511 0 2.706.418 3.586 1.254.895.836 1.342 1.987 1.342 3.454 0 1.217-.366 2.405-1.1 3.564a15.675 15.675 0 0 1-2.464 3.036c-.924.865-2.104 1.877-3.542 3.036h7.568v1.672h-10.582v-1.43Zm18.486-5.546c.288-.501.715-.917 1.28-1.248.576-.341 1.243-.512 2-.512.779 0 1.483.187 2.112.56.64.373 1.142.901 1.504 1.584.363.672.544 1.456.544 2.352 0 .885-.181 1.675-.544 2.368a4 4 0 0 1-1.504 1.616 3.973 3.973 0 0 1-2.112.576c-.746 0-1.408-.165-1.984-.496-.565-.341-.997-.763-1.296-1.264v5.776h-1.456v-12.928h1.456v1.616Zm5.952 2.736c0-.661-.133-1.237-.4-1.728a2.745 2.745 0 0 0-1.088-1.12 2.946 2.946 0 0 0-1.488-.384c-.533 0-1.029.133-1.488.4-.448.256-.81.635-1.088 1.136-.266.491-.4 1.061-.4 1.712 0 .661.134 1.243.4 1.744.278.491.64.869 1.088 1.136.459.256.955.384 1.488.384.544 0 1.04-.128 1.488-.384a2.857 2.857 0 0 0 1.088-1.136c.267-.501.4-1.088.4-1.76Zm7.981 4.416-2.08-3.264-2 3.264h-1.52l2.832-4.352-2.832-4.416h1.648l2.08 3.248 1.984-3.248h1.52l-2.816 4.336 2.832 4.432h-1.648ZM48 40h741v1H48zM64.864 92.064c0 1.92-.63 3.467-1.888 4.64-1.259 1.173-3.147 1.76-5.664 1.76H52.8V108h-2.24V85.632h6.752c2.496 0 4.373.587 5.632 1.76 1.28 1.173 1.92 2.73 1.92 4.672Zm-7.552 4.48c3.499 0 5.248-1.493 5.248-4.48 0-1.493-.416-2.624-1.248-3.392-.832-.768-2.165-1.152-4-1.152H52.8v9.024h4.512Zm18.959 11.712c-1.643 0-3.126-.363-4.448-1.088-1.302-.747-2.336-1.792-3.104-3.136-.747-1.365-1.12-2.955-1.12-4.768 0-1.813.383-3.392 1.151-4.736.769-1.365 1.814-2.41 3.136-3.136 1.323-.747 2.806-1.12 4.449-1.12 1.642 0 3.125.373 4.448 1.12 1.343.725 2.389 1.77 3.135 3.136.768 1.344 1.152 2.923 1.152 4.736 0 1.792-.383 3.371-1.151 4.736a8.083 8.083 0 0 1-3.168 3.168c-1.345.725-2.838 1.088-4.48 1.088Zm0-1.952a6.814 6.814 0 0 0 3.2-.768c.98-.533 1.77-1.323 2.367-2.368.62-1.067.928-2.368.928-3.904s-.298-2.827-.895-3.872c-.598-1.067-1.387-1.856-2.368-2.368a6.595 6.595 0 0 0-3.2-.8 6.595 6.595 0 0 0-3.2.8c-.982.512-1.771 1.301-2.368 2.368-.576 1.045-.864 2.336-.864 3.872s.288 2.837.864 3.904c.597 1.045 1.376 1.835 2.335 2.368a6.814 6.814 0 0 0 3.2.768Zm15.09-11.936c.555-1.173 1.43-2.144 2.625-2.912 1.216-.79 2.656-1.184 4.32-1.184 1.578 0 2.997.373 4.256 1.12 1.28.725 2.272 1.77 2.976 3.136.725 1.344 1.088 2.912 1.088 4.704 0 1.792-.363 3.371-1.088 4.736-.704 1.365-1.696 2.421-2.976 3.168-1.259.747-2.678 1.12-4.256 1.12-1.643 0-3.072-.384-4.288-1.152-1.216-.789-2.102-1.771-2.656-2.944v12.096h-2.208V90.528h2.208v3.84Zm12.993 4.864c0-1.45-.288-2.699-.864-3.744-.555-1.067-1.323-1.877-2.304-2.432-.982-.555-2.09-.832-3.328-.832a6.5 6.5 0 0 0-3.296.864c-.982.576-1.76 1.397-2.336 2.464-.576 1.067-.864 2.304-.864 3.712 0 1.408.288 2.645.864 3.712.576 1.067 1.354 1.888 2.336 2.464a6.5 6.5 0 0 0 3.296.864c1.237 0 2.346-.277 3.328-.832.981-.576 1.749-1.397 2.304-2.464.576-1.088.864-2.347.864-3.776Zm8.602-4.864c.554-1.173 1.429-2.144 2.624-2.912 1.216-.79 2.656-1.184 4.32-1.184 1.578 0 2.997.373 4.256 1.12 1.28.725 2.272 1.77 2.976 3.136.725 1.344 1.088 2.912 1.088 4.704 0 1.792-.363 3.371-1.088 4.736-.704 1.365-1.696 2.421-2.976 3.168-1.259.747-2.678 1.12-4.256 1.12-1.643 0-3.072-.384-4.288-1.152-1.216-.789-2.102-1.771-2.656-2.944v12.096h-2.208V90.528h2.208v3.84Zm12.992 4.864c0-1.45-.288-2.699-.865-3.744-.554-1.067-1.322-1.877-2.303-2.432-.982-.555-2.091-.832-3.328-.832a6.498 6.498 0 0 0-3.296.864c-.982.576-1.76 1.397-2.336 2.464-.576 1.067-.864 2.304-.864 3.712 0 1.408.288 2.645.864 3.712.576 1.067 1.354 1.888 2.336 2.464a6.498 6.498 0 0 0 3.296.864c1.237 0 2.346-.277 3.328-.832.981-.576 1.749-1.397 2.303-2.464.577-1.088.865-2.347.865-3.776Zm7.513-12c-.448 0-.832-.16-1.152-.48-.32-.32-.48-.715-.48-1.184 0-.47.16-.853.48-1.152.32-.32.704-.48 1.152-.48.448 0 .832.16 1.152.48.32.299.48.683.48 1.152 0 .47-.16.864-.48 1.184-.32.32-.704.48-1.152.48Zm1.12 3.296V108h-2.24V90.528h2.24Zm13.265-.32c2.09 0 3.797.65 5.12 1.952 1.322 1.28 1.984 3.147 1.984 5.6V108h-2.208v-9.984c0-1.899-.48-3.35-1.44-4.352-.939-1.003-2.23-1.504-3.872-1.504-1.686 0-3.03.533-4.032 1.6-1.003 1.067-1.504 2.635-1.504 4.704V108h-2.24V90.528h2.24v2.976a5.615 5.615 0 0 1 2.4-2.432c1.045-.576 2.229-.864 3.552-.864Zm18.074 18.048c-2.006 0-3.648-.459-4.928-1.376-1.259-.939-1.963-2.208-2.112-3.808h2.304c.106.981.565 1.781 1.376 2.4.832.597 1.941.896 3.328.896 1.216 0 2.165-.288 2.848-.864.704-.576 1.056-1.291 1.056-2.144 0-.597-.192-1.088-.576-1.472-.384-.384-.875-.683-1.472-.896-.576-.235-1.366-.48-2.368-.736-1.302-.341-2.358-.683-3.168-1.024a5.606 5.606 0 0 1-2.08-1.504c-.555-.683-.832-1.59-.832-2.72 0-.853.256-1.643.768-2.368.512-.725 1.237-1.301 2.176-1.728.938-.427 2.005-.64 3.2-.64 1.877 0 3.392.48 4.544 1.44 1.152.939 1.77 2.24 1.856 3.904h-2.24c-.064-1.024-.47-1.845-1.216-2.464-.726-.64-1.728-.96-3.008-.96-1.131 0-2.048.267-2.752.8-.704.533-1.056 1.195-1.056 1.984 0 .683.202 1.248.608 1.696.426.427.949.768 1.568 1.024.618.235 1.45.501 2.496.8 1.258.341 2.261.672 3.008.992.746.32 1.386.789 1.92 1.408.533.619.81 1.44.832 2.464 0 .939-.256 1.781-.768 2.528-.512.725-1.227 1.301-2.144 1.728-.918.427-1.974.64-3.168.64ZM55.76 176.344h-5.088L49.696 179h-1.184l4.08-11.04h1.264L57.92 179h-1.184l-.976-2.656Zm-.336-.928-2.208-6.048-2.208 6.048h4.416Zm9.526-2.192c.629.117 1.162.437 1.6.96.437.523.656 1.131.656 1.824a2.83 2.83 0 0 1-.433 1.536c-.277.448-.688.805-1.231 1.072-.544.256-1.195.384-1.953.384h-3.871v-11.184h3.76c1.13 0 1.989.261 2.575.784.598.523.897 1.2.897 2.032 0 .693-.187 1.259-.56 1.696a2.965 2.965 0 0 1-1.44.896Zm-4.113-.464h2.608c.758 0 1.34-.176 1.744-.528.417-.363.625-.859.625-1.488 0-.619-.208-1.104-.624-1.456-.406-.352-1.003-.528-1.792-.528h-2.56v4Zm2.672 5.296c.811 0 1.44-.192 1.888-.576.46-.384.688-.912.688-1.584s-.24-1.205-.72-1.6c-.469-.405-1.103-.608-1.903-.608h-2.625v4.368h2.672Zm5.243-4.656c0-1.099.24-2.08.72-2.944a5.154 5.154 0 0 1 1.968-2.032c.832-.491 1.76-.736 2.784-.736 1.248 0 2.315.299 3.2.896.896.587 1.547 1.419 1.952 2.496h-1.312a3.835 3.835 0 0 0-1.472-1.776c-.65-.427-1.44-.64-2.368-.64-.821 0-1.562.192-2.224.576-.65.384-1.162.939-1.536 1.664-.373.715-.56 1.547-.56 2.496 0 .949.187 1.781.56 2.496.374.715.886 1.264 1.536 1.648.662.384 1.403.576 2.224.576.928 0 1.718-.208 2.368-.624a3.844 3.844 0 0 0 1.472-1.76h1.312c-.405 1.067-1.056 1.893-1.952 2.48-.896.587-1.962.88-3.2.88-1.024 0-1.952-.24-2.784-.72a5.302 5.302 0 0 1-1.968-2.032c-.48-.864-.72-1.845-.72-2.944Zm16.168-5.584c1.237 0 2.299.224 3.184.672a4.69 4.69 0 0 1 2.032 1.936c.47.843.704 1.845.704 3.008 0 1.152-.234 2.149-.704 2.992-.47.832-1.146 1.472-2.032 1.92-.885.437-1.947.656-3.184.656h-3.312v-11.184h3.312Zm0 10.256c1.558 0 2.742-.405 3.552-1.216.822-.821 1.232-1.963 1.232-3.424 0-1.472-.41-2.619-1.232-3.44-.81-.832-1.994-1.248-3.552-1.248h-2.192v9.328h2.192Zm9.105-9.344v4.176h4.24v.928h-4.24v4.24h4.72V179h-5.84v-11.2h5.84v.928h-4.72Zm12.975-.912v.928h-4.928v4.176h4.16v.928h-4.16V179h-1.12v-11.184H107Zm10.643 3.264a3.765 3.765 0 0 0-1.472-1.728c-.651-.427-1.419-.64-2.304-.64-.832 0-1.579.192-2.24.576-.662.384-1.184.933-1.568 1.648-.384.704-.576 1.525-.576 2.464 0 .939.192 1.765.576 2.48.384.715.906 1.264 1.568 1.648.661.384 1.408.576 2.24.576.778 0 1.477-.165 2.096-.496a3.903 3.903 0 0 0 1.504-1.44c.384-.629.602-1.36.656-2.192h-4.704v-.912h5.888v.816a5.722 5.722 0 0 1-.8 2.672 5.268 5.268 0 0 1-1.936 1.872c-.8.459-1.702.688-2.704.688-1.035 0-1.974-.24-2.816-.72a5.376 5.376 0 0 1-2-2.032c-.48-.875-.72-1.861-.72-2.96s.24-2.08.72-2.944a5.224 5.224 0 0 1 2-2.032c.842-.491 1.781-.736 2.816-.736 1.194 0 2.24.299 3.136.896.896.597 1.546 1.429 1.952 2.496h-1.312Zm12.019-3.264V179h-1.12v-5.232h-6.064V179h-1.12v-11.184h1.12v5.024h6.064v-5.024h1.12Zm3.676 0V179h-1.12v-11.184h1.12Zm7.704 0v8.464c0 .853-.262 1.541-.784 2.064-.523.512-1.222.768-2.096.768-.907 0-1.632-.272-2.176-.816-.534-.555-.8-1.301-.8-2.24h1.136c.01.608.16 1.104.448 1.488.298.384.762.576 1.392.576.597 0 1.04-.176 1.328-.528.288-.352.432-.789.432-1.312v-8.464h1.12ZM149.826 179l-4.848-5.168V179h-1.12v-11.184h1.12v5.232l4.848-5.232h1.424l-5.232 5.584 5.28 5.6h-1.472Zm4.246-.912h4.016V179h-5.136v-11.184h1.12v10.272Zm16.542-10.128V179h-1.12v-8.816L165.558 179h-.816l-3.936-8.784V179h-1.12v-11.04h1.184l4.272 9.568 4.272-9.568h1.2ZM181.587 179h-1.12l-6.192-9.408V179h-1.12v-11.184h1.12l6.192 9.392v-9.392h1.12V179Zm7.561.112c-1.035 0-1.974-.24-2.816-.72a5.376 5.376 0 0 1-2-2.032c-.48-.875-.72-1.861-.72-2.96s.24-2.08.72-2.944a5.224 5.224 0 0 1 2-2.032c.842-.491 1.781-.736 2.816-.736 1.045 0 1.989.245 2.832.736a5.125 5.125 0 0 1 1.984 2.032c.48.864.72 1.845.72 2.944s-.24 2.085-.72 2.96a5.271 5.271 0 0 1-1.984 2.032c-.843.48-1.787.72-2.832.72Zm0-.976c.832 0 1.578-.192 2.24-.576a4.102 4.102 0 0 0 1.568-1.648c.384-.725.576-1.563.576-2.512 0-.949-.192-1.781-.576-2.496a4.102 4.102 0 0 0-1.568-1.648c-.662-.384-1.408-.576-2.24-.576-.832 0-1.579.192-2.24.576-.662.384-1.184.933-1.568 1.648-.384.715-.576 1.547-.576 2.496 0 .949.192 1.787.576 2.512.384.715.906 1.264 1.568 1.648.661.384 1.408.576 2.24.576Zm14.737-7.104c0 .96-.315 1.733-.944 2.32-.629.587-1.573.88-2.832.88h-2.256V179h-1.12v-11.184h3.376c1.248 0 2.187.293 2.816.88.64.587.96 1.365.96 2.336Zm-3.776 2.24c1.749 0 2.624-.747 2.624-2.24 0-.747-.208-1.312-.624-1.696-.416-.384-1.083-.576-2-.576h-2.256v4.512h2.256Zm14.887 7.92-2.496-2.32c-.544.16-1.114.24-1.712.24-1.034 0-1.973-.24-2.816-.72a5.39 5.39 0 0 1-2-2.032c-.48-.875-.72-1.861-.72-2.96s.24-2.08.72-2.944a5.238 5.238 0 0 1 2-2.032c.843-.491 1.782-.736 2.816-.736 1.046 0 1.99.245 2.832.736a5.119 5.119 0 0 1 1.984 2.032c.48.864.72 1.845.72 2.944 0 1.131-.25 2.139-.752 3.024a5.132 5.132 0 0 1-2.064 2.016l2.992 2.752h-1.504Zm-8.592-7.792c0 .949.192 1.787.576 2.512a4.102 4.102 0 0 0 1.568 1.648c.662.384 1.408.576 2.24.576.832 0 1.579-.192 2.24-.576.662-.384 1.184-.933 1.568-1.648.384-.725.576-1.563.576-2.512 0-.949-.192-1.781-.576-2.496-.384-.715-.906-1.264-1.568-1.648-.661-.384-1.408-.576-2.24-.576-.832 0-1.578.192-2.24.576a4.102 4.102 0 0 0-1.568 1.648c-.384.715-.576 1.547-.576 2.496Zm17.937 5.6-2.768-4.672h-2.064V179h-1.12v-11.184h3.36c1.248 0 2.192.299 2.832.896.651.597.976 1.381.976 2.352 0 .811-.234 1.504-.704 2.08-.458.565-1.141.933-2.048 1.104l2.88 4.752h-1.344Zm-4.832-5.584h2.256c.875 0 1.531-.213 1.968-.64.448-.427.672-.997.672-1.712 0-.736-.213-1.301-.64-1.696-.426-.405-1.098-.608-2.016-.608h-2.24v4.656Zm11.663 5.696c-.736 0-1.387-.128-1.952-.384a3.184 3.184 0 0 1-1.312-1.072 2.814 2.814 0 0 1-.512-1.536h1.184c.053.544.293 1.024.72 1.44.427.405 1.051.608 1.872.608.757 0 1.355-.192 1.792-.576a1.9 1.9 0 0 0 .672-1.488c0-.48-.123-.864-.368-1.152a2.154 2.154 0 0 0-.912-.656 12.928 12.928 0 0 0-1.504-.48c-.747-.203-1.339-.4-1.776-.592a2.83 2.83 0 0 1-1.12-.896c-.309-.405-.464-.955-.464-1.648 0-.576.149-1.088.448-1.536.299-.459.72-.816 1.264-1.072.544-.256 1.168-.384 1.872-.384 1.035 0 1.867.256 2.496.768a2.817 2.817 0 0 1 1.104 1.952h-1.216c-.075-.459-.325-.864-.752-1.216-.427-.363-1.003-.544-1.728-.544-.672 0-1.232.181-1.68.544-.448.352-.672.837-.672 1.456 0 .469.123.848.368 1.136.245.288.549.507.912.656.373.149.875.309 1.504.48.725.203 1.312.405 1.76.608.448.192.827.491 1.136.896.309.405.464.949.464 1.632 0 .523-.139 1.019-.416 1.488-.277.469-.688.848-1.232 1.136-.544.288-1.195.432-1.952.432Zm12.308-11.296v.928h-3.104V179h-1.12v-10.256h-3.12v-.928h7.344Zm2.841 0v7.04c0 1.109.261 1.931.784 2.464.533.533 1.258.8 2.176.8.917 0 1.632-.261 2.144-.784.522-.533.784-1.36.784-2.48v-7.04h1.12v7.024c0 1.419-.379 2.485-1.136 3.2-.747.715-1.723 1.072-2.928 1.072-1.206 0-2.187-.357-2.944-1.072-.747-.715-1.12-1.781-1.12-3.2v-7.024h1.12Zm18.37 0L260.451 179h-1.28l-4.24-11.184h1.216l3.664 9.968 3.696-9.968h1.184Zm15.251 0L276.774 179h-1.248l-2.816-9.536-2.88 9.536-1.216.016-3.104-11.2h1.2l2.56 9.808 2.864-9.808h1.248l2.784 9.808 2.576-9.808h1.2Zm5.745 5.6 3.392 5.584h-1.248l-2.848-4.672-2.704 4.672h-1.248l3.376-5.632-3.376-5.552h1.248l2.832 4.656 2.736-4.656h1.248l-3.408 5.6Zm12.719-5.6-3.584 6.832V179h-1.12v-4.352l-3.616-6.832h1.264l2.912 5.808 2.896-5.808h1.248Zm2.36 10.192h5.712V179h-7.024v-.896l5.632-9.296h-5.536v-.992h6.848v.896l-5.632 9.296ZM48.768 222.616c0-.896.176-1.68.528-2.352a3.842 3.842 0 0 1 1.488-1.568c.64-.373 1.36-.56 2.16-.56.832 0 1.547.192 2.144.576.608.384 1.045.875 1.312 1.472v-1.92h1.12V227H56.4v-1.936c-.277.597-.72 1.093-1.328 1.488-.597.384-1.312.576-2.144.576a4.18 4.18 0 0 1-2.144-.56 3.948 3.948 0 0 1-1.488-1.584c-.352-.683-.528-1.472-.528-2.368Zm7.632.016c0-.704-.144-1.323-.432-1.856a3.068 3.068 0 0 0-1.184-1.232 3.165 3.165 0 0 0-1.632-.432c-.619 0-1.173.139-1.664.416-.49.277-.88.683-1.168 1.216-.277.523-.416 1.147-.416 1.872 0 .715.139 1.344.416 1.888.288.533.677.944 1.168 1.232.49.277 1.045.416 1.664.416.597 0 1.141-.144 1.632-.432a3.068 3.068 0 0 0 1.184-1.232c.288-.533.432-1.152.432-1.856Zm4.78-2.432a3.56 3.56 0 0 1 1.329-1.488c.608-.384 1.322-.576 2.144-.576.8 0 1.514.187 2.144.56.63.363 1.12.885 1.472 1.568.362.672.544 1.456.544 2.352 0 .896-.181 1.685-.544 2.368a3.808 3.808 0 0 1-1.488 1.584c-.63.373-1.339.56-2.128.56-.832 0-1.552-.187-2.16-.56a3.45 3.45 0 0 1-1.312-1.488V227h-1.104v-11.84h1.104v5.04Zm6.497 2.416c0-.725-.144-1.349-.432-1.872a2.888 2.888 0 0 0-1.152-1.216 3.326 3.326 0 0 0-1.664-.416 3.25 3.25 0 0 0-1.648.432c-.49.288-.88.699-1.168 1.232-.288.533-.432 1.152-.432 1.856 0 .704.144 1.323.432 1.856.288.533.677.944 1.168 1.232a3.25 3.25 0 0 0 1.648.432c.618 0 1.173-.139 1.664-.416.49-.288.874-.699 1.152-1.232.288-.544.432-1.173.432-1.888Zm2.685.016c0-.907.181-1.696.544-2.368a3.81 3.81 0 0 1 1.504-1.568c.64-.373 1.37-.56 2.192-.56 1.077 0 1.962.267 2.656.8.704.533 1.157 1.259 1.36 2.176h-1.2c-.15-.629-.475-1.12-.976-1.472-.49-.363-1.104-.544-1.84-.544-.587 0-1.115.133-1.584.4-.47.267-.843.667-1.12 1.2-.267.523-.4 1.168-.4 1.936s.133 1.419.4 1.952c.277.533.65.933 1.12 1.2.47.267.997.4 1.584.4.736 0 1.35-.176 1.84-.528.501-.363.826-.864.976-1.504h1.2c-.203.896-.656 1.616-1.36 2.16-.704.544-1.59.816-2.656.816-.822 0-1.552-.181-2.192-.544a3.94 3.94 0 0 1-1.504-1.568c-.363-.683-.544-1.477-.544-2.384Zm9.812-.016c0-.896.182-1.68.544-2.352a3.84 3.84 0 0 1 1.488-1.568c.64-.373 1.36-.56 2.16-.56a3.95 3.95 0 0 1 2.08.56c.619.373 1.072.859 1.36 1.456v-4.992h1.12V227h-1.12v-1.952c-.266.608-.704 1.109-1.312 1.504-.608.384-1.322.576-2.144.576-.8 0-1.52-.187-2.16-.56a3.947 3.947 0 0 1-1.488-1.584c-.352-.683-.528-1.472-.528-2.368Zm7.632.016c0-.704-.144-1.323-.432-1.856a3.068 3.068 0 0 0-1.184-1.232 3.165 3.165 0 0 0-1.632-.432c-.618 0-1.173.139-1.664.416-.49.277-.88.683-1.168 1.216-.277.523-.416 1.147-.416 1.872 0 .715.139 1.344.416 1.888.288.533.678.944 1.168 1.232.49.277 1.046.416 1.664.416.598 0 1.142-.144 1.632-.432a3.068 3.068 0 0 0 1.184-1.232c.288-.533.432-1.152.432-1.856Zm11.581-.448c0 .384-.01.677-.032.88h-7.248c.032.661.192 1.227.48 1.696.288.469.667.827 1.136 1.072.47.235.981.352 1.536.352.725 0 1.334-.176 1.824-.528.502-.352.832-.827.992-1.424h1.184a3.723 3.723 0 0 1-1.376 2.096c-.693.533-1.568.8-2.624.8-.821 0-1.557-.181-2.208-.544a4.02 4.02 0 0 1-1.536-1.568c-.362-.683-.544-1.477-.544-2.384 0-.907.181-1.701.544-2.384a3.782 3.782 0 0 1 1.52-1.568c.65-.363 1.392-.544 2.224-.544.832 0 1.558.181 2.176.544.63.363 1.11.853 1.44 1.472.341.608.512 1.285.512 2.032Zm-1.136-.032c.01-.651-.123-1.205-.4-1.664a2.595 2.595 0 0 0-1.104-1.04 3.382 3.382 0 0 0-1.536-.352c-.832 0-1.541.267-2.128.8-.587.533-.912 1.285-.976 2.256h6.144Zm6.625-2.944h-2.032V227h-1.12v-7.792h-1.216v-.944h1.216v-.608c0-.949.24-1.648.72-2.096.491-.448 1.28-.672 2.368-.672v.96c-.725 0-1.237.139-1.536.416-.288.277-.432.741-.432 1.392v.608h2.032v.944Zm5.427-1.072c.822 0 1.536.192 2.144.576.608.384 1.046.869 1.312 1.456v-1.904h1.12v8.96c0 .8-.176 1.509-.528 2.128a3.49 3.49 0 0 1-1.44 1.424c-.618.341-1.322.512-2.112.512-1.12 0-2.053-.267-2.8-.8-.736-.533-1.194-1.259-1.376-2.176h1.104a2.702 2.702 0 0 0 1.088 1.456c.544.363 1.206.544 1.984.544.566 0 1.072-.123 1.52-.368.448-.235.8-.587 1.056-1.056.256-.469.384-1.024.384-1.664v-2.16c-.277.597-.72 1.093-1.328 1.488-.597.384-1.306.576-2.128.576-.8 0-1.52-.187-2.16-.56a3.952 3.952 0 0 1-1.488-1.584c-.352-.683-.528-1.472-.528-2.368 0-.896.176-1.68.528-2.352a3.846 3.846 0 0 1 1.488-1.568c.64-.373 1.36-.56 2.16-.56Zm3.456 4.496c0-.704-.144-1.323-.432-1.856a3.064 3.064 0 0 0-1.184-1.232 3.161 3.161 0 0 0-1.632-.432c-.618 0-1.173.139-1.664.416-.49.277-.88.683-1.168 1.216-.277.523-.416 1.147-.416 1.872 0 .715.139 1.344.416 1.888.288.533.678.944 1.168 1.232a3.328 3.328 0 0 0 1.664.416c.598 0 1.142-.144 1.632-.432a3.064 3.064 0 0 0 1.184-1.232c.288-.533.432-1.152.432-1.856Zm7.837-4.528c.662 0 1.254.139 1.776.416.534.277.95.704 1.248 1.28.31.565.464 1.259.464 2.08V227h-1.104v-4.992c0-.949-.24-1.675-.72-2.176-.469-.501-1.114-.752-1.936-.752-.842 0-1.514.267-2.016.8-.501.533-.752 1.317-.752 2.352V227h-1.12v-11.84h1.12v4.592a2.91 2.91 0 0 1 1.216-1.216 3.837 3.837 0 0 1 1.824-.432Zm6.525-1.488a.786.786 0 0 1-.576-.24.804.804 0 0 1-.24-.592c0-.235.08-.427.24-.576.16-.16.352-.24.576-.24.224 0 .416.08.576.24.16.149.24.341.24.576 0 .235-.08.432-.24.592a.786.786 0 0 1-.576.24Zm.56 1.648V227h-1.12v-8.736h1.12Zm3.177-1.648a.786.786 0 0 1-.576-.24.804.804 0 0 1-.24-.592c0-.235.08-.427.24-.576.16-.16.352-.24.576-.24.224 0 .41.08.56.24.16.149.24.341.24.576 0 .235-.08.432-.24.592a.735.735 0 0 1-.56.24Zm.544 12.448c0 .704-.176 1.221-.528 1.552-.352.341-.88.512-1.584.512h-.785v-.96h.609c.416 0 .714-.091.896-.272.181-.171.272-.464.272-.88v-10.752h1.12v10.8Zm7.286-2.064-3.6-3.92V227h-1.12v-11.84h1.12v7.008l3.52-3.904h1.568l-4.144 4.352 4.176 4.384h-1.52Zm4.087-11.84V227h-1.12v-11.84h1.12Zm12.936 2.944c1.024 0 1.856.325 2.496.976.651.64.976 1.573.976 2.8V227h-1.104v-4.992c0-.949-.229-1.675-.688-2.176-.458-.501-1.082-.752-1.872-.752-.821 0-1.477.272-1.968.816-.49.544-.736 1.333-.736 2.368V227h-1.104v-4.992c0-.949-.229-1.675-.688-2.176-.458-.501-1.088-.752-1.888-.752-.821 0-1.477.272-1.968.816-.49.544-.736 1.333-.736 2.368V227h-1.12v-8.736h1.12v1.504a2.817 2.817 0 0 1 1.184-1.232 3.432 3.432 0 0 1 1.712-.432c.758 0 1.419.181 1.984.544.576.363.992.896 1.248 1.6.235-.693.635-1.221 1.2-1.584a3.514 3.514 0 0 1 1.952-.56Zm10.056 0c1.045 0 1.898.325 2.56.976.661.64.992 1.573.992 2.8V227h-1.104v-4.992c0-.949-.24-1.675-.72-2.176-.47-.501-1.115-.752-1.936-.752-.843 0-1.515.267-2.016.8-.502.533-.752 1.317-.752 2.352V227h-1.12v-8.736h1.12v1.488a2.808 2.808 0 0 1 1.2-1.216c.522-.288 1.114-.432 1.776-.432Zm9.853 9.024c-.822 0-1.563-.181-2.224-.544a4.13 4.13 0 0 1-1.552-1.568c-.374-.683-.56-1.477-.56-2.384 0-.907.192-1.696.576-2.368a3.955 3.955 0 0 1 1.568-1.568c.661-.373 1.402-.56 2.224-.56.821 0 1.562.187 2.224.56a3.833 3.833 0 0 1 1.568 1.568c.384.672.576 1.461.576 2.368 0 .896-.192 1.685-.576 2.368a4.035 4.035 0 0 1-1.584 1.584c-.672.363-1.419.544-2.24.544Zm0-.976c.576 0 1.109-.128 1.6-.384.49-.267.885-.661 1.184-1.184.309-.533.464-1.184.464-1.952s-.15-1.413-.448-1.936c-.299-.533-.694-.928-1.184-1.184a3.294 3.294 0 0 0-1.6-.4c-.576 0-1.11.133-1.6.4-.491.256-.886.651-1.184 1.184-.288.523-.432 1.168-.432 1.936s.144 1.419.432 1.952c.298.523.688.917 1.168 1.184.49.256 1.024.384 1.6.384Zm7.545-5.968c.278-.587.715-1.072 1.312-1.456.608-.395 1.328-.592 2.16-.592.79 0 1.499.187 2.128.56a3.71 3.71 0 0 1 1.488 1.568c.363.672.544 1.456.544 2.352 0 .896-.181 1.685-.544 2.368a3.808 3.808 0 0 1-1.488 1.584c-.629.373-1.338.56-2.128.56-.821 0-1.536-.192-2.144-.576-.608-.395-1.05-.885-1.328-1.472v6.048h-1.104v-12.864h1.104v1.92Zm6.496 2.432c0-.725-.144-1.349-.432-1.872a2.883 2.883 0 0 0-1.152-1.216 3.323 3.323 0 0 0-1.664-.416c-.597 0-1.146.144-1.648.432-.49.288-.88.699-1.168 1.232-.288.533-.432 1.152-.432 1.856 0 .704.144 1.323.432 1.856.288.533.678.944 1.168 1.232a3.253 3.253 0 0 0 1.648.432c.619 0 1.174-.139 1.664-.416a2.99 2.99 0 0 0 1.152-1.232c.288-.544.432-1.173.432-1.888Zm2.685 0c0-.896.181-1.68.544-2.352a3.846 3.846 0 0 1 1.488-1.568c.64-.373 1.36-.56 2.16-.56.821 0 1.536.197 2.144.592.608.384 1.04.869 1.296 1.456v-1.92h1.12v12.864h-1.12v-6.048c-.256.587-.693 1.077-1.312 1.472-.608.384-1.328.576-2.16.576a4.18 4.18 0 0 1-2.144-.56 3.952 3.952 0 0 1-1.488-1.584c-.352-.683-.528-1.472-.528-2.368Zm7.632.016c0-.704-.144-1.323-.432-1.856a3.07 3.07 0 0 0-1.184-1.232 3.166 3.166 0 0 0-1.632-.432c-.619 0-1.173.139-1.664.416-.491.277-.88.683-1.168 1.216-.277.523-.416 1.147-.416 1.872 0 .715.139 1.344.416 1.888a3.1 3.1 0 0 0 1.168 1.232 3.326 3.326 0 0 0 1.664.416c.597 0 1.141-.144 1.632-.432a3.07 3.07 0 0 0 1.184-1.232c.288-.533.432-1.152.432-1.856Zm4.797-2.816a2.751 2.751 0 0 1 1.12-1.264c.512-.299 1.136-.448 1.872-.448v1.168h-.304c-.811 0-1.461.219-1.952.656-.491.437-.736 1.168-.736 2.192V227h-1.12v-8.736h1.12v1.552Zm7.685 7.312c-1.003 0-1.824-.229-2.464-.688-.629-.469-.981-1.104-1.056-1.904h1.152c.053.491.283.891.688 1.2.416.299.971.448 1.664.448.608 0 1.083-.144 1.424-.432.352-.288.528-.645.528-1.072a.996.996 0 0 0-.288-.736 1.95 1.95 0 0 0-.736-.448 9.579 9.579 0 0 0-1.184-.368 12.088 12.088 0 0 1-1.584-.512 2.807 2.807 0 0 1-1.04-.752c-.277-.341-.416-.795-.416-1.36 0-.427.128-.821.384-1.184s.619-.651 1.088-.864c.469-.213 1.003-.32 1.6-.32.939 0 1.696.24 2.272.72.576.469.885 1.12.928 1.952h-1.12c-.032-.512-.235-.923-.608-1.232-.363-.32-.864-.48-1.504-.48-.565 0-1.024.133-1.376.4-.352.267-.528.597-.528.992 0 .341.101.624.304.848.213.213.475.384.784.512.309.117.725.251 1.248.4.629.171 1.131.336 1.504.496.373.16.693.395.96.704.267.309.405.72.416 1.232 0 .469-.128.891-.384 1.264-.256.363-.613.651-1.072.864-.459.213-.987.32-1.584.32Zm6.604-7.92v5.424c0 .533.101.901.304 1.104.203.203.56.304 1.072.304h1.024v.96h-1.2c-.789 0-1.376-.181-1.76-.544-.384-.373-.576-.981-.576-1.824v-5.424h-1.216v-.944h1.216v-2.192h1.136v2.192h2.4v.944h-2.4Zm11.815-.944V227h-1.12v-1.536c-.256.544-.65.96-1.184 1.248a3.707 3.707 0 0 1-1.792.432c-1.045 0-1.898-.32-2.56-.96-.661-.651-.992-1.589-.992-2.816v-5.104h1.104v4.976c0 .949.235 1.675.704 2.176.48.501 1.131.752 1.952.752.843 0 1.515-.267 2.016-.8.502-.533.752-1.317.752-2.352v-4.752h1.12Zm5.661 7.648 2.944-7.648h1.184L238.164 227H236.9l-3.504-8.736h1.2l2.944 7.648Zm17.166-7.648L251.97 227h-1.12l-2.416-7.328-2.416 7.328h-1.136l-2.736-8.736h1.136l2.176 7.6 2.448-7.6h1.12l2.416 7.616 2.16-7.616h1.104Zm6.103 8.736-2.256-3.52-2.176 3.52h-1.184l2.816-4.368-2.784-4.368h1.264l2.224 3.472 2.16-3.472h1.168l-2.784 4.32 2.816 4.416h-1.264Zm9.984-8.736-5.184 12.848h-1.168l1.696-4.16-3.584-8.688h1.232l2.976 7.456 2.88-7.456h1.152Zm2.11 7.808h4.576V227h-5.856v-.928l4.496-6.88h-4.416v-.928h5.696v.928l-4.496 6.88ZM49.04 269.16c0-1.835.283-3.259.848-4.272.565-1.013 1.579-1.52 3.04-1.52s2.475.507 3.04 1.52.848 2.437.848 4.272c0 1.867-.283 3.312-.848 4.336-.565 1.024-1.579 1.536-3.04 1.536-1.472 0-2.49-.512-3.056-1.536-.555-1.024-.832-2.469-.832-4.336Zm6.672 0c0-.992-.07-1.829-.208-2.512-.139-.683-.41-1.232-.816-1.648-.405-.416-.992-.624-1.76-.624s-1.355.208-1.76.624c-.405.416-.677.965-.816 1.648-.139.683-.208 1.52-.208 2.512 0 1.024.07 1.883.208 2.576.139.683.41 1.232.816 1.648.405.416.992.624 1.76.624s1.355-.208 1.76-.624c.405-.416.677-.965.816-1.648.139-.693.208-1.552.208-2.576Zm2.643-4.624v-1.008h2.72V275H59.94v-10.464h-1.584Zm4.992 9.584c1.963-1.472 3.478-2.789 4.544-3.952 1.078-1.173 1.616-2.32 1.616-3.44 0-.736-.186-1.323-.56-1.76-.362-.448-.96-.672-1.792-.672-.81 0-1.44.256-1.888.768-.437.501-.682 1.173-.736 2.016h-1.088c.064-1.184.427-2.101 1.088-2.752.672-.661 1.547-.992 2.624-.992 1.035 0 1.872.293 2.512.88.64.576.96 1.397.96 2.464 0 1.291-.538 2.544-1.616 3.76-1.066 1.205-2.384 2.384-3.952 3.536h5.92v.944h-7.632v-.8Zm9.333-7.664c.074-.971.447-1.733 1.12-2.288.682-.565 1.562-.848 2.64-.848.714 0 1.328.128 1.84.384.511.256.895.608 1.151 1.056.267.437.4.933.4 1.488 0 .672-.197 1.253-.591 1.744-.395.491-.955.795-1.68.912v.08c.757.149 1.36.48 1.808.992.448.501.672 1.163.672 1.984 0 .917-.31 1.669-.928 2.256-.608.576-1.494.864-2.656.864-1.11 0-2.022-.288-2.737-.864-.714-.587-1.125-1.413-1.231-2.48h1.088c.096.715.394 1.296.896 1.744.5.437 1.162.656 1.984.656.81 0 1.429-.213 1.855-.64.438-.427.656-.971.656-1.632 0-1.621-1.168-2.432-3.504-2.432h-.351v-.944h.368c2.175 0 3.263-.709 3.263-2.128 0-.619-.202-1.115-.608-1.488-.405-.384-.98-.576-1.728-.576-.725 0-1.328.192-1.807.576-.47.373-.747.901-.832 1.584H72.68Zm8.91 5.824v-.848l5.825-7.84h1.328v7.712h1.712v.976h-1.712V275h-1.104v-2.72H81.59Zm6.097-7.456-4.8 6.48h4.8v-6.48Zm11.444-.336h-5.856v4.096c.267-.373.656-.677 1.168-.912a3.805 3.805 0 0 1 1.664-.368c.875 0 1.59.181 2.144.544a3.03 3.03 0 0 1 1.2 1.392 4.53 4.53 0 0 1 .368 1.824c0 .747-.144 1.424-.432 2.032a3.213 3.213 0 0 1-1.296 1.424c-.576.352-1.296.528-2.16.528-1.098 0-1.989-.283-2.672-.848-.682-.576-1.098-1.349-1.248-2.32h1.104c.139.704.459 1.248.96 1.632.502.384 1.12.576 1.856.576.928 0 1.627-.272 2.096-.816.48-.555.72-1.285.72-2.192 0-.885-.24-1.573-.72-2.064-.48-.501-1.168-.752-2.064-.752-.618 0-1.162.144-1.632.432-.469.288-.816.677-1.04 1.168h-1.056v-6.352h6.896v.976Zm9.235 1.84c-.234-1.387-1.04-2.08-2.416-2.08-1.045 0-1.829.405-2.352 1.216-.522.811-.762 2.139-.72 3.984a2.73 2.73 0 0 1 1.216-1.504c.608-.373 1.302-.56 2.08-.56 1.12 0 2.006.347 2.656 1.04.662.683.992 1.627.992 2.832 0 .704-.138 1.344-.416 1.92a3.118 3.118 0 0 1-1.248 1.36c-.554.341-1.248.512-2.08.512-1.589 0-2.688-.507-3.296-1.52-.597-1.013-.896-2.448-.896-4.304 0-3.947 1.355-5.92 4.064-5.92 1.024 0 1.83.283 2.416.848.587.555.934 1.28 1.04 2.176h-1.04Zm-2.4 2.016c-.501 0-.976.101-1.424.304a2.656 2.656 0 0 0-1.104.928c-.277.405-.416.907-.416 1.504 0 .864.256 1.584.768 2.16.512.576 1.259.864 2.24.864.822 0 1.478-.251 1.968-.752.491-.501.736-1.184.736-2.048 0-.928-.24-1.653-.72-2.176-.48-.523-1.162-.784-2.048-.784Zm12.735-3.936L114.237 275h-1.136l4.512-10.496h-6.4v-.96h7.488v.864Zm3.891 4.64c-.661-.213-1.168-.549-1.52-1.008-.341-.459-.512-1.013-.512-1.664 0-.576.144-1.088.432-1.536.299-.459.731-.816 1.296-1.072.565-.267 1.243-.4 2.032-.4.789 0 1.467.133 2.032.4.565.256.992.613 1.28 1.072.299.448.448.96.448 1.536 0 .64-.176 1.195-.528 1.664-.341.469-.843.805-1.504 1.008.725.181 1.296.528 1.712 1.04.416.512.624 1.136.624 1.872 0 .683-.171 1.28-.512 1.792-.331.501-.805.891-1.424 1.168-.608.277-1.317.416-2.128.416-.811 0-1.525-.139-2.144-.416-.608-.277-1.083-.667-1.424-1.168-.331-.512-.496-1.109-.496-1.792 0-.736.208-1.36.624-1.872.416-.512.987-.859 1.712-1.04Zm4.4-2.544c0-.704-.24-1.248-.72-1.632-.48-.384-1.131-.576-1.952-.576s-1.472.192-1.952.576c-.48.373-.72.917-.72 1.632 0 .661.245 1.189.736 1.584s1.136.592 1.936.592 1.445-.197 1.936-.592c.491-.395.736-.923.736-1.584Zm-2.672 3.04c-.875 0-1.589.197-2.144.592-.555.395-.832.992-.832 1.792 0 .768.267 1.371.8 1.808.533.437 1.259.656 2.176.656.907 0 1.627-.219 2.16-.656.533-.448.8-1.051.8-1.808 0-.789-.277-1.381-.832-1.776-.544-.405-1.253-.608-2.128-.608Zm7.521 2.4c.117.693.384 1.227.8 1.6.416.373.986.56 1.712.56 1.002 0 1.744-.389 2.224-1.168.49-.789.714-2.091.672-3.904-.203.587-.592 1.051-1.168 1.392-.566.331-1.216.496-1.952.496-1.12 0-2.022-.336-2.705-1.008-.671-.672-1.007-1.605-1.007-2.8 0-.715.138-1.36.416-1.936a3.107 3.107 0 0 1 1.264-1.36c.565-.331 1.258-.496 2.08-.496 1.514 0 2.57.496 3.168 1.488.597.981.896 2.395.896 4.24 0 1.995-.299 3.493-.896 4.496-.587 1.003-1.6 1.504-3.04 1.504-1.056 0-1.878-.283-2.464-.848-.587-.576-.934-1.328-1.04-2.256h1.04Zm2.464-1.984c.501 0 .96-.101 1.376-.304a2.53 2.53 0 0 0 1.024-.928c.256-.405.384-.891.384-1.456 0-.875-.251-1.595-.752-2.16-.491-.565-1.2-.848-2.128-.848-.822 0-1.483.256-1.984.768-.491.512-.736 1.195-.736 2.048 0 .896.245 1.6.736 2.112.49.512 1.184.768 2.08.768ZM50.784 311.816l-.144 8.224h-.944l-.128-8.224h1.216Zm-.56 11.264a.804.804 0 0 1-.592-.24.834.834 0 0 1-.224-.592c0-.235.075-.427.224-.576.16-.16.357-.24.592-.24.224 0 .41.08.56.24.16.149.24.341.24.576 0 .235-.08.432-.24.592a.734.734 0 0 1-.56.24Zm11.286-10.256c1.151 0 2.165.224 3.04.672.874.448 1.546 1.077 2.016 1.888.469.8.703 1.723.703 2.768 0 .832-.133 1.627-.4 2.384-.266.757-.65 1.376-1.151 1.856a2.494 2.494 0 0 1-1.76.704c-.523 0-.923-.139-1.2-.416-.267-.288-.411-.677-.433-1.168-.33.491-.752.88-1.264 1.168a3.38 3.38 0 0 1-1.632.416c-.81 0-1.445-.245-1.904-.736-.447-.491-.672-1.157-.672-2a5 5 0 0 1 .496-2.208c.331-.693.79-1.248 1.377-1.664a3.373 3.373 0 0 1 2-.624c.533 0 .98.117 1.343.352.374.235.64.576.8 1.024l.209-1.184h.975l-.816 4.656a3.232 3.232 0 0 0-.047.528c0 .715.309 1.072.928 1.072.458 0 .853-.208 1.184-.624.34-.416.597-.939.767-1.568.182-.64.272-1.275.272-1.904 0-.939-.202-1.749-.607-2.432a3.858 3.858 0 0 0-1.712-1.584c-.747-.373-1.633-.56-2.657-.56-1.28 0-2.437.315-3.471.944a6.68 6.68 0 0 0-2.432 2.56c-.587 1.077-.88 2.267-.88 3.568-.011 1.451.426 2.576 1.312 3.376.885.811 2.096 1.216 3.632 1.216.97 0 1.85-.181 2.64-.544l.176.784c-.94.384-1.958.576-3.056.576-1.12 0-2.107-.219-2.96-.656a4.665 4.665 0 0 1-1.984-1.84c-.47-.8-.704-1.733-.704-2.8 0-1.483.336-2.832 1.008-4.048a7.57 7.57 0 0 1 2.816-2.896c1.205-.704 2.554-1.056 4.047-1.056Zm-1.76 9.392c.48 0 .922-.128 1.328-.384.405-.256.735-.613.991-1.072.267-.459.432-.981.496-1.568.022-.192.032-.331.032-.416 0-.597-.165-1.083-.495-1.456-.32-.384-.78-.576-1.377-.576-.565 0-1.06.165-1.488.496a3.276 3.276 0 0 0-.992 1.296 4.016 4.016 0 0 0-.351 1.664c0 .619.16 1.109.48 1.472.32.363.778.544 1.375.544Zm18.35-6.592-.623 2.96h2.288v.992h-2.496L76.533 323H75.46l.736-3.424h-3.552L71.909 323h-1.072l.736-3.424h-2.544v-.992h2.752l.624-2.96h-2.496v-.992h2.72l.736-3.472h1.072l-.736 3.472h3.552l.736-3.472h1.072l-.736 3.472h2.32v.992H78.1Zm-1.071 0h-3.552l-.624 2.96h3.552l.624-2.96Zm12.616 4.432c0 .501-.123.981-.368 1.44-.245.448-.613.821-1.104 1.12-.49.299-1.088.464-1.792.496v1.28h-.704v-1.296c-.95-.085-1.717-.395-2.304-.928a2.86 2.86 0 0 1-.944-2.016h1.2c.043.48.235.917.576 1.312.352.384.843.619 1.472.704v-4.432c-.715-.192-1.29-.384-1.728-.576a2.783 2.783 0 0 1-1.088-.88c-.299-.405-.448-.944-.448-1.616 0-.843.294-1.536.88-2.08.587-.555 1.381-.853 2.384-.896v-1.344h.704v1.36c.885.085 1.595.373 2.128.864a2.94 2.94 0 0 1 .944 1.84H88.27c-.064-.395-.261-.763-.592-1.104-.32-.341-.752-.555-1.296-.64v4.272c.694.181 1.259.373 1.696.576a2.69 2.69 0 0 1 1.12.896c.299.405.448.955.448 1.648Zm-6.096-5.44c0 .597.181 1.051.544 1.36.373.299.901.549 1.584.752v-4.112c-.64.032-1.157.219-1.552.56-.384.341-.576.821-.576 1.44Zm2.832 7.584c.683-.043 1.21-.256 1.584-.64.373-.395.56-.88.56-1.456 0-.608-.187-1.067-.56-1.376-.362-.309-.89-.571-1.584-.784v4.256Zm5.307-8.272c0-.683.208-1.232.624-1.648.427-.427.965-.64 1.616-.64.661 0 1.2.213 1.616.64.427.416.64.965.64 1.648 0 .693-.213 1.253-.64 1.68-.416.416-.955.624-1.616.624-.65 0-1.19-.208-1.616-.624-.416-.427-.624-.987-.624-1.68Zm8.96-2.128-6.56 11.2h-1.136l6.576-11.2h1.12Zm-6.72.56c-.405 0-.73.139-.976.416-.235.267-.352.651-.352 1.152 0 .501.117.891.352 1.168.245.277.57.416.976.416.405 0 .73-.139.976-.416.245-.277.368-.667.368-1.168 0-.491-.123-.875-.368-1.152-.245-.277-.57-.416-.976-.416Zm3.52 8.512c0-.693.208-1.248.624-1.664.427-.427.965-.64 1.616-.64.651 0 1.184.213 1.6.64.427.416.64.971.64 1.664s-.213 1.253-.64 1.68c-.416.416-.949.624-1.6.624-.65 0-1.19-.208-1.616-.624-.416-.427-.624-.987-.624-1.68Zm2.24-1.568c-.405 0-.73.139-.976.416-.245.277-.368.661-.368 1.152 0 .491.123.875.368 1.152.245.277.57.416.976.416.405 0 .725-.133.96-.4.245-.277.368-.667.368-1.168 0-.501-.123-.885-.368-1.152-.235-.277-.555-.416-.96-.416Zm4.681.96h-1.152l3.744-8.304h1.008l3.744 8.304h-1.168l-3.072-6.896-3.104 6.896ZM122.105 323l-1.52-1.552c-.544.597-1.126 1.04-1.744 1.328-.619.277-1.318.416-2.096.416-.747 0-1.408-.139-1.984-.416a3.268 3.268 0 0 1-1.344-1.2c-.32-.512-.48-1.104-.48-1.776 0-.789.224-1.477.672-2.064.448-.587 1.104-1.045 1.968-1.376-.374-.416-.646-.8-.816-1.152a2.705 2.705 0 0 1-.256-1.168c0-.715.256-1.291.768-1.728.512-.448 1.194-.672 2.048-.672.8 0 1.45.229 1.952.688.501.459.736 1.056.704 1.792h-1.12c.01-.48-.139-.859-.448-1.136-.299-.277-.678-.416-1.136-.416-.491 0-.891.139-1.2.416-.299.267-.448.613-.448 1.04 0 .341.09.672.272.992.192.32.49.699.896 1.136l3.68 3.728c.149-.203.352-.523.608-.96l1.024-1.712h1.2l-1.216 2.096a14.83 14.83 0 0 1-.864 1.344l2.336 2.352h-1.456Zm-5.36-.784c.629 0 1.189-.123 1.68-.368.501-.245.976-.629 1.424-1.152l-3.568-3.616c-1.483.544-2.224 1.44-2.224 2.688 0 .469.112.891.336 1.264.234.363.554.651.96.864.405.213.869.32 1.392.32Zm13.18-9.808.448.816-2.256 1.024 2.272 1.024-.464.832-2.064-1.376.192 2.512h-.928l.176-2.512-2.064 1.392-.48-.848 2.272-1.024-2.256-1.008.464-.832 2.08 1.392-.192-2.512h.944l-.208 2.512 2.064-1.392Zm6.124 13.568c-1.003-.992-1.792-2.261-2.368-3.808-.576-1.557-.864-3.248-.864-5.072 0-1.845.298-3.557.896-5.136.597-1.579 1.434-2.88 2.512-3.904h1.168v.112c-1.142 1.12-2.011 2.459-2.608 4.016a13.81 13.81 0 0 0-.88 4.912c0 1.696.282 3.301.848 4.816a11.234 11.234 0 0 0 2.48 3.952v.112h-1.184Zm2.782 0v-.112a11.234 11.234 0 0 0 2.48-3.952c.566-1.515.848-3.12.848-4.816 0-1.717-.298-3.355-.896-4.912-.586-1.557-1.45-2.896-2.592-4.016v-.112h1.168c1.078 1.024 1.915 2.325 2.512 3.904.598 1.579.896 3.291.896 5.136 0 1.824-.288 3.515-.864 5.072-.576 1.547-1.365 2.816-2.368 3.808h-1.184Z"/></svg>