<svg xmlns="http://www.w3.org/2000/svg" width="380" height="769" fill="none"><g filter="url(#a)"><rect width="334" height="723" x="23" y="19" fill="#fff" rx="24.208"/><rect width="332.5" height="721.5" x="23.75" y="19.75" stroke="#D3D3D3" stroke-opacity=".8" stroke-width="1.5" rx="23.458"/><path fill="#272727" d="M181.418 78.132V102h-5.814V87.686L170.266 102h-4.692l-5.372-14.348V102h-5.814V78.132h6.868l6.698 16.524 6.63-16.524h6.834Zm3.025 14.348c0-1.95.362-3.66 1.088-5.134.748-1.473 1.756-2.607 3.026-3.4 1.269-.793 2.686-1.19 4.25-1.19 1.337 0 2.504.272 3.502.816 1.02.544 1.802 1.258 2.346 2.142v-2.686h5.814V102h-5.814v-2.686c-.567.884-1.36 1.598-2.38 2.142-.998.544-2.165.816-3.502.816-1.542 0-2.947-.397-4.216-1.19-1.27-.816-2.278-1.96-3.026-3.434-.726-1.496-1.088-3.219-1.088-5.168Zm14.212.034c0-1.45-.408-2.595-1.224-3.434-.794-.839-1.768-1.258-2.924-1.258s-2.142.42-2.958 1.258c-.794.816-1.19 1.95-1.19 3.4s.396 2.607 1.19 3.468c.816.839 1.802 1.258 2.958 1.258 1.156 0 2.13-.42 2.924-1.258.816-.839 1.224-1.983 1.224-3.434Zm15.834-6.324c.68-1.043 1.53-1.859 2.55-2.448 1.02-.612 2.153-.918 3.4-.918v6.154h-1.598c-1.451 0-2.539.317-3.264.952-.725.612-1.088 1.7-1.088 3.264V102h-5.814V83.028h5.814v3.162Zm7.573 6.324c0-1.972.397-3.695 1.19-5.168.816-1.473 1.938-2.607 3.366-3.4 1.451-.793 3.105-1.19 4.964-1.19 2.38 0 4.363.623 5.95 1.87 1.609 1.247 2.663 3.003 3.162 5.27h-6.188c-.521-1.45-1.53-2.176-3.026-2.176-1.065 0-1.915.42-2.55 1.258-.635.816-.952 1.995-.952 3.536s.317 2.731.952 3.57c.635.816 1.485 1.224 2.55 1.224 1.496 0 2.505-.725 3.026-2.176h6.188c-.499 2.221-1.553 3.967-3.162 5.236-1.609 1.269-3.593 1.904-5.95 1.904-1.859 0-3.513-.397-4.964-1.19-1.428-.793-2.55-1.927-3.366-3.4-.793-1.473-1.19-3.196-1.19-5.168Zm30.378 9.758c-1.859 0-3.536-.397-5.032-1.19-1.474-.793-2.641-1.927-3.502-3.4-.839-1.473-1.258-3.196-1.258-5.168 0-1.95.43-3.66 1.292-5.134.861-1.496 2.04-2.64 3.536-3.434 1.496-.793 3.173-1.19 5.032-1.19 1.858 0 3.536.397 5.032 1.19 1.496.793 2.674 1.938 3.536 3.434.861 1.473 1.292 3.185 1.292 5.134 0 1.95-.442 3.672-1.326 5.168a8.75 8.75 0 0 1-3.57 3.4c-1.496.793-3.174 1.19-5.032 1.19Zm0-5.032c1.11 0 2.051-.408 2.822-1.224.793-.816 1.19-1.983 1.19-3.502 0-1.519-.386-2.686-1.156-3.502-.748-.816-1.678-1.224-2.788-1.224-1.134 0-2.074.408-2.822 1.224-.748.793-1.122 1.96-1.122 3.502 0 1.519.362 2.686 1.088 3.502.748.816 1.677 1.224 2.788 1.224Z"/><path fill="url(#b)" d="M116 76.782a5.097 5.097 0 0 1 5.097-5.096h22.086a5.097 5.097 0 0 1 5.097 5.096V98.87a5.097 5.097 0 0 1-5.097 5.097h-22.086A5.097 5.097 0 0 1 116 98.869V76.782Z"/><path fill="#fff" d="M141.442 79.303V96h-4.067V85.986L133.641 96h-3.283L126.6 85.963V96h-4.067V79.303h4.805l4.685 11.56 4.638-11.56h4.781Z"/><rect width="257.408" height="41.153" x="61.268" y="445" fill="#3059FF" rx="6"/><path fill="#fff" d="M166.74 461.562a1.553 1.553 0 0 0-.671-1.159c-.39-.276-.898-.414-1.523-.414-.439 0-.816.066-1.13.199-.315.132-.555.312-.722.539a1.314 1.314 0 0 0-.255.779c0 .242.054.452.164.63.114.178.267.33.461.455.193.121.407.223.642.307.234.083.471.153.71.21l1.091.273c.439.102.861.24 1.267.414.409.175.774.394 1.096.66.326.265.584.585.773.96.189.375.284.814.284 1.318 0 .682-.174 1.282-.523 1.801-.348.515-.852.919-1.511 1.21-.655.288-1.449.432-2.381.432-.905 0-1.691-.14-2.358-.42-.662-.281-1.181-.69-1.556-1.228-.372-.537-.572-1.193-.603-1.966h2.074c.031.406.156.743.375 1.012.22.269.506.47.858.602a3.39 3.39 0 0 0 1.193.199c.459 0 .86-.068 1.205-.205.348-.14.621-.333.818-.579.197-.25.297-.542.301-.875-.004-.303-.093-.553-.267-.75-.174-.201-.418-.368-.733-.5a7.061 7.061 0 0 0-1.091-.364l-1.324-.341c-.958-.246-1.715-.619-2.272-1.119-.553-.504-.83-1.172-.83-2.006 0-.685.186-1.286.557-1.801.375-.515.884-.915 1.528-1.199.644-.288 1.373-.431 2.188-.431.826 0 1.549.143 2.17.431.625.284 1.116.68 1.472 1.188.356.504.54 1.083.551 1.738h-2.028Zm3.976 8.438v-8.727h2.056V470h-2.056Zm1.034-9.966a1.2 1.2 0 0 1-.841-.324 1.043 1.043 0 0 1-.353-.79c0-.31.118-.573.353-.789.235-.22.515-.33.841-.33.329 0 .609.11.841.33.234.216.352.479.352.789 0 .307-.118.571-.352.79a1.19 1.19 0 0 1-.841.324Zm6.933 13.421c-.739 0-1.373-.101-1.904-.302-.53-.197-.956-.462-1.278-.795a2.752 2.752 0 0 1-.67-1.108l1.852-.449c.083.171.204.339.363.506.16.17.374.31.643.42.272.114.615.171 1.028.171.583 0 1.066-.142 1.449-.426.382-.281.574-.743.574-1.387v-1.653h-.103c-.106.212-.261.43-.466.653a2.37 2.37 0 0 1-.801.563c-.329.151-.744.227-1.244.227-.67 0-1.278-.157-1.824-.472-.542-.318-.973-.791-1.295-1.42-.318-.633-.478-1.424-.478-2.375 0-.958.16-1.767.478-2.426.322-.663.755-1.165 1.301-1.506a3.34 3.34 0 0 1 1.824-.517c.511 0 .932.087 1.261.261.333.171.599.377.796.62.196.238.346.464.448.676h.114v-1.443h2.028v8.869c0 .746-.178 1.364-.534 1.852-.356.489-.842.854-1.46 1.097-.617.242-1.318.364-2.102.364Zm.017-5.194c.435 0 .807-.106 1.114-.318.306-.212.539-.517.698-.915.159-.397.239-.875.239-1.431 0-.55-.08-1.031-.239-1.444-.155-.412-.386-.733-.693-.96-.303-.231-.676-.346-1.119-.346-.458 0-.841.119-1.148.358-.307.238-.538.566-.693.983a3.984 3.984 0 0 0-.233 1.409c0 .534.078 1.001.233 1.403.159.398.392.708.699.932.31.22.691.329 1.142.329Zm8.244-3.375V470h-2.057v-8.727h1.966v1.483h.103c.2-.489.52-.877.96-1.165.443-.288.99-.432 1.642-.432.602 0 1.127.129 1.574.386.45.258.799.631 1.045 1.12.25.488.373 1.081.369 1.778V470h-2.056v-5.239c0-.583-.152-1.039-.455-1.369-.299-.33-.714-.494-1.244-.494-.36 0-.68.079-.96.238a1.659 1.659 0 0 0-.654.676c-.155.296-.233.654-.233 1.074ZM198.606 470v-8.727h2.057V470h-2.057Zm1.034-9.966a1.2 1.2 0 0 1-.841-.324 1.042 1.042 0 0 1-.352-.79c0-.31.117-.573.352-.789.235-.22.515-.33.841-.33.33 0 .61.11.841.33.235.216.352.479.352.789 0 .307-.117.571-.352.79a1.186 1.186 0 0 1-.841.324Zm5.195 4.852V470h-2.057v-8.727h1.966v1.483h.102c.201-.489.521-.877.96-1.165.444-.288.991-.432 1.642-.432.603 0 1.127.129 1.574.386.451.258.8.631 1.046 1.12.25.488.373 1.081.369 1.778V470h-2.057v-5.239c0-.583-.151-1.039-.454-1.369-.3-.33-.714-.494-1.245-.494-.359 0-.68.079-.96.238a1.663 1.663 0 0 0-.653.676c-.156.296-.233.654-.233 1.074Z"/><path fill="#272727" d="M67.088 222.154c-1.07 0-2.039-.183-2.904-.55-.85-.367-1.525-.895-2.024-1.584-.499-.689-.755-1.503-.77-2.442h3.3c.044.631.264 1.129.66 1.496.41.367.968.55 1.672.55.719 0 1.283-.169 1.694-.506.41-.352.616-.807.616-1.364 0-.455-.14-.829-.418-1.122a2.8 2.8 0 0 0-1.056-.682c-.41-.176-.983-.367-1.716-.572-.997-.293-1.811-.579-2.442-.858a4.522 4.522 0 0 1-1.606-1.298c-.44-.587-.66-1.364-.66-2.332 0-.909.227-1.701.682-2.376.455-.675 1.093-1.188 1.914-1.54.821-.367 1.76-.55 2.816-.55 1.584 0 2.867.389 3.85 1.166.997.763 1.547 1.833 1.65 3.212h-3.388a1.714 1.714 0 0 0-.682-1.298c-.41-.352-.96-.528-1.65-.528-.601 0-1.085.154-1.452.462-.352.308-.528.755-.528 1.342 0 .411.132.755.396 1.034.279.264.616.484 1.012.66.41.161.983.352 1.716.572.997.293 1.811.587 2.442.88a4.38 4.38 0 0 1 1.628 1.32c.455.587.682 1.357.682 2.31 0 .821-.213 1.584-.638 2.288-.425.704-1.049 1.269-1.87 1.694-.821.411-1.797.616-2.926.616Zm9.666-13.794c-.542 0-.997-.169-1.364-.506a1.765 1.765 0 0 1-.528-1.298c0-.513.176-.939.528-1.276.367-.352.822-.528 1.364-.528.543 0 .99.176 1.342.528.367.337.55.763.55 1.276s-.183.946-.55 1.298c-.352.337-.799.506-1.342.506Zm1.518 1.452V222h-3.08v-12.188h3.08Zm7.817-.198c.91 0 1.709.183 2.398.55.69.352 1.232.814 1.628 1.386v-1.738h3.102v12.276c0 1.129-.227 2.134-.682 3.014-.454.895-1.136 1.599-2.046 2.112-.909.528-2.009.792-3.3.792-1.73 0-3.153-.403-4.268-1.21-1.1-.807-1.723-1.907-1.87-3.3h3.058c.162.557.506.997 1.034 1.32.543.337 1.196.506 1.958.506.895 0 1.621-.271 2.178-.814.558-.528.836-1.335.836-2.42v-1.892c-.396.572-.946 1.049-1.65 1.43-.689.381-1.481.572-2.376.572a5.235 5.235 0 0 1-2.816-.792c-.85-.528-1.525-1.269-2.024-2.222-.484-.968-.726-2.075-.726-3.322 0-1.232.242-2.325.726-3.278.499-.953 1.166-1.687 2.002-2.2.851-.513 1.797-.77 2.838-.77Zm4.026 6.292c0-.748-.146-1.386-.44-1.914a3.011 3.011 0 0 0-1.188-1.232 3.118 3.118 0 0 0-1.606-.44c-.572 0-1.1.139-1.584.418-.484.279-.88.689-1.188 1.232-.293.528-.44 1.159-.44 1.892 0 .733.147 1.379.44 1.936.308.543.704.961 1.188 1.254.499.293 1.027.44 1.584.44.572 0 1.108-.139 1.606-.418a3.2 3.2 0 0 0 1.188-1.232c.294-.543.44-1.188.44-1.936Zm12.865-6.27c1.452 0 2.625.462 3.52 1.386.894.909 1.342 2.185 1.342 3.828V222h-3.08v-6.732c0-.968-.242-1.709-.726-2.222-.484-.528-1.144-.792-1.98-.792-.851 0-1.526.264-2.024.792-.484.513-.727 1.254-.727 2.222V222h-3.08v-12.188h3.08v1.518c.411-.528.932-.939 1.563-1.232a4.837 4.837 0 0 1 2.112-.462Zm24.539.176V222h-3.102v-1.54a4.144 4.144 0 0 1-1.562 1.254c-.631.293-1.32.44-2.068.44-.954 0-1.797-.198-2.53-.594-.734-.411-1.313-1.005-1.738-1.782-.411-.792-.616-1.731-.616-2.816v-7.15h3.08v6.71c0 .968.242 1.716.726 2.244.484.513 1.144.77 1.98.77.85 0 1.518-.257 2.002-.77.484-.528.726-1.276.726-2.244v-6.71h3.102Zm6.119 1.76c.396-.557.938-1.019 1.628-1.386.704-.381 1.503-.572 2.398-.572 1.041 0 1.98.257 2.816.77.85.513 1.518 1.247 2.002 2.2.498.939.748 2.031.748 3.278 0 1.247-.25 2.354-.748 3.322-.484.953-1.152 1.694-2.002 2.222-.836.528-1.775.792-2.816.792-.895 0-1.687-.183-2.376-.55a5.108 5.108 0 0 1-1.65-1.386v7.546h-3.08v-17.996h3.08v1.76Zm6.446 4.29c0-.733-.154-1.364-.462-1.892a3.018 3.018 0 0 0-1.188-1.232 3.116 3.116 0 0 0-1.584-.418c-.558 0-1.086.147-1.584.44-.484.279-.88.689-1.188 1.232-.294.543-.44 1.181-.44 1.914 0 .733.146 1.371.44 1.914.308.543.704.961 1.188 1.254a3.191 3.191 0 0 0 1.584.418c.572 0 1.1-.147 1.584-.44a3.167 3.167 0 0 0 1.188-1.254c.308-.543.462-1.188.462-1.936Z"/><path fill="#515151" d="M63.688 255.479v3.728h4.064v1.2h-4.064v3.84h4.544v1.2h-6v-11.168h6v1.2h-4.544Zm17.291 1.04c.683 0 1.29.144 1.824.432.534.278.955.699 1.264 1.264.31.566.464 1.254.464 2.064v5.168h-1.44v-4.96c0-.874-.218-1.541-.656-2-.427-.469-1.008-.704-1.744-.704-.757 0-1.36.246-1.808.736-.448.48-.672 1.179-.672 2.096v4.832h-1.44v-4.96c0-.874-.219-1.541-.656-2-.426-.469-1.008-.704-1.744-.704-.757 0-1.36.246-1.808.736-.448.48-.672 1.179-.672 2.096v4.832h-1.456v-8.768h1.456v1.264a2.9 2.9 0 0 1 1.152-1.056 3.567 3.567 0 0 1 1.616-.368c.736 0 1.387.166 1.952.496.566.331.987.816 1.264 1.456a2.882 2.882 0 0 1 1.216-1.44 3.585 3.585 0 0 1 1.888-.512Zm5.397 4.512c0-.896.18-1.68.543-2.352a3.96 3.96 0 0 1 1.489-1.584 4.15 4.15 0 0 1 2.127-.56c.769 0 1.435.166 2 .496.566.331.987.747 1.264 1.248v-1.6h1.472v8.768H93.8v-1.632c-.288.512-.72.939-1.296 1.28-.565.331-1.226.496-1.984.496a3.974 3.974 0 0 1-2.112-.576 4.036 4.036 0 0 1-1.487-1.616c-.363-.693-.544-1.482-.544-2.368Zm7.423.016c0-.661-.133-1.237-.4-1.728a2.758 2.758 0 0 0-1.088-1.12 2.86 2.86 0 0 0-1.488-.4c-.543 0-1.04.128-1.487.384a2.79 2.79 0 0 0-1.073 1.12c-.266.491-.4 1.067-.4 1.728 0 .672.134 1.259.4 1.76.267.491.624.87 1.072 1.136.449.256.945.384 1.489.384.544 0 1.04-.128 1.487-.384a2.857 2.857 0 0 0 1.088-1.136c.267-.501.4-1.082.4-1.744Zm4.685-5.792a.958.958 0 0 1-.704-.288.957.957 0 0 1-.288-.704c0-.277.096-.512.288-.704a.958.958 0 0 1 .704-.288c.267 0 .49.096.672.288a.958.958 0 0 1 .288.704.957.957 0 0 1-.288.704.887.887 0 0 1-.672.288Zm.704 1.424v8.768h-1.456v-8.768h1.456Zm3.938-3.072v11.84h-1.456v-11.84h1.456ZM127.01 554.024v1.232h-6.384v-1.232h6.384Zm12.054 6.592c-1.035 0-1.979-.24-2.832-.72a5.466 5.466 0 0 1-2.032-2.032c-.491-.875-.736-1.856-.736-2.944 0-1.088.245-2.064.736-2.928a5.31 5.31 0 0 1 2.032-2.032c.853-.491 1.797-.736 2.832-.736 1.045 0 1.995.245 2.848.736a5.235 5.235 0 0 1 2.016 2.016c.491.864.736 1.845.736 2.944s-.245 2.08-.736 2.944a5.353 5.353 0 0 1-2.016 2.032c-.853.48-1.803.72-2.848.72Zm0-1.264c.779 0 1.477-.181 2.096-.544a3.764 3.764 0 0 0 1.472-1.552c.363-.672.544-1.451.544-2.336 0-.896-.181-1.675-.544-2.336a3.792 3.792 0 0 0-1.456-1.552c-.619-.363-1.323-.544-2.112-.544-.789 0-1.493.181-2.112.544a3.902 3.902 0 0 0-1.472 1.552c-.352.661-.528 1.44-.528 2.336 0 .885.176 1.664.528 2.336a3.902 3.902 0 0 0 1.472 1.552c.629.363 1.333.544 2.112.544Zm8.978-6.192a2.81 2.81 0 0 1 1.088-1.168c.48-.277 1.061-.416 1.744-.416v1.504h-.384c-1.632 0-2.448.885-2.448 2.656v4.768h-1.456v-8.768h1.456v1.424Zm11.882 7.488c-.672 0-1.274-.112-1.808-.336-.533-.235-.954-.555-1.264-.96a2.598 2.598 0 0 1-.512-1.424h1.504c.043.437.246.795.608 1.072.374.277.859.416 1.456.416.555 0 .992-.123 1.312-.368.32-.245.48-.555.48-.928a.897.897 0 0 0-.512-.848c-.341-.192-.869-.379-1.584-.56a13.074 13.074 0 0 1-1.6-.512 3.044 3.044 0 0 1-1.056-.784c-.288-.352-.432-.811-.432-1.376 0-.448.134-.859.4-1.232.267-.373.646-.667 1.136-.88.491-.224 1.051-.336 1.68-.336.971 0 1.755.245 2.352.736.598.491.918 1.163.96 2.016h-1.456c-.032-.459-.218-.827-.56-1.104-.33-.277-.778-.416-1.344-.416-.522 0-.938.112-1.248.336-.309.224-.464.517-.464.88 0 .288.091.528.272.72.192.181.427.331.704.448.288.107.683.229 1.184.368.63.171 1.142.341 1.536.512.395.16.731.405 1.008.736.288.331.438.763.448 1.296 0 .48-.133.912-.4 1.296-.266.384-.645.688-1.136.912-.48.213-1.034.32-1.664.32Zm6.008-10.336a.957.957 0 0 1-.704-.288.958.958 0 0 1-.288-.704c0-.277.096-.512.288-.704a.957.957 0 0 1 .704-.288.89.89 0 0 1 .672.288.958.958 0 0 1 .288.704.958.958 0 0 1-.288.704.89.89 0 0 1-.672.288Zm.704 1.424v8.768h-1.456v-8.768h1.456Zm6.097-.144c.758 0 1.419.165 1.984.496.576.331 1.003.747 1.28 1.248v-1.6h1.472v8.96c0 .8-.17 1.509-.512 2.128a3.623 3.623 0 0 1-1.472 1.472c-.629.352-1.365.528-2.208.528-1.152 0-2.112-.272-2.88-.816-.768-.544-1.221-1.285-1.36-2.224h1.44c.16.533.491.96.992 1.28.502.331 1.104.496 1.808.496.8 0 1.451-.251 1.952-.752.512-.501.768-1.205.768-2.112v-1.84c-.288.512-.714.939-1.28 1.28-.565.341-1.226.512-1.984.512a4.059 4.059 0 0 1-2.128-.576 4.047 4.047 0 0 1-1.488-1.616c-.362-.693-.544-1.483-.544-2.368 0-.896.182-1.68.544-2.352a3.952 3.952 0 0 1 1.488-1.584 4.15 4.15 0 0 1 2.128-.56Zm3.264 4.512c0-.661-.133-1.237-.4-1.728a2.745 2.745 0 0 0-1.088-1.12 2.851 2.851 0 0 0-1.488-.4c-.544 0-1.04.128-1.488.384a2.786 2.786 0 0 0-1.072 1.12c-.266.491-.4 1.067-.4 1.728 0 .672.134 1.259.4 1.76.267.491.624.869 1.072 1.136.448.256.944.384 1.488.384s1.04-.128 1.488-.384a2.857 2.857 0 0 0 1.088-1.136c.267-.501.4-1.083.4-1.744Zm8.205-4.528c1.066 0 1.93.325 2.592.976.661.64.992 1.568.992 2.784v5.168h-1.44v-4.96c0-.875-.219-1.541-.656-2-.438-.469-1.035-.704-1.792-.704-.768 0-1.382.24-1.84.72-.448.48-.672 1.179-.672 2.096v4.848h-1.456v-8.768h1.456v1.248a2.898 2.898 0 0 1 1.168-1.04 3.7 3.7 0 0 1 1.648-.368Zm10.98-1.264a.957.957 0 0 1-.704-.288.958.958 0 0 1-.288-.704c0-.277.096-.512.288-.704a.957.957 0 0 1 .704-.288.89.89 0 0 1 .672.288.958.958 0 0 1 .288.704.958.958 0 0 1-.288.704.89.89 0 0 1-.672.288Zm.704 1.424v8.768h-1.456v-8.768h1.456Zm6.753-.16c1.067 0 1.931.325 2.592.976.662.64.992 1.568.992 2.784v5.168h-1.44v-4.96c0-.875-.218-1.541-.656-2-.437-.469-1.034-.704-1.792-.704-.768 0-1.381.24-1.84.72-.448.48-.672 1.179-.672 2.096v4.848h-1.456v-8.768h1.456v1.248a2.905 2.905 0 0 1 1.168-1.04 3.706 3.706 0 0 1 1.648-.368Zm21.908.16-2.736 8.768h-1.504l-2.112-6.96-2.112 6.96h-1.504l-2.752-8.768h1.488l2.016 7.36 2.176-7.36h1.488l2.128 7.376 1.984-7.376h1.44Zm2.197-1.424a.958.958 0 0 1-.704-.288.958.958 0 0 1-.288-.704c0-.277.096-.512.288-.704a.958.958 0 0 1 .704-.288c.267 0 .491.096.672.288a.958.958 0 0 1 .288.704.958.958 0 0 1-.288.704.886.886 0 0 1-.672.288Zm.704 1.424v8.768h-1.456v-8.768h1.456Zm4.258 1.2v5.168c0 .427.09.731.272.912.181.171.496.256.944.256h1.072v1.232h-1.312c-.811 0-1.419-.187-1.824-.56-.406-.373-.608-.987-.608-1.84v-5.168h-1.136v-1.2h1.136v-2.208h1.456v2.208h2.288v1.2h-2.288Zm8.404-1.36a3.71 3.71 0 0 1 1.792.432 2.92 2.92 0 0 1 1.248 1.264c.309.565.464 1.253.464 2.064v5.168h-1.44v-4.96c0-.875-.219-1.541-.656-2-.437-.469-1.035-.704-1.792-.704-.768 0-1.381.24-1.84.72-.448.48-.672 1.179-.672 2.096v4.848h-1.456v-11.84h1.456v4.32a2.879 2.879 0 0 1 1.184-1.04 3.917 3.917 0 0 1 1.712-.368Zm16.228 2.448v1.232h-6.384v-1.232h6.384ZM68.688 351.217c0 .928-.32 1.702-.96 2.32-.63.608-1.595.912-2.896.912h-2.144v4.656h-1.456v-11.152h3.6c1.259 0 2.213.304 2.864.912.661.608.992 1.392.992 2.352Zm-3.856 2.032c.81 0 1.408-.176 1.792-.528.384-.352.576-.853.576-1.504 0-1.376-.79-2.064-2.368-2.064h-2.144v4.096h2.144Zm5.122 1.44c0-.896.181-1.68.544-2.352a3.96 3.96 0 0 1 1.488-1.584 4.15 4.15 0 0 1 2.128-.56c.768 0 1.434.166 2 .496.565.331.986.747 1.264 1.248v-1.6h1.472v8.768h-1.472v-1.632c-.288.512-.72.939-1.296 1.28-.566.331-1.227.496-1.984.496a3.975 3.975 0 0 1-2.112-.576 4.036 4.036 0 0 1-1.488-1.616c-.363-.693-.544-1.482-.544-2.368Zm7.424.016c0-.661-.134-1.237-.4-1.728a2.757 2.757 0 0 0-1.088-1.12 2.86 2.86 0 0 0-1.488-.4c-.544 0-1.04.128-1.488.384a2.79 2.79 0 0 0-1.072 1.12c-.267.491-.4 1.067-.4 1.728 0 .672.133 1.259.4 1.76.266.491.624.87 1.072 1.136.448.256.944.384 1.488.384s1.04-.128 1.488-.384a2.856 2.856 0 0 0 1.088-1.136c.266-.501.4-1.082.4-1.744Zm7.036 4.544c-.672 0-1.275-.112-1.808-.336-.533-.234-.954-.554-1.264-.96-.31-.416-.48-.89-.512-1.424h1.504c.043.438.245.795.608 1.072.374.278.859.416 1.456.416.555 0 .992-.122 1.312-.368.32-.245.48-.554.48-.928 0-.384-.17-.666-.512-.848-.341-.192-.87-.378-1.584-.56-.65-.17-1.184-.341-1.6-.512a3.027 3.027 0 0 1-1.056-.784c-.288-.352-.432-.81-.432-1.376 0-.448.133-.858.4-1.232.267-.373.645-.666 1.136-.88.49-.224 1.05-.336 1.68-.336.97 0 1.755.246 2.352.736.597.491.918 1.163.96 2.016h-1.456a1.496 1.496 0 0 0-.56-1.104c-.33-.277-.778-.416-1.344-.416-.523 0-.939.112-1.248.336-.31.224-.464.518-.464.88 0 .288.09.528.272.72.192.182.427.331.704.448.288.107.683.23 1.184.368.63.171 1.141.342 1.536.512.395.16.73.406 1.008.736.288.331.438.763.448 1.296 0 .48-.133.912-.4 1.296-.266.384-.645.688-1.136.912-.48.214-1.035.32-1.664.32Zm8.36 0c-.672 0-1.275-.112-1.808-.336-.534-.234-.955-.554-1.264-.96-.31-.416-.48-.89-.513-1.424h1.505c.042.438.245.795.608 1.072.373.278.858.416 1.455.416.555 0 .992-.122 1.313-.368.32-.245.48-.554.48-.928 0-.384-.171-.666-.513-.848-.34-.192-.869-.378-1.584-.56-.65-.17-1.184-.341-1.6-.512a3.027 3.027 0 0 1-1.055-.784c-.288-.352-.433-.81-.433-1.376 0-.448.134-.858.4-1.232.267-.373.646-.666 1.136-.88.491-.224 1.051-.336 1.68-.336.971 0 1.755.246 2.352.736.598.491.918 1.163.96 2.016h-1.456a1.497 1.497 0 0 0-.56-1.104c-.33-.277-.778-.416-1.343-.416-.523 0-.94.112-1.249.336-.309.224-.463.518-.463.88 0 .288.09.528.272.72.192.182.426.331.704.448.287.107.682.23 1.183.368.63.171 1.142.342 1.537.512.394.16.73.406 1.007.736.288.331.438.763.448 1.296 0 .48-.133.912-.4 1.296-.266.384-.645.688-1.135.912-.48.214-1.035.32-1.665.32Zm16.935-8.912-2.736 8.768h-1.504l-2.112-6.96-2.112 6.96h-1.504l-2.752-8.768h1.488l2.016 7.36 2.176-7.36h1.488l2.128 7.376 1.984-7.376h1.44Zm5.269 8.912c-.821 0-1.568-.186-2.24-.56a4.068 4.068 0 0 1-1.568-1.584c-.373-.693-.56-1.493-.56-2.4 0-.896.192-1.685.576-2.368a4.015 4.015 0 0 1 1.6-1.584c.672-.373 1.424-.56 2.256-.56.832 0 1.584.187 2.256.56.672.363 1.2.886 1.584 1.568.395.683.592 1.478.592 2.384 0 .907-.203 1.707-.608 2.4a4.114 4.114 0 0 1-1.616 1.584 4.65 4.65 0 0 1-2.272.56Zm0-1.28c.523 0 1.013-.122 1.472-.368a2.74 2.74 0 0 0 1.104-1.104c.288-.49.432-1.088.432-1.792s-.139-1.301-.416-1.792c-.277-.49-.64-.853-1.088-1.088a2.986 2.986 0 0 0-1.456-.368c-.533 0-1.024.123-1.472.368-.437.235-.789.598-1.056 1.088-.267.491-.4 1.088-.4 1.792 0 .715.128 1.318.384 1.808.267.491.619.859 1.056 1.104.437.235.917.352 1.44.352Zm7.866-6.208c.256-.501.619-.89 1.088-1.168.48-.277 1.062-.416 1.744-.416v1.504h-.384c-1.632 0-2.448.886-2.448 2.656v4.768h-1.456v-8.768h1.456v1.424Zm3.969 2.928c0-.896.181-1.68.544-2.352a3.965 3.965 0 0 1 1.488-1.584 4.18 4.18 0 0 1 2.144-.56c.683 0 1.317.16 1.904.48.587.31 1.035.72 1.344 1.232v-4.64h1.472v11.84h-1.472v-1.648c-.288.523-.715.955-1.28 1.296-.565.331-1.227.496-1.984.496a4.056 4.056 0 0 1-2.128-.576 4.04 4.04 0 0 1-1.488-1.616c-.363-.693-.544-1.482-.544-2.368Zm7.424.016c0-.661-.133-1.237-.4-1.728a2.758 2.758 0 0 0-1.088-1.12 2.86 2.86 0 0 0-1.488-.4c-.544 0-1.04.128-1.488.384-.448.256-.805.63-1.072 1.12-.267.491-.4 1.067-.4 1.728 0 .672.133 1.259.4 1.76.267.491.624.87 1.072 1.136.448.256.944.384 1.488.384s1.04-.128 1.488-.384a2.857 2.857 0 0 0 1.088-1.136c.267-.501.4-1.082.4-1.744Z"/><rect width="256" height="36" x="61.768" y="280.5" fill="#F8F8F8" stroke="#C9C9C9" rx="5.5"/><path fill="#515151" d="M81.5 299.28c0 .277-.016.571-.048.88h-7.008c.053.864.347 1.541.88 2.032.544.48 1.2.72 1.968.72.63 0 1.152-.144 1.568-.432.427-.299.725-.693.896-1.184h1.568a3.806 3.806 0 0 1-1.408 2.064c-.704.523-1.579.784-2.624.784-.832 0-1.579-.187-2.24-.56A3.988 3.988 0 0 1 73.516 302c-.373-.693-.56-1.493-.56-2.4 0-.907.181-1.701.544-2.384a3.78 3.78 0 0 1 1.52-1.568c.661-.373 1.419-.56 2.272-.56.832 0 1.568.181 2.208.544.64.363 1.13.864 1.472 1.504.352.629.528 1.344.528 2.144Zm-1.504-.304c0-.555-.123-1.029-.368-1.424a2.32 2.32 0 0 0-1.008-.912 3.01 3.01 0 0 0-1.392-.32c-.736 0-1.365.235-1.888.704-.512.469-.805 1.12-.88 1.952h5.536ZM87.998 304l-2.08-3.264-2 3.264h-1.52l2.832-4.352-2.832-4.416h1.648l2.08 3.248 1.984-3.248h1.52l-2.816 4.336L89.646 304h-1.648Zm2.536-4.416c0-.896.181-1.68.544-2.352a3.948 3.948 0 0 1 1.488-1.584 4.15 4.15 0 0 1 2.128-.56c.768 0 1.435.165 2 .496.566.331.987.747 1.264 1.248v-1.6h1.472V304h-1.472v-1.632c-.288.512-.72.939-1.296 1.28-.565.331-1.227.496-1.984.496a3.974 3.974 0 0 1-2.112-.576 4.043 4.043 0 0 1-1.488-1.616c-.362-.693-.544-1.483-.544-2.368Zm7.424.016c0-.661-.133-1.237-.4-1.728a2.752 2.752 0 0 0-1.088-1.12 2.851 2.851 0 0 0-1.488-.4c-.544 0-1.04.128-1.488.384a2.784 2.784 0 0 0-1.072 1.12c-.266.491-.4 1.067-.4 1.728 0 .672.133 1.259.4 1.76a2.9 2.9 0 0 0 1.072 1.136c.448.256.944.384 1.488.384s1.04-.128 1.488-.384a2.864 2.864 0 0 0 1.088-1.136c.267-.501.4-1.083.4-1.744Zm14.477-4.528c.682 0 1.29.144 1.824.432.533.277.954.699 1.264 1.264.309.565.464 1.253.464 2.064V304h-1.44v-4.96c0-.875-.219-1.541-.656-2-.427-.469-1.008-.704-1.744-.704-.758 0-1.36.245-1.808.736-.448.48-.672 1.179-.672 2.096V304h-1.44v-4.96c0-.875-.219-1.541-.656-2-.427-.469-1.008-.704-1.744-.704-.758 0-1.36.245-1.808.736-.448.48-.672 1.179-.672 2.096V304h-1.456v-8.768h1.456v1.264a2.886 2.886 0 0 1 1.152-1.056 3.564 3.564 0 0 1 1.616-.368c.736 0 1.386.165 1.952.496.565.331.986.816 1.264 1.456a2.868 2.868 0 0 1 1.216-1.44 3.583 3.583 0 0 1 1.888-.512Zm7.396 1.776c.288-.501.715-.917 1.28-1.248.576-.341 1.243-.512 2-.512.779 0 1.483.187 2.112.56.64.373 1.141.901 1.504 1.584.363.672.544 1.456.544 2.352 0 .885-.181 1.675-.544 2.368a4.008 4.008 0 0 1-1.504 1.616 3.973 3.973 0 0 1-2.112.576c-.747 0-1.408-.165-1.984-.496-.565-.341-.997-.763-1.296-1.264v5.776h-1.456v-12.928h1.456v1.616Zm5.952 2.736c0-.661-.133-1.237-.4-1.728a2.752 2.752 0 0 0-1.088-1.12 2.946 2.946 0 0 0-1.488-.384c-.533 0-1.029.133-1.488.4-.448.256-.811.635-1.088 1.136-.267.491-.4 1.061-.4 1.712 0 .661.133 1.243.4 1.744.277.491.64.869 1.088 1.136.459.256.955.384 1.488.384.544 0 1.04-.128 1.488-.384a2.864 2.864 0 0 0 1.088-1.136c.267-.501.4-1.088.4-1.76Zm4.861-7.424V304h-1.456v-11.84h1.456Zm10.481 7.12c0 .277-.016.571-.048.88h-7.008c.053.864.347 1.541.88 2.032.544.48 1.2.72 1.968.72.629 0 1.152-.144 1.568-.432.427-.299.725-.693.896-1.184h1.568a3.807 3.807 0 0 1-1.408 2.064c-.704.523-1.579.784-2.624.784-.832 0-1.579-.187-2.24-.56a3.984 3.984 0 0 1-1.536-1.584c-.373-.693-.56-1.493-.56-2.4 0-.907.181-1.701.544-2.384a3.781 3.781 0 0 1 1.52-1.568c.661-.373 1.419-.56 2.272-.56.832 0 1.568.181 2.208.544a3.7 3.7 0 0 1 1.472 1.504c.352.629.528 1.344.528 2.144Zm-1.504-.304c0-.555-.123-1.029-.368-1.424a2.316 2.316 0 0 0-1.008-.912 3.01 3.01 0 0 0-1.392-.32c-.736 0-1.365.235-1.888.704-.512.469-.805 1.12-.88 1.952h5.536Zm2.802-5.216v-1.328h3.008V304h-1.472v-10.24h-1.536Zm5.333 9.072c1.355-1.088 2.416-1.979 3.184-2.672a13.063 13.063 0 0 0 1.936-2.192c.533-.768.8-1.52.8-2.256 0-.693-.171-1.237-.512-1.632-.331-.405-.869-.608-1.616-.608-.725 0-1.291.229-1.696.688-.395.448-.608 1.051-.64 1.808h-1.408c.043-1.195.405-2.117 1.088-2.768.683-.651 1.563-.976 2.64-.976 1.099 0 1.968.304 2.608.912.651.608.976 1.445.976 2.512 0 .885-.267 1.749-.8 2.592a11.43 11.43 0 0 1-1.792 2.208 47.403 47.403 0 0 1-2.576 2.208h5.504v1.216h-7.696v-1.04Zm9.347-7.488c.075-.981.453-1.749 1.136-2.304.683-.555 1.568-.832 2.656-.832.725 0 1.349.133 1.872.4.533.256.933.608 1.2 1.056.277.448.416.955.416 1.52 0 .661-.192 1.232-.576 1.712-.373.48-.864.789-1.472.928v.08c.693.171 1.243.507 1.648 1.008.405.501.608 1.157.608 1.968 0 .608-.139 1.157-.416 1.648-.277.48-.693.859-1.248 1.136-.555.277-1.221.416-2 .416-1.131 0-2.059-.293-2.784-.88-.725-.597-1.131-1.44-1.216-2.528h1.408c.075.64.336 1.163.784 1.568s1.045.608 1.792.608c.747 0 1.312-.192 1.696-.576.395-.395.592-.901.592-1.52 0-.8-.267-1.376-.8-1.728-.533-.352-1.339-.528-2.416-.528h-.368v-1.216h.384c.981-.011 1.723-.171 2.224-.48.501-.32.752-.811.752-1.472 0-.565-.187-1.019-.56-1.36-.363-.341-.885-.512-1.568-.512-.661 0-1.195.171-1.6.512-.405.341-.645.8-.72 1.376h-1.424Zm17.694-1.6c1.184 0 2.213.224 3.088.672.875.448 1.547 1.077 2.016 1.888.469.8.704 1.728.704 2.784 0 .843-.139 1.653-.416 2.432-.277.768-.683 1.392-1.216 1.872-.523.48-1.136.72-1.84.72-.533 0-.944-.133-1.232-.4-.288-.267-.453-.629-.496-1.088a3.567 3.567 0 0 1-1.264 1.088c-.501.267-1.035.4-1.6.4-.811 0-1.451-.245-1.92-.736-.459-.501-.688-1.173-.688-2.016 0-.8.165-1.547.496-2.24a4.3 4.3 0 0 1 1.408-1.664 3.408 3.408 0 0 1 2.032-.64c1.013 0 1.696.384 2.048 1.152l.176-.992h1.264l-.8 4.624a3.61 3.61 0 0 0-.048.56c0 .64.283.96.848.96.427 0 .795-.203 1.104-.608.32-.405.56-.912.72-1.52a7.27 7.27 0 0 0 .24-1.824c0-1.397-.421-2.48-1.264-3.248-.832-.768-2.011-1.152-3.536-1.152-1.269 0-2.416.309-3.44.928a6.435 6.435 0 0 0-2.384 2.512c-.576 1.067-.864 2.245-.864 3.536-.011 1.408.411 2.491 1.264 3.248.853.768 2.037 1.152 3.552 1.152 1.003 0 1.888-.181 2.656-.544l.192.992c-.949.395-1.995.592-3.136.592s-2.149-.219-3.024-.656a4.715 4.715 0 0 1-2.016-1.856c-.469-.8-.704-1.733-.704-2.8 0-1.504.347-2.875 1.04-4.112a7.635 7.635 0 0 1 2.88-2.944c1.237-.715 2.624-1.072 4.16-1.072Zm-1.824 9.232c.48 0 .923-.139 1.328-.416.405-.288.725-.672.96-1.152a3.656 3.656 0 0 0 .352-1.6c0-.555-.155-1.003-.464-1.344-.299-.352-.725-.528-1.28-.528-.512 0-.965.155-1.36.464a2.945 2.945 0 0 0-.896 1.2 3.82 3.82 0 0 0-.32 1.536c0 .565.144 1.013.432 1.344.288.331.704.496 1.248.496Zm13.643-7.888c.757 0 1.419.165 1.984.496.576.331 1.003.747 1.28 1.248v-1.6h1.472v8.96c0 .8-.171 1.509-.512 2.128a3.623 3.623 0 0 1-1.472 1.472c-.629.352-1.365.528-2.208.528-1.152 0-2.112-.272-2.88-.816-.768-.544-1.221-1.285-1.36-2.224h1.44c.16.533.491.96.992 1.28.501.331 1.104.496 1.808.496.8 0 1.451-.251 1.952-.752.512-.501.768-1.205.768-2.112v-1.84c-.288.512-.715.939-1.28 1.28-.565.341-1.227.512-1.984.512a4.056 4.056 0 0 1-2.128-.576 4.047 4.047 0 0 1-1.488-1.616c-.363-.693-.544-1.483-.544-2.368 0-.896.181-1.68.544-2.352a3.952 3.952 0 0 1 1.488-1.584 4.148 4.148 0 0 1 2.128-.56Zm3.264 4.512c0-.661-.133-1.237-.4-1.728a2.752 2.752 0 0 0-1.088-1.12 2.851 2.851 0 0 0-1.488-.4c-.544 0-1.04.128-1.488.384a2.786 2.786 0 0 0-1.072 1.12c-.267.491-.4 1.067-.4 1.728 0 .672.133 1.259.4 1.76.267.491.624.869 1.072 1.136.448.256.944.384 1.488.384s1.04-.128 1.488-.384a2.864 2.864 0 0 0 1.088-1.136c.267-.501.4-1.083.4-1.744Zm14.477-4.528c.682 0 1.29.144 1.824.432.533.277.954.699 1.264 1.264.309.565.464 1.253.464 2.064V304h-1.44v-4.96c0-.875-.219-1.541-.656-2-.427-.469-1.008-.704-1.744-.704-.758 0-1.36.245-1.808.736-.448.48-.672 1.179-.672 2.096V304h-1.44v-4.96c0-.875-.219-1.541-.656-2-.427-.469-1.008-.704-1.744-.704-.758 0-1.36.245-1.808.736-.448.48-.672 1.179-.672 2.096V304h-1.456v-8.768h1.456v1.264a2.886 2.886 0 0 1 1.152-1.056 3.564 3.564 0 0 1 1.616-.368c.736 0 1.386.165 1.952.496.565.331.986.816 1.264 1.456a2.868 2.868 0 0 1 1.216-1.44 3.583 3.583 0 0 1 1.888-.512Zm5.396 4.512c0-.896.181-1.68.544-2.352a3.952 3.952 0 0 1 1.488-1.584 4.148 4.148 0 0 1 2.128-.56c.768 0 1.435.165 2 .496.565.331.987.747 1.264 1.248v-1.6h1.472V304h-1.472v-1.632c-.288.512-.72.939-1.296 1.28-.565.331-1.227.496-1.984.496a3.973 3.973 0 0 1-2.112-.576 4.047 4.047 0 0 1-1.488-1.616c-.363-.693-.544-1.483-.544-2.368Zm7.424.016c0-.661-.133-1.237-.4-1.728a2.752 2.752 0 0 0-1.088-1.12 2.851 2.851 0 0 0-1.488-.4c-.544 0-1.04.128-1.488.384a2.786 2.786 0 0 0-1.072 1.12c-.267.491-.4 1.067-.4 1.728 0 .672.133 1.259.4 1.76.267.491.624.869 1.072 1.136.448.256.944.384 1.488.384s1.04-.128 1.488-.384a2.864 2.864 0 0 0 1.088-1.136c.267-.501.4-1.083.4-1.744Zm4.684-5.792a.958.958 0 0 1-.704-.288.958.958 0 0 1-.288-.704c0-.277.096-.512.288-.704a.958.958 0 0 1 .704-.288c.267 0 .491.096.672.288a.958.958 0 0 1 .288.704.958.958 0 0 1-.288.704.886.886 0 0 1-.672.288Zm.704 1.424V304h-1.456v-8.768h1.456Zm3.938-3.072V304h-1.456v-11.84h1.456Zm2.945 11.936a.958.958 0 0 1-.704-.288.958.958 0 0 1-.288-.704c0-.277.096-.512.288-.704a.958.958 0 0 1 .704-.288c.267 0 .491.096.672.288a.958.958 0 0 1 .288.704.958.958 0 0 1-.288.704.886.886 0 0 1-.672.288Zm2.352-4.496c0-.907.181-1.696.544-2.368a3.909 3.909 0 0 1 1.504-1.584c.65-.373 1.392-.56 2.224-.56 1.077 0 1.962.261 2.656.784.704.523 1.168 1.248 1.392 2.176h-1.568a2.243 2.243 0 0 0-.88-1.264c-.427-.309-.96-.464-1.6-.464-.832 0-1.504.288-2.016.864-.512.565-.768 1.371-.768 2.416 0 1.056.256 1.872.768 2.448.512.576 1.184.864 2.016.864.64 0 1.173-.149 1.6-.448.426-.299.72-.725.88-1.28h1.568c-.235.896-.704 1.616-1.408 2.16-.704.533-1.584.8-2.64.8-.832 0-1.574-.187-2.224-.56a3.909 3.909 0 0 1-1.504-1.584c-.363-.683-.544-1.483-.544-2.4Zm14.087 4.544a4.536 4.536 0 0 1-2.24-.56 4.061 4.061 0 0 1-1.568-1.584c-.374-.693-.56-1.493-.56-2.4 0-.896.192-1.685.576-2.368a4.009 4.009 0 0 1 1.6-1.584c.672-.373 1.424-.56 2.256-.56.832 0 1.584.187 2.256.56.672.363 1.2.885 1.584 1.568.394.683.592 1.477.592 2.384 0 .907-.203 1.707-.608 2.4a4.121 4.121 0 0 1-1.616 1.584c-.683.373-1.44.56-2.272.56Zm0-1.28c.522 0 1.013-.123 1.472-.368a2.753 2.753 0 0 0 1.104-1.104c.288-.491.432-1.088.432-1.792s-.139-1.301-.416-1.792c-.278-.491-.64-.853-1.088-1.088a2.988 2.988 0 0 0-1.456-.368c-.534 0-1.024.123-1.472.368-.438.235-.79.597-1.056 1.088-.267.491-.4 1.088-.4 1.792 0 .715.128 1.317.384 1.808.266.491.618.859 1.056 1.104.437.235.917.352 1.44.352Zm16.954-7.792c.683 0 1.291.144 1.824.432.533.277.955.699 1.264 1.264.309.565.464 1.253.464 2.064V304h-1.44v-4.96c0-.875-.219-1.541-.656-2-.427-.469-1.008-.704-1.744-.704-.757 0-1.36.245-1.808.736-.448.48-.672 1.179-.672 2.096V304h-1.44v-4.96c0-.875-.219-1.541-.656-2-.427-.469-1.008-.704-1.744-.704-.757 0-1.36.245-1.808.736-.448.48-.672 1.179-.672 2.096V304h-1.456v-8.768h1.456v1.264a2.886 2.886 0 0 1 1.152-1.056 3.567 3.567 0 0 1 1.616-.368c.736 0 1.387.165 1.952.496.565.331.987.816 1.264 1.456a2.873 2.873 0 0 1 1.216-1.44 3.585 3.585 0 0 1 1.888-.512Z"/><g filter="url(#c)"><rect width="56.261" height="53" x="61.268" y="591" fill="#fff" rx="6.523"/><g clip-path="url(#d)"><path fill="#4285F4" d="M107.728 617.841c0-1.503-.125-2.6-.395-3.737H89.765v6.785h10.312c-.208 1.686-1.33 4.225-3.826 5.931l-.035.227 5.555 4.205.385.038c3.534-3.19 5.572-7.882 5.572-13.449Z"/><path fill="#34A853" d="M89.764 635.72c5.052 0 9.293-1.625 12.391-4.429l-5.904-4.469c-1.58 1.077-3.701 1.828-6.487 1.828a11.24 11.24 0 0 1-10.645-7.597l-.22.018-5.775 4.368-.076.205c3.077 5.972 9.398 10.076 16.716 10.076Z"/><path fill="#FBBC05" d="M79.12 621.055a11.027 11.027 0 0 1-.624-3.616c0-1.26.228-2.479.602-3.616l-.01-.243-5.848-4.437-.192.089a17.956 17.956 0 0 0-1.996 8.207c0 2.945.728 5.728 1.996 8.207l6.071-4.591Z"/><path fill="#EB4335" d="M89.764 606.222c3.514 0 5.884 1.483 7.235 2.722l5.281-5.038c-3.243-2.946-7.464-4.754-12.516-4.754-7.318 0-13.639 4.104-16.716 10.076l6.05 4.591c1.518-4.408 5.718-7.597 10.666-7.597Z"/></g></g><g filter="url(#e)"><rect width="56.261" height="53" x="262.36" y="591" fill="#fff" rx="6.523"/><path fill="#000" d="M304.385 631.256c-1.668 2.275-3.437 4.494-6.13 4.531-2.693.055-3.557-1.449-6.612-1.449-3.074 0-4.019 1.412-6.571 1.504-2.633.092-4.623-2.421-6.311-4.641-3.437-4.531-6.069-12.878-2.532-18.492 1.748-2.788 4.883-4.549 8.28-4.604 2.572-.037 5.024 1.596 6.612 1.596 1.567 0 4.542-1.963 7.657-1.67 1.306.055 4.964.477 7.315 3.633-.18.11-4.361 2.348-4.321 6.989.061 5.54 5.326 7.393 5.387 7.411-.061.129-.845 2.642-2.774 5.192Zm-11.475-29.352c1.467-1.523 3.898-2.678 5.908-2.752.261 2.147-.683 4.311-2.09 5.852-1.387 1.56-3.678 2.77-5.929 2.605-.301-2.109.824-4.311 2.111-5.705Z"/></g><g filter="url(#f)"><rect width="56.261" height="53" x="162" y="591" fill="#fff" rx="6.523"/><g clip-path="url(#g)"><path fill="#1877F2" d="M208.476 617.498c0-10.132-8.214-18.346-18.346-18.346s-18.346 8.214-18.346 18.346c0 9.158 6.709 16.748 15.48 18.124v-12.82h-4.659v-5.304h4.659v-4.041c0-4.598 2.739-7.138 6.929-7.138 2.007 0 4.107.358 4.107.358v4.515h-2.313c-2.28 0-2.99 1.414-2.99 2.865v3.441h5.088l-.813 5.304h-4.275v12.82c8.77-1.376 15.479-8.966 15.479-18.124Z"/><path fill="#fff" d="m197.272 622.803.813-5.303h-5.088v-3.441c0-1.451.711-2.865 2.99-2.865h2.313v-4.515s-2.099-.359-4.106-.359c-4.191 0-6.93 2.54-6.93 7.138v4.042h-4.658v5.303h4.658v12.82a18.468 18.468 0 0 0 5.733 0v-12.82h4.275Z"/></g></g><rect width="256" height="36" x="61.768" y="375.5" fill="#F8F8F8" stroke="#5C5DF2" rx="5.5"/><rect width="258" height="38" x="60.768" y="374.5" stroke="#D6D6D6" rx="6.5"/><path fill="#515151" d="M82.092 388.848V400h-1.456v-5.056h-5.68V400H73.5v-11.152h1.456v4.896h5.68v-4.896h1.456Zm10.486 6.432c0 .277-.016.571-.048.88h-7.008c.053.864.347 1.541.88 2.032.544.48 1.2.72 1.968.72.63 0 1.152-.144 1.568-.432.427-.299.725-.693.896-1.184h1.568a3.806 3.806 0 0 1-1.408 2.064c-.704.523-1.579.784-2.624.784-.832 0-1.579-.187-2.24-.56A3.988 3.988 0 0 1 84.594 398c-.373-.693-.56-1.493-.56-2.4 0-.907.181-1.701.544-2.384a3.781 3.781 0 0 1 1.52-1.568c.662-.373 1.419-.56 2.272-.56.832 0 1.568.181 2.208.544.64.363 1.13.864 1.472 1.504.352.629.528 1.344.528 2.144Zm-1.504-.304c0-.555-.123-1.029-.368-1.424a2.32 2.32 0 0 0-1.008-.912 3.01 3.01 0 0 0-1.392-.32c-.736 0-1.365.235-1.888.704-.512.469-.805 1.12-.88 1.952h5.536Zm4.882-6.816V400H94.5v-11.84h1.456Zm3.938 0V400h-1.456v-11.84h1.456Zm6.305 11.984a4.538 4.538 0 0 1-2.24-.56 4.068 4.068 0 0 1-1.568-1.584c-.373-.693-.56-1.493-.56-2.4 0-.896.192-1.685.576-2.368a4.015 4.015 0 0 1 1.6-1.584c.672-.373 1.424-.56 2.256-.56.832 0 1.584.187 2.256.56.672.363 1.2.885 1.584 1.568.395.683.592 1.477.592 2.384 0 .907-.203 1.707-.608 2.4a4.114 4.114 0 0 1-1.616 1.584c-.683.373-1.44.56-2.272.56Zm0-1.28c.523 0 1.013-.123 1.472-.368a2.74 2.74 0 0 0 1.104-1.104c.288-.491.432-1.088.432-1.792s-.139-1.301-.416-1.792c-.277-.491-.64-.853-1.088-1.088a2.986 2.986 0 0 0-1.456-.368c-.533 0-1.024.123-1.472.368-.437.235-.789.597-1.056 1.088-.267.491-.4 1.088-.4 1.792 0 .715.128 1.317.384 1.808.267.491.619.859 1.056 1.104.437.235.917.352 1.44.352Zm5.786-9.104v-1.328h3.008V400h-1.472v-10.24h-1.536Zm5.333 9.072c1.355-1.088 2.416-1.979 3.184-2.672a13.019 13.019 0 0 0 1.936-2.192c.534-.768.8-1.52.8-2.256 0-.693-.17-1.237-.512-1.632-.33-.405-.869-.608-1.616-.608-.725 0-1.29.229-1.696.688-.394.448-.608 1.051-.64 1.808h-1.408c.043-1.195.406-2.117 1.088-2.768.683-.651 1.563-.976 2.64-.976 1.099 0 1.968.304 2.608.912.651.608.976 1.445.976 2.512 0 .885-.266 1.749-.8 2.592a11.394 11.394 0 0 1-1.792 2.208 47.02 47.02 0 0 1-2.576 2.208h5.504v1.216h-7.696v-1.04Zm9.348-7.488c.074-.981.453-1.749 1.136-2.304.682-.555 1.568-.832 2.656-.832.725 0 1.349.133 1.872.4.533.256.933.608 1.2 1.056.277.448.416.955.416 1.52 0 .661-.192 1.232-.576 1.712a2.52 2.52 0 0 1-1.472.928v.08c.693.171 1.242.507 1.648 1.008.405.501.608 1.157.608 1.968 0 .608-.139 1.157-.416 1.648-.278.48-.694.859-1.248 1.136-.555.277-1.222.416-2 .416-1.131 0-2.059-.293-2.784-.88-.726-.597-1.131-1.44-1.216-2.528h1.408c.074.64.336 1.163.784 1.568s1.045.608 1.792.608c.746 0 1.312-.192 1.696-.576.394-.395.592-.901.592-1.52 0-.8-.267-1.376-.8-1.728-.534-.352-1.339-.528-2.416-.528h-.368v-1.216h.384c.981-.011 1.722-.171 2.224-.48.501-.32.752-.811.752-1.472 0-.565-.187-1.019-.56-1.36-.363-.341-.886-.512-1.568-.512-.662 0-1.195.171-1.6.512-.406.341-.646.8-.72 1.376h-1.424Z"/><path fill="#5C5DF2" d="M138.508 404.232h-1.08v-21.048h1.08v21.048Z"/><path fill="#848484" d="M296.268 397a3 3 0 1 0 0-6 3 3 0 0 0 0 6Z"/><path fill="#848484" d="M307.276 393.184c-1.24-1.918-2.849-3.547-4.653-4.712-1.996-1.29-4.199-1.972-6.371-1.972-1.993 0-3.953.57-5.825 1.693-1.909 1.145-3.639 2.818-5.141 4.972a1.496 1.496 0 0 0-.03 1.666c1.238 1.937 2.831 3.569 4.607 4.718 1.999 1.295 4.15 1.951 6.389 1.951 2.19 0 4.397-.676 6.384-1.956 1.803-1.161 3.409-2.796 4.645-4.73a1.512 1.512 0 0 0-.005-1.63Zm-11.008 5.316a4.503 4.503 0 0 1-4.157-2.778 4.495 4.495 0 0 1 3.279-6.136 4.502 4.502 0 0 1 5.378 4.414 4.504 4.504 0 0 1-4.5 4.5Z"/></g><defs><filter id="a" width="380" height="769" x="0" y="0" color-interpolation-filters="sRGB" filterUnits="userSpaceOnUse"><feFlood flood-opacity="0" result="BackgroundImageFix"/><feColorMatrix in="SourceAlpha" result="hardAlpha" values="0 0 0 0 0 0 0 0 0 0 0 0 0 0 0 0 0 0 127 0"/><feMorphology in="SourceAlpha" radius="2" result="effect1_dropShadow_526_12574"/><feOffset dy="4"/><feGaussianBlur stdDeviation="12.5"/><feComposite in2="hardAlpha" operator="out"/><feColorMatrix values="0 0 0 0 0.391623 0 0 0 0 0.391623 0 0 0 0 0.391623 0 0 0 0.1 0"/><feBlend in2="BackgroundImageFix" result="effect1_dropShadow_526_12574"/><feBlend in="SourceGraphic" in2="effect1_dropShadow_526_12574" result="shape"/></filter><filter id="c" width="85.615" height="82.354" x="46.591" y="579.585" color-interpolation-filters="sRGB" filterUnits="userSpaceOnUse"><feFlood flood-opacity="0" result="BackgroundImageFix"/><feColorMatrix in="SourceAlpha" result="hardAlpha" values="0 0 0 0 0 0 0 0 0 0 0 0 0 0 0 0 0 0 127 0"/><feOffset dy="3.262"/><feGaussianBlur stdDeviation="7.338"/><feComposite in2="hardAlpha" operator="out"/><feColorMatrix values="0 0 0 0 0 0 0 0 0 0 0 0 0 0 0 0 0 0 0.1 0"/><feBlend in2="BackgroundImageFix" result="effect1_dropShadow_526_12574"/><feBlend in="SourceGraphic" in2="effect1_dropShadow_526_12574" result="shape"/></filter><filter id="e" width="85.615" height="82.354" x="247.684" y="579.585" color-interpolation-filters="sRGB" filterUnits="userSpaceOnUse"><feFlood flood-opacity="0" result="BackgroundImageFix"/><feColorMatrix in="SourceAlpha" result="hardAlpha" values="0 0 0 0 0 0 0 0 0 0 0 0 0 0 0 0 0 0 127 0"/><feOffset dy="3.262"/><feGaussianBlur stdDeviation="7.338"/><feComposite in2="hardAlpha" operator="out"/><feColorMatrix values="0 0 0 0 0 0 0 0 0 0 0 0 0 0 0 0 0 0 0.1 0"/><feBlend in2="BackgroundImageFix" result="effect1_dropShadow_526_12574"/><feBlend in="SourceGraphic" in2="effect1_dropShadow_526_12574" result="shape"/></filter><filter id="f" width="85.615" height="82.354" x="147.323" y="579.585" color-interpolation-filters="sRGB" filterUnits="userSpaceOnUse"><feFlood flood-opacity="0" result="BackgroundImageFix"/><feColorMatrix in="SourceAlpha" result="hardAlpha" values="0 0 0 0 0 0 0 0 0 0 0 0 0 0 0 0 0 0 127 0"/><feOffset dy="3.262"/><feGaussianBlur stdDeviation="7.338"/><feComposite in2="hardAlpha" operator="out"/><feColorMatrix values="0 0 0 0 0 0 0 0 0 0 0 0 0 0 0 0 0 0 0.1 0"/><feBlend in2="BackgroundImageFix" result="effect1_dropShadow_526_12574"/><feBlend in="SourceGraphic" in2="effect1_dropShadow_526_12574" result="shape"/></filter><clipPath id="d"><path fill="#fff" d="M71.052 599.152h36.692v36.692H71.052z"/></clipPath><clipPath id="g"><path fill="#fff" d="M171.784 599.152h36.692v36.692h-36.692z"/></clipPath><linearGradient id="b" x1="132.14" x2="132.14" y1="71.686" y2="103.966" gradientUnits="userSpaceOnUse"><stop stop-color="#2D95F6"/><stop offset="1" stop-color="#9F56FF"/></linearGradient></defs></svg>