<svg xmlns="http://www.w3.org/2000/svg" width="380" height="769" fill="none"><g filter="url(#a)"><g clip-path="url(#b)"><rect width="334" height="722.86" x="23" y="19" fill="#fff" rx="24.203"/><path fill="#272727" d="M69.044 83.644 64.754 99h-3.63l-2.882-10.934L55.228 99l-3.608.022-4.136-15.378h3.3l2.706 11.924 3.124-11.924h3.432l2.948 11.858 2.728-11.858h3.322Zm8.875 2.992c.924 0 1.745.205 2.464.616.719.396 1.276.99 1.672 1.782.41.777.616 1.716.616 2.816V99h-3.08v-6.732c0-.968-.242-1.709-.726-2.222-.484-.528-1.144-.792-1.98-.792-.85 0-1.525.264-2.024.792-.484.513-.726 1.254-.726 2.222V99h-3.08V82.72h3.08v5.61c.396-.528.924-.939 1.584-1.232.66-.308 1.393-.462 2.2-.462Zm6.889 6.226c0-1.232.242-2.325.726-3.278.499-.953 1.166-1.687 2.002-2.2.85-.513 1.797-.77 2.838-.77.91 0 1.701.183 2.376.55.69.367 1.24.829 1.65 1.386v-1.738h3.102V99H94.4v-1.782c-.396.572-.946 1.049-1.65 1.43-.69.367-1.489.55-2.398.55a5.235 5.235 0 0 1-2.816-.792c-.836-.528-1.503-1.269-2.002-2.222-.484-.968-.726-2.075-.726-3.322Zm9.592.044c0-.748-.147-1.386-.44-1.914a3.01 3.01 0 0 0-1.188-1.232 3.114 3.114 0 0 0-1.606-.44c-.572 0-1.1.14-1.584.418-.484.279-.88.69-1.188 1.232-.293.528-.44 1.159-.44 1.892 0 .733.147 1.379.44 1.936.308.543.704.96 1.188 1.254.499.293 1.027.44 1.584.44a3.24 3.24 0 0 0 1.606-.418 3.2 3.2 0 0 0 1.188-1.232c.293-.543.44-1.188.44-1.936Zm9.696-3.564v5.896c0 .41.096.711.286.902.206.176.543.264 1.012.264h1.43V99h-1.936c-2.596 0-3.894-1.261-3.894-3.784v-5.874h-1.452v-2.53h1.452v-3.014h3.102v3.014h2.728v2.53h-2.728ZM121.498 99l-4.136-5.192V99h-3.08V82.72h3.08v9.262l4.092-5.17h4.004l-5.368 6.116L125.502 99h-4.004Zm7.193-13.64c-.542 0-.997-.169-1.364-.506a1.764 1.764 0 0 1-.528-1.298c0-.513.176-.939.528-1.276.367-.352.822-.528 1.364-.528.543 0 .99.176 1.342.528.367.337.55.763.55 1.276s-.183.946-.55 1.298c-.352.337-.799.506-1.342.506Zm1.518 1.452V99h-3.08V86.812h3.08Zm9.797-.176c1.452 0 2.626.462 3.52 1.386.895.91 1.342 2.185 1.342 3.828V99h-3.08v-6.732c0-.968-.242-1.709-.726-2.222-.484-.528-1.144-.792-1.98-.792-.85 0-1.525.264-2.024.792-.484.513-.726 1.254-.726 2.222V99h-3.08V86.812h3.08v1.518a4.183 4.183 0 0 1 1.562-1.232 4.844 4.844 0 0 1 2.112-.462Zm6.999 6.226c0-1.232.242-2.325.726-3.278.499-.953 1.174-1.687 2.024-2.2.851-.513 1.797-.77 2.838-.77.792 0 1.548.176 2.266.528.719.337 1.291.792 1.716 1.364V82.72h3.124V99h-3.124v-1.804c-.381.601-.916 1.085-1.606 1.452-.689.367-1.488.55-2.398.55a5.237 5.237 0 0 1-2.816-.792c-.85-.528-1.525-1.269-2.024-2.222-.484-.968-.726-2.075-.726-3.322Zm9.592.044c0-.748-.146-1.386-.44-1.914a3.006 3.006 0 0 0-1.188-1.232 3.113 3.113 0 0 0-1.606-.44c-.572 0-1.1.14-1.584.418-.484.279-.88.69-1.188 1.232-.293.528-.44 1.159-.44 1.892 0 .733.147 1.379.44 1.936.308.543.704.96 1.188 1.254.499.293 1.027.44 1.584.44.572 0 1.108-.14 1.606-.418a3.195 3.195 0 0 0 1.188-1.232c.294-.543.44-1.188.44-1.936Zm16.765 6.292c-1.174 0-2.23-.257-3.168-.77a5.77 5.77 0 0 1-2.222-2.222c-.528-.953-.792-2.053-.792-3.3 0-1.247.271-2.347.814-3.3a5.725 5.725 0 0 1 2.266-2.2c.953-.528 2.016-.792 3.19-.792 1.173 0 2.236.264 3.19.792a5.588 5.588 0 0 1 2.244 2.2c.557.953.836 2.053.836 3.3 0 1.247-.286 2.347-.858 3.3a5.85 5.85 0 0 1-2.288 2.222c-.954.513-2.024.77-3.212.77Zm0-2.684c.557 0 1.078-.132 1.562-.396.498-.279.894-.69 1.188-1.232.293-.543.44-1.203.44-1.98 0-1.159-.308-2.046-.924-2.662-.602-.63-1.342-.946-2.222-.946-.88 0-1.621.315-2.222.946-.587.616-.88 1.503-.88 2.662s.286 2.053.858 2.684c.586.616 1.32.924 2.2.924Zm14.205-7.172h-2.134V99h-3.124v-9.658h-1.386v-2.53h1.386v-.616c0-1.496.425-2.596 1.276-3.3.851-.704 2.134-1.034 3.85-.99v2.596c-.748-.015-1.269.11-1.562.374-.293.264-.44.74-.44 1.43v.506h2.134v2.53Zm18.568 3.3c0 .44-.029.836-.088 1.188h-8.91c.073.88.381 1.57.924 2.068.543.499 1.21.748 2.002.748 1.144 0 1.958-.491 2.442-1.474h3.322c-.352 1.173-1.027 2.141-2.024 2.904-.997.748-2.222 1.122-3.674 1.122-1.173 0-2.229-.257-3.168-.77a5.668 5.668 0 0 1-2.178-2.222c-.513-.953-.77-2.053-.77-3.3 0-1.261.257-2.369.77-3.322a5.37 5.37 0 0 1 2.156-2.2c.924-.513 1.987-.77 3.19-.77 1.159 0 2.193.25 3.102.748a5.162 5.162 0 0 1 2.134 2.134c.513.91.77 1.958.77 3.146Zm-3.19-.88c-.015-.792-.301-1.423-.858-1.892-.557-.484-1.239-.726-2.046-.726-.763 0-1.408.235-1.936.704-.513.455-.829 1.093-.946 1.914h5.786Zm10.52 4.4 3.08-9.35h3.278L215.313 99h-3.74l-4.488-12.188h3.3l3.08 9.35Zm19.418-3.52c0 .44-.029.836-.088 1.188h-8.91c.073.88.381 1.57.924 2.068.543.499 1.21.748 2.002.748 1.144 0 1.958-.491 2.442-1.474h3.322c-.352 1.173-1.027 2.141-2.024 2.904-.997.748-2.222 1.122-3.674 1.122-1.173 0-2.229-.257-3.168-.77a5.668 5.668 0 0 1-2.178-2.222c-.513-.953-.77-2.053-.77-3.3 0-1.261.257-2.369.77-3.322a5.37 5.37 0 0 1 2.156-2.2c.924-.513 1.987-.77 3.19-.77 1.159 0 2.193.25 3.102.748a5.162 5.162 0 0 1 2.134 2.134c.513.91.77 1.958.77 3.146Zm-3.19-.88c-.015-.792-.301-1.423-.858-1.892-.557-.484-1.239-.726-2.046-.726-.763 0-1.408.235-1.936.704-.513.455-.829 1.093-.946 1.914h5.786Zm12.192-5.126c1.452 0 2.626.462 3.52 1.386.895.91 1.342 2.185 1.342 3.828V99h-3.08v-6.732c0-.968-.242-1.709-.726-2.222-.484-.528-1.144-.792-1.98-.792-.85 0-1.525.264-2.024.792-.484.513-.726 1.254-.726 2.222V99h-3.08V86.812h3.08v1.518a4.183 4.183 0 0 1 1.562-1.232 4.844 4.844 0 0 1 2.112-.462Zm11.377 2.706v5.896c0 .41.096.711.286.902.206.176.543.264 1.012.264h1.43V99h-1.936c-2.596 0-3.894-1.261-3.894-3.784v-5.874h-1.452v-2.53h1.452v-3.014h3.102v3.014h2.728v2.53h-2.728Zm9.608 9.856c-.998 0-1.892-.176-2.684-.528-.792-.367-1.423-.858-1.892-1.474a3.748 3.748 0 0 1-.748-2.046h3.102c.058.47.286.858.682 1.166.41.308.916.462 1.518.462.586 0 1.041-.117 1.364-.352.337-.235.506-.535.506-.902 0-.396-.206-.69-.616-.88-.396-.205-1.034-.425-1.914-.66-.91-.22-1.658-.447-2.244-.682a3.986 3.986 0 0 1-1.496-1.078c-.411-.484-.616-1.137-.616-1.958 0-.675.19-1.29.572-1.848.396-.557.953-.997 1.672-1.32.733-.323 1.591-.484 2.574-.484 1.452 0 2.61.367 3.476 1.1.865.719 1.342 1.694 1.43 2.926h-2.948c-.044-.484-.25-.865-.616-1.144-.352-.293-.829-.44-1.43-.44-.558 0-.99.103-1.298.308a.987.987 0 0 0-.44.858c0 .41.205.726.616.946.41.205 1.048.418 1.914.638.88.22 1.606.447 2.178.682a3.72 3.72 0 0 1 1.474 1.1c.425.484.645 1.13.66 1.936 0 .704-.198 1.335-.594 1.892-.382.557-.939.997-1.672 1.32-.719.308-1.562.462-2.53.462Zm11.774-6.336c0-1.232.242-2.325.726-3.278.499-.953 1.166-1.687 2.002-2.2.851-.513 1.797-.77 2.838-.77.909 0 1.701.183 2.376.55.689.367 1.239.829 1.65 1.386v-1.738h3.102V99h-3.102v-1.782c-.396.572-.946 1.049-1.65 1.43-.689.367-1.489.55-2.398.55a5.235 5.235 0 0 1-2.816-.792c-.836-.528-1.503-1.269-2.002-2.222-.484-.968-.726-2.075-.726-3.322Zm9.592.044c0-.748-.147-1.386-.44-1.914a3.006 3.006 0 0 0-1.188-1.232 3.115 3.115 0 0 0-1.606-.44c-.572 0-1.1.14-1.584.418-.484.279-.88.69-1.188 1.232-.293.528-.44 1.159-.44 1.892 0 .733.147 1.379.44 1.936.308.543.704.96 1.188 1.254.499.293 1.027.44 1.584.44a3.24 3.24 0 0 0 1.606-.418 3.195 3.195 0 0 0 1.188-1.232c.293-.543.44-1.188.44-1.936Zm12.864-6.27c1.452 0 2.625.462 3.52 1.386.895.91 1.342 2.185 1.342 3.828V99h-3.08v-6.732c0-.968-.242-1.709-.726-2.222-.484-.528-1.144-.792-1.98-.792-.851 0-1.525.264-2.024.792-.484.513-.726 1.254-.726 2.222V99h-3.08V86.812h3.08v1.518a4.176 4.176 0 0 1 1.562-1.232 4.837 4.837 0 0 1 2.112-.462Zm6.999 6.226c0-1.232.242-2.325.726-3.278.499-.953 1.173-1.687 2.024-2.2.851-.513 1.797-.77 2.838-.77.792 0 1.547.176 2.266.528.719.337 1.291.792 1.716 1.364V82.72h3.124V99h-3.124v-1.804c-.381.601-.917 1.085-1.606 1.452-.689.367-1.489.55-2.398.55a5.235 5.235 0 0 1-2.816-.792c-.851-.528-1.525-1.269-2.024-2.222-.484-.968-.726-2.075-.726-3.322Zm9.592.044c0-.748-.147-1.386-.44-1.914a3.006 3.006 0 0 0-1.188-1.232 3.115 3.115 0 0 0-1.606-.44c-.572 0-1.1.14-1.584.418-.484.279-.88.69-1.188 1.232-.293.528-.44 1.159-.44 1.892 0 .733.147 1.379.44 1.936.308.543.704.96 1.188 1.254.499.293 1.027.44 1.584.44a3.24 3.24 0 0 0 1.606-.418 3.195 3.195 0 0 0 1.188-1.232c.293-.543.44-1.188.44-1.936ZM59.848 125.642c0 .44-.03.836-.088 1.188h-8.91c.073.88.381 1.569.924 2.068.543.499 1.21.748 2.002.748 1.144 0 1.958-.491 2.442-1.474h3.322c-.352 1.173-1.027 2.141-2.024 2.904-.997.748-2.222 1.122-3.674 1.122-1.173 0-2.23-.257-3.168-.77a5.67 5.67 0 0 1-2.178-2.222c-.513-.953-.77-2.053-.77-3.3 0-1.261.257-2.369.77-3.322a5.372 5.372 0 0 1 2.156-2.2c.924-.513 1.987-.77 3.19-.77 1.159 0 2.193.249 3.102.748a5.162 5.162 0 0 1 2.134 2.134c.513.909.77 1.958.77 3.146Zm-3.19-.88c-.015-.792-.3-1.423-.858-1.892-.557-.484-1.24-.726-2.046-.726-.763 0-1.408.235-1.936.704-.513.455-.829 1.093-.946 1.914h5.786ZM68.828 132l-2.508-3.784L64.098 132h-3.3l3.982-6.116-4.026-6.072h3.476l2.486 3.762 2.244-3.762h3.3l-4.004 6.072L72.304 132h-3.476Zm8.229-10.428c.396-.557.939-1.019 1.628-1.386.704-.381 1.503-.572 2.398-.572 1.041 0 1.98.257 2.816.77.85.513 1.518 1.247 2.002 2.2.499.939.748 2.031.748 3.278 0 1.247-.25 2.354-.748 3.322-.484.953-1.151 1.694-2.002 2.222-.836.528-1.775.792-2.816.792-.895 0-1.687-.183-2.376-.55a5.115 5.115 0 0 1-1.65-1.386v7.546h-3.08v-17.996h3.08v1.76Zm6.446 4.29c0-.733-.154-1.364-.462-1.892a3.01 3.01 0 0 0-1.188-1.232 3.116 3.116 0 0 0-1.584-.418c-.557 0-1.085.147-1.584.44-.484.279-.88.689-1.188 1.232-.293.543-.44 1.181-.44 1.914 0 .733.147 1.371.44 1.914.308.543.704.961 1.188 1.254a3.195 3.195 0 0 0 1.584.418c.572 0 1.1-.147 1.584-.44a3.157 3.157 0 0 0 1.188-1.254c.308-.543.462-1.188.462-1.936Zm16.714-.22c0 .44-.029.836-.088 1.188h-8.91c.074.88.382 1.569.924 2.068.543.499 1.21.748 2.002.748 1.144 0 1.958-.491 2.442-1.474h3.322c-.352 1.173-1.027 2.141-2.024 2.904-.997.748-2.222 1.122-3.674 1.122-1.173 0-2.23-.257-3.168-.77a5.67 5.67 0 0 1-2.178-2.222c-.513-.953-.77-2.053-.77-3.3 0-1.261.257-2.369.77-3.322a5.373 5.373 0 0 1 2.156-2.2c.924-.513 1.987-.77 3.19-.77 1.159 0 2.193.249 3.102.748a5.162 5.162 0 0 1 2.134 2.134c.513.909.77 1.958.77 3.146Zm-3.19-.88c-.014-.792-.3-1.423-.858-1.892-.557-.484-1.24-.726-2.046-.726-.763 0-1.408.235-1.936.704-.513.455-.828 1.093-.946 1.914h5.786Zm8.518-3.058a4.37 4.37 0 0 1 1.54-1.518c.646-.367 1.379-.55 2.2-.55v3.234h-.814c-.968 0-1.701.227-2.2.682-.484.455-.726 1.247-.726 2.376V132h-3.08v-12.188h3.08v1.892Zm7.377-3.344c-.543 0-.998-.169-1.364-.506a1.765 1.765 0 0 1-.528-1.298c0-.513.176-.939.528-1.276.366-.352.821-.528 1.364-.528.542 0 .99.176 1.342.528.366.337.55.763.55 1.276s-.184.946-.55 1.298c-.352.337-.8.506-1.342.506Zm1.518 1.452V132h-3.08v-12.188h3.08Zm14.373 5.83c0 .44-.029.836-.088 1.188h-8.91c.073.88.381 1.569.924 2.068.543.499 1.21.748 2.002.748 1.144 0 1.958-.491 2.442-1.474h3.322c-.352 1.173-1.027 2.141-2.024 2.904-.997.748-2.222 1.122-3.674 1.122-1.173 0-2.229-.257-3.168-.77a5.67 5.67 0 0 1-2.178-2.222c-.513-.953-.77-2.053-.77-3.3 0-1.261.257-2.369.77-3.322a5.37 5.37 0 0 1 2.156-2.2c.924-.513 1.987-.77 3.19-.77 1.159 0 2.193.249 3.102.748a5.164 5.164 0 0 1 2.134 2.134c.513.909.77 1.958.77 3.146Zm-3.19-.88c-.015-.792-.301-1.423-.858-1.892-.557-.484-1.239-.726-2.046-.726-.763 0-1.408.235-1.936.704-.513.455-.829 1.093-.946 1.914h5.786Zm12.192-5.126c1.452 0 2.625.462 3.52 1.386.895.909 1.342 2.185 1.342 3.828V132h-3.08v-6.732c0-.968-.242-1.709-.726-2.222-.484-.528-1.144-.792-1.98-.792-.851 0-1.525.264-2.024.792-.484.513-.726 1.254-.726 2.222V132h-3.08v-12.188h3.08v1.518a4.173 4.173 0 0 1 1.562-1.232 4.837 4.837 0 0 1 2.112-.462Zm6.999 6.27c0-1.261.257-2.361.77-3.3a5.412 5.412 0 0 1 2.134-2.2c.909-.528 1.951-.792 3.124-.792 1.511 0 2.757.381 3.74 1.144.997.748 1.665 1.804 2.002 3.168h-3.322c-.176-.528-.477-.939-.902-1.232-.411-.308-.924-.462-1.54-.462-.88 0-1.577.323-2.09.968-.513.631-.77 1.533-.77 2.706 0 1.159.257 2.061.77 2.706.513.631 1.21.946 2.09.946 1.247 0 2.061-.557 2.442-1.672h3.322c-.337 1.32-1.005 2.369-2.002 3.146-.997.777-2.244 1.166-3.74 1.166-1.173 0-2.215-.257-3.124-.77a5.596 5.596 0 0 1-2.134-2.2c-.513-.953-.77-2.061-.77-3.322Zm25.356-.264c0 .44-.029.836-.088 1.188h-8.91c.074.88.382 1.569.924 2.068.543.499 1.21.748 2.002.748 1.144 0 1.958-.491 2.442-1.474h3.322c-.352 1.173-1.026 2.141-2.024 2.904-.997.748-2.222 1.122-3.674 1.122-1.173 0-2.229-.257-3.168-.77a5.67 5.67 0 0 1-2.178-2.222c-.513-.953-.77-2.053-.77-3.3 0-1.261.257-2.369.77-3.322a5.377 5.377 0 0 1 2.156-2.2c.924-.513 1.988-.77 3.19-.77 1.159 0 2.193.249 3.102.748a5.158 5.158 0 0 1 2.134 2.134c.514.909.77 1.958.77 3.146Zm-3.19-.88c-.014-.792-.3-1.423-.858-1.892-.557-.484-1.239-.726-2.046-.726-.762 0-1.408.235-1.936.704-.513.455-.828 1.093-.946 1.914h5.786Zm10.102 7.436c-.997 0-1.892-.176-2.684-.528-.792-.367-1.422-.858-1.892-1.474a3.756 3.756 0 0 1-.748-2.046h3.102c.059.469.286.858.682 1.166.411.308.917.462 1.518.462.587 0 1.042-.117 1.364-.352.338-.235.506-.535.506-.902 0-.396-.205-.689-.616-.88-.396-.205-1.034-.425-1.914-.66-.909-.22-1.657-.447-2.244-.682a3.997 3.997 0 0 1-1.496-1.078c-.41-.484-.616-1.137-.616-1.958 0-.675.191-1.291.572-1.848.396-.557.954-.997 1.672-1.32.734-.323 1.592-.484 2.574-.484 1.452 0 2.611.367 3.476 1.1.866.719 1.342 1.694 1.43 2.926h-2.948c-.044-.484-.249-.865-.616-1.144-.352-.293-.828-.44-1.43-.44-.557 0-.99.103-1.298.308a.989.989 0 0 0-.44.858c0 .411.206.726.616.946.411.205 1.049.418 1.914.638.88.22 1.606.447 2.178.682a3.713 3.713 0 0 1 1.474 1.1c.426.484.646 1.129.66 1.936 0 .704-.198 1.335-.594 1.892-.381.557-.938.997-1.672 1.32-.718.308-1.562.462-2.53.462Zm11.775-6.336c0-1.232.242-2.325.726-3.278.499-.953 1.166-1.687 2.002-2.2.851-.513 1.797-.77 2.838-.77.909 0 1.701.183 2.376.55.689.367 1.239.829 1.65 1.386v-1.738h3.102V132h-3.102v-1.782c-.396.572-.946 1.049-1.65 1.43-.689.367-1.489.55-2.398.55a5.235 5.235 0 0 1-2.816-.792c-.836-.528-1.503-1.269-2.002-2.222-.484-.968-.726-2.075-.726-3.322Zm9.592.044c0-.748-.147-1.386-.44-1.914a3.006 3.006 0 0 0-1.188-1.232 3.118 3.118 0 0 0-1.606-.44c-.572 0-1.1.139-1.584.418-.484.279-.88.689-1.188 1.232-.293.528-.44 1.159-.44 1.892 0 .733.147 1.379.44 1.936.308.543.704.961 1.188 1.254a3.08 3.08 0 0 0 1.584.44c.572 0 1.107-.139 1.606-.418a3.193 3.193 0 0 0 1.188-1.232c.293-.543.44-1.188.44-1.936Zm9.19-4.202a4.362 4.362 0 0 1 1.54-1.518c.645-.367 1.379-.55 2.2-.55v3.234h-.814c-.968 0-1.701.227-2.2.682-.484.455-.726 1.247-.726 2.376V132h-3.08v-12.188h3.08v1.892Zm17.145 3.938c0 .44-.03.836-.088 1.188h-8.91c.073.88.381 1.569.924 2.068.542.499 1.21.748 2.002.748 1.144 0 1.958-.491 2.442-1.474h3.322c-.352 1.173-1.027 2.141-2.024 2.904-.998.748-2.222 1.122-3.674 1.122-1.174 0-2.23-.257-3.168-.77a5.67 5.67 0 0 1-2.178-2.222c-.514-.953-.77-2.053-.77-3.3 0-1.261.256-2.369.77-3.322a5.37 5.37 0 0 1 2.156-2.2c.924-.513 1.987-.77 3.19-.77 1.158 0 2.192.249 3.102.748a5.164 5.164 0 0 1 2.134 2.134c.513.909.77 1.958.77 3.146Zm-3.19-.88c-.015-.792-.301-1.423-.858-1.892-.558-.484-1.24-.726-2.046-.726-.763 0-1.408.235-1.936.704-.514.455-.829 1.093-.946 1.914h5.786Zm22.34-4.95-7.546 17.952h-3.278l2.64-6.072-4.884-11.88h3.454l3.146 8.514 3.19-8.514h3.278Zm7.072 12.386c-1.173 0-2.229-.257-3.168-.77a5.785 5.785 0 0 1-2.222-2.222c-.528-.953-.792-2.053-.792-3.3 0-1.247.272-2.347.814-3.3a5.738 5.738 0 0 1 2.266-2.2c.954-.528 2.017-.792 3.19-.792 1.174 0 2.237.264 3.19.792a5.575 5.575 0 0 1 2.244 2.2c.558.953.836 2.053.836 3.3 0 1.247-.286 2.347-.858 3.3a5.846 5.846 0 0 1-2.288 2.222c-.953.513-2.024.77-3.212.77Zm0-2.684a3.21 3.21 0 0 0 1.562-.396 3.006 3.006 0 0 0 1.188-1.232c.294-.543.44-1.203.44-1.98 0-1.159-.308-2.046-.924-2.662-.601-.631-1.342-.946-2.222-.946-.88 0-1.62.315-2.222.946-.586.616-.88 1.503-.88 2.662s.286 2.053.858 2.684c.587.616 1.32.924 2.2.924Zm20.123-9.702V132h-3.102v-1.54a4.137 4.137 0 0 1-1.562 1.254c-.63.293-1.32.44-2.068.44-.953 0-1.796-.198-2.53-.594-.733-.411-1.312-1.005-1.738-1.782-.41-.792-.616-1.731-.616-2.816v-7.15h3.08v6.71c0 .968.242 1.716.726 2.244.484.513 1.144.77 1.98.77.851 0 1.518-.257 2.002-.77.484-.528.726-1.276.726-2.244v-6.71h3.102ZM50.08 151.36c-.543 0-.997-.169-1.364-.506a1.765 1.765 0 0 1-.528-1.298c0-.513.176-.939.528-1.276.367-.352.821-.528 1.364-.528.543 0 .99.176 1.342.528.367.337.55.763.55 1.276s-.183.946-.55 1.298c-.352.337-.8.506-1.342.506Zm1.518 1.452V165h-3.08v-12.188h3.08Zm9.797-.176c1.452 0 2.625.462 3.52 1.386.895.909 1.342 2.185 1.342 3.828V165h-3.08v-6.732c0-.968-.242-1.709-.726-2.222-.484-.528-1.144-.792-1.98-.792-.85 0-1.525.264-2.024.792-.484.513-.726 1.254-.726 2.222V165h-3.08v-12.188h3.08v1.518c.41-.528.931-.939 1.562-1.232a4.84 4.84 0 0 1 2.112-.462Zm11.377 2.706v5.896c0 .411.095.711.286.902.205.176.543.264 1.012.264h1.43V165h-1.936c-2.596 0-3.894-1.261-3.894-3.784v-5.874h-1.452v-2.53h1.452v-3.014h3.102v3.014H75.5v2.53h-2.728Zm16.273 3.3c0 .44-.03.836-.088 1.188h-8.91c.074.88.382 1.569.924 2.068.543.499 1.21.748 2.002.748 1.144 0 1.958-.491 2.442-1.474h3.322c-.352 1.173-1.026 2.141-2.024 2.904-.997.748-2.222 1.122-3.674 1.122-1.173 0-2.23-.257-3.168-.77a5.67 5.67 0 0 1-2.178-2.222c-.513-.953-.77-2.053-.77-3.3 0-1.261.257-2.369.77-3.322a5.372 5.372 0 0 1 2.156-2.2c.924-.513 1.988-.77 3.19-.77 1.159 0 2.193.249 3.102.748a5.162 5.162 0 0 1 2.134 2.134c.514.909.77 1.958.77 3.146Zm-3.19-.88c-.014-.792-.3-1.423-.858-1.892-.557-.484-1.24-.726-2.046-.726-.762 0-1.408.235-1.936.704-.513.455-.828 1.093-.946 1.914h5.786Zm8.518-3.058a4.364 4.364 0 0 1 1.54-1.518c.646-.367 1.38-.55 2.2-.55v3.234H97.3c-.968 0-1.7.227-2.2.682-.484.455-.726 1.247-.726 2.376V165h-3.08v-12.188h3.08v1.892Zm17.145 3.938c0 .44-.029.836-.088 1.188h-8.91c.073.88.381 1.569.924 2.068.543.499 1.21.748 2.002.748 1.144 0 1.958-.491 2.442-1.474h3.322c-.352 1.173-1.027 2.141-2.024 2.904-.997.748-2.222 1.122-3.674 1.122-1.173 0-2.229-.257-3.168-.77a5.67 5.67 0 0 1-2.178-2.222c-.513-.953-.77-2.053-.77-3.3 0-1.261.257-2.369.77-3.322a5.37 5.37 0 0 1 2.156-2.2c.924-.513 1.987-.77 3.19-.77 1.159 0 2.193.249 3.102.748a5.164 5.164 0 0 1 2.134 2.134c.513.909.77 1.958.77 3.146Zm-3.19-.88c-.015-.792-.301-1.423-.858-1.892-.557-.484-1.239-.726-2.046-.726-.763 0-1.408.235-1.936.704-.513.455-.829 1.093-.946 1.914h5.786Zm10.102 7.436c-.997 0-1.892-.176-2.684-.528-.792-.367-1.423-.858-1.892-1.474a3.748 3.748 0 0 1-.748-2.046h3.102c.059.469.286.858.682 1.166.411.308.917.462 1.518.462.587 0 1.041-.117 1.364-.352.337-.235.506-.535.506-.902 0-.396-.205-.689-.616-.88-.396-.205-1.034-.425-1.914-.66-.909-.22-1.657-.447-2.244-.682a3.99 3.99 0 0 1-1.496-1.078c-.411-.484-.616-1.137-.616-1.958 0-.675.191-1.291.572-1.848.396-.557.953-.997 1.672-1.32.733-.323 1.591-.484 2.574-.484 1.452 0 2.611.367 3.476 1.1.865.719 1.342 1.694 1.43 2.926h-2.948c-.044-.484-.249-.865-.616-1.144-.352-.293-.829-.44-1.43-.44-.557 0-.99.103-1.298.308a.989.989 0 0 0-.44.858c0 .411.205.726.616.946.411.205 1.049.418 1.914.638.88.22 1.606.447 2.178.682a3.72 3.72 0 0 1 1.474 1.1c.425.484.645 1.129.66 1.936 0 .704-.198 1.335-.594 1.892-.381.557-.939.997-1.672 1.32-.719.308-1.562.462-2.53.462Zm10.91-9.856v5.896c0 .411.096.711.286.902.206.176.543.264 1.012.264h1.43V165h-1.936c-2.596 0-3.894-1.261-3.894-3.784v-5.874h-1.452v-2.53h1.452v-3.014h3.102v3.014h2.728v2.53h-2.728Zm16.274 3.3c0 .44-.03.836-.088 1.188h-8.91c.073.88.381 1.569.924 2.068.542.499 1.21.748 2.002.748 1.144 0 1.958-.491 2.442-1.474h3.322c-.352 1.173-1.027 2.141-2.024 2.904-.998.748-2.222 1.122-3.674 1.122-1.174 0-2.23-.257-3.168-.77a5.67 5.67 0 0 1-2.178-2.222c-.514-.953-.77-2.053-.77-3.3 0-1.261.256-2.369.77-3.322a5.37 5.37 0 0 1 2.156-2.2c.924-.513 1.987-.77 3.19-.77 1.158 0 2.192.249 3.102.748a5.164 5.164 0 0 1 2.134 2.134c.513.909.77 1.958.77 3.146Zm-3.19-.88c-.015-.792-.301-1.423-.858-1.892-.558-.484-1.24-.726-2.046-.726-.763 0-1.408.235-1.936.704-.514.455-.829 1.093-.946 1.914h5.786Zm4.646 1.1c0-1.232.242-2.325.726-3.278.498-.953 1.173-1.687 2.024-2.2.85-.513 1.796-.77 2.838-.77.792 0 1.547.176 2.266.528.718.337 1.29.792 1.716 1.364v-5.786h3.124V165h-3.124v-1.804c-.382.601-.917 1.085-1.606 1.452-.69.367-1.489.55-2.398.55a5.232 5.232 0 0 1-2.816-.792c-.851-.528-1.526-1.269-2.024-2.222-.484-.968-.726-2.075-.726-3.322Zm9.592.044c0-.748-.147-1.386-.44-1.914a3.018 3.018 0 0 0-1.188-1.232 3.118 3.118 0 0 0-1.606-.44c-.572 0-1.1.139-1.584.418-.484.279-.88.689-1.188 1.232-.294.528-.44 1.159-.44 1.892 0 .733.146 1.379.44 1.936.308.543.704.961 1.188 1.254.498.293 1.026.44 1.584.44.572 0 1.107-.139 1.606-.418a3.208 3.208 0 0 0 1.188-1.232c.293-.543.44-1.188.44-1.936Zm12.914-7.546c-.543 0-.997-.169-1.364-.506a1.765 1.765 0 0 1-.528-1.298c0-.513.176-.939.528-1.276.367-.352.821-.528 1.364-.528.543 0 .99.176 1.342.528.367.337.55.763.55 1.276s-.183.946-.55 1.298c-.352.337-.799.506-1.342.506Zm1.518 1.452V165h-3.08v-12.188h3.08Zm9.797-.176c1.452 0 2.625.462 3.52 1.386.895.909 1.342 2.185 1.342 3.828V165h-3.08v-6.732c0-.968-.242-1.709-.726-2.222-.484-.528-1.144-.792-1.98-.792-.851 0-1.525.264-2.024.792-.484.513-.726 1.254-.726 2.222V165h-3.08v-12.188h3.08v1.518a4.173 4.173 0 0 1 1.562-1.232 4.837 4.837 0 0 1 2.112-.462Zm12.081-3.52c1.525 0 2.75.418 3.674 1.254.939.821 1.408 1.958 1.408 3.41 0 1.437-.462 2.537-1.386 3.3-.924.748-2.149 1.122-3.674 1.122l-.088 1.694H190.2l-.11-3.74h.99c1.276 0 2.259-.169 2.948-.506.689-.337 1.034-.953 1.034-1.848 0-.645-.191-1.159-.572-1.54-.367-.381-.873-.572-1.518-.572-.675 0-1.203.183-1.584.55-.367.367-.55.873-.55 1.518h-2.904c-.015-.895.176-1.694.572-2.398.396-.704.975-1.254 1.738-1.65.777-.396 1.687-.594 2.728-.594Zm-1.43 16.038c-.557 0-1.019-.169-1.386-.506a1.765 1.765 0 0 1-.528-1.298c0-.513.176-.939.528-1.276.367-.352.829-.528 1.386-.528.543 0 .99.176 1.342.528.352.337.528.763.528 1.276s-.176.946-.528 1.298c-.352.337-.799.506-1.342.506ZM47.688 494.416c0-1.088.245-2.064.736-2.928a5.349 5.349 0 0 1 2-2.048c.853-.491 1.797-.736 2.832-.736 1.216 0 2.277.293 3.184.88s1.568 1.419 1.984 2.496H56.68c-.31-.672-.757-1.189-1.344-1.552-.576-.363-1.27-.544-2.08-.544-.779 0-1.477.181-2.096.544a3.794 3.794 0 0 0-1.456 1.552c-.352.661-.528 1.44-.528 2.336 0 .885.176 1.664.528 2.336a3.82 3.82 0 0 0 1.456 1.536c.619.363 1.317.544 2.096.544.81 0 1.504-.176 2.08-.528.587-.363 1.035-.88 1.344-1.552h1.744c-.416 1.067-1.077 1.893-1.984 2.48-.907.576-1.968.864-3.184.864-1.035 0-1.979-.24-2.832-.72a5.383 5.383 0 0 1-2-2.032c-.49-.864-.736-1.84-.736-2.928Zm17.255-3.344a3.71 3.71 0 0 1 1.792.432c.534.277.95.699 1.248 1.264.31.565.464 1.253.464 2.064V500h-1.44v-4.96c0-.875-.218-1.541-.656-2-.437-.469-1.034-.704-1.792-.704-.768 0-1.381.24-1.84.72-.448.48-.672 1.179-.672 2.096V500h-1.456v-11.84h1.456v4.32a2.877 2.877 0 0 1 1.184-1.04 3.916 3.916 0 0 1 1.712-.368Zm9.707 9.072a4.537 4.537 0 0 1-2.24-.56A4.065 4.065 0 0 1 70.842 498c-.374-.693-.56-1.493-.56-2.4 0-.896.192-1.685.576-2.368a4.012 4.012 0 0 1 1.6-1.584c.672-.373 1.424-.56 2.256-.56.832 0 1.584.187 2.256.56.672.363 1.2.885 1.584 1.568.394.683.592 1.477.592 2.384 0 .907-.203 1.707-.608 2.4a4.115 4.115 0 0 1-1.616 1.584 4.66 4.66 0 0 1-2.272.56Zm0-1.28c.522 0 1.013-.123 1.472-.368a2.745 2.745 0 0 0 1.104-1.104c.288-.491.432-1.088.432-1.792s-.139-1.301-.416-1.792c-.278-.491-.64-.853-1.088-1.088a2.987 2.987 0 0 0-1.456-.368c-.534 0-1.024.123-1.472.368-.438.235-.79.597-1.056 1.088-.267.491-.4 1.088-.4 1.792 0 .715.128 1.317.384 1.808.266.491.618.859 1.056 1.104.437.235.917.352 1.44.352Zm10.234 1.28a4.537 4.537 0 0 1-2.24-.56A4.066 4.066 0 0 1 81.076 498c-.373-.693-.56-1.493-.56-2.4 0-.896.192-1.685.576-2.368a4.013 4.013 0 0 1 1.6-1.584c.672-.373 1.424-.56 2.256-.56.832 0 1.584.187 2.256.56.672.363 1.2.885 1.584 1.568.395.683.592 1.477.592 2.384 0 .907-.203 1.707-.608 2.4a4.114 4.114 0 0 1-1.616 1.584 4.66 4.66 0 0 1-2.272.56Zm0-1.28c.523 0 1.013-.123 1.472-.368a2.744 2.744 0 0 0 1.104-1.104c.288-.491.432-1.088.432-1.792s-.138-1.301-.416-1.792c-.277-.491-.64-.853-1.088-1.088a2.986 2.986 0 0 0-1.456-.368c-.533 0-1.024.123-1.472.368-.437.235-.79.597-1.056 1.088-.266.491-.4 1.088-.4 1.792 0 .715.128 1.317.384 1.808.267.491.619.859 1.056 1.104.438.235.918.352 1.44.352Zm9.514 1.28c-.671 0-1.274-.112-1.807-.336-.534-.235-.955-.555-1.264-.96a2.596 2.596 0 0 1-.513-1.424h1.505c.042.437.245.795.608 1.072.373.277.858.416 1.455.416.555 0 .992-.123 1.313-.368.32-.245.48-.555.48-.928a.898.898 0 0 0-.513-.848c-.34-.192-.869-.379-1.584-.56a13.034 13.034 0 0 1-1.6-.512 3.039 3.039 0 0 1-1.055-.784c-.288-.352-.433-.811-.433-1.376 0-.448.134-.859.4-1.232.267-.373.646-.667 1.136-.88.491-.224 1.051-.336 1.68-.336.971 0 1.755.245 2.352.736.598.491.918 1.163.96 2.016h-1.456a1.493 1.493 0 0 0-.56-1.104c-.33-.277-.778-.416-1.343-.416-.523 0-.94.112-1.249.336-.309.224-.463.517-.463.88 0 .288.09.528.272.72.192.181.426.331.704.448.287.107.682.229 1.183.368.63.171 1.142.341 1.537.512.394.16.73.405 1.007.736.288.331.438.763.448 1.296 0 .48-.133.912-.4 1.296-.266.384-.645.688-1.135.912-.48.213-1.035.32-1.665.32Zm13.256-4.864c0 .277-.016.571-.048.88h-7.008c.053.864.347 1.541.88 2.032.544.48 1.2.72 1.968.72.629 0 1.152-.144 1.568-.432.427-.299.725-.693.896-1.184h1.568a3.807 3.807 0 0 1-1.408 2.064c-.704.523-1.579.784-2.624.784-.832 0-1.579-.187-2.24-.56A3.985 3.985 0 0 1 99.67 498c-.374-.693-.56-1.493-.56-2.4 0-.907.181-1.701.544-2.384a3.782 3.782 0 0 1 1.52-1.568c.661-.373 1.419-.56 2.272-.56.832 0 1.568.181 2.208.544a3.7 3.7 0 0 1 1.472 1.504c.352.629.528 1.344.528 2.144Zm-1.504-.304c0-.555-.123-1.029-.368-1.424a2.316 2.316 0 0 0-1.008-.912 3.01 3.01 0 0 0-1.392-.32c-.736 0-1.365.235-1.888.704-.512.469-.805 1.12-.88 1.952h5.536Zm7.147.608c0-.896.182-1.68.544-2.352a3.952 3.952 0 0 1 1.488-1.584 4.15 4.15 0 0 1 2.128-.56c.768 0 1.435.165 2 .496.566.331.987.747 1.264 1.248v-1.6h1.472V500h-1.472v-1.632c-.288.512-.72.939-1.296 1.28-.565.331-1.226.496-1.984.496a3.978 3.978 0 0 1-2.112-.576 4.047 4.047 0 0 1-1.488-1.616c-.362-.693-.544-1.483-.544-2.368Zm7.424.016c0-.661-.133-1.237-.4-1.728a2.745 2.745 0 0 0-1.088-1.12 2.851 2.851 0 0 0-1.488-.4c-.544 0-1.04.128-1.488.384a2.786 2.786 0 0 0-1.072 1.12c-.266.491-.4 1.067-.4 1.728 0 .672.134 1.259.4 1.76.267.491.624.869 1.072 1.136.448.256.944.384 1.488.384s1.04-.128 1.488-.384a2.857 2.857 0 0 0 1.088-1.136c.267-.501.4-1.083.4-1.744Zm5.709-3.168v5.168c0 .427.091.731.272.912.181.171.496.256.944.256h1.072V500h-1.312c-.811 0-1.419-.187-1.824-.56-.405-.373-.608-.987-.608-1.84v-5.168h-1.136v-1.2h1.136v-2.208h1.456v2.208h2.288v1.2h-2.288Zm9.774-4.272V500h-1.456v-11.84h1.456Zm10.481 7.12c0 .277-.016.571-.048.88h-7.008c.053.864.347 1.541.88 2.032.544.48 1.2.72 1.968.72.629 0 1.152-.144 1.568-.432.427-.299.725-.693.896-1.184h1.568a3.807 3.807 0 0 1-1.408 2.064c-.704.523-1.579.784-2.624.784-.832 0-1.579-.187-2.24-.56a3.984 3.984 0 0 1-1.536-1.584c-.373-.693-.56-1.493-.56-2.4 0-.907.181-1.701.544-2.384a3.781 3.781 0 0 1 1.52-1.568c.661-.373 1.419-.56 2.272-.56.832 0 1.568.181 2.208.544a3.7 3.7 0 0 1 1.472 1.504c.352.629.528 1.344.528 2.144Zm-1.504-.304c0-.555-.123-1.029-.368-1.424a2.316 2.316 0 0 0-1.008-.912 3.01 3.01 0 0 0-1.392-.32c-.736 0-1.365.235-1.888.704-.512.469-.805 1.12-.88 1.952h5.536Zm2.882.608c0-.896.181-1.68.544-2.352a3.952 3.952 0 0 1 1.488-1.584 4.148 4.148 0 0 1 2.128-.56c.768 0 1.435.165 2 .496.565.331.987.747 1.264 1.248v-1.6h1.472V500h-1.472v-1.632c-.288.512-.72.939-1.296 1.28-.565.331-1.227.496-1.984.496a3.973 3.973 0 0 1-2.112-.576 4.047 4.047 0 0 1-1.488-1.616c-.363-.693-.544-1.483-.544-2.368Zm7.424.016c0-.661-.133-1.237-.4-1.728a2.752 2.752 0 0 0-1.088-1.12 2.851 2.851 0 0 0-1.488-.4c-.544 0-1.04.128-1.488.384a2.786 2.786 0 0 0-1.072 1.12c-.267.491-.4 1.067-.4 1.728 0 .672.133 1.259.4 1.76.267.491.624.869 1.072 1.136.448.256.944.384 1.488.384s1.04-.128 1.488-.384a2.864 2.864 0 0 0 1.088-1.136c.267-.501.4-1.083.4-1.744Zm7.037 4.544c-.672 0-1.275-.112-1.808-.336-.534-.235-.955-.555-1.264-.96a2.59 2.59 0 0 1-.512-1.424h1.504c.042.437.245.795.608 1.072.373.277.858.416 1.456.416.554 0 .992-.123 1.312-.368.32-.245.48-.555.48-.928 0-.384-.171-.667-.512-.848-.342-.192-.87-.379-1.584-.56a13.017 13.017 0 0 1-1.6-.512 3.026 3.026 0 0 1-1.056-.784c-.288-.352-.432-.811-.432-1.376 0-.448.133-.859.4-1.232.266-.373.645-.667 1.136-.88.49-.224 1.05-.336 1.68-.336.97 0 1.754.245 2.352.736.597.491.917 1.163.96 2.016h-1.456a1.494 1.494 0 0 0-.56-1.104c-.331-.277-.779-.416-1.344-.416-.523 0-.939.112-1.248.336-.31.224-.464.517-.464.88 0 .288.09.528.272.72.192.181.426.331.704.448.288.107.682.229 1.184.368.629.171 1.141.341 1.536.512.394.16.73.405 1.008.736.288.331.437.763.448 1.296 0 .48-.134.912-.4 1.296-.267.384-.646.688-1.136.912-.48.213-1.035.32-1.664.32Zm7.031-7.712v5.168c0 .427.091.731.272.912.181.171.496.256.944.256h1.072V500h-1.312c-.811 0-1.419-.187-1.824-.56-.405-.373-.608-.987-.608-1.84v-5.168h-1.136v-1.2h1.136v-2.208h1.456v2.208h2.288v1.2h-2.288Zm15.454-2.736h-5.616v3.648c.245-.341.608-.619 1.088-.832.48-.224.997-.336 1.552-.336.885 0 1.605.187 2.16.56.554.363.949.837 1.184 1.424a4.65 4.65 0 0 1 .368 1.84c0 .768-.144 1.456-.432 2.064a3.267 3.267 0 0 1-1.328 1.44c-.587.352-1.318.528-2.192.528-1.12 0-2.027-.288-2.72-.864-.694-.576-1.115-1.344-1.264-2.304h1.424c.138.608.432 1.083.88 1.424.448.341 1.013.512 1.696.512.842 0 1.477-.251 1.904-.752.426-.512.64-1.184.64-2.016 0-.832-.214-1.472-.64-1.92-.427-.459-1.056-.688-1.888-.688-.566 0-1.062.139-1.488.416-.416.267-.72.635-.912 1.104h-1.376v-6.528h6.96v1.28Zm7.928.112a.958.958 0 0 1-.704-.288.958.958 0 0 1-.288-.704c0-.277.096-.512.288-.704a.958.958 0 0 1 .704-.288c.267 0 .491.096.672.288a.958.958 0 0 1 .288.704.958.958 0 0 1-.288.704.886.886 0 0 1-.672.288Zm.704 1.424V500h-1.456v-8.768h1.456Zm6.754-.16c1.066 0 1.93.325 2.592.976.661.64.992 1.568.992 2.784V500h-1.44v-4.96c0-.875-.219-1.541-.656-2-.438-.469-1.035-.704-1.792-.704-.768 0-1.382.24-1.84.72-.448.48-.672 1.179-.672 2.096V500h-1.456v-8.768h1.456v1.248a2.898 2.898 0 0 1 1.168-1.04 3.7 3.7 0 0 1 1.648-.368Zm7.738 1.36v5.168c0 .427.091.731.272.912.181.171.496.256.944.256h1.072V500h-1.312c-.811 0-1.419-.187-1.824-.56-.405-.373-.608-.987-.608-1.84v-5.168h-1.136v-1.2h1.136v-2.208h1.456v2.208h2.288v1.2h-2.288Zm12.052 2.848c0 .277-.016.571-.048.88h-7.008c.053.864.347 1.541.88 2.032.544.48 1.2.72 1.968.72.629 0 1.152-.144 1.568-.432.427-.299.725-.693.896-1.184h1.568a3.807 3.807 0 0 1-1.408 2.064c-.704.523-1.579.784-2.624.784-.832 0-1.579-.187-2.24-.56a3.984 3.984 0 0 1-1.536-1.584c-.373-.693-.56-1.493-.56-2.4 0-.907.181-1.701.544-2.384a3.781 3.781 0 0 1 1.52-1.568c.661-.373 1.419-.56 2.272-.56.832 0 1.568.181 2.208.544a3.7 3.7 0 0 1 1.472 1.504c.352.629.528 1.344.528 2.144Zm-1.504-.304c0-.555-.123-1.029-.368-1.424a2.316 2.316 0 0 0-1.008-.912 3.01 3.01 0 0 0-1.392-.32c-.736 0-1.365.235-1.888.704-.512.469-.805 1.12-.88 1.952h5.536Zm4.882-2.32a2.81 2.81 0 0 1 1.088-1.168c.48-.277 1.061-.416 1.744-.416v1.504h-.384c-1.632 0-2.448.885-2.448 2.656V500h-1.456v-8.768h1.456v1.424Zm12.513 2.624c0 .277-.016.571-.048.88h-7.008c.053.864.346 1.541.88 2.032.544.48 1.2.72 1.968.72.629 0 1.152-.144 1.568-.432.426-.299.725-.693.896-1.184h1.568a3.807 3.807 0 0 1-1.408 2.064c-.704.523-1.579.784-2.624.784-.832 0-1.579-.187-2.24-.56a3.984 3.984 0 0 1-1.536-1.584c-.374-.693-.56-1.493-.56-2.4 0-.907.181-1.701.544-2.384a3.775 3.775 0 0 1 1.52-1.568c.661-.373 1.418-.56 2.272-.56.832 0 1.568.181 2.208.544.64.363 1.13.864 1.472 1.504.352.629.528 1.344.528 2.144Zm-1.504-.304c0-.555-.123-1.029-.368-1.424a2.327 2.327 0 0 0-1.008-.912 3.01 3.01 0 0 0-1.392-.32c-.736 0-1.366.235-1.888.704-.512.469-.806 1.12-.88 1.952h5.536Zm6.53 5.168c-.672 0-1.275-.112-1.808-.336-.534-.235-.955-.555-1.264-.96a2.59 2.59 0 0 1-.512-1.424h1.504c.042.437.245.795.608 1.072.373.277.858.416 1.456.416.554 0 .992-.123 1.312-.368.32-.245.48-.555.48-.928 0-.384-.171-.667-.512-.848-.342-.192-.87-.379-1.584-.56a13.017 13.017 0 0 1-1.6-.512 3.026 3.026 0 0 1-1.056-.784c-.288-.352-.432-.811-.432-1.376 0-.448.133-.859.4-1.232.266-.373.645-.667 1.136-.88.49-.224 1.05-.336 1.68-.336.97 0 1.754.245 2.352.736.597.491.917 1.163.96 2.016h-1.456a1.494 1.494 0 0 0-.56-1.104c-.331-.277-.779-.416-1.344-.416-.523 0-.939.112-1.248.336-.31.224-.464.517-.464.88 0 .288.09.528.272.72.192.181.426.331.704.448.288.107.682.229 1.184.368.629.171 1.141.341 1.536.512.394.16.73.405 1.008.736.288.331.437.763.448 1.296 0 .48-.134.912-.4 1.296-.267.384-.646.688-1.136.912-.48.213-1.035.32-1.664.32Zm7.031-7.712v5.168c0 .427.091.731.272.912.181.171.496.256.944.256h1.072V500h-1.312c-.811 0-1.419-.187-1.824-.56-.405-.373-.608-.987-.608-1.84v-5.168h-1.136v-1.2h1.136v-2.208h1.456v2.208h2.288v1.2h-2.288Zm7.156 7.712c-.672 0-1.275-.112-1.808-.336-.533-.235-.955-.555-1.264-.96a2.598 2.598 0 0 1-.512-1.424h1.504c.043.437.245.795.608 1.072.373.277.859.416 1.456.416.555 0 .992-.123 1.312-.368.32-.245.48-.555.48-.928 0-.384-.171-.667-.512-.848-.341-.192-.869-.379-1.584-.56a13.017 13.017 0 0 1-1.6-.512 3.044 3.044 0 0 1-1.056-.784c-.288-.352-.432-.811-.432-1.376 0-.448.133-.859.4-1.232s.645-.667 1.136-.88c.491-.224 1.051-.336 1.68-.336.971 0 1.755.245 2.352.736s.917 1.163.96 2.016h-1.456a1.494 1.494 0 0 0-.56-1.104c-.331-.277-.779-.416-1.344-.416-.523 0-.939.112-1.248.336-.309.224-.464.517-.464.88 0 .288.091.528.272.72.192.181.427.331.704.448.288.107.683.229 1.184.368.629.171 1.141.341 1.536.512.395.16.731.405 1.008.736.288.331.437.763.448 1.296 0 .48-.133.912-.4 1.296s-.645.688-1.136.912c-.48.213-1.035.32-1.664.32Z"/><g filter="url(#c)"><rect width="102" height="36" x="-67" y="214" fill="#fff" rx="8" shape-rendering="crispEdges"/></g><g filter="url(#d)"><rect width="101" height="33" x="45" y="214" fill="#fff" rx="8" shape-rendering="crispEdges"/><path fill="#000" d="M61 237.48h14v-14H61v14ZM87.116 225.242c1.064 0 1.983.201 2.758.602a4.091 4.091 0 0 1 1.792 1.694c.42.737.63 1.605.63 2.604 0 .999-.21 1.867-.63 2.604-.41.728-1.008 1.288-1.792 1.68-.775.383-1.694.574-2.758.574h-3.038v-9.758h3.038Zm0 8.708c1.26 0 2.221-.331 2.884-.994.663-.672.994-1.61.994-2.814 0-1.213-.336-2.161-1.008-2.842-.663-.681-1.62-1.022-2.87-1.022h-1.764v7.672h1.764Zm6.384-2.814c0-.784.16-1.47.476-2.058a3.463 3.463 0 0 1 1.302-1.386c.56-.327 1.181-.49 1.862-.49.672 0 1.256.145 1.75.434.495.289.864.653 1.106 1.092v-1.4h1.288V235h-1.288v-1.428c-.252.448-.63.821-1.134 1.12-.494.289-1.073.434-1.736.434a3.478 3.478 0 0 1-1.848-.504 3.534 3.534 0 0 1-1.302-1.414c-.317-.607-.476-1.297-.476-2.072Zm6.496.014c0-.579-.116-1.083-.35-1.512a2.411 2.411 0 0 0-.952-.98 2.5 2.5 0 0 0-1.302-.35c-.476 0-.91.112-1.302.336a2.44 2.44 0 0 0-.938.98c-.233.429-.35.933-.35 1.512 0 .588.117 1.101.35 1.54.234.429.546.761.938.994.392.224.826.336 1.302.336.476 0 .91-.112 1.302-.336.402-.233.72-.565.952-.994.234-.439.35-.947.35-1.526Zm4.995-2.772v4.522c0 .373.08.639.238.798.159.149.434.224.826.224h.938V235h-1.148c-.709 0-1.241-.163-1.596-.49-.354-.327-.532-.863-.532-1.61v-4.522h-.994v-1.05h.994v-1.932h1.274v1.932h2.002v1.05h-2.002Zm4.204-2.296a.837.837 0 0 1-.616-.252.837.837 0 0 1-.252-.616c0-.243.084-.448.252-.616a.837.837 0 0 1 .616-.252c.233 0 .429.084.588.252a.837.837 0 0 1 .252.616.837.837 0 0 1-.252.616.778.778 0 0 1-.588.252Zm.616 1.246V235h-1.274v-7.672h1.274Zm5.909-.14c.934 0 1.69.285 2.268.854.579.56.868 1.372.868 2.436V235h-1.26v-4.34c0-.765-.191-1.349-.574-1.75-.382-.411-.905-.616-1.568-.616-.672 0-1.208.21-1.61.63-.392.42-.588 1.031-.588 1.834V235h-1.274v-7.672h1.274v1.092a2.545 2.545 0 0 1 1.022-.91c.439-.215.92-.322 1.442-.322Zm8.381.014c.663 0 1.242.145 1.736.434.504.289.878.653 1.12 1.092v-1.4h1.288v7.84c0 .7-.149 1.321-.448 1.862-.298.551-.728.98-1.288 1.288-.55.308-1.194.462-1.932.462-1.008 0-1.848-.238-2.52-.714-.672-.476-1.068-1.125-1.19-1.946h1.26c.14.467.43.84.868 1.12.439.289.966.434 1.582.434.7 0 1.27-.219 1.708-.658.448-.439.672-1.055.672-1.848v-1.61c-.252.448-.625.821-1.12 1.12-.494.299-1.073.448-1.736.448a3.551 3.551 0 0 1-1.862-.504 3.542 3.542 0 0 1-1.302-1.414c-.317-.607-.476-1.297-.476-2.072 0-.784.159-1.47.476-2.058a3.471 3.471 0 0 1 1.302-1.386 3.625 3.625 0 0 1 1.862-.49Zm2.856 3.948c0-.579-.116-1.083-.35-1.512a2.405 2.405 0 0 0-.952-.98 2.5 2.5 0 0 0-1.302-.35c-.476 0-.91.112-1.302.336a2.444 2.444 0 0 0-.938.98c-.233.429-.35.933-.35 1.512 0 .588.117 1.101.35 1.54.234.429.546.761.938.994.392.224.826.336 1.302.336.476 0 .91-.112 1.302-.336.402-.233.719-.565.952-.994.234-.439.35-.947.35-1.526Z"/></g><g filter="url(#e)"><rect width="99" height="33" x="53" y="262" fill="#fff" rx="8" shape-rendering="crispEdges"/><path fill="#000" d="M69 285.48h14v-14H69v14ZM96.502 283.098c-.905 0-1.731-.21-2.478-.63a4.778 4.778 0 0 1-1.778-1.778c-.43-.765-.644-1.624-.644-2.576s.215-1.806.644-2.562a4.65 4.65 0 0 1 1.778-1.778 4.886 4.886 0 0 1 2.478-.644c.915 0 1.745.215 2.492.644a4.574 4.574 0 0 1 1.764 1.764c.429.756.644 1.615.644 2.576 0 .961-.215 1.82-.644 2.576a4.673 4.673 0 0 1-1.764 1.778c-.747.42-1.577.63-2.492.63Zm0-1.106c.681 0 1.293-.159 1.834-.476.55-.317.98-.77 1.288-1.358.317-.588.476-1.269.476-2.044 0-.784-.159-1.465-.476-2.044a3.316 3.316 0 0 0-1.274-1.358c-.541-.317-1.157-.476-1.848-.476-.69 0-1.307.159-1.848.476a3.41 3.41 0 0 0-1.288 1.358c-.308.579-.462 1.26-.462 2.044 0 .775.154 1.456.462 2.044a3.41 3.41 0 0 0 1.288 1.358c.55.317 1.167.476 1.848.476Zm10.32-6.804c.933 0 1.689.285 2.268.854.579.56.868 1.372.868 2.436V283h-1.26v-4.34c0-.765-.191-1.349-.574-1.75-.383-.411-.905-.616-1.568-.616-.672 0-1.209.21-1.61.63-.392.42-.588 1.031-.588 1.834V283h-1.274v-7.672h1.274v1.092a2.545 2.545 0 0 1 1.022-.91 3.231 3.231 0 0 1 1.442-.322Zm6.491-2.548V283h-1.274v-10.36h1.274Zm2.829 1.442a.839.839 0 0 1-.616-.252.837.837 0 0 1-.252-.616c0-.243.084-.448.252-.616a.839.839 0 0 1 .616-.252c.234 0 .43.084.588.252a.837.837 0 0 1 .252.616.837.837 0 0 1-.252.616.775.775 0 0 1-.588.252Zm.616 1.246V283h-1.274v-7.672h1.274Zm5.91-.14c.933 0 1.689.285 2.268.854.578.56.868 1.372.868 2.436V283h-1.26v-4.34c0-.765-.192-1.349-.574-1.75-.383-.411-.906-.616-1.568-.616-.672 0-1.209.21-1.61.63-.392.42-.588 1.031-.588 1.834V283h-1.274v-7.672h1.274v1.092a2.538 2.538 0 0 1 1.022-.91 3.228 3.228 0 0 1 1.442-.322Zm12.217 3.682c0 .243-.014.499-.042.77h-6.132c.046.756.303 1.349.77 1.778.476.42 1.05.63 1.722.63.55 0 1.008-.126 1.372-.378.373-.261.634-.607.784-1.036h1.372a3.338 3.338 0 0 1-1.232 1.806c-.616.457-1.382.686-2.296.686-.728 0-1.382-.163-1.96-.49a3.49 3.49 0 0 1-1.344-1.386c-.327-.607-.49-1.307-.49-2.1 0-.793.158-1.489.476-2.086a3.303 3.303 0 0 1 1.33-1.372c.578-.327 1.241-.49 1.988-.49.728 0 1.372.159 1.932.476.56.317.989.756 1.288 1.316.308.551.462 1.176.462 1.876Zm-1.316-.266c0-.485-.108-.901-.322-1.246a2.026 2.026 0 0 0-.882-.798 2.626 2.626 0 0 0-1.218-.28c-.644 0-1.195.205-1.652.616-.448.411-.705.98-.77 1.708h4.844Z"/></g><g filter="url(#f)"><rect width="193" height="33" x="167" y="214" fill="#fff" rx="8" shape-rendering="crispEdges"/><path fill="#000" d="M183 237.48h14v-14h-14v14ZM214.142 225.242 210.46 235h-1.47l-3.682-9.758h1.358l3.066 8.414 3.066-8.414h1.344Zm8.397 5.628c0 .243-.014.499-.042.77h-6.132c.047.756.303 1.349.77 1.778.476.42 1.05.63 1.722.63.551 0 1.008-.126 1.372-.378.373-.261.635-.607.784-1.036h1.372a3.332 3.332 0 0 1-1.232 1.806c-.616.457-1.381.686-2.296.686-.728 0-1.381-.163-1.96-.49a3.503 3.503 0 0 1-1.344-1.386c-.327-.607-.49-1.307-.49-2.1 0-.793.159-1.489.476-2.086a3.309 3.309 0 0 1 1.33-1.372c.579-.327 1.241-.49 1.988-.49.728 0 1.372.159 1.932.476.56.317.989.756 1.288 1.316.308.551.462 1.176.462 1.876Zm-1.316-.266c0-.485-.107-.901-.322-1.246a2.026 2.026 0 0 0-.882-.798 2.626 2.626 0 0 0-1.218-.28c-.644 0-1.195.205-1.652.616-.448.411-.705.98-.77 1.708h4.844Zm6.162-3.402c.662 0 1.241.145 1.736.434.504.289.877.653 1.12 1.092v-1.4h1.288v7.84c0 .7-.15 1.321-.448 1.862a3.17 3.17 0 0 1-1.288 1.288c-.551.308-1.195.462-1.932.462-1.008 0-1.848-.238-2.52-.714a2.79 2.79 0 0 1-1.19-1.946h1.26c.14.467.429.84.868 1.12.438.289.966.434 1.582.434.7 0 1.269-.219 1.708-.658.448-.439.672-1.055.672-1.848v-1.61c-.252.448-.626.821-1.12 1.12-.495.299-1.074.448-1.736.448a3.548 3.548 0 0 1-1.862-.504 3.528 3.528 0 0 1-1.302-1.414c-.318-.607-.476-1.297-.476-2.072 0-.784.158-1.47.476-2.058a3.458 3.458 0 0 1 1.302-1.386c.56-.327 1.18-.49 1.862-.49Zm2.856 3.948c0-.579-.117-1.083-.35-1.512a2.418 2.418 0 0 0-.952-.98 2.5 2.5 0 0 0-1.302-.35c-.476 0-.91.112-1.302.336a2.438 2.438 0 0 0-.938.98c-.234.429-.35.933-.35 1.512 0 .588.116 1.101.35 1.54.233.429.546.761.938.994.392.224.826.336 1.302.336.476 0 .91-.112 1.302-.336.401-.233.718-.565.952-.994.233-.439.35-.947.35-1.526Zm2.965-.014c0-.784.158-1.47.476-2.058a3.458 3.458 0 0 1 1.302-1.386c.56-.327 1.18-.49 1.862-.49.672 0 1.255.145 1.75.434.494.289.863.653 1.106 1.092v-1.4h1.288V235h-1.288v-1.428c-.252.448-.63.821-1.134 1.12-.495.289-1.074.434-1.736.434a3.474 3.474 0 0 1-1.848-.504 3.528 3.528 0 0 1-1.302-1.414c-.318-.607-.476-1.297-.476-2.072Zm6.496.014c0-.579-.117-1.083-.35-1.512a2.418 2.418 0 0 0-.952-.98 2.5 2.5 0 0 0-1.302-.35c-.476 0-.91.112-1.302.336a2.438 2.438 0 0 0-.938.98c-.234.429-.35.933-.35 1.512 0 .588.116 1.101.35 1.54.233.429.546.761.938.994.392.224.826.336 1.302.336.476 0 .91-.112 1.302-.336.401-.233.718-.565.952-.994.233-.439.35-.947.35-1.526Zm7.178-3.962c.934 0 1.69.285 2.268.854.579.56.868 1.372.868 2.436V235h-1.26v-4.34c0-.765-.191-1.349-.574-1.75-.382-.411-.905-.616-1.568-.616-.672 0-1.208.21-1.61.63-.392.42-.588 1.031-.588 1.834V235h-1.274v-7.672h1.274v1.092a2.545 2.545 0 0 1 1.022-.91c.439-.215.92-.322 1.442-.322Zm9.978-5.376-3.836 15.568h-1.26l3.822-15.568h1.274Zm9.962 3.43L263.138 235h-1.47l-3.682-9.758h1.358l3.066 8.414 3.066-8.414h1.344Zm8.397 5.628c0 .243-.014.499-.042.77h-6.132c.046.756.303 1.349.77 1.778.476.42 1.05.63 1.722.63.55 0 1.008-.126 1.372-.378.373-.261.634-.607.784-1.036h1.372a3.338 3.338 0 0 1-1.232 1.806c-.616.457-1.382.686-2.296.686-.728 0-1.382-.163-1.96-.49a3.49 3.49 0 0 1-1.344-1.386c-.327-.607-.49-1.307-.49-2.1 0-.793.158-1.489.476-2.086a3.303 3.303 0 0 1 1.33-1.372c.578-.327 1.241-.49 1.988-.49.728 0 1.372.159 1.932.476.56.317.989.756 1.288 1.316.308.551.462 1.176.462 1.876Zm-1.316-.266c0-.485-.108-.901-.322-1.246a2.026 2.026 0 0 0-.882-.798 2.626 2.626 0 0 0-1.218-.28c-.644 0-1.195.205-1.652.616-.448.411-.705.98-.77 1.708h4.844Zm4.551-2.226v4.522c0 .373.08.639.238.798.159.149.434.224.826.224h.938V235h-1.148c-.709 0-1.241-.163-1.596-.49-.354-.327-.532-.863-.532-1.61v-4.522h-.994v-1.05h.994v-1.932h1.274v1.932h2.002v1.05h-2.002Zm10.546 2.492c0 .243-.014.499-.042.77h-6.132c.047.756.303 1.349.77 1.778.476.42 1.05.63 1.722.63.551 0 1.008-.126 1.372-.378.373-.261.635-.607.784-1.036h1.372a3.332 3.332 0 0 1-1.232 1.806c-.616.457-1.381.686-2.296.686-.728 0-1.381-.163-1.96-.49a3.503 3.503 0 0 1-1.344-1.386c-.327-.607-.49-1.307-.49-2.1 0-.793.159-1.489.476-2.086a3.309 3.309 0 0 1 1.33-1.372c.579-.327 1.241-.49 1.988-.49.728 0 1.372.159 1.932.476.56.317.989.756 1.288 1.316.308.551.462 1.176.462 1.876Zm-1.316-.266c0-.485-.107-.901-.322-1.246a2.026 2.026 0 0 0-.882-.798 2.626 2.626 0 0 0-1.218-.28c-.644 0-1.195.205-1.652.616-.448.411-.705.98-.77 1.708h4.844Zm4.272-2.03c.224-.439.541-.779.952-1.022.42-.243.928-.364 1.526-.364v1.316h-.336c-1.428 0-2.142.775-2.142 2.324V235h-1.274v-7.672h1.274v1.246Zm4.606-2.492a.839.839 0 0 1-.616-.252.837.837 0 0 1-.252-.616c0-.243.084-.448.252-.616a.839.839 0 0 1 .616-.252c.234 0 .43.084.588.252a.837.837 0 0 1 .252.616.837.837 0 0 1-.252.616.775.775 0 0 1-.588.252Zm.616 1.246V235h-1.274v-7.672h1.274Zm5.91-.14c.933 0 1.689.285 2.268.854.578.56.868 1.372.868 2.436V235h-1.26v-4.34c0-.765-.192-1.349-.574-1.75-.383-.411-.906-.616-1.568-.616-.672 0-1.209.21-1.61.63-.392.42-.588 1.031-.588 1.834V235h-1.274v-7.672h1.274v1.092a2.538 2.538 0 0 1 1.022-.91 3.228 3.228 0 0 1 1.442-.322Zm4.741 3.948c0-.784.158-1.47.476-2.058a3.458 3.458 0 0 1 1.302-1.386c.56-.327 1.18-.49 1.862-.49.672 0 1.255.145 1.75.434.494.289.863.653 1.106 1.092v-1.4h1.288V235h-1.288v-1.428c-.252.448-.63.821-1.134 1.12-.495.289-1.074.434-1.736.434a3.474 3.474 0 0 1-1.848-.504 3.528 3.528 0 0 1-1.302-1.414c-.318-.607-.476-1.297-.476-2.072Zm6.496.014c0-.579-.117-1.083-.35-1.512a2.418 2.418 0 0 0-.952-.98 2.5 2.5 0 0 0-1.302-.35c-.476 0-.91.112-1.302.336a2.438 2.438 0 0 0-.938.98c-.234.429-.35.933-.35 1.512 0 .588.116 1.101.35 1.54.233.429.546.761.938.994.392.224.826.336 1.302.336.476 0 .91-.112 1.302-.336.401-.233.718-.565.952-.994.233-.439.35-.947.35-1.526Zm4.715-2.576c.224-.439.541-.779.952-1.022.42-.243.928-.364 1.526-.364v1.316h-.336c-1.428 0-2.142.775-2.142 2.324V235h-1.274v-7.672h1.274v1.246Zm4.606-2.492a.839.839 0 0 1-.616-.252.837.837 0 0 1-.252-.616c0-.243.084-.448.252-.616a.839.839 0 0 1 .616-.252c.234 0 .43.084.588.252a.837.837 0 0 1 .252.616.837.837 0 0 1-.252.616.775.775 0 0 1-.588.252Zm.616 1.246V235h-1.274v-7.672h1.274Zm1.696 3.808c0-.784.158-1.47.476-2.058a3.458 3.458 0 0 1 1.302-1.386c.56-.327 1.18-.49 1.862-.49.672 0 1.255.145 1.75.434.494.289.863.653 1.106 1.092v-1.4h1.288V235h-1.288v-1.428c-.252.448-.63.821-1.134 1.12-.495.289-1.074.434-1.736.434a3.474 3.474 0 0 1-1.848-.504 3.528 3.528 0 0 1-1.302-1.414c-.318-.607-.476-1.297-.476-2.072Zm6.496.014c0-.579-.117-1.083-.35-1.512a2.418 2.418 0 0 0-.952-.98 2.5 2.5 0 0 0-1.302-.35c-.476 0-.91.112-1.302.336a2.438 2.438 0 0 0-.938.98c-.234.429-.35.933-.35 1.512 0 .588.116 1.101.35 1.54.233.429.546.761.938.994.392.224.826.336 1.302.336.476 0 .91-.112 1.302-.336.401-.233.718-.565.952-.994.233-.439.35-.947.35-1.526Zm7.178-3.962c.934 0 1.69.285 2.268.854.579.56.868 1.372.868 2.436V235h-1.26v-4.34c0-.765-.191-1.349-.574-1.75-.382-.411-.905-.616-1.568-.616-.672 0-1.208.21-1.61.63-.392.42-.588 1.031-.588 1.834V235h-1.274v-7.672h1.274v1.092a2.545 2.545 0 0 1 1.022-.91c.439-.215.92-.322 1.442-.322Z"/></g><g filter="url(#g)"><rect width="102" height="33" x="173" y="262" fill="#fff" rx="8" shape-rendering="crispEdges"/><path fill="#000" d="M189 285.48h14v-14h-14v14ZM219.75 283h-1.274l-5.124-7.77V283h-1.274v-9.772h1.274l5.124 7.756v-7.756h1.274V283Zm1.696-3.864c0-.784.158-1.47.476-2.058a3.458 3.458 0 0 1 1.302-1.386c.56-.327 1.18-.49 1.862-.49.672 0 1.255.145 1.75.434.494.289.863.653 1.106 1.092v-1.4h1.288V283h-1.288v-1.428c-.252.448-.63.821-1.134 1.12-.495.289-1.074.434-1.736.434a3.474 3.474 0 0 1-1.848-.504 3.528 3.528 0 0 1-1.302-1.414c-.318-.607-.476-1.297-.476-2.072Zm6.496.014c0-.579-.117-1.083-.35-1.512a2.418 2.418 0 0 0-.952-.98 2.5 2.5 0 0 0-1.302-.35c-.476 0-.91.112-1.302.336a2.438 2.438 0 0 0-.938.98c-.234.429-.35.933-.35 1.512 0 .588.116 1.101.35 1.54.233.429.546.761.938.994.392.224.826.336 1.302.336.476 0 .91-.112 1.302-.336.401-.233.718-.565.952-.994.233-.439.35-.947.35-1.526Zm4.995-2.772v4.522c0 .373.079.639.238.798.158.149.434.224.826.224h.938V283h-1.148c-.71 0-1.242-.163-1.596-.49-.355-.327-.532-.863-.532-1.61v-4.522h-.994v-1.05h.994v-1.932h1.274v1.932h2.002v1.05h-2.002Zm10.349-1.05V283h-1.274v-1.134c-.242.392-.583.7-1.022.924a3.142 3.142 0 0 1-1.428.322 3.49 3.49 0 0 1-1.61-.364 2.784 2.784 0 0 1-1.134-1.12c-.27-.495-.406-1.097-.406-1.806v-4.494h1.26v4.326c0 .756.192 1.339.574 1.75.383.401.906.602 1.568.602.682 0 1.218-.21 1.61-.63.392-.42.588-1.031.588-1.834v-4.214h1.274Zm3.425 1.246c.224-.439.542-.779.952-1.022.42-.243.929-.364 1.526-.364v1.316h-.336c-1.428 0-2.142.775-2.142 2.324V283h-1.274v-7.672h1.274v1.246Zm10.949 2.296c0 .243-.014.499-.042.77h-6.132c.047.756.303 1.349.77 1.778.476.42 1.05.63 1.722.63.551 0 1.008-.126 1.372-.378.373-.261.635-.607.784-1.036h1.372a3.332 3.332 0 0 1-1.232 1.806c-.616.457-1.381.686-2.296.686-.728 0-1.381-.163-1.96-.49a3.503 3.503 0 0 1-1.344-1.386c-.327-.607-.49-1.307-.49-2.1 0-.793.159-1.489.476-2.086a3.309 3.309 0 0 1 1.33-1.372c.579-.327 1.241-.49 1.988-.49.728 0 1.372.159 1.932.476.56.317.989.756 1.288 1.316.308.551.462 1.176.462 1.876Zm-1.316-.266c0-.485-.107-.901-.322-1.246a2.026 2.026 0 0 0-.882-.798 2.626 2.626 0 0 0-1.218-.28c-.644 0-1.195.205-1.652.616-.448.411-.705.98-.77 1.708h4.844Z"/></g><g filter="url(#h)"><rect width="101" height="33" x="-67" y="262" fill="#fff" rx="8" shape-rendering="crispEdges"/></g><g filter="url(#i)"><rect width="127" height="33" x="-67" y="358" fill="#fff" rx="8" shape-rendering="crispEdges"/><path fill="#000" d="M-24.648 370.278v3.262h3.556v1.05h-3.556v3.36h3.976V379h-5.25v-9.772h5.25v1.05h-3.976Zm5.428 4.858c0-.784.158-1.47.476-2.058a3.463 3.463 0 0 1 1.302-1.386 3.651 3.651 0 0 1 1.876-.49c.597 0 1.152.14 1.666.42.513.271.905.63 1.176 1.078v-4.06h1.288V379h-1.288v-1.442c-.252.457-.626.835-1.12 1.134-.495.289-1.074.434-1.736.434a3.55 3.55 0 0 1-1.862-.504 3.534 3.534 0 0 1-1.302-1.414c-.318-.607-.476-1.297-.476-2.072Zm6.496.014c0-.579-.117-1.083-.35-1.512a2.411 2.411 0 0 0-.952-.98 2.5 2.5 0 0 0-1.302-.35c-.476 0-.91.112-1.302.336a2.44 2.44 0 0 0-.938.98c-.234.429-.35.933-.35 1.512 0 .588.116 1.101.35 1.54.233.429.546.761.938.994.392.224.826.336 1.302.336.476 0 .91-.112 1.302-.336.401-.233.718-.565.952-.994.233-.439.35-.947.35-1.526Zm10.245-3.822V379h-1.274v-1.134c-.243.392-.584.7-1.022.924-.43.215-.906.322-1.428.322a3.49 3.49 0 0 1-1.61-.364 2.784 2.784 0 0 1-1.134-1.12c-.271-.495-.406-1.097-.406-1.806v-4.494h1.26v4.326c0 .756.191 1.339.574 1.75.382.401.905.602 1.568.602.681 0 1.218-.21 1.61-.63.392-.42.588-1.031.588-1.834v-4.214h1.274Zm1.675 3.822c0-.793.158-1.484.476-2.072a3.432 3.432 0 0 1 1.316-1.386c.57-.327 1.218-.49 1.946-.49.942 0 1.717.229 2.324.686.616.457 1.022 1.092 1.218 1.904H5.104a1.959 1.959 0 0 0-.77-1.106c-.374-.271-.84-.406-1.4-.406-.728 0-1.316.252-1.764.756-.448.495-.672 1.199-.672 2.114 0 .924.224 1.638.672 2.142.448.504 1.036.756 1.764.756.56 0 1.026-.131 1.4-.392.373-.261.63-.635.77-1.12h1.372c-.206.784-.616 1.414-1.232 1.89-.616.467-1.386.7-2.31.7-.728 0-1.377-.163-1.946-.49a3.432 3.432 0 0 1-1.316-1.386c-.318-.597-.476-1.297-.476-2.1Zm8.504-.014c0-.784.158-1.47.476-2.058a3.462 3.462 0 0 1 1.302-1.386c.56-.327 1.18-.49 1.862-.49.672 0 1.255.145 1.75.434.494.289.863.653 1.106 1.092v-1.4h1.288V379h-1.288v-1.428c-.252.448-.63.821-1.134 1.12-.495.289-1.074.434-1.736.434a3.478 3.478 0 0 1-1.848-.504 3.533 3.533 0 0 1-1.302-1.414c-.318-.607-.476-1.297-.476-2.072Zm6.496.014c0-.579-.117-1.083-.35-1.512a2.412 2.412 0 0 0-.952-.98 2.5 2.5 0 0 0-1.302-.35c-.476 0-.91.112-1.302.336a2.44 2.44 0 0 0-.938.98c-.234.429-.35.933-.35 1.512 0 .588.116 1.101.35 1.54.233.429.546.761.938.994.392.224.826.336 1.302.336.476 0 .91-.112 1.302-.336.401-.233.718-.565.952-.994.233-.439.35-.947.35-1.526Zm4.995-2.772v4.522c0 .373.079.639.238.798.158.149.434.224.826.224h.938V379h-1.148c-.71 0-1.242-.163-1.596-.49-.355-.327-.532-.863-.532-1.61v-4.522h-.994v-1.05h.994v-1.932h1.274v1.932h2.002v1.05H19.19Zm4.203-2.296a.838.838 0 0 1-.616-.252.837.837 0 0 1-.252-.616c0-.243.084-.448.252-.616a.838.838 0 0 1 .616-.252c.234 0 .43.084.588.252a.837.837 0 0 1 .252.616.837.837 0 0 1-.252.616.777.777 0 0 1-.588.252Zm.616 1.246V379h-1.274v-7.672h1.274Zm5.517 7.798a3.963 3.963 0 0 1-1.96-.49 3.566 3.566 0 0 1-1.372-1.386c-.326-.607-.49-1.307-.49-2.1 0-.784.169-1.475.505-2.072a3.503 3.503 0 0 1 1.4-1.386c.588-.327 1.245-.49 1.974-.49.727 0 1.386.163 1.974.49a3.44 3.44 0 0 1 1.386 1.372c.345.597.517 1.293.517 2.086 0 .793-.177 1.493-.532 2.1a3.609 3.609 0 0 1-1.414 1.386 4.07 4.07 0 0 1-1.988.49Zm0-1.12c.458 0 .887-.107 1.288-.322a2.41 2.41 0 0 0 .966-.966c.252-.429.379-.952.379-1.568 0-.616-.122-1.139-.364-1.568-.243-.429-.56-.747-.953-.952a2.606 2.606 0 0 0-1.273-.322c-.467 0-.896.107-1.288.322-.383.205-.691.523-.924.952-.234.429-.35.952-.35 1.568 0 .625.111 1.153.335 1.582.234.429.542.751.924.966.383.205.803.308 1.26.308Zm9.348-6.818c.933 0 1.689.285 2.268.854.578.56.868 1.372.868 2.436V379h-1.26v-4.34c0-.765-.192-1.349-.574-1.75-.383-.411-.906-.616-1.568-.616-.672 0-1.21.21-1.61.63-.392.42-.588 1.031-.588 1.834V379h-1.274v-7.672h1.274v1.092a2.543 2.543 0 0 1 1.022-.91c.438-.215.919-.322 1.442-.322Z"/></g><g filter="url(#j)"><rect width="83" height="33" x="67" y="310" fill="#fff" rx="8" shape-rendering="crispEdges"/><path fill="#000" d="M83 333.48h14v-14H83v14Z"/><a><path fill="none" d="M0 0h14v14H0z"/></a><path fill="#000" d="m111.37 331-4.018-4.452V331h-1.274v-9.758h1.274v4.522l4.032-4.522h1.61l-4.424 4.886 4.466 4.872h-1.666Zm3.747-8.918a.837.837 0 0 1-.616-.252.837.837 0 0 1-.252-.616c0-.243.084-.448.252-.616a.837.837 0 0 1 .616-.252c.233 0 .429.084.588.252a.837.837 0 0 1 .252.616.837.837 0 0 1-.252.616.778.778 0 0 1-.588.252Zm.616 1.246V331h-1.274v-7.672h1.274Zm1.695 3.808c0-.784.159-1.47.476-2.058a3.471 3.471 0 0 1 1.302-1.386 3.653 3.653 0 0 1 1.876-.49c.598 0 1.153.14 1.666.42.514.271.906.63 1.176 1.078v-4.06h1.288V331h-1.288v-1.442a3.034 3.034 0 0 1-1.12 1.134c-.494.289-1.073.434-1.736.434a3.551 3.551 0 0 1-1.862-.504 3.542 3.542 0 0 1-1.302-1.414c-.317-.607-.476-1.297-.476-2.072Zm6.496.014c0-.579-.116-1.083-.35-1.512a2.405 2.405 0 0 0-.952-.98 2.5 2.5 0 0 0-1.302-.35c-.476 0-.91.112-1.302.336a2.444 2.444 0 0 0-.938.98c-.233.429-.35.933-.35 1.512 0 .588.117 1.101.35 1.54.234.429.546.761.938.994.392.224.826.336 1.302.336.476 0 .91-.112 1.302-.336.402-.233.719-.565.952-.994.234-.439.35-.947.35-1.526Zm6.157 3.976a4.052 4.052 0 0 1-1.582-.294c-.467-.205-.835-.485-1.106-.84a2.267 2.267 0 0 1-.448-1.246h1.316c.037.383.215.695.532.938.327.243.751.364 1.274.364.485 0 .868-.107 1.148-.322.28-.215.42-.485.42-.812a.786.786 0 0 0-.448-.742c-.299-.168-.761-.331-1.386-.49a11.425 11.425 0 0 1-1.4-.448 2.652 2.652 0 0 1-.924-.686c-.252-.308-.378-.709-.378-1.204 0-.392.117-.751.35-1.078.233-.327.565-.583.994-.77.429-.196.919-.294 1.47-.294.849 0 1.535.215 2.058.644.523.429.803 1.017.84 1.764h-1.274a1.307 1.307 0 0 0-.49-.966c-.289-.243-.681-.364-1.176-.364-.457 0-.821.098-1.092.294-.271.196-.406.453-.406.77a.88.88 0 0 0 .238.63c.168.159.373.289.616.392.252.093.597.201 1.036.322.551.149.999.299 1.344.448.345.14.639.355.882.644.252.289.383.667.392 1.134 0 .42-.117.798-.35 1.134-.233.336-.565.602-.994.798-.42.187-.905.28-1.456.28Z"/></g><g filter="url(#k)"><rect width="113" height="33" x="-67" y="406" fill="#fff" rx="8" shape-rendering="crispEdges"/><path fill="#000" d="M-18.53 420.07a2.992 2.992 0 0 0-1.176-1.316c-.513-.317-1.11-.476-1.792-.476-.681 0-1.297.159-1.848.476-.541.308-.97.756-1.288 1.344-.308.579-.462 1.251-.462 2.016 0 .765.154 1.437.462 2.016a3.431 3.431 0 0 0 1.288 1.344 3.72 3.72 0 0 0 1.848.462c.952 0 1.736-.285 2.352-.854.616-.569.975-1.339 1.078-2.31h-3.892v-1.036h5.25v.98a4.89 4.89 0 0 1-.756 2.212 4.75 4.75 0 0 1-1.694 1.582c-.7.383-1.48.574-2.338.574-.905 0-1.731-.21-2.478-.63a4.778 4.778 0 0 1-1.778-1.778c-.43-.756-.644-1.61-.644-2.562 0-.952.215-1.806.644-2.562a4.65 4.65 0 0 1 1.778-1.778 4.886 4.886 0 0 1 2.478-.644c1.036 0 1.95.257 2.744.77.803.513 1.386 1.237 1.75 2.17h-1.526Zm3.029 3.066c0-.784.158-1.47.476-2.058a3.462 3.462 0 0 1 1.302-1.386c.56-.327 1.18-.49 1.862-.49.671 0 1.255.145 1.75.434.494.289.863.653 1.105 1.092v-1.4h1.288V427h-1.288v-1.428c-.252.448-.63.821-1.133 1.12-.495.289-1.074.434-1.737.434a3.478 3.478 0 0 1-1.848-.504 3.532 3.532 0 0 1-1.301-1.414c-.318-.607-.476-1.297-.476-2.072Zm6.495.014c0-.579-.116-1.083-.35-1.512a2.412 2.412 0 0 0-.951-.98 2.5 2.5 0 0 0-1.303-.35c-.476 0-.91.112-1.302.336a2.44 2.44 0 0 0-.938.98c-.233.429-.35.933-.35 1.512 0 .588.117 1.101.35 1.54.234.429.546.761.938.994.393.224.827.336 1.303.336s.91-.112 1.302-.336c.4-.233.718-.565.951-.994.234-.439.35-.947.35-1.526Zm12.667-3.962c.598 0 1.13.126 1.596.378.467.243.836.611 1.106 1.106.271.495.406 1.097.406 1.806V427H5.51v-4.34c0-.765-.19-1.349-.574-1.75-.373-.411-.882-.616-1.526-.616-.662 0-1.19.215-1.582.644-.392.42-.588 1.031-.588 1.834V427H-.02v-4.34c0-.765-.19-1.349-.574-1.75-.373-.411-.882-.616-1.526-.616-.662 0-1.19.215-1.582.644-.392.42-.588 1.031-.588 1.834V427h-1.274v-7.672h1.274v1.106a2.534 2.534 0 0 1 1.008-.924c.43-.215.901-.322 1.414-.322.644 0 1.214.145 1.708.434.495.289.864.714 1.106 1.274a2.52 2.52 0 0 1 1.064-1.26 3.131 3.131 0 0 1 1.652-.448Zm5.856-1.106a.838.838 0 0 1-.616-.252.837.837 0 0 1-.252-.616c0-.243.084-.448.252-.616a.838.838 0 0 1 .616-.252c.234 0 .43.084.588.252a.837.837 0 0 1 .252.616.837.837 0 0 1-.252.616.777.777 0 0 1-.588.252Zm.616 1.246V427H8.86v-7.672h1.274Zm5.91-.14c.933 0 1.689.285 2.268.854.578.56.868 1.372.868 2.436V427h-1.26v-4.34c0-.765-.192-1.349-.574-1.75-.383-.411-.906-.616-1.568-.616-.672 0-1.21.21-1.61.63-.392.42-.588 1.031-.588 1.834V427h-1.274v-7.672h1.274v1.092a2.542 2.542 0 0 1 1.022-.91c.438-.215.919-.322 1.442-.322Zm8.38.014c.663 0 1.242.145 1.737.434.504.289.877.653 1.12 1.092v-1.4h1.288v7.84c0 .7-.15 1.321-.448 1.862-.299.551-.728.98-1.288 1.288-.551.308-1.195.462-1.932.462-1.008 0-1.848-.238-2.52-.714a2.791 2.791 0 0 1-1.19-1.946h1.26c.14.467.429.84.868 1.12.438.289.966.434 1.582.434.7 0 1.269-.219 1.708-.658.448-.439.672-1.055.672-1.848v-1.61c-.252.448-.626.821-1.12 1.12-.495.299-1.074.448-1.736.448a3.55 3.55 0 0 1-1.862-.504 3.534 3.534 0 0 1-1.302-1.414c-.318-.607-.476-1.297-.476-2.072 0-.784.158-1.47.476-2.058a3.463 3.463 0 0 1 1.302-1.386c.56-.327 1.18-.49 1.862-.49Zm2.857 3.948c0-.579-.117-1.083-.35-1.512a2.411 2.411 0 0 0-.952-.98 2.5 2.5 0 0 0-1.302-.35c-.476 0-.91.112-1.302.336a2.44 2.44 0 0 0-.938.98c-.234.429-.35.933-.35 1.512 0 .588.116 1.101.35 1.54.233.429.546.761.938.994.392.224.826.336 1.302.336.476 0 .91-.112 1.302-.336.401-.233.718-.565.952-.994.233-.439.35-.947.35-1.526Z"/></g><rect width="132" height="36" x="169" y="310" fill="#9F56FF" rx="8"/><path fill="#fff" d="m198.414 328 2.829-2.828a1 1 0 1 0-1.415-1.415L197 326.586l-2.828-2.829a1 1 0 1 0-1.415 1.415l2.829 2.828-2.829 2.828a1 1 0 0 0 .707 1.708 1 1 0 0 0 .708-.293l2.828-2.829 2.828 2.829a1 1 0 0 0 1.708-.708 1 1 0 0 0-.293-.707L198.414 328ZM197 338c-5.523 0-10-4.477-10-10s4.477-10 10-10 10 4.477 10 10-4.477 10-10 10Z"/><path fill="#000" d="M217 334.98h14v-14h-14v14Z"/><path fill="#fff" d="M243.116 322.742c1.064 0 1.983.201 2.758.602a4.093 4.093 0 0 1 1.792 1.694c.42.737.63 1.605.63 2.604 0 .999-.21 1.867-.63 2.604-.411.728-1.008 1.288-1.792 1.68-.775.383-1.694.574-2.758.574h-3.038v-9.758h3.038Zm0 8.708c1.26 0 2.221-.331 2.884-.994.663-.672.994-1.61.994-2.814 0-1.213-.336-2.161-1.008-2.842-.663-.681-1.619-1.022-2.87-1.022h-1.764v7.672h1.764Zm6.384-2.814c0-.784.159-1.47.476-2.058a3.471 3.471 0 0 1 1.302-1.386 3.625 3.625 0 0 1 1.862-.49c.672 0 1.256.145 1.75.434.495.289.864.653 1.106 1.092v-1.4h1.288v7.672h-1.288v-1.428c-.252.448-.63.821-1.134 1.12-.494.289-1.073.434-1.736.434a3.48 3.48 0 0 1-1.848-.504 3.542 3.542 0 0 1-1.302-1.414c-.317-.607-.476-1.297-.476-2.072Zm6.496.014c0-.579-.116-1.083-.35-1.512a2.405 2.405 0 0 0-.952-.98 2.5 2.5 0 0 0-1.302-.35c-.476 0-.91.112-1.302.336a2.444 2.444 0 0 0-.938.98c-.233.429-.35.933-.35 1.512 0 .588.117 1.101.35 1.54.234.429.546.761.938.994.392.224.826.336 1.302.336.476 0 .91-.112 1.302-.336.402-.233.719-.565.952-.994.234-.439.35-.947.35-1.526Zm7.179-3.962c.934 0 1.69.285 2.268.854.579.56.868 1.372.868 2.436v4.522h-1.26v-4.34c0-.765-.191-1.349-.574-1.75-.382-.411-.905-.616-1.568-.616-.672 0-1.208.21-1.61.63-.392.42-.588 1.031-.588 1.834v4.242h-1.274v-7.672h1.274v1.092a2.545 2.545 0 0 1 1.022-.91c.439-.215.92-.322 1.442-.322Zm4.741 3.962c0-.793.159-1.484.476-2.072a3.436 3.436 0 0 1 1.316-1.386c.57-.327 1.218-.49 1.946-.49.943 0 1.718.229 2.324.686.616.457 1.022 1.092 1.218 1.904h-1.372a1.954 1.954 0 0 0-.77-1.106c-.373-.271-.84-.406-1.4-.406-.728 0-1.316.252-1.764.756-.448.495-.672 1.199-.672 2.114 0 .924.224 1.638.672 2.142.448.504 1.036.756 1.764.756.56 0 1.027-.131 1.4-.392.374-.261.63-.635.77-1.12h1.372c-.205.784-.616 1.414-1.232 1.89-.616.467-1.386.7-2.31.7-.728 0-1.376-.163-1.946-.49a3.436 3.436 0 0 1-1.316-1.386c-.317-.597-.476-1.297-.476-2.1Zm15.98-.28c0 .243-.014.499-.042.77h-6.132c.047.756.304 1.349.77 1.778.476.42 1.05.63 1.722.63.551 0 1.008-.126 1.372-.378.374-.261.635-.607.784-1.036h1.372a3.332 3.332 0 0 1-1.232 1.806c-.616.457-1.381.686-2.296.686-.728 0-1.381-.163-1.96-.49a3.503 3.503 0 0 1-1.344-1.386c-.326-.607-.49-1.307-.49-2.1 0-.793.159-1.489.476-2.086a3.315 3.315 0 0 1 1.33-1.372c.579-.327 1.242-.49 1.988-.49.728 0 1.372.159 1.932.476.56.317.99.756 1.288 1.316.308.551.462 1.176.462 1.876Zm-1.316-.266c0-.485-.107-.901-.322-1.246a2.015 2.015 0 0 0-.882-.798 2.626 2.626 0 0 0-1.218-.28c-.644 0-1.194.205-1.652.616-.448.411-.704.98-.77 1.708h4.844Z"/><g filter="url(#l)"><rect width="133" height="36" x="321" y="310" fill="#fff" rx="8" shape-rendering="crispEdges"/><path fill="#000" d="M337 334.98h14v-14h-14v14Z"/></g><g filter="url(#m)"><rect width="154" height="33" x="82" y="358" fill="#fff" rx="8" shape-rendering="crispEdges"/><path fill="#000" d="M98 381.48h14v-14H98v14ZM127.602 372.098c0 .812-.28 1.489-.84 2.03-.551.532-1.395.798-2.534.798h-1.876V379h-1.274v-9.758h3.15c1.101 0 1.937.266 2.506.798.579.532.868 1.218.868 2.058Zm-3.374 1.778c.709 0 1.232-.154 1.568-.462.336-.308.504-.747.504-1.316 0-1.204-.691-1.806-2.072-1.806h-1.876v3.584h1.876Zm6.231-5.236V379h-1.274v-10.36h1.274Zm1.696 6.496c0-.784.158-1.47.476-2.058a3.458 3.458 0 0 1 1.302-1.386c.56-.327 1.18-.49 1.862-.49.672 0 1.255.145 1.75.434.494.289.863.653 1.106 1.092v-1.4h1.288V379h-1.288v-1.428c-.252.448-.63.821-1.134 1.12-.495.289-1.074.434-1.736.434a3.474 3.474 0 0 1-1.848-.504 3.528 3.528 0 0 1-1.302-1.414c-.318-.607-.476-1.297-.476-2.072Zm6.496.014c0-.579-.117-1.083-.35-1.512a2.418 2.418 0 0 0-.952-.98 2.5 2.5 0 0 0-1.302-.35c-.476 0-.91.112-1.302.336a2.438 2.438 0 0 0-.938.98c-.234.429-.35.933-.35 1.512 0 .588.116 1.101.35 1.54.233.429.546.761.938.994.392.224.826.336 1.302.336.476 0 .91-.112 1.302-.336.401-.233.718-.565.952-.994.233-.439.35-.947.35-1.526Zm2.965 0c0-.793.158-1.484.476-2.072a3.43 3.43 0 0 1 1.316-1.386c.569-.327 1.218-.49 1.946-.49.942 0 1.717.229 2.324.686.616.457 1.022 1.092 1.218 1.904h-1.372a1.963 1.963 0 0 0-.77-1.106c-.374-.271-.84-.406-1.4-.406-.728 0-1.316.252-1.764.756-.448.495-.672 1.199-.672 2.114 0 .924.224 1.638.672 2.142.448.504 1.036.756 1.764.756.56 0 1.026-.131 1.4-.392.373-.261.63-.635.77-1.12h1.372c-.206.784-.616 1.414-1.232 1.89-.616.467-1.386.7-2.31.7-.728 0-1.377-.163-1.946-.49a3.43 3.43 0 0 1-1.316-1.386c-.318-.597-.476-1.297-.476-2.1Zm15.98-.28c0 .243-.014.499-.042.77h-6.132c.046.756.303 1.349.77 1.778.476.42 1.05.63 1.722.63.55 0 1.008-.126 1.372-.378.373-.261.634-.607.784-1.036h1.372a3.338 3.338 0 0 1-1.232 1.806c-.616.457-1.382.686-2.296.686-.728 0-1.382-.163-1.96-.49a3.49 3.49 0 0 1-1.344-1.386c-.327-.607-.49-1.307-.49-2.1 0-.793.158-1.489.476-2.086a3.303 3.303 0 0 1 1.33-1.372c.578-.327 1.241-.49 1.988-.49.728 0 1.372.159 1.932.476.56.317.989.756 1.288 1.316.308.551.462 1.176.462 1.876Zm-1.316-.266c0-.485-.108-.901-.322-1.246a2.026 2.026 0 0 0-.882-.798 2.626 2.626 0 0 0-1.218-.28c-.644 0-1.195.205-1.652.616-.448.411-.705.98-.77 1.708h4.844Zm5.713 4.522a4.052 4.052 0 0 1-1.582-.294c-.466-.205-.835-.485-1.106-.84a2.275 2.275 0 0 1-.448-1.246h1.316c.038.383.215.695.532.938.327.243.752.364 1.274.364.486 0 .868-.107 1.148-.322.28-.215.42-.485.42-.812a.786.786 0 0 0-.448-.742c-.298-.168-.76-.331-1.386-.49a11.425 11.425 0 0 1-1.4-.448 2.67 2.67 0 0 1-.924-.686c-.252-.308-.378-.709-.378-1.204 0-.392.117-.751.35-1.078.234-.327.565-.583.994-.77.43-.196.92-.294 1.47-.294.85 0 1.536.215 2.058.644.523.429.803 1.017.84 1.764h-1.274a1.307 1.307 0 0 0-.49-.966c-.289-.243-.681-.364-1.176-.364-.457 0-.821.098-1.092.294-.27.196-.406.453-.406.77 0 .252.08.462.238.63.168.159.374.289.616.392.252.093.598.201 1.036.322.551.149.999.299 1.344.448.346.14.64.355.882.644.252.289.383.667.392 1.134 0 .42-.116.798-.35 1.134-.233.336-.564.602-.994.798-.42.187-.905.28-1.456.28Zm9.885-6.748v4.522c0 .373.079.639.238.798.159.149.434.224.826.224h.938V379h-1.148c-.709 0-1.241-.163-1.596-.49-.355-.327-.532-.863-.532-1.61v-4.522h-.994v-1.05h.994v-1.932h1.274v1.932h2.002v1.05h-2.002Zm6.892 6.748a3.963 3.963 0 0 1-1.96-.49 3.564 3.564 0 0 1-1.372-1.386c-.327-.607-.49-1.307-.49-2.1 0-.784.168-1.475.504-2.072a3.501 3.501 0 0 1 1.4-1.386c.588-.327 1.246-.49 1.974-.49s1.386.163 1.974.49a3.44 3.44 0 0 1 1.386 1.372c.345.597.518 1.293.518 2.086 0 .793-.178 1.493-.532 2.1a3.615 3.615 0 0 1-1.414 1.386c-.598.327-1.26.49-1.988.49Zm0-1.12a2.69 2.69 0 0 0 1.288-.322c.401-.215.723-.537.966-.966.252-.429.378-.952.378-1.568 0-.616-.122-1.139-.364-1.568-.243-.429-.56-.747-.952-.952a2.607 2.607 0 0 0-1.274-.322c-.467 0-.896.107-1.288.322-.383.205-.691.523-.924.952-.234.429-.35.952-.35 1.568 0 .625.112 1.153.336 1.582.233.429.541.751.924.966.382.205.802.308 1.26.308Zm19.561-6.678L195.937 379h-1.316l-1.848-6.09-1.848 6.09h-1.316l-2.408-7.672h1.302l1.764 6.44 1.904-6.44h1.302l1.862 6.454 1.736-6.454h1.26Zm4.611 7.798a3.963 3.963 0 0 1-1.96-.49 3.564 3.564 0 0 1-1.372-1.386c-.327-.607-.49-1.307-.49-2.1 0-.784.168-1.475.504-2.072a3.501 3.501 0 0 1 1.4-1.386c.588-.327 1.246-.49 1.974-.49s1.386.163 1.974.49a3.44 3.44 0 0 1 1.386 1.372c.345.597.518 1.293.518 2.086 0 .793-.178 1.493-.532 2.1a3.615 3.615 0 0 1-1.414 1.386c-.598.327-1.26.49-1.988.49Zm0-1.12a2.69 2.69 0 0 0 1.288-.322c.401-.215.723-.537.966-.966.252-.429.378-.952.378-1.568 0-.616-.122-1.139-.364-1.568-.243-.429-.56-.747-.952-.952a2.607 2.607 0 0 0-1.274-.322c-.467 0-.896.107-1.288.322-.383.205-.691.523-.924.952-.234.429-.35.952-.35 1.568 0 .625.112 1.153.336 1.582.233.429.541.751.924.966.382.205.802.308 1.26.308Zm6.883-5.432c.224-.439.541-.779.952-1.022.42-.243.928-.364 1.526-.364v1.316h-.336c-1.428 0-2.142.775-2.142 2.324V379h-1.274v-7.672h1.274v1.246Zm8.232 6.426-3.01-3.388V379h-1.274v-10.36h1.274v6.09l2.954-3.402h1.778l-3.612 3.822 3.626 3.85h-1.736Z"/></g><g filter="url(#n)"><rect width="126" height="33" x="66" y="406" fill="#fff" rx="8" shape-rendering="crispEdges"/><path fill="#000" d="M82 429.48h14v-14H82v14ZM110.846 424.83h-4.256l-.784 2.17h-1.344l3.528-9.702h1.47l3.514 9.702h-1.344l-.784-2.17Zm-.364-1.036-1.764-4.928-1.764 4.928h3.528Zm3.554-.644c0-.793.158-1.484.476-2.072a3.43 3.43 0 0 1 1.316-1.386c.569-.327 1.218-.49 1.946-.49.942 0 1.717.229 2.324.686.616.457 1.022 1.092 1.218 1.904h-1.372a1.963 1.963 0 0 0-.77-1.106c-.374-.271-.84-.406-1.4-.406-.728 0-1.316.252-1.764.756-.448.495-.672 1.199-.672 2.114 0 .924.224 1.638.672 2.142.448.504 1.036.756 1.764.756.56 0 1.026-.131 1.4-.392.373-.261.63-.635.77-1.12h1.372c-.206.784-.616 1.414-1.232 1.89-.616.467-1.386.7-2.31.7-.728 0-1.377-.163-1.946-.49a3.43 3.43 0 0 1-1.316-1.386c-.318-.597-.476-1.297-.476-2.1Zm8.504-.014c0-.784.158-1.47.476-2.058a3.458 3.458 0 0 1 1.302-1.386c.56-.327 1.18-.49 1.862-.49.672 0 1.255.145 1.75.434.494.289.863.653 1.106 1.092v-1.4h1.288V427h-1.288v-1.428c-.252.448-.63.821-1.134 1.12-.495.289-1.074.434-1.736.434a3.474 3.474 0 0 1-1.848-.504 3.528 3.528 0 0 1-1.302-1.414c-.318-.607-.476-1.297-.476-2.072Zm6.496.014c0-.579-.117-1.083-.35-1.512a2.418 2.418 0 0 0-.952-.98 2.5 2.5 0 0 0-1.302-.35c-.476 0-.91.112-1.302.336a2.438 2.438 0 0 0-.938.98c-.234.429-.35.933-.35 1.512 0 .588.116 1.101.35 1.54.233.429.546.761.938.994.392.224.826.336 1.302.336.476 0 .91-.112 1.302-.336.401-.233.718-.565.952-.994.233-.439.35-.947.35-1.526Zm2.964-.014c0-.784.159-1.47.476-2.058a3.471 3.471 0 0 1 1.302-1.386 3.653 3.653 0 0 1 1.876-.49c.598 0 1.153.14 1.666.42.514.271.906.63 1.176 1.078v-4.06h1.288V427h-1.288v-1.442a3.034 3.034 0 0 1-1.12 1.134c-.494.289-1.073.434-1.736.434a3.551 3.551 0 0 1-1.862-.504 3.542 3.542 0 0 1-1.302-1.414c-.317-.607-.476-1.297-.476-2.072Zm6.496.014c0-.579-.116-1.083-.35-1.512a2.405 2.405 0 0 0-.952-.98 2.5 2.5 0 0 0-1.302-.35c-.476 0-.91.112-1.302.336a2.444 2.444 0 0 0-.938.98c-.233.429-.35.933-.35 1.512 0 .588.117 1.101.35 1.54.234.429.546.761.938.994.392.224.826.336 1.302.336.476 0 .91-.112 1.302-.336.402-.233.719-.565.952-.994.234-.439.35-.947.35-1.526Zm10.441-.28c0 .243-.014.499-.042.77h-6.132c.047.756.304 1.349.77 1.778.476.42 1.05.63 1.722.63.551 0 1.008-.126 1.372-.378.374-.261.635-.607.784-1.036h1.372a3.332 3.332 0 0 1-1.232 1.806c-.616.457-1.381.686-2.296.686-.728 0-1.381-.163-1.96-.49a3.503 3.503 0 0 1-1.344-1.386c-.326-.607-.49-1.307-.49-2.1 0-.793.159-1.489.476-2.086a3.315 3.315 0 0 1 1.33-1.372c.579-.327 1.242-.49 1.988-.49.728 0 1.372.159 1.932.476.56.317.99.756 1.288 1.316.308.551.462 1.176.462 1.876Zm-1.316-.266c0-.485-.107-.901-.322-1.246a2.015 2.015 0 0 0-.882-.798 2.626 2.626 0 0 0-1.218-.28c-.644 0-1.194.205-1.652.616-.448.411-.704.98-.77 1.708h4.844Zm12.224-3.416c.597 0 1.129.126 1.596.378.467.243.835.611 1.106 1.106.271.495.406 1.097.406 1.806V427h-1.26v-4.34c0-.765-.191-1.349-.574-1.75-.373-.411-.882-.616-1.526-.616-.663 0-1.19.215-1.582.644-.392.42-.588 1.031-.588 1.834V427h-1.26v-4.34c0-.765-.191-1.349-.574-1.75-.373-.411-.882-.616-1.526-.616-.663 0-1.19.215-1.582.644-.392.42-.588 1.031-.588 1.834V427h-1.274v-7.672h1.274v1.106a2.534 2.534 0 0 1 1.008-.924 3.113 3.113 0 0 1 1.414-.322c.644 0 1.213.145 1.708.434.495.289.863.714 1.106 1.274a2.52 2.52 0 0 1 1.064-1.26 3.131 3.131 0 0 1 1.652-.448Zm5.856-1.106a.837.837 0 0 1-.616-.252.837.837 0 0 1-.252-.616c0-.243.084-.448.252-.616a.837.837 0 0 1 .616-.252c.233 0 .429.084.588.252a.837.837 0 0 1 .252.616.837.837 0 0 1-.252.616.778.778 0 0 1-.588.252Zm.616 1.246V427h-1.274v-7.672h1.274Zm1.695 3.822c0-.793.159-1.484.476-2.072a3.43 3.43 0 0 1 1.316-1.386c.569-.327 1.218-.49 1.946-.49.943 0 1.717.229 2.324.686.616.457 1.022 1.092 1.218 1.904h-1.372a1.959 1.959 0 0 0-.77-1.106c-.373-.271-.84-.406-1.4-.406-.728 0-1.316.252-1.764.756-.448.495-.672 1.199-.672 2.114 0 .924.224 1.638.672 2.142.448.504 1.036.756 1.764.756.56 0 1.027-.131 1.4-.392s.63-.635.77-1.12h1.372c-.205.784-.616 1.414-1.232 1.89-.616.467-1.386.7-2.31.7-.728 0-1.377-.163-1.946-.49a3.43 3.43 0 0 1-1.316-1.386c-.317-.597-.476-1.297-.476-2.1Z"/></g><g filter="url(#o)"><rect width="115" height="33" x="266" y="358" fill="#fff" rx="8" shape-rendering="crispEdges"/><path fill="#000" d="M282 381.48h14v-14h-14v14ZM314.976 369.312V379h-1.274v-7.224l-3.22 7.224h-.896l-3.234-7.238V379h-1.274v-9.688h1.372l3.584 8.008 3.584-8.008h1.358Zm9.161 5.558c0 .243-.014.499-.042.77h-6.132c.046.756.303 1.349.77 1.778.476.42 1.05.63 1.722.63.55 0 1.008-.126 1.372-.378.373-.261.634-.607.784-1.036h1.372a3.338 3.338 0 0 1-1.232 1.806c-.616.457-1.382.686-2.296.686-.728 0-1.382-.163-1.96-.49a3.49 3.49 0 0 1-1.344-1.386c-.327-.607-.49-1.307-.49-2.1 0-.793.158-1.489.476-2.086a3.303 3.303 0 0 1 1.33-1.372c.578-.327 1.241-.49 1.988-.49.728 0 1.372.159 1.932.476.56.317.989.756 1.288 1.316.308.551.462 1.176.462 1.876Zm-1.316-.266c0-.485-.108-.901-.322-1.246a2.026 2.026 0 0 0-.882-.798 2.626 2.626 0 0 0-1.218-.28c-.644 0-1.195.205-1.652.616-.448.411-.705.98-.77 1.708h4.844Zm9.997.266c0 .243-.014.499-.042.77h-6.132c.047.756.304 1.349.77 1.778.476.42 1.05.63 1.722.63.551 0 1.008-.126 1.372-.378.374-.261.635-.607.784-1.036h1.372a3.332 3.332 0 0 1-1.232 1.806c-.616.457-1.381.686-2.296.686-.728 0-1.381-.163-1.96-.49a3.503 3.503 0 0 1-1.344-1.386c-.326-.607-.49-1.307-.49-2.1 0-.793.159-1.489.476-2.086a3.315 3.315 0 0 1 1.33-1.372c.579-.327 1.242-.49 1.988-.49.728 0 1.372.159 1.932.476.56.317.99.756 1.288 1.316.308.551.462 1.176.462 1.876Zm-1.316-.266c0-.485-.107-.901-.322-1.246a2.015 2.015 0 0 0-.882-.798 2.626 2.626 0 0 0-1.218-.28c-.644 0-1.194.205-1.652.616-.448.411-.704.98-.77 1.708h4.844Zm4.552-2.226v4.522c0 .373.079.639.238.798.159.149.434.224.826.224h.938V379h-1.148c-.709 0-1.241-.163-1.596-.49-.355-.327-.532-.863-.532-1.61v-4.522h-.994v-1.05h.994v-1.932h1.274v1.932h2.002v1.05h-2.002Zm10.349-1.05V379h-1.274v-1.134c-.242.392-.583.7-1.022.924a3.142 3.142 0 0 1-1.428.322 3.49 3.49 0 0 1-1.61-.364 2.784 2.784 0 0 1-1.134-1.12c-.27-.495-.406-1.097-.406-1.806v-4.494h1.26v4.326c0 .756.192 1.339.574 1.75.383.401.906.602 1.568.602.682 0 1.218-.21 1.61-.63.392-.42.588-1.031.588-1.834v-4.214h1.274Zm3.426 1.414c.252-.439.625-.803 1.12-1.092.504-.299 1.087-.448 1.75-.448.681 0 1.297.163 1.848.49.56.327.998.789 1.316 1.386.317.588.476 1.274.476 2.058 0 .775-.159 1.465-.476 2.072a3.505 3.505 0 0 1-3.164 1.918c-.654 0-1.232-.145-1.736-.434-.495-.299-.873-.667-1.134-1.106v5.054h-1.274v-11.312h1.274v1.414Zm5.208 2.394c0-.579-.117-1.083-.35-1.512a2.418 2.418 0 0 0-.952-.98 2.578 2.578 0 0 0-1.302-.336c-.467 0-.901.117-1.302.35-.392.224-.71.555-.952.994-.234.429-.35.929-.35 1.498 0 .579.116 1.087.35 1.526.242.429.56.761.952.994.401.224.835.336 1.302.336.476 0 .91-.112 1.302-.336.401-.233.718-.565.952-.994.233-.439.35-.952.35-1.54Zm5.695 3.99c-.588 0-1.116-.098-1.582-.294-.467-.205-.836-.485-1.106-.84a2.267 2.267 0 0 1-.448-1.246h1.316c.037.383.214.695.532.938.326.243.751.364 1.274.364.485 0 .868-.107 1.148-.322.28-.215.42-.485.42-.812a.788.788 0 0 0-.448-.742c-.299-.168-.761-.331-1.386-.49a11.369 11.369 0 0 1-1.4-.448 2.652 2.652 0 0 1-.924-.686c-.252-.308-.378-.709-.378-1.204 0-.392.116-.751.35-1.078.233-.327.564-.583.994-.77.429-.196.919-.294 1.47-.294.849 0 1.535.215 2.058.644.522.429.802 1.017.84 1.764h-1.274a1.31 1.31 0 0 0-.49-.966c-.29-.243-.682-.364-1.176-.364-.458 0-.822.098-1.092.294-.271.196-.406.453-.406.77a.88.88 0 0 0 .238.63c.168.159.373.289.616.392.252.093.597.201 1.036.322.55.149.998.299 1.344.448.345.14.639.355.882.644.252.289.382.667.392 1.134 0 .42-.117.798-.35 1.134-.234.336-.565.602-.994.798-.42.187-.906.28-1.456.28Z"/></g><g filter="url(#p)"><rect width="114" height="33" x="-67" y="310" fill="#fff" rx="8" shape-rendering="crispEdges"/><path fill="#000" d="M-24.648 329.964h3.416V331h-4.69v-9.758h1.274v8.722Zm12.161-5.894a2.992 2.992 0 0 0-1.176-1.316c-.513-.317-1.11-.476-1.792-.476-.681 0-1.297.159-1.848.476-.541.308-.97.756-1.288 1.344-.308.579-.462 1.251-.462 2.016 0 .765.154 1.437.462 2.016a3.43 3.43 0 0 0 1.288 1.344 3.72 3.72 0 0 0 1.848.462c.952 0 1.736-.285 2.352-.854.616-.569.975-1.339 1.078-2.31h-3.892v-1.036h5.25v.98a4.89 4.89 0 0 1-.756 2.212 4.75 4.75 0 0 1-1.694 1.582c-.7.383-1.48.574-2.338.574-.905 0-1.731-.21-2.478-.63a4.777 4.777 0 0 1-1.778-1.778c-.43-.756-.644-1.61-.644-2.562 0-.952.215-1.806.644-2.562a4.65 4.65 0 0 1 1.778-1.778 4.885 4.885 0 0 1 2.478-.644c1.036 0 1.95.257 2.744.77.803.513 1.386 1.237 1.75 2.17h-1.526Zm8.39 1.904c.355.056.677.201.966.434.3.233.532.523.7.868.178.345.266.714.266 1.106 0 .495-.126.943-.378 1.344-.252.392-.62.705-1.106.938-.476.224-1.04.336-1.694.336h-3.64v-9.758h3.5c.663 0 1.228.112 1.694.336.467.215.817.509 1.05.882.234.373.35.793.35 1.26 0 .579-.158 1.059-.476 1.442-.308.373-.718.644-1.232.812Zm-3.612-.518h2.142c.598 0 1.06-.14 1.386-.42.327-.28.49-.667.49-1.162 0-.495-.163-.882-.49-1.162-.326-.28-.798-.42-1.414-.42h-2.114v3.164Zm2.254 4.494c.635 0 1.13-.149 1.484-.448.355-.299.532-.714.532-1.246 0-.541-.186-.966-.56-1.274-.373-.317-.872-.476-1.498-.476h-2.212v3.444h2.254Zm11.064-8.708v1.036H2.95V331H1.675v-8.722H-.999v-1.036H5.61Zm2.843 0V331H7.178v-9.758h1.274Zm9.997 11.606-1.946-1.946a5.462 5.462 0 0 1-1.456.196c-.905 0-1.731-.21-2.478-.63a4.779 4.779 0 0 1-1.778-1.778c-.43-.765-.644-1.624-.644-2.576s.215-1.806.644-2.562a4.651 4.651 0 0 1 1.778-1.778 4.886 4.886 0 0 1 2.478-.644c.915 0 1.745.215 2.492.644a4.577 4.577 0 0 1 1.764 1.764c.43.756.644 1.615.644 2.576 0 .933-.205 1.773-.616 2.52a4.589 4.589 0 0 1-1.694 1.764l2.464 2.45h-1.652Zm-7-6.734c0 .775.154 1.456.462 2.044a3.41 3.41 0 0 0 1.288 1.358c.55.317 1.167.476 1.848.476s1.293-.159 1.834-.476c.55-.317.98-.77 1.288-1.358.317-.588.476-1.269.476-2.044 0-.784-.159-1.465-.476-2.044a3.316 3.316 0 0 0-1.274-1.358c-.541-.317-1.157-.476-1.848-.476-.69 0-1.307.159-1.848.476a3.41 3.41 0 0 0-1.288 1.358c-.308.579-.462 1.26-.462 2.044Zm17.487.308h-2.982v3.024h-1.19v-3.024h-2.968v-1.078h2.968v-3.038h1.19v3.038h2.982v1.078Z"/></g><rect width="121" height="36" x="217" y="406" fill="#9F56FF" rx="8"/><path fill="#fff" d="m246.414 424 2.829-2.828a1 1 0 1 0-1.415-1.415L245 422.586l-2.828-2.829a1 1 0 1 0-1.415 1.415l2.829 2.828-2.829 2.828a1 1 0 0 0 .707 1.708 1 1 0 0 0 .708-.293l2.828-2.829 2.828 2.829a1 1 0 0 0 1.708-.708 1 1 0 0 0-.293-.707L246.414 424ZM245 434c-5.523 0-10-4.477-10-10s4.477-10 10-10 10 4.477 10 10-4.477 10-10 10Z"/><path fill="#000" d="M265 430.98h14v-14h-14v14Z"/><path fill="#fff" d="M293.594 418.742v1.036h-4.242v3.29h3.444v1.036h-3.444v4.396h-1.274v-9.758h5.516Zm4.885 9.884a3.963 3.963 0 0 1-1.96-.49 3.564 3.564 0 0 1-1.372-1.386c-.327-.607-.49-1.307-.49-2.1 0-.784.168-1.475.504-2.072a3.501 3.501 0 0 1 1.4-1.386c.588-.327 1.246-.49 1.974-.49s1.386.163 1.974.49a3.44 3.44 0 0 1 1.386 1.372c.345.597.518 1.293.518 2.086 0 .793-.178 1.493-.532 2.1a3.615 3.615 0 0 1-1.414 1.386c-.598.327-1.26.49-1.988.49Zm0-1.12a2.69 2.69 0 0 0 1.288-.322c.401-.215.723-.537.966-.966.252-.429.378-.952.378-1.568 0-.616-.122-1.139-.364-1.568-.243-.429-.56-.747-.952-.952a2.607 2.607 0 0 0-1.274-.322c-.467 0-.896.107-1.288.322-.383.205-.691.523-.924.952-.234.429-.35.952-.35 1.568 0 .625.112 1.153.336 1.582.233.429.541.751.924.966.382.205.802.308 1.26.308Zm8.955 1.12a3.963 3.963 0 0 1-1.96-.49 3.564 3.564 0 0 1-1.372-1.386c-.327-.607-.49-1.307-.49-2.1 0-.784.168-1.475.504-2.072a3.501 3.501 0 0 1 1.4-1.386c.588-.327 1.246-.49 1.974-.49s1.386.163 1.974.49a3.44 3.44 0 0 1 1.386 1.372c.345.597.518 1.293.518 2.086 0 .793-.178 1.493-.532 2.1a3.615 3.615 0 0 1-1.414 1.386c-.598.327-1.26.49-1.988.49Zm0-1.12a2.69 2.69 0 0 0 1.288-.322c.401-.215.723-.537.966-.966.252-.429.378-.952.378-1.568 0-.616-.122-1.139-.364-1.568-.243-.429-.56-.747-.952-.952a2.607 2.607 0 0 0-1.274-.322c-.467 0-.896.107-1.288.322-.383.205-.691.523-.924.952-.234.429-.35.952-.35 1.568 0 .625.112 1.153.336 1.582.233.429.541.751.924.966.382.205.802.308 1.26.308Zm5.133-2.87c0-.784.159-1.47.476-2.058a3.458 3.458 0 0 1 1.302-1.386 3.65 3.65 0 0 1 1.876-.49c.597 0 1.153.14 1.666.42.513.271.905.63 1.176 1.078v-4.06h1.288v10.36h-1.288v-1.442a3.034 3.034 0 0 1-1.12 1.134c-.495.289-1.073.434-1.736.434a3.551 3.551 0 0 1-1.862-.504 3.528 3.528 0 0 1-1.302-1.414c-.317-.607-.476-1.297-.476-2.072Zm6.496.014c0-.579-.117-1.083-.35-1.512a2.412 2.412 0 0 0-.952-.98 2.5 2.5 0 0 0-1.302-.35c-.476 0-.91.112-1.302.336a2.438 2.438 0 0 0-.938.98c-.233.429-.35.933-.35 1.512 0 .588.117 1.101.35 1.54.233.429.546.761.938.994.392.224.826.336 1.302.336.476 0 .91-.112 1.302-.336.401-.233.719-.565.952-.994.233-.439.35-.947.35-1.526Z"/><g filter="url(#q)"><rect width="154" height="33" x="296" y="262" fill="#fff" rx="8" shape-rendering="crispEdges"/><path fill="#000" d="M312 285.48h14v-14h-14v14ZM336.352 274.278v3.262h3.556v1.05h-3.556v3.36h3.976V283h-5.25v-9.772h5.25v1.05h-3.976Zm9.642.91c.933 0 1.689.285 2.268.854.578.56.868 1.372.868 2.436V283h-1.26v-4.34c0-.765-.192-1.349-.574-1.75-.383-.411-.906-.616-1.568-.616-.672 0-1.209.21-1.61.63-.392.42-.588 1.031-.588 1.834V283h-1.274v-7.672h1.274v1.092a2.538 2.538 0 0 1 1.022-.91 3.228 3.228 0 0 1 1.442-.322Zm6.771 1.19v4.522c0 .373.079.639.238.798.158.149.434.224.826.224h.938V283h-1.148c-.71 0-1.242-.163-1.596-.49-.355-.327-.532-.863-.532-1.61v-4.522h-.994v-1.05h.994v-1.932h1.274v1.932h2.002v1.05h-2.002Zm10.545 2.492c0 .243-.014.499-.042.77h-6.132c.047.756.304 1.349.77 1.778.476.42 1.05.63 1.722.63.551 0 1.008-.126 1.372-.378.374-.261.635-.607.784-1.036h1.372a3.332 3.332 0 0 1-1.232 1.806c-.616.457-1.381.686-2.296.686-.728 0-1.381-.163-1.96-.49a3.503 3.503 0 0 1-1.344-1.386c-.326-.607-.49-1.307-.49-2.1 0-.793.159-1.489.476-2.086a3.315 3.315 0 0 1 1.33-1.372c.579-.327 1.242-.49 1.988-.49.728 0 1.372.159 1.932.476.56.317.99.756 1.288 1.316.308.551.462 1.176.462 1.876Zm-1.316-.266c0-.485-.107-.901-.322-1.246a2.015 2.015 0 0 0-.882-.798 2.626 2.626 0 0 0-1.218-.28c-.644 0-1.194.205-1.652.616-.448.411-.704.98-.77 1.708h4.844Zm4.272-2.03c.224-.439.541-.779.952-1.022.42-.243.929-.364 1.526-.364v1.316h-.336c-1.428 0-2.142.775-2.142 2.324V283h-1.274v-7.672h1.274v1.246Zm5.503-.196v4.522c0 .373.079.639.238.798.158.149.434.224.826.224h.938V283h-1.148c-.71 0-1.242-.163-1.596-.49-.355-.327-.532-.863-.532-1.61v-4.522h-.994v-1.05h.994v-1.932h1.274v1.932h2.002v1.05h-2.002Zm3.069 2.758c0-.784.159-1.47.476-2.058a3.471 3.471 0 0 1 1.302-1.386 3.625 3.625 0 0 1 1.862-.49c.672 0 1.256.145 1.75.434.495.289.864.653 1.106 1.092v-1.4h1.288V283h-1.288v-1.428c-.252.448-.63.821-1.134 1.12-.494.289-1.073.434-1.736.434a3.48 3.48 0 0 1-1.848-.504 3.542 3.542 0 0 1-1.302-1.414c-.317-.607-.476-1.297-.476-2.072Zm6.496.014c0-.579-.116-1.083-.35-1.512a2.405 2.405 0 0 0-.952-.98 2.5 2.5 0 0 0-1.302-.35c-.476 0-.91.112-1.302.336a2.444 2.444 0 0 0-.938.98c-.233.429-.35.933-.35 1.512 0 .588.117 1.101.35 1.54.234.429.546.761.938.994.392.224.826.336 1.302.336.476 0 .91-.112 1.302-.336.402-.233.719-.565.952-.994.234-.439.35-.947.35-1.526Zm4.099-5.068a.839.839 0 0 1-.616-.252.837.837 0 0 1-.252-.616c0-.243.084-.448.252-.616a.839.839 0 0 1 .616-.252c.234 0 .43.084.588.252a.837.837 0 0 1 .252.616.837.837 0 0 1-.252.616.775.775 0 0 1-.588.252Zm.616 1.246V283h-1.274v-7.672h1.274Zm5.91-.14c.933 0 1.689.285 2.268.854.578.56.868 1.372.868 2.436V283h-1.26v-4.34c0-.765-.192-1.349-.574-1.75-.383-.411-.906-.616-1.568-.616-.672 0-1.209.21-1.61.63-.392.42-.588 1.031-.588 1.834V283h-1.274v-7.672h1.274v1.092a2.538 2.538 0 0 1 1.022-.91 3.228 3.228 0 0 1 1.442-.322Zm14.443 0c.597 0 1.129.126 1.596.378.466.243.835.611 1.106 1.106.27.495.406 1.097.406 1.806V283h-1.26v-4.34c0-.765-.192-1.349-.574-1.75-.374-.411-.882-.616-1.526-.616-.663 0-1.19.215-1.582.644-.392.42-.588 1.031-.588 1.834V283h-1.26v-4.34c0-.765-.192-1.349-.574-1.75-.374-.411-.882-.616-1.526-.616-.663 0-1.19.215-1.582.644-.392.42-.588 1.031-.588 1.834V283h-1.274v-7.672h1.274v1.106a2.534 2.534 0 0 1 1.008-.924 3.11 3.11 0 0 1 1.414-.322c.644 0 1.213.145 1.708.434.494.289.863.714 1.106 1.274a2.514 2.514 0 0 1 1.064-1.26 3.129 3.129 0 0 1 1.652-.448Zm12.197 3.682c0 .243-.014.499-.042.77h-6.132c.047.756.304 1.349.77 1.778.476.42 1.05.63 1.722.63.551 0 1.008-.126 1.372-.378.374-.261.635-.607.784-1.036h1.372a3.332 3.332 0 0 1-1.232 1.806c-.616.457-1.381.686-2.296.686-.728 0-1.381-.163-1.96-.49a3.503 3.503 0 0 1-1.344-1.386c-.326-.607-.49-1.307-.49-2.1 0-.793.159-1.489.476-2.086a3.315 3.315 0 0 1 1.33-1.372c.579-.327 1.242-.49 1.988-.49.728 0 1.372.159 1.932.476.56.317.99.756 1.288 1.316.308.551.462 1.176.462 1.876Zm-1.316-.266c0-.485-.107-.901-.322-1.246a2.015 2.015 0 0 0-.882-.798 2.626 2.626 0 0 0-1.218-.28c-.644 0-1.194.205-1.652.616-.448.411-.704.98-.77 1.708h4.844Zm6.736-3.416c.933 0 1.689.285 2.268.854.579.56.868 1.372.868 2.436V283h-1.26v-4.34c0-.765-.191-1.349-.574-1.75-.383-.411-.905-.616-1.568-.616-.672 0-1.209.21-1.61.63-.392.42-.588 1.031-.588 1.834V283h-1.274v-7.672h1.274v1.092a2.545 2.545 0 0 1 1.022-.91 3.231 3.231 0 0 1 1.442-.322Zm6.771 1.19v4.522c0 .373.08.639.238.798.159.149.434.224.826.224h.938V283h-1.148c-.709 0-1.241-.163-1.596-.49-.354-.327-.532-.863-.532-1.61v-4.522h-.994v-1.05h.994v-1.932h1.274v1.932h2.002v1.05h-2.002Z"/></g><rect width="91" height="36" x="356" y="406" fill="#fff" rx="8"/><rect width="257.408" height="41.153" x="61" y="578" fill="#AAA" rx="6"/><path fill="#fff" d="M165.118 596.969h-2.125a2.654 2.654 0 0 0-.336-.926 2.498 2.498 0 0 0-.607-.693 2.55 2.55 0 0 0-.83-.426 3.25 3.25 0 0 0-.994-.148c-.633 0-1.194.159-1.682.478-.489.314-.871.776-1.148 1.386-.276.606-.415 1.347-.415 2.222 0 .89.139 1.64.415 2.25.28.606.663 1.064 1.148 1.375.488.306 1.047.46 1.676.46.348 0 .674-.046.977-.137a2.67 2.67 0 0 0 .824-.414 2.531 2.531 0 0 0 .972-1.58l2.125.011a4.591 4.591 0 0 1-.517 1.557 4.584 4.584 0 0 1-1.029 1.284c-.424.368-.92.656-1.488.864a5.546 5.546 0 0 1-1.892.307c-1.023 0-1.936-.237-2.739-.71-.803-.474-1.436-1.158-1.898-2.052-.462-.894-.693-1.965-.693-3.215 0-1.254.233-2.326.699-3.216.466-.894 1.1-1.578 1.903-2.052.803-.473 1.712-.71 2.728-.71.647 0 1.25.091 1.806.273a4.64 4.64 0 0 1 1.489.801c.436.349.794.777 1.074 1.284.284.504.47 1.08.557 1.727Zm5.646 7.881c-.852 0-1.591-.187-2.216-.562a3.816 3.816 0 0 1-1.454-1.574c-.341-.674-.512-1.462-.512-2.364 0-.901.171-1.691.512-2.369a3.807 3.807 0 0 1 1.454-1.58c.625-.375 1.364-.562 2.216-.562.852 0 1.591.187 2.216.562a3.777 3.777 0 0 1 1.449 1.58c.344.678.517 1.468.517 2.369 0 .902-.173 1.69-.517 2.364a3.785 3.785 0 0 1-1.449 1.574c-.625.375-1.364.562-2.216.562Zm.011-1.648c.463 0 .849-.126 1.159-.38.311-.258.542-.603.694-1.034a4.25 4.25 0 0 0 .233-1.444c0-.534-.078-1.017-.233-1.448-.152-.436-.383-.783-.694-1.04-.31-.258-.696-.387-1.159-.387-.473 0-.867.129-1.181.387-.311.257-.544.604-.699 1.04a4.335 4.335 0 0 0-.228 1.448c0 .531.076 1.012.228 1.444.155.431.388.776.699 1.034.314.254.708.38 1.181.38Zm7.973-3.636v5.114h-2.056v-8.728h1.965v1.483h.103c.201-.488.521-.877.96-1.164.443-.288.991-.432 1.642-.432.602 0 1.127.129 1.574.386.451.258.799.631 1.045 1.119.25.489.373 1.082.37 1.779v5.557h-2.057v-5.239c0-.583-.152-1.04-.455-1.369-.299-.33-.714-.495-1.244-.495-.36 0-.68.08-.96.239a1.653 1.653 0 0 0-.654.676c-.155.296-.233.654-.233 1.074Zm12.052-3.614v1.591h-5.018v-1.591h5.018Zm-3.779-2.09h2.057v8.193c0 .276.042.488.125.636a.68.68 0 0 0 .341.296c.14.053.295.079.466.079.129 0 .246-.009.352-.028.11-.019.193-.036.25-.051l.347 1.607c-.11.038-.267.08-.472.125a3.851 3.851 0 0 1-.739.08 3.348 3.348 0 0 1-1.392-.233 2.164 2.164 0 0 1-.983-.807c-.238-.363-.356-.818-.352-1.363v-8.534Zm5.499 10.818v-8.728h2.057v8.728h-2.057Zm1.034-9.966a1.2 1.2 0 0 1-.841-.324 1.044 1.044 0 0 1-.352-.79c0-.31.117-.574.352-.79.235-.219.515-.329.841-.329.329 0 .61.11.841.329.235.216.352.48.352.79 0 .307-.117.57-.352.79a1.188 1.188 0 0 1-.841.324Zm5.194 4.852v5.114h-2.056v-8.728h1.965v1.483h.103c.201-.488.521-.877.96-1.164.443-.288.991-.432 1.642-.432.602 0 1.127.129 1.574.386.451.258.799.631 1.045 1.119.25.489.373 1.082.37 1.779v5.557h-2.057v-5.239c0-.583-.152-1.04-.455-1.369-.299-.33-.714-.495-1.244-.495-.36 0-.68.08-.96.239a1.653 1.653 0 0 0-.654.676c-.155.296-.233.654-.233 1.074Zm13.256 1.443v-5.057h2.057v8.728h-1.994v-1.551h-.091a2.622 2.622 0 0 1-.972 1.198c-.447.311-.998.466-1.653.466-.572 0-1.078-.127-1.517-.38a2.645 2.645 0 0 1-1.023-1.12c-.246-.492-.369-1.087-.369-1.784v-5.557h2.056v5.239c0 .553.152.992.455 1.318.303.326.701.489 1.193.489.303 0 .597-.074.881-.222.284-.147.517-.367.699-.659.185-.295.278-.665.278-1.108Zm8.036 3.841c-.875 0-1.631-.182-2.267-.545a3.7 3.7 0 0 1-1.461-1.557c-.341-.674-.511-1.468-.511-2.381 0-.898.17-1.685.511-2.363a3.861 3.861 0 0 1 1.444-1.591c.617-.383 1.342-.574 2.176-.574.538 0 1.045.087 1.522.261.481.171.906.436 1.273.796.371.359.663.818.875 1.375.212.553.318 1.212.318 1.977v.631h-7.153v-1.387h5.182a2.21 2.21 0 0 0-.256-1.051 1.86 1.86 0 0 0-.699-.733 1.963 1.963 0 0 0-1.034-.267 2 2 0 0 0-1.108.307 2.119 2.119 0 0 0-.744.795 2.296 2.296 0 0 0-.267 1.074v1.21c0 .508.093.944.278 1.307.186.36.445.637.779.83.333.189.723.284 1.17.284.299 0 .57-.042.813-.125.242-.087.452-.214.63-.381.178-.166.313-.373.404-.619l1.92.216a2.987 2.987 0 0 1-.693 1.329 3.373 3.373 0 0 1-1.296.875c-.526.205-1.128.307-1.806.307Z"/></g><rect width="332.5" height="721.36" x="23.75" y="19.75" stroke="#D3D3D3" stroke-opacity=".8" stroke-width="1.5" rx="23.453"/></g><defs><filter id="a" width="380" height="768.859" x="0" y="0" color-interpolation-filters="sRGB" filterUnits="userSpaceOnUse"><feFlood flood-opacity="0" result="BackgroundImageFix"/><feColorMatrix in="SourceAlpha" result="hardAlpha" values="0 0 0 0 0 0 0 0 0 0 0 0 0 0 0 0 0 0 127 0"/><feMorphology in="SourceAlpha" radius="2" result="effect1_dropShadow_526_13531"/><feOffset dy="4"/><feGaussianBlur stdDeviation="12.5"/><feComposite in2="hardAlpha" operator="out"/><feColorMatrix values="0 0 0 0 0.391623 0 0 0 0 0.391623 0 0 0 0 0.391623 0 0 0 0.1 0"/><feBlend in2="BackgroundImageFix" result="effect1_dropShadow_526_13531"/><feBlend in="SourceGraphic" in2="effect1_dropShadow_526_13531" result="shape"/></filter><filter id="c" width="114" height="48" x="-73" y="212" color-interpolation-filters="sRGB" filterUnits="userSpaceOnUse"><feFlood flood-opacity="0" result="BackgroundImageFix"/><feColorMatrix in="SourceAlpha" result="hardAlpha" values="0 0 0 0 0 0 0 0 0 0 0 0 0 0 0 0 0 0 127 0"/><feOffset dy="4"/><feGaussianBlur stdDeviation="3"/><feComposite in2="hardAlpha" operator="out"/><feColorMatrix values="0 0 0 0 0.522179 0 0 0 0 0.522179 0 0 0 0 0.522179 0 0 0 0.14 0"/><feBlend in2="BackgroundImageFix" result="effect1_dropShadow_526_13531"/><feBlend in="SourceGraphic" in2="effect1_dropShadow_526_13531" result="shape"/></filter><filter id="d" width="113" height="45" x="39" y="212" color-interpolation-filters="sRGB" filterUnits="userSpaceOnUse"><feFlood flood-opacity="0" result="BackgroundImageFix"/><feColorMatrix in="SourceAlpha" result="hardAlpha" values="0 0 0 0 0 0 0 0 0 0 0 0 0 0 0 0 0 0 127 0"/><feOffset dy="4"/><feGaussianBlur stdDeviation="3"/><feComposite in2="hardAlpha" operator="out"/><feColorMatrix values="0 0 0 0 0.522179 0 0 0 0 0.522179 0 0 0 0 0.522179 0 0 0 0.14 0"/><feBlend in2="BackgroundImageFix" result="effect1_dropShadow_526_13531"/><feBlend in="SourceGraphic" in2="effect1_dropShadow_526_13531" result="shape"/></filter><filter id="e" width="111" height="45" x="47" y="260" color-interpolation-filters="sRGB" filterUnits="userSpaceOnUse"><feFlood flood-opacity="0" result="BackgroundImageFix"/><feColorMatrix in="SourceAlpha" result="hardAlpha" values="0 0 0 0 0 0 0 0 0 0 0 0 0 0 0 0 0 0 127 0"/><feOffset dy="4"/><feGaussianBlur stdDeviation="3"/><feComposite in2="hardAlpha" operator="out"/><feColorMatrix values="0 0 0 0 0.522179 0 0 0 0 0.522179 0 0 0 0 0.522179 0 0 0 0.14 0"/><feBlend in2="BackgroundImageFix" result="effect1_dropShadow_526_13531"/><feBlend in="SourceGraphic" in2="effect1_dropShadow_526_13531" result="shape"/></filter><filter id="f" width="205" height="45" x="161" y="212" color-interpolation-filters="sRGB" filterUnits="userSpaceOnUse"><feFlood flood-opacity="0" result="BackgroundImageFix"/><feColorMatrix in="SourceAlpha" result="hardAlpha" values="0 0 0 0 0 0 0 0 0 0 0 0 0 0 0 0 0 0 127 0"/><feOffset dy="4"/><feGaussianBlur stdDeviation="3"/><feComposite in2="hardAlpha" operator="out"/><feColorMatrix values="0 0 0 0 0.522179 0 0 0 0 0.522179 0 0 0 0 0.522179 0 0 0 0.14 0"/><feBlend in2="BackgroundImageFix" result="effect1_dropShadow_526_13531"/><feBlend in="SourceGraphic" in2="effect1_dropShadow_526_13531" result="shape"/></filter><filter id="g" width="114" height="45" x="167" y="260" color-interpolation-filters="sRGB" filterUnits="userSpaceOnUse"><feFlood flood-opacity="0" result="BackgroundImageFix"/><feColorMatrix in="SourceAlpha" result="hardAlpha" values="0 0 0 0 0 0 0 0 0 0 0 0 0 0 0 0 0 0 127 0"/><feOffset dy="4"/><feGaussianBlur stdDeviation="3"/><feComposite in2="hardAlpha" operator="out"/><feColorMatrix values="0 0 0 0 0.522179 0 0 0 0 0.522179 0 0 0 0 0.522179 0 0 0 0.14 0"/><feBlend in2="BackgroundImageFix" result="effect1_dropShadow_526_13531"/><feBlend in="SourceGraphic" in2="effect1_dropShadow_526_13531" result="shape"/></filter><filter id="h" width="113" height="45" x="-73" y="260" color-interpolation-filters="sRGB" filterUnits="userSpaceOnUse"><feFlood flood-opacity="0" result="BackgroundImageFix"/><feColorMatrix in="SourceAlpha" result="hardAlpha" values="0 0 0 0 0 0 0 0 0 0 0 0 0 0 0 0 0 0 127 0"/><feOffset dy="4"/><feGaussianBlur stdDeviation="3"/><feComposite in2="hardAlpha" operator="out"/><feColorMatrix values="0 0 0 0 0.522179 0 0 0 0 0.522179 0 0 0 0 0.522179 0 0 0 0.14 0"/><feBlend in2="BackgroundImageFix" result="effect1_dropShadow_526_13531"/><feBlend in="SourceGraphic" in2="effect1_dropShadow_526_13531" result="shape"/></filter><filter id="i" width="139" height="45" x="-73" y="356" color-interpolation-filters="sRGB" filterUnits="userSpaceOnUse"><feFlood flood-opacity="0" result="BackgroundImageFix"/><feColorMatrix in="SourceAlpha" result="hardAlpha" values="0 0 0 0 0 0 0 0 0 0 0 0 0 0 0 0 0 0 127 0"/><feOffset dy="4"/><feGaussianBlur stdDeviation="3"/><feComposite in2="hardAlpha" operator="out"/><feColorMatrix values="0 0 0 0 0.522179 0 0 0 0 0.522179 0 0 0 0 0.522179 0 0 0 0.14 0"/><feBlend in2="BackgroundImageFix" result="effect1_dropShadow_526_13531"/><feBlend in="SourceGraphic" in2="effect1_dropShadow_526_13531" result="shape"/></filter><filter id="j" width="95" height="45" x="61" y="308" color-interpolation-filters="sRGB" filterUnits="userSpaceOnUse"><feFlood flood-opacity="0" result="BackgroundImageFix"/><feColorMatrix in="SourceAlpha" result="hardAlpha" values="0 0 0 0 0 0 0 0 0 0 0 0 0 0 0 0 0 0 127 0"/><feOffset dy="4"/><feGaussianBlur stdDeviation="3"/><feComposite in2="hardAlpha" operator="out"/><feColorMatrix values="0 0 0 0 0.522179 0 0 0 0 0.522179 0 0 0 0 0.522179 0 0 0 0.14 0"/><feBlend in2="BackgroundImageFix" result="effect1_dropShadow_526_13531"/><feBlend in="SourceGraphic" in2="effect1_dropShadow_526_13531" result="shape"/></filter><filter id="k" width="125" height="45" x="-73" y="404" color-interpolation-filters="sRGB" filterUnits="userSpaceOnUse"><feFlood flood-opacity="0" result="BackgroundImageFix"/><feColorMatrix in="SourceAlpha" result="hardAlpha" values="0 0 0 0 0 0 0 0 0 0 0 0 0 0 0 0 0 0 127 0"/><feOffset dy="4"/><feGaussianBlur stdDeviation="3"/><feComposite in2="hardAlpha" operator="out"/><feColorMatrix values="0 0 0 0 0.522179 0 0 0 0 0.522179 0 0 0 0 0.522179 0 0 0 0.14 0"/><feBlend in2="BackgroundImageFix" result="effect1_dropShadow_526_13531"/><feBlend in="SourceGraphic" in2="effect1_dropShadow_526_13531" result="shape"/></filter><filter id="l" width="145" height="48" x="315" y="308" color-interpolation-filters="sRGB" filterUnits="userSpaceOnUse"><feFlood flood-opacity="0" result="BackgroundImageFix"/><feColorMatrix in="SourceAlpha" result="hardAlpha" values="0 0 0 0 0 0 0 0 0 0 0 0 0 0 0 0 0 0 127 0"/><feOffset dy="4"/><feGaussianBlur stdDeviation="3"/><feComposite in2="hardAlpha" operator="out"/><feColorMatrix values="0 0 0 0 0.522179 0 0 0 0 0.522179 0 0 0 0 0.522179 0 0 0 0.14 0"/><feBlend in2="BackgroundImageFix" result="effect1_dropShadow_526_13531"/><feBlend in="SourceGraphic" in2="effect1_dropShadow_526_13531" result="shape"/></filter><filter id="m" width="166" height="45" x="76" y="356" color-interpolation-filters="sRGB" filterUnits="userSpaceOnUse"><feFlood flood-opacity="0" result="BackgroundImageFix"/><feColorMatrix in="SourceAlpha" result="hardAlpha" values="0 0 0 0 0 0 0 0 0 0 0 0 0 0 0 0 0 0 127 0"/><feOffset dy="4"/><feGaussianBlur stdDeviation="3"/><feComposite in2="hardAlpha" operator="out"/><feColorMatrix values="0 0 0 0 0.522179 0 0 0 0 0.522179 0 0 0 0 0.522179 0 0 0 0.14 0"/><feBlend in2="BackgroundImageFix" result="effect1_dropShadow_526_13531"/><feBlend in="SourceGraphic" in2="effect1_dropShadow_526_13531" result="shape"/></filter><filter id="n" width="138" height="45" x="60" y="404" color-interpolation-filters="sRGB" filterUnits="userSpaceOnUse"><feFlood flood-opacity="0" result="BackgroundImageFix"/><feColorMatrix in="SourceAlpha" result="hardAlpha" values="0 0 0 0 0 0 0 0 0 0 0 0 0 0 0 0 0 0 127 0"/><feOffset dy="4"/><feGaussianBlur stdDeviation="3"/><feComposite in2="hardAlpha" operator="out"/><feColorMatrix values="0 0 0 0 0.522179 0 0 0 0 0.522179 0 0 0 0 0.522179 0 0 0 0.14 0"/><feBlend in2="BackgroundImageFix" result="effect1_dropShadow_526_13531"/><feBlend in="SourceGraphic" in2="effect1_dropShadow_526_13531" result="shape"/></filter><filter id="o" width="127" height="45" x="260" y="356" color-interpolation-filters="sRGB" filterUnits="userSpaceOnUse"><feFlood flood-opacity="0" result="BackgroundImageFix"/><feColorMatrix in="SourceAlpha" result="hardAlpha" values="0 0 0 0 0 0 0 0 0 0 0 0 0 0 0 0 0 0 127 0"/><feOffset dy="4"/><feGaussianBlur stdDeviation="3"/><feComposite in2="hardAlpha" operator="out"/><feColorMatrix values="0 0 0 0 0.522179 0 0 0 0 0.522179 0 0 0 0 0.522179 0 0 0 0.14 0"/><feBlend in2="BackgroundImageFix" result="effect1_dropShadow_526_13531"/><feBlend in="SourceGraphic" in2="effect1_dropShadow_526_13531" result="shape"/></filter><filter id="p" width="126" height="45" x="-73" y="308" color-interpolation-filters="sRGB" filterUnits="userSpaceOnUse"><feFlood flood-opacity="0" result="BackgroundImageFix"/><feColorMatrix in="SourceAlpha" result="hardAlpha" values="0 0 0 0 0 0 0 0 0 0 0 0 0 0 0 0 0 0 127 0"/><feOffset dy="4"/><feGaussianBlur stdDeviation="3"/><feComposite in2="hardAlpha" operator="out"/><feColorMatrix values="0 0 0 0 0.522179 0 0 0 0 0.522179 0 0 0 0 0.522179 0 0 0 0.14 0"/><feBlend in2="BackgroundImageFix" result="effect1_dropShadow_526_13531"/><feBlend in="SourceGraphic" in2="effect1_dropShadow_526_13531" result="shape"/></filter><filter id="q" width="166" height="45" x="290" y="260" color-interpolation-filters="sRGB" filterUnits="userSpaceOnUse"><feFlood flood-opacity="0" result="BackgroundImageFix"/><feColorMatrix in="SourceAlpha" result="hardAlpha" values="0 0 0 0 0 0 0 0 0 0 0 0 0 0 0 0 0 0 127 0"/><feOffset dy="4"/><feGaussianBlur stdDeviation="3"/><feComposite in2="hardAlpha" operator="out"/><feColorMatrix values="0 0 0 0 0.522179 0 0 0 0 0.522179 0 0 0 0 0.522179 0 0 0 0.14 0"/><feBlend in2="BackgroundImageFix" result="effect1_dropShadow_526_13531"/><feBlend in="SourceGraphic" in2="effect1_dropShadow_526_13531" result="shape"/></filter><clipPath id="b"><rect width="334" height="722.86" x="23" y="19" fill="#fff" rx="24.203"/></clipPath></defs></svg>